<svg xmlns="http://www.w3.org/2000/svg" xmlns:xlink="http://www.w3.org/1999/xlink" width="175.753" height="179.941" viewBox="0 0 175.753 179.941">
  <defs>
    <linearGradient id="linear-gradient" y1="0.5" x2="1" y2="0.5" gradientUnits="objectBoundingBox">
      <stop offset="0" stop-color="#b0b0ff"/>
      <stop offset="1" stop-color="#9b9bea"/>
    </linearGradient>
    <linearGradient id="linear-gradient-2" x1="0" y1="0.5" x2="1" y2="0.5" xlink:href="#linear-gradient"/>
    <radialGradient id="radial-gradient" cx="-1.28" cy="-0.848" r="4.136" gradientTransform="translate(0.006 -0.013) scale(1.177 1.182)" gradientUnits="objectBoundingBox">
      <stop offset="0.036" stop-color="#688cd6"/>
      <stop offset="1" stop-color="#d0d1f5"/>
    </radialGradient>
    <radialGradient id="radial-gradient-2" cx="-4.434" cy="-0.281" r="2.842" gradientTransform="translate(4.393 -0.068) scale(3.2 1.182)" xlink:href="#radial-gradient"/>
    <radialGradient id="radial-gradient-3" cx="-1.426" cy="-1.103" r="4.688" gradientTransform="translate(-4.436 0.015) scale(3.068 1.182)" xlink:href="#radial-gradient"/>
    <radialGradient id="radial-gradient-4" cx="1.164" cy="-0.006" r="1.427" gradientTransform="translate(-0.065 -0.058) scale(1.031 1.182)" xlink:href="#radial-gradient"/>
    <radialGradient id="radial-gradient-5" cx="-0.875" cy="-0.797" r="3.198" gradientTransform="translate(2.597 -2.419) scale(0.892 1.182)" xlink:href="#radial-gradient"/>
    <radialGradient id="radial-gradient-6" cx="1.711" cy="-0.184" r="3.368" gradientTransform="translate(-4.57 -1.712) scale(1.183 1.182)" xlink:href="#radial-gradient"/>
    <radialGradient id="radial-gradient-7" cx="2.353" cy="-0.31" r="6.305" gradientTransform="translate(10.768 -3.333) scale(0.484 1.182)" xlink:href="#radial-gradient"/>
    <radialGradient id="radial-gradient-8" cx="1.768" cy="-0.556" r="2.464" gradientTransform="translate(7.595 -2.536) scale(0.623 1.182)" xlink:href="#radial-gradient"/>
    <radialGradient id="radial-gradient-9" cx="-0.981" cy="0.176" r="2.628" gradientTransform="translate(-3.181 -2.144) scale(1.128 1.182)" xlink:href="#radial-gradient"/>
    <radialGradient id="radial-gradient-10" cx="10.413" cy="1.141" r="0.7" gradientTransform="translate(-618.777 -0.37) scale(16.943 1.182)" xlink:href="#radial-gradient"/>
    <radialGradient id="radial-gradient-11" cx="-9.96" cy="0.247" r="1.562" gradientTransform="translate(-65.956 -0.186) scale(13.014 1.182)" xlink:href="#radial-gradient"/>
    <radialGradient id="radial-gradient-12" cx="1.819" cy="-0.592" r="13.027" gradientTransform="translate(4.721 -2.891) scale(0.113 1.182)" xlink:href="#radial-gradient"/>
    <radialGradient id="radial-gradient-13" cx="-1.542" cy="-6.521" r="12.825" gradientTransform="translate(0.47 0.66) scale(0.353 1.182)" xlink:href="#radial-gradient"/>
    <radialGradient id="radial-gradient-14" cx="2.336" cy="0.779" r="5.607" gradientTransform="translate(3.177 -0.61) scale(0.487 1.182)" xlink:href="#radial-gradient"/>
    <linearGradient id="linear-gradient-3" x1="-5.777" y1="1.033" x2="5.908" y2="0.041" gradientUnits="objectBoundingBox">
      <stop offset="0" stop-color="#fff"/>
      <stop offset="1" stop-color="#fff"/>
    </linearGradient>
    <linearGradient id="linear-gradient-7" x1="0.162" y1="-0.24" x2="1.27" y2="-0.24" xlink:href="#linear-gradient"/>
    <linearGradient id="linear-gradient-8" x1="0" y1="0.5" x2="1" y2="0.5" xlink:href="#linear-gradient"/>
    <linearGradient id="linear-gradient-9" x1="0" y1="0.5" x2="1" y2="0.5" xlink:href="#linear-gradient"/>
  </defs>
  <g id="_01" data-name="01" transform="translate(-288.241 -259.373)">
    <path id="Path_30802" data-name="Path 30802" d="M393.958,313.57a87.2,87.2,0,0,0-56.921,153.266q2.694,2.317,5.568,4.419H445.3q2.876-2.094,5.564-4.419a87.2,87.2,0,0,0-56.91-153.266Zm-20.916,76.062c-.917,0-.777-1.419.135-1.419S373.953,389.632,373.042,389.632Z" transform="translate(-17.166 -50.267)" fill="#d5efe7"/>
    <path id="Path_30803" data-name="Path 30803" d="M404.941,2254.747H393.485s-8.036,1.827-.386,6.874,18.506,1.813,20.452,12.649c1.153,6.418,23.263-10.827,43.8-1.326s22-3.756,40.826,1.326,71.636-8.34,38.955-32.2C525.977,2233.925,404.941,2254.747,404.941,2254.747Z" transform="translate(-94.19 -1837.161)" fill="#5e9d9a"/>
    <path id="Path_30804" data-name="Path 30804" d="M561.25,466.651a1.3,1.3,0,0,1,1.139-.408c2.235.07,4.646,1.258,6.595-.4l-.086.442,2.985-3.109a10.026,10.026,0,0,1,3.2-2.562c2.247-.878,4.6.59,6.574,2.439.915.858,1.853,1.835,2.928,1.93,1.756.156,3.168-2.026,4.759-3.161a4.463,4.463,0,0,1,4.742-.41c1.948,1,3.554,3.406,5.592,3.826,1.717.354,3.437-.782,5.164-.577,2.646.314,4.654,3.6,6.379,6.653l-16.7,1.3-8.406.656c-2.976.233-6.021.453-8.876-.84-1.157-.524-2.26-1.289-3.411-1.847-3.912-1.9-8.14-1.342-12.212-2.174a.768.768,0,0,1-.445-.207A1.4,1.4,0,0,1,561.25,466.651Zm-11.259,66.721a.7.7,0,0,1,.609-.218c1.194.037,2.481.672,3.522-.213l-.046.236,1.594-1.66a5.355,5.355,0,0,1,1.711-1.368c1.2-.469,2.457.315,3.511,1.3a3.08,3.08,0,0,0,1.564,1.031c.938.083,1.691-1.082,2.541-1.688a2.382,2.382,0,0,1,2.532-.219c1.04.532,1.9,1.82,2.986,2.044.917.189,1.836-.418,2.758-.308,1.413.168,2.485,1.922,3.406,3.553l-8.918.7-4.489.35a9.4,9.4,0,0,1-4.74-.449c-.618-.28-1.207-.688-1.821-.986-2.089-1.015-4.347-.716-6.521-1.161a.407.407,0,0,1-.237-.11A.746.746,0,0,1,549.991,533.371ZM504.08,495.209a1.668,1.668,0,0,0-1.1-.259c-2.15.044-4.468.8-6.343-.252l.083.281L493.854,493a10.055,10.055,0,0,0-3.081-1.628c-2.16-.558-4.425.375-6.322,1.549a6.323,6.323,0,0,1-2.815,1.226c-1.688.1-3.046-1.287-4.576-2.008a6.18,6.18,0,0,0-4.56-.261c-1.873.634-3.418,2.164-5.377,2.431-1.651.225-3.306-.5-4.967-.367-2.545.2-4.477,2.286-6.135,4.227l16.06.829,8.084.417a25.2,25.2,0,0,0,8.537-.534c1.112-.333,2.174-.819,3.28-1.173,3.762-1.208,7.829-.853,11.744-1.381a.941.941,0,0,0,.427-.131A.653.653,0,0,0,504.08,495.209Zm94.877-3.827a1.778,1.778,0,0,0-1.17-.276c-2.3.047-4.772.854-6.775-.27l.088.3-3.066-2.11a10.718,10.718,0,0,0-3.291-1.738c-2.307-.6-4.726.4-6.753,1.655a6.741,6.741,0,0,1-3.007,1.31c-1.8.106-3.253-1.375-4.888-2.145a6.6,6.6,0,0,0-4.871-.279c-2,.677-3.651,2.311-5.744,2.6-1.763.24-3.531-.531-5.3-.392-2.718.213-4.781,2.442-6.552,4.514l17.154.885,8.634.445c3.057.157,6.185.307,9.118-.57,1.189-.355,2.322-.875,3.5-1.253,4.018-1.29,8.362-.911,12.544-1.476a1.007,1.007,0,0,0,.456-.14A.7.7,0,0,0,598.958,491.382Zm-83.8-32.769a1.45,1.45,0,0,1-.629.193c-5.766.777-11.747.252-17.284,2.03-1.63.525-3.188,1.239-4.827,1.729-4.042,1.208-8.352,1-12.564.786q-2.566-.135-5.137-.265a87.288,87.288,0,0,1,16.651-11.563,8.614,8.614,0,0,1,4.1-.009A14.789,14.789,0,0,1,500,453.908q2.108,1.454,4.226,2.91l-.121-.418c2.757,1.549,6.17.44,9.331.373a2.463,2.463,0,0,1,1.612.381A.965.965,0,0,1,515.16,458.613Z" transform="translate(-155.611 -177.982)" fill="#fff" opacity="0.75"/>
    <path id="Path_30805" data-name="Path 30805" d="M1369.445,591.14s6.9,76.721-44.575,107.254c0,0,2.955,4.414,15.935.271s31.091-32.253,31.178-107.027Z" transform="translate(-961.452 -307.708)" fill="#5e9d9a"/>
    <path id="Path_30806" data-name="Path 30806" d="M1868.931,565.751a4.476,4.476,0,1,1-3.53-5.255A4.476,4.476,0,0,1,1868.931,565.751Z" transform="translate(-1457.831 -279.207)" fill="#5e9d9a"/>
    <path id="Path_30807" data-name="Path 30807" d="M1612.311,526.592a3.581,3.581,0,1,1-2.824-4.2A3.581,3.581,0,0,1,1612.311,526.592Zm-8.16-3.192s-17.264-6.74-24.763,13.454C1573.247,533.4,1587.419,507.068,1604.151,523.4Z" transform="translate(-1196.158 -239.968)" fill="#5e9d9a"/>
    <path id="Path_30808" data-name="Path 30808" d="M1391.45,414.586s26.2-12.357,38.206,6.019C1438.946,415.125,1416.572,392.546,1391.45,414.586Z" transform="translate(-1023.204 -135.169)" fill="#5e9d9a"/>
    <path id="Path_30809" data-name="Path 30809" d="M1982.931,523.987s-16.047-24.114-35.823-14.583C1941.984,499.914,1972.806,492.137,1982.931,523.987Z" transform="translate(-1538.037 -224.183)" fill="#5e9d9a"/>
    <path id="Path_30810" data-name="Path 30810" d="M1939.328,425.164s6.392-14.565,28.14-14.4C1967.469,410.766,1939.071,403.15,1939.328,425.164Z" transform="translate(-1531.349 -139.233)" fill="#5e9d9a"/>
    <path id="Path_30811" data-name="Path 30811" d="M1926.87,282.1s.909-30.441,31.068-20.868C1957.939,261.236,1938.2,264.66,1926.87,282.1Z" transform="translate(-1519.796 0)" fill="#5e9d9a"/>
    <g id="Group_28321" data-name="Group 28321" transform="translate(288.241 386.033)">
      <path id="Path_30812" data-name="Path 30812" d="M495.377,2038.679h-70.09c-4.026,0-11.386-18.53,1.9-20.96s19.121,12.388,30.294,4.858,20.385-22.346,27.316-14.331S508.736,2029.763,495.377,2038.679Z" transform="translate(-410.069 -2005.936)" fill="#5e9d9a"/>
      <path id="Path_30813" data-name="Path 30813" d="M374.57,2129.019H299.434s-17.488-5.829-8.744-10.364,17.488,4.858,25.585-3.239,5.506-16.517,16.517-9.392,17.488,17.071,24.613,10.155S394.325,2113.15,374.57,2129.019Z" transform="translate(-288.241 -2096.276)" fill="#b9efde"/>
      <path id="Path_30814" data-name="Path 30814" d="M1166.844,2205.856s4.4-9.122,1.477-9.025S1165.364,2201.14,1166.844,2205.856Z" transform="translate(-1102.236 -2182.987)" fill="url(#linear-gradient)"/>
      <path id="Path_30815" data-name="Path 30815" d="M1165.982,2201.953a.9.9,0,0,0,.469-.659c.13-.575-.026-1.179.145-1.747a1.4,1.4,0,0,1,.5-.71,8.645,8.645,0,0,0,.723-.5c.207-.2.213-.376-.017-.533-1.462.35-2.007,1.97-1.895,4.184C1165.932,2201.973,1165.959,2201.964,1165.982,2201.953Z" transform="translate(-1102.246 -2183.886)" fill="#f2faff" opacity="0.5"/>
      <path id="Path_30816" data-name="Path 30816" d="M1044.706,2235.151s-6.21-9.541-9.882-5.912S1044.706,2235.151,1044.706,2235.151Z" transform="translate(-980.097 -2212.281)" fill="#ddf3fb"/>
      <path id="Path_30817" data-name="Path 30817" d="M1045.01,2229.2a.479.479,0,0,0,.271.173,1.534,1.534,0,0,0,.58-.089,5.674,5.674,0,0,1,1.206-.226,3.319,3.319,0,0,1,1.3.311c.738.307,1.308.916,2.057,1.188a2.556,2.556,0,0,0,.473.112C1048.994,2228.918,1046.743,2227.679,1045.01,2229.2Z" transform="translate(-990.129 -2212.371)" fill="#f2faff" opacity="0.2"/>
      <path id="Path_30818" data-name="Path 30818" d="M1179.15,2237.082s13.891-4.945,9.778-6.4S1179.15,2237.082,1179.15,2237.082Z" transform="translate(-1114.542 -2214.213)" fill="#ddf3fb"/>
      <path id="Path_30819" data-name="Path 30819" d="M1231.872,2233.539a3.39,3.39,0,0,0,.967-.783,3.709,3.709,0,0,1,.992-.692c.522-.239,1.1-.222,1.637-.421.186-.07.4-.186.426-.393a9.389,9.389,0,0,0-4.274,2.37A1.76,1.76,0,0,0,1231.872,2233.539Z" transform="translate(-1163.206 -2214.91)" fill="#f2faff" opacity="0.2"/>
      <path id="Path_30820" data-name="Path 30820" d="M600.012,2155.8s6.443-13.358,2.163-13.217S597.844,2148.9,600.012,2155.8Z" transform="translate(-576.095 -2132.675)" fill="#b9efde"/>
      <path id="Path_30821" data-name="Path 30821" d="M598.762,2150.082a1.314,1.314,0,0,0,.688-.965c.19-.842-.037-1.727.212-2.558a2.057,2.057,0,0,1,.732-1.04,12.56,12.56,0,0,0,1.059-.739c.3-.286.311-.552-.025-.78-2.141.512-2.94,2.885-2.775,6.127C598.689,2150.111,598.727,2150.1,598.762,2150.082Z" transform="translate(-576.123 -2133.988)" fill="#f2faff" opacity="0.5"/>
      <path id="Path_30822" data-name="Path 30822" d="M421.139,2198.7s-9.095-13.972-14.471-8.657S421.139,2198.7,421.139,2198.7Z" transform="translate(-397.223 -2175.574)" fill="#b9efde"/>
      <path id="Path_30823" data-name="Path 30823" d="M421.58,2189.991a.708.708,0,0,0,.4.253,2.223,2.223,0,0,0,.848-.131,8.331,8.331,0,0,1,1.767-.331,4.869,4.869,0,0,1,1.9.454c1.081.449,1.915,1.341,3.012,1.74a3.618,3.618,0,0,0,.693.163C427.415,2189.581,424.119,2187.768,421.58,2189.991Z" transform="translate(-411.91 -2175.714)" fill="#f2faff" opacity="0.2"/>
      <path id="Path_30824" data-name="Path 30824" d="M618.03,2201.528s20.343-7.242,14.319-9.379S618.03,2201.528,618.03,2201.528Z" transform="translate(-594.114 -2178.4)" fill="#ddf3fb"/>
      <path id="Path_30825" data-name="Path 30825" d="M695.248,2196.342a4.962,4.962,0,0,0,1.416-1.146,5.425,5.425,0,0,1,1.453-1.014c.764-.349,1.617-.326,2.4-.617.273-.1.582-.272.624-.575-2.118.34-4.329,1.793-6.26,3.471A2.6,2.6,0,0,0,695.248,2196.342Z" transform="translate(-665.391 -2179.425)" fill="#f2faff" opacity="0.2"/>
      <path id="Path_30826" data-name="Path 30826" d="M1203.32,2087.9a1.758,1.758,0,1,0,1.758-1.758A1.759,1.759,0,0,0,1203.32,2087.9Z" transform="translate(-1136.959 -2080.323)" fill="url(#linear-gradient-2)"/>
      <path id="Path_30827" data-name="Path 30827" d="M879.55,2326.679a1.819,1.819,0,1,0,1.819-1.819A1.819,1.819,0,0,0,879.55,2326.679Z" transform="translate(-836.668 -2301.731)" fill="#ddf3fb"/>
      <path id="Path_30828" data-name="Path 30828" d="M1324.48,2326.448a1.6,1.6,0,1,0,1.6-1.6A1.6,1.6,0,0,0,1324.48,2326.448Z" transform="translate(-1249.332 -2301.722)" fill="#007ebc"/>
      <circle id="Ellipse_7113" data-name="Ellipse 7113" cx="1.693" cy="1.693" r="1.693" transform="translate(41.739 16.519)" fill="#007ebc"/>
      <path id="Path_30829" data-name="Path 30829" d="M498.09,2360.876a1.536,1.536,0,1,0,1.536-1.536A1.535,1.535,0,0,0,498.09,2360.876Z" transform="translate(-482.872 -2333.711)" fill="#fff"/>
    </g>
    <g id="Group_28352" data-name="Group 28352" transform="translate(312.248 271.31)">
      <path id="Path_30830" data-name="Path 30830" d="M695.366,437.064V567.542a5.718,5.718,0,0,1-3.814,5.327,5.282,5.282,0,0,1-1.392.3s-59.264,7.089-59.5,7.082c-2.973-.1-11.391-.994-11.391-7.469l2.78-136.386c.764-12.093,7.681-11.562,7.915-11.544l60.194,6.59a5.278,5.278,0,0,1,1.392.3A5.727,5.727,0,0,1,695.366,437.064Z" transform="translate(-619.27 -424.779)" fill="#152056"/>
      <path id="Path_30831" data-name="Path 30831" d="M766.617,434.722V568.7a5.862,5.862,0,0,1-3.814,5.469,5.2,5.2,0,0,1-1.392.307l-64.883,4.954a6.306,6.306,0,0,1-.692.015,5.372,5.372,0,0,1-5.316-5.367V429.344a5.38,5.38,0,0,1,5.316-5.367,6.291,6.291,0,0,1,.692.015l64.883,4.954a5.148,5.148,0,0,1,1.392.307A5.874,5.874,0,0,1,766.617,434.722Z" transform="translate(-685.353 -423.974)" fill="#29477c"/>
      <path id="Path_30832" data-name="Path 30832" d="M789.58,459.61V593.589a3.909,3.909,0,0,1-2.521,3.635,3.366,3.366,0,0,1-.886.2l-64.879,4.953c-.114.01-.22.013-.331.013-.05,0-.1,0-.154,0a3.432,3.432,0,0,1-3.428-3.419V454.232a3.435,3.435,0,0,1,3.435-3.419c.05,0,.1,0,.151,0,.107,0,.214,0,.324.013l64.886,4.953a3.291,3.291,0,0,1,.869.194A3.914,3.914,0,0,1,789.58,459.61Z" transform="translate(-710.265 -448.864)" fill="#d5efe7"/>
      <g id="Group_28343" data-name="Group 28343" transform="translate(11.741 9.673)" opacity="0.67">
        <path id="Path_30833" data-name="Path 30833" d="M843.815,566.315V603.57c0,2.548-1.746,4.607-3.891,4.577l-54.252-.76a4.875,4.875,0,0,1-4.5-5.07V562.04a4.387,4.387,0,0,1,4.5-4.672l54.252,4.029C842.069,561.554,843.815,563.768,843.815,566.315Z" transform="translate(-781.17 -557.356)" fill="#71bca5"/>
        <path id="Path_30834" data-name="Path 30834" d="M818.653,641.022a2.085,2.085,0,0,1-1.923-2.172V598.7a1.877,1.877,0,0,1,1.923-2l54.252,3.842a2.019,2.019,0,0,1,1.672,2.108v37.362a1.815,1.815,0,0,1-1.672,1.961Z" transform="translate(-814.151 -593.838)" fill="#fff"/>
        <path id="Path_30835" data-name="Path 30835" d="M948.185,1006.35a1.551,1.551,0,0,1-1.51,1.649,1.68,1.68,0,0,1-1.515-1.751,1.55,1.55,0,0,1,1.515-1.649A1.682,1.682,0,0,1,948.185,1006.35Z" transform="translate(-933.267 -972.164)" fill="#bdbff1"/>
        <path id="Path_30836" data-name="Path 30836" d="M1298.18,1053.028l6.575.112V1040.1l-6.575-.221Z" transform="translate(-1260.687 -1004.887)" fill="#a7abec"/>
        <path id="Path_30837" data-name="Path 30837" d="M1011.2,1043.667l-6.93-.117v-13.5l6.93.232Z" transform="translate(-988.091 -995.77)" fill="#a7abec"/>
        <path id="Path_30838" data-name="Path 30838" d="M1108.159,975.7v13.875l-15.389-.261V975.175l.9.031v-1.3l1.506.054v-1.216l1.851.07v-1.021l1.41.054v-.385l4.188.165v.383l1.39.054v1.012l1.811.068v1.2l1.462.053v1.28Z" transform="translate(-1070.173 -941.429)" fill="url(#radial-gradient)"/>
        <path id="Path_30839" data-name="Path 30839" d="M1021.131,1047.361l-5.6-.176v-.586l5.6.179Z" transform="translate(-998.534 -1011.12)" fill="#cacbf4"/>
        <path id="Path_30840" data-name="Path 30840" d="M1021.131,1061.215l-5.6-.169v-.586l5.6.173Z" transform="translate(-998.534 -1023.975)" fill="#cacbf4"/>
        <path id="Path_30841" data-name="Path 30841" d="M1021.131,1075.068l-5.6-.162v-.586l5.6.165Z" transform="translate(-998.534 -1036.83)" fill="#cacbf4"/>
        <path id="Path_30842" data-name="Path 30842" d="M1021.131,1088.921l-5.6-.155v-.587l5.6.159Z" transform="translate(-998.534 -1049.685)" fill="#cacbf4"/>
        <path id="Path_30843" data-name="Path 30843" d="M1021.131,1102.774l-5.6-.147v-.587l5.6.152Z" transform="translate(-998.534 -1062.54)" fill="#cacbf4"/>
        <path id="Path_30844" data-name="Path 30844" d="M1021.131,1116.628l-5.6-.141v-.587l5.6.145Z" transform="translate(-998.534 -1075.394)" fill="#cacbf4"/>
        <path id="Path_30845" data-name="Path 30845" d="M1021.131,1130.48l-5.6-.133v-.587l5.6.138Z" transform="translate(-998.534 -1088.249)" fill="#cacbf4"/>
        <path id="Path_30846" data-name="Path 30846" d="M1021.131,1144.334l-5.6-.127v-.587l5.6.131Z" transform="translate(-998.534 -1101.104)" fill="#cacbf4"/>
        <path id="Path_30847" data-name="Path 30847" d="M1021.131,1158.187l-5.6-.12v-.587l5.6.125Z" transform="translate(-998.534 -1113.959)" fill="#cacbf4"/>
        <path id="Path_30848" data-name="Path 30848" d="M1021.131,1172.04l-5.6-.113v-.587l5.6.117Z" transform="translate(-998.534 -1126.814)" fill="#cacbf4"/>
        <path id="Path_30849" data-name="Path 30849" d="M1021.131,1185.893l-5.6-.107v-.587l5.6.111Z" transform="translate(-998.534 -1139.669)" fill="#cacbf4"/>
        <path id="Path_30850" data-name="Path 30850" d="M1021.131,1199.746l-5.6-.1v-.587l5.6.1Z" transform="translate(-998.534 -1152.524)" fill="#cacbf4"/>
        <path id="Path_30851" data-name="Path 30851" d="M1309.329,1056.578l-5.319-.167v-.571l5.319.17Z" transform="translate(-1266.094 -1019.69)" fill="#cacbf4"/>
        <path id="Path_30852" data-name="Path 30852" d="M1309.329,1070.072l-5.319-.16v-.572l5.319.164Z" transform="translate(-1266.094 -1032.211)" fill="#cacbf4"/>
        <path id="Path_30853" data-name="Path 30853" d="M1309.329,1083.575l-5.319-.154v-.571l5.319.157Z" transform="translate(-1266.094 -1044.741)" fill="#cacbf4"/>
        <path id="Path_30854" data-name="Path 30854" d="M1309.329,1097.069l-5.319-.147v-.572l5.319.151Z" transform="translate(-1266.094 -1057.262)" fill="#cacbf4"/>
        <path id="Path_30855" data-name="Path 30855" d="M1309.329,1110.572l-5.319-.14v-.572l5.319.144Z" transform="translate(-1266.094 -1069.792)" fill="#cacbf4"/>
        <path id="Path_30856" data-name="Path 30856" d="M1309.329,1124.066l-5.319-.134v-.571l5.319.138Z" transform="translate(-1266.094 -1082.313)" fill="#cacbf4"/>
        <path id="Path_30857" data-name="Path 30857" d="M1309.329,1137.568l-5.319-.127v-.572l5.319.131Z" transform="translate(-1266.094 -1094.844)" fill="#cacbf4"/>
        <path id="Path_30858" data-name="Path 30858" d="M1309.329,1151.072l-5.319-.12v-.572l5.319.124Z" transform="translate(-1266.094 -1107.374)" fill="#cacbf4"/>
        <path id="Path_30859" data-name="Path 30859" d="M1309.329,1164.566l-5.319-.115v-.572l5.319.118Z" transform="translate(-1266.094 -1119.895)" fill="#cacbf4"/>
        <path id="Path_30860" data-name="Path 30860" d="M1309.329,1178.069l-5.319-.107v-.572l5.319.112Z" transform="translate(-1266.094 -1132.425)" fill="#cacbf4"/>
        <path id="Path_30861" data-name="Path 30861" d="M1309.329,1191.563l-5.319-.1v-.572l5.319.105Z" transform="translate(-1266.094 -1144.946)" fill="#cacbf4"/>
        <path id="Path_30862" data-name="Path 30862" d="M1309.329,1205.066l-5.319-.094v-.572l5.319.1Z" transform="translate(-1266.094 -1157.476)" fill="#cacbf4"/>
        <path id="Path_30863" data-name="Path 30863" d="M1055.7,1124.417l-3.45-.087v6.721l3.45.059Z" transform="translate(-1032.591 -1083.213)" fill="#bdbff1"/>
        <path id="Path_30864" data-name="Path 30864" d="M1064.471,1139.443l-.711-.017v-.806l.711.017Z" transform="translate(-1043.267 -1096.467)" fill="#cacbf4"/>
        <path id="Path_30865" data-name="Path 30865" d="M1076.8,1139.732l-.708-.016v-.806l.708.017Z" transform="translate(-1054.703 -1096.736)" fill="#cacbf4"/>
        <path id="Path_30866" data-name="Path 30866" d="M1064.471,1154.772l-.711-.015v-.807l.711.016Z" transform="translate(-1043.267 -1110.685)" fill="#cacbf4"/>
        <path id="Path_30867" data-name="Path 30867" d="M1076.8,1155.051l-.708-.016v-.8l.708.016Z" transform="translate(-1054.703 -1110.945)" fill="#cacbf4"/>
        <path id="Path_30868" data-name="Path 30868" d="M1064.471,1170.11l-.711-.015v-.806l.711.015Z" transform="translate(-1043.267 -1124.913)" fill="#cacbf4"/>
        <path id="Path_30869" data-name="Path 30869" d="M1076.8,1170.37l-.708-.015v-.805l.708.015Z" transform="translate(-1054.703 -1125.154)" fill="#cacbf4"/>
        <path id="Path_30870" data-name="Path 30870" d="M1064.471,1185.44l-.711-.013v-.806l.711.014Z" transform="translate(-1043.267 -1139.131)" fill="#cacbf4"/>
        <path id="Path_30871" data-name="Path 30871" d="M1076.8,1185.68l-.708-.014v-.806l.708.015Z" transform="translate(-1054.703 -1139.353)" fill="#cacbf4"/>
        <g id="Group_28322" data-name="Group 28322" transform="translate(20.493 46.601)">
          <path id="Path_30872" data-name="Path 30872" d="M1064.471,1200.769l-.711-.012v-.807l.711.014Z" transform="translate(-1063.76 -1199.95)" fill="#cacbf4"/>
          <path id="Path_30873" data-name="Path 30873" d="M1076.8,1201l-.708-.012v-.806l.708.013Z" transform="translate(-1075.196 -1200.163)" fill="#cacbf4"/>
        </g>
        <g id="Group_28323" data-name="Group 28323" transform="translate(26.167 32.875)">
          <path id="Path_30874" data-name="Path 30874" d="M1166.924,1026.173l-.793-.015V1011.53l.793.028Z" transform="translate(-1164.38 -1011.468)" fill="#cacbf4"/>
          <path id="Path_30875" data-name="Path 30875" d="M1193.33,1027.078l-.79-.014V1012.47l.79.028Z" transform="translate(-1188.875 -1012.34)" fill="#cacbf4"/>
          <path id="Path_30876" data-name="Path 30876" d="M1142.8,1025.353l-.8-.014V1010.68l.8.028Z" transform="translate(-1142 -1010.68)" fill="#cacbf4"/>
        </g>
        <g id="Group_28324" data-name="Group 28324" transform="translate(31.936 33.08)">
          <path id="Path_30877" data-name="Path 30877" d="M1221.54,1028.065l.786.014v-14.541l-.786-.028Z" transform="translate(-1221.54 -1013.51)" fill="#cacbf4"/>
          <path id="Path_30878" data-name="Path 30878" d="M1245.33,1028.874l.782.014v-14.51l-.782-.028Z" transform="translate(-1243.605 -1014.289)" fill="#cacbf4"/>
        </g>
        <g id="Group_28331" data-name="Group 28331" transform="translate(39.644 8.246)">
          <path id="Path_30879" data-name="Path 30879" d="M1335.851,895.3l-8.021-.136V869.63l8.021.394Z" transform="translate(-1327.83 -855.23)" fill="url(#radial-gradient-2)"/>
          <path id="Path_30880" data-name="Path 30880" d="M1350.971,671.06s-.327,3.892-1.523,5.3-4.681,1.915-4.681,5.542-.128,3.62-.128,3.62l6.657.326V671.083Zm-3.139,7.467a4.889,4.889,0,0,0,1.174-.716l.525.825C1348.716,678.594,1347.8,678.543,1347.832,678.527Zm2.021.126-.613-1.048-.017.015q.146-.136.273-.277l.95,1.339Zm.906-.22-1.031-1.366a5.073,5.073,0,0,0,.373-.551l.658.672Zm0-1.732-.518-.437a5.028,5.028,0,0,0,.518-1.573Z" transform="translate(-1343.421 -671.06)" fill="#a7abec"/>
          <path id="Path_30881" data-name="Path 30881" d="M1343.725,891.618l-1.815-.083V890.45l1.815.086Z" transform="translate(-1340.889 -874.54)" fill="#cacbf4"/>
          <path id="Path_30882" data-name="Path 30882" d="M1372.756,892.985l-1.806-.083V891.82l1.806.086Z" transform="translate(-1367.823 -875.811)" fill="#cacbf4"/>
          <path id="Path_30883" data-name="Path 30883" d="M1401.626,894.351l-1.8-.083V893.19l1.8.085Z" transform="translate(-1394.609 -877.081)" fill="#cacbf4"/>
          <path id="Path_30884" data-name="Path 30884" d="M1343.725,914.6l-1.815-.079V913.44l1.815.082Z" transform="translate(-1340.889 -895.862)" fill="#cacbf4"/>
          <path id="Path_30885" data-name="Path 30885" d="M1372.756,915.911l-1.806-.079V914.75l1.806.082Z" transform="translate(-1367.823 -897.078)" fill="#cacbf4"/>
          <path id="Path_30886" data-name="Path 30886" d="M1401.626,917.218l-1.8-.079V916.06l1.8.08Z" transform="translate(-1394.609 -898.293)" fill="#cacbf4"/>
          <path id="Path_30887" data-name="Path 30887" d="M1343.725,937.6l-1.815-.075V936.44l1.815.078Z" transform="translate(-1340.889 -917.195)" fill="#cacbf4"/>
          <path id="Path_30888" data-name="Path 30888" d="M1372.756,938.847l-1.806-.075V937.69l1.806.078Z" transform="translate(-1367.823 -918.354)" fill="#cacbf4"/>
          <path id="Path_30889" data-name="Path 30889" d="M1401.626,940.084l-1.8-.075V938.93l1.8.077Z" transform="translate(-1394.609 -919.504)" fill="#cacbf4"/>
          <path id="Path_30890" data-name="Path 30890" d="M1343.725,960.586l-1.815-.072V959.43l1.815.074Z" transform="translate(-1340.889 -938.517)" fill="#cacbf4"/>
          <path id="Path_30891" data-name="Path 30891" d="M1372.756,961.773l-1.806-.072V960.62l1.806.074Z" transform="translate(-1367.823 -939.621)" fill="#cacbf4"/>
          <path id="Path_30892" data-name="Path 30892" d="M1401.626,962.95l-1.8-.071V961.8l1.8.073Z" transform="translate(-1394.609 -940.716)" fill="#cacbf4"/>
          <path id="Path_30893" data-name="Path 30893" d="M1343.725,983.573l-1.815-.068V982.42l1.815.07Z" transform="translate(-1340.889 -959.84)" fill="#cacbf4"/>
          <path id="Path_30894" data-name="Path 30894" d="M1372.756,984.7l-1.806-.068V983.55l1.806.07Z" transform="translate(-1367.823 -960.888)" fill="#cacbf4"/>
          <path id="Path_30895" data-name="Path 30895" d="M1401.626,985.816l-1.8-.067V984.67l1.8.07Z" transform="translate(-1394.609 -961.927)" fill="#cacbf4"/>
          <path id="Path_30896" data-name="Path 30896" d="M1343.725,1006.559l-1.815-.064v-1.085l1.815.067Z" transform="translate(-1340.889 -981.163)" fill="#cacbf4"/>
          <path id="Path_30897" data-name="Path 30897" d="M1372.756,1007.626l-1.806-.064v-1.082l1.806.067Z" transform="translate(-1367.823 -982.155)" fill="#cacbf4"/>
          <path id="Path_30898" data-name="Path 30898" d="M1401.626,1008.682l-1.8-.063v-1.079l1.8.066Z" transform="translate(-1394.609 -983.139)" fill="#cacbf4"/>
          <path id="Path_30899" data-name="Path 30899" d="M1343.725,1029.554l-1.815-.06v-1.084l1.815.062Z" transform="translate(-1340.889 -1002.495)" fill="#cacbf4"/>
          <path id="Path_30900" data-name="Path 30900" d="M1372.756,1030.552l-1.806-.06v-1.082l1.806.063Z" transform="translate(-1367.823 -1003.422)" fill="#cacbf4"/>
          <path id="Path_30901" data-name="Path 30901" d="M1401.626,1031.549l-1.8-.059v-1.079l1.8.062Z" transform="translate(-1394.609 -1004.35)" fill="#cacbf4"/>
          <path id="Path_30902" data-name="Path 30902" d="M1343.725,1052.541l-1.815-.057V1051.4l1.815.059Z" transform="translate(-1340.889 -1023.818)" fill="#cacbf4"/>
          <path id="Path_30903" data-name="Path 30903" d="M1372.756,1053.479l-1.806-.057v-1.082l1.806.059Z" transform="translate(-1367.823 -1024.69)" fill="#cacbf4"/>
          <path id="Path_30904" data-name="Path 30904" d="M1401.626,1054.415l-1.8-.056v-1.079l1.8.059Z" transform="translate(-1394.609 -1025.561)" fill="#cacbf4"/>
          <g id="Group_28325" data-name="Group 28325" transform="translate(1.021 29.249)">
            <path id="Path_30905" data-name="Path 30905" d="M1343.725,1075.528l-1.815-.053v-1.085l1.815.055Z" transform="translate(-1341.91 -1074.39)" fill="#cacbf4"/>
            <path id="Path_30906" data-name="Path 30906" d="M1372.756,1076.414l-1.806-.053v-1.081l1.806.054Z" transform="translate(-1368.844 -1075.216)" fill="#cacbf4"/>
            <path id="Path_30907" data-name="Path 30907" d="M1401.626,1077.291l-1.8-.052v-1.078l1.8.054Z" transform="translate(-1395.63 -1076.032)" fill="#cacbf4"/>
          </g>
          <g id="Group_28326" data-name="Group 28326" transform="translate(1.021 30.917)">
            <path id="Path_30908" data-name="Path 30908" d="M1343.725,1098.524l-1.815-.049v-1.084l1.815.051Z" transform="translate(-1341.91 -1097.39)" fill="#cacbf4"/>
            <path id="Path_30909" data-name="Path 30909" d="M1372.756,1099.341l-1.806-.049v-1.081l1.806.051Z" transform="translate(-1368.844 -1098.15)" fill="#cacbf4"/>
            <path id="Path_30910" data-name="Path 30910" d="M1401.626,1100.157l-1.8-.049v-1.078l1.8.051Z" transform="translate(-1395.63 -1098.911)" fill="#cacbf4"/>
          </g>
          <g id="Group_28327" data-name="Group 28327" transform="translate(1.021 32.585)">
            <path id="Path_30911" data-name="Path 30911" d="M1343.725,1121.51l-1.815-.046v-1.084l1.815.048Z" transform="translate(-1341.91 -1120.38)" fill="#cacbf4"/>
            <path id="Path_30912" data-name="Path 30912" d="M1372.756,1122.266l-1.806-.044v-1.082l1.806.047Z" transform="translate(-1368.844 -1121.085)" fill="#cacbf4"/>
            <path id="Path_30913" data-name="Path 30913" d="M1401.626,1123.023l-1.8-.045V1121.9l1.8.047Z" transform="translate(-1395.63 -1121.79)" fill="#cacbf4"/>
          </g>
          <g id="Group_28328" data-name="Group 28328" transform="translate(1.021 34.252)">
            <path id="Path_30914" data-name="Path 30914" d="M1343.725,1144.5l-1.815-.041v-1.085l1.815.044Z" transform="translate(-1341.91 -1143.37)" fill="#cacbf4"/>
            <path id="Path_30915" data-name="Path 30915" d="M1372.756,1145.193l-1.806-.041v-1.082l1.806.044Z" transform="translate(-1368.844 -1144.019)" fill="#cacbf4"/>
            <path id="Path_30916" data-name="Path 30916" d="M1401.626,1145.89l-1.8-.041v-1.079l1.8.043Z" transform="translate(-1395.63 -1144.668)" fill="#cacbf4"/>
          </g>
          <g id="Group_28329" data-name="Group 28329" transform="translate(1.021 35.919)">
            <path id="Path_30917" data-name="Path 30917" d="M1343.725,1167.483l-1.815-.038v-1.085l1.815.041Z" transform="translate(-1341.91 -1166.36)" fill="#cacbf4"/>
            <path id="Path_30918" data-name="Path 30918" d="M1372.756,1168.119l-1.806-.037V1167l1.806.04Z" transform="translate(-1368.844 -1166.953)" fill="#cacbf4"/>
            <path id="Path_30919" data-name="Path 30919" d="M1401.626,1168.756l-1.8-.037v-1.079l1.8.04Z" transform="translate(-1395.63 -1167.547)" fill="#cacbf4"/>
          </g>
          <g id="Group_28330" data-name="Group 28330" transform="translate(1.021 37.587)">
            <path id="Path_30920" data-name="Path 30920" d="M1343.725,1190.478l-1.815-.034v-1.084l1.815.036Z" transform="translate(-1341.91 -1189.36)" fill="#cacbf4"/>
            <path id="Path_30921" data-name="Path 30921" d="M1372.756,1191.055l-1.806-.033v-1.081l1.806.036Z" transform="translate(-1368.844 -1189.898)" fill="#cacbf4"/>
            <path id="Path_30922" data-name="Path 30922" d="M1401.626,1191.622l-1.8-.033v-1.079l1.8.036Z" transform="translate(-1395.63 -1190.427)" fill="#cacbf4"/>
          </g>
        </g>
        <g id="Group_28332" data-name="Group 28332" transform="translate(9.682 24.595)">
          <path id="Path_30923" data-name="Path 30923" d="M919.971,1008.321l-5.291-.089V992.09l5.291.194Z" transform="translate(-914.68 -985.158)" fill="url(#radial-gradient-3)"/>
          <path id="Path_30924" data-name="Path 30924" d="M931.244,1024.41l-3.564-.06v-14.9l3.564.125Z" transform="translate(-926.737 -1001.259)" fill="#bdbff1"/>
          <path id="Path_30925" data-name="Path 30925" d="M933.914,1022.718l-3.114-.1v-.253l3.114.105Z" transform="translate(-929.631 -1013.233)" fill="#cacbf4"/>
          <path id="Path_30926" data-name="Path 30926" d="M933.914,1032.025l-3.114-.1v-.253l3.114.1Z" transform="translate(-929.631 -1021.868)" fill="#cacbf4"/>
          <path id="Path_30927" data-name="Path 30927" d="M933.914,1041.333l-3.114-.1v-.253l3.114.1Z" transform="translate(-929.631 -1030.502)" fill="#cacbf4"/>
          <path id="Path_30928" data-name="Path 30928" d="M933.914,1050.64l-3.114-.1v-.253l3.114.1Z" transform="translate(-929.631 -1039.137)" fill="#cacbf4"/>
          <path id="Path_30929" data-name="Path 30929" d="M933.914,1059.947l-3.114-.094v-.253l3.114.095Z" transform="translate(-929.631 -1047.772)" fill="#cacbf4"/>
          <path id="Path_30930" data-name="Path 30930" d="M933.914,1069.254l-3.114-.091v-.253l3.114.093Z" transform="translate(-929.631 -1056.407)" fill="#cacbf4"/>
          <path id="Path_30931" data-name="Path 30931" d="M933.914,1078.553l-3.114-.089v-.254l3.114.091Z" transform="translate(-929.631 -1065.032)" fill="#cacbf4"/>
          <path id="Path_30932" data-name="Path 30932" d="M933.914,1087.87l-3.114-.087v-.253l3.114.087Z" transform="translate(-929.631 -1073.677)" fill="#cacbf4"/>
          <path id="Path_30933" data-name="Path 30933" d="M933.914,1097.168l-3.114-.084v-.254l3.114.086Z" transform="translate(-929.631 -1082.302)" fill="#cacbf4"/>
          <path id="Path_30934" data-name="Path 30934" d="M933.914,1106.475l-3.114-.081v-.254l3.114.083Z" transform="translate(-929.631 -1090.937)" fill="#cacbf4"/>
          <path id="Path_30935" data-name="Path 30935" d="M933.914,1115.783l-3.114-.08v-.253l3.114.081Z" transform="translate(-929.631 -1099.572)" fill="#cacbf4"/>
          <path id="Path_30936" data-name="Path 30936" d="M933.914,1125.09l-3.114-.077v-.253l3.114.078Z" transform="translate(-929.631 -1108.207)" fill="#cacbf4"/>
          <path id="Path_30937" data-name="Path 30937" d="M933.914,1134.4l-3.114-.074v-.253l3.114.075Z" transform="translate(-929.631 -1116.841)" fill="#cacbf4"/>
          <path id="Path_30938" data-name="Path 30938" d="M933.914,1143.705l-3.114-.072v-.253l3.114.073Z" transform="translate(-929.631 -1125.476)" fill="#cacbf4"/>
          <path id="Path_30939" data-name="Path 30939" d="M933.914,1153.012l-3.114-.069v-.253l3.114.07Z" transform="translate(-929.631 -1134.111)" fill="#cacbf4"/>
          <path id="Path_30940" data-name="Path 30940" d="M933.914,1162.32l-3.114-.067V1162l3.114.068Z" transform="translate(-929.631 -1142.746)" fill="#cacbf4"/>
          <path id="Path_30941" data-name="Path 30941" d="M933.914,1171.627l-3.114-.064v-.253l3.114.065Z" transform="translate(-929.631 -1151.381)" fill="#cacbf4"/>
          <path id="Path_30942" data-name="Path 30942" d="M933.914,1180.935l-3.114-.062v-.253l3.114.063Z" transform="translate(-929.631 -1160.016)" fill="#cacbf4"/>
          <path id="Path_30943" data-name="Path 30943" d="M933.914,1190.242l-3.114-.059v-.253l3.114.06Z" transform="translate(-929.631 -1168.651)" fill="#cacbf4"/>
          <path id="Path_30944" data-name="Path 30944" d="M933.914,1199.55l-3.114-.057v-.253l3.114.057Z" transform="translate(-929.631 -1177.285)" fill="#cacbf4"/>
          <path id="Path_30945" data-name="Path 30945" d="M935.82,901.97l2.152.083V896.5l-2.152.69Z" transform="translate(-934.287 -896.5)" fill="#bdbff1"/>
          <path id="Path_30946" data-name="Path 30946" d="M933.678,921.555l-2.878-.105v-5.57l2.878.909Z" transform="translate(-929.631 -914.475)" fill="#a7abec"/>
          <path id="Path_30947" data-name="Path 30947" d="M938.862,936.557l-2-.083V936.2l2,.083Z" transform="translate(-935.252 -933.321)" fill="#cacbf4"/>
          <path id="Path_30948" data-name="Path 30948" d="M938.862,943.735l-2-.081v-.274l2,.081Z" transform="translate(-935.252 -939.98)" fill="#cacbf4"/>
          <path id="Path_30949" data-name="Path 30949" d="M938.862,950.9l-2-.08v-.274l2,.08Z" transform="translate(-935.252 -946.63)" fill="#cacbf4"/>
          <path id="Path_30950" data-name="Path 30950" d="M938.862,958.073l-2-.079v-.274l2,.079Z" transform="translate(-935.252 -953.28)" fill="#cacbf4"/>
          <path id="Path_30951" data-name="Path 30951" d="M938.862,965.242l-2-.078v-.274l2,.078Z" transform="translate(-935.252 -959.93)" fill="#cacbf4"/>
          <path id="Path_30952" data-name="Path 30952" d="M938.862,972.42l-2-.075v-.274l2,.076Z" transform="translate(-935.252 -966.59)" fill="#cacbf4"/>
          <path id="Path_30953" data-name="Path 30953" d="M938.862,979.589l-2-.075v-.274l2,.075Z" transform="translate(-935.252 -973.24)" fill="#cacbf4"/>
        </g>
        <path id="Path_30954" data-name="Path 30954" d="M1227.616,889.888V876.44l.439.016v-.387l-.31-.012v-.387l-.477-.017a13.164,13.164,0,0,0,.081-2.487,10.246,10.246,0,0,0-.259-1.316c-.019-.123-.087-1.251-.087-1.251s.213-.01.383.364.118.965.445.917.584-.078.326-.4-.379-.119-.413-.752-.188-1.213-.431-1.223-.483.02-.5-.083.147-.116.174-.35a.532.532,0,0,0-.433-.581.486.486,0,0,0-.5.49s.189.316-.008.184a5.053,5.053,0,0,1-.963-1.569c-.069-.352-.009-.7-.088-.7s-.131.08-.15.187a.244.244,0,0,0-.223-.2c-.3-.044-.486.009-.486.1s-.079.119.06.261.245.051.442.429.648,1.31.675,1.37a6.61,6.61,0,0,0-.6-.331c-.288-.136-.453-.112-.348-.313a1.735,1.735,0,0,0,.148-.6c0-.071-.077-.5-.433-.328s-.313.97-.384,1.05A27.331,27.331,0,0,1,1222.46,866s.3-.18.306-.4-.124-.4-.219-.215-.228.194-.281.109.044-.4-.149-.481-.392-.2-.392.042-.061.233,0,.39.157.524.218.669.875,2.208.875,2.208a5.87,5.87,0,0,1,.68,1.939,11.472,11.472,0,0,1,0,1.622,16.27,16.27,0,0,1-.157,3.276c-.2.211-.469.323-.346.336l-.6-.022v.39l-.315-.012v.39l.445.016V889.8l-19.09-.352v1.189l25.355.43v-1.152Zm-1.563-15.752s.328.584.623.392l.132,1.107-1.189-.044a3.715,3.715,0,0,0,.3-1.031C1225.93,874.151,1226.052,874.135,1226.052,874.135Zm-1.257-4.084c.008-.42.614-.26.614-.26s.235.042.478.625.06.638-.123,1.222a24.109,24.109,0,0,0-.355,2.411c-.017,0-.041-1.416-.077-1.774a5.938,5.938,0,0,0-.337-1.109A2.808,2.808,0,0,1,1224.8,870.052Zm-.845,4.965a13.138,13.138,0,0,1,.088-2.538c.121-.221.278-.3.278-.173s.14,1.707.436,1.88.21,1.363.208,1.381l-1.009-.037A1.425,1.425,0,0,0,1223.951,875.017Zm.1,5.28,2.066.063v9.5l-2.066-.039Z" transform="translate(-1172.817 -842.606)" fill="url(#radial-gradient-4)"/>
        <g id="Group_28335" data-name="Group 28335" transform="translate(12.232 37.748)">
          <path id="Path_30955" data-name="Path 30955" d="M997.24,1148.124l4.372.074v-5.285l-4.372-.1Z" transform="translate(-993.803 -1138.101)" fill="#a7abec"/>
          <path id="Path_30956" data-name="Path 30956" d="M1014.81,1203.627l1.34.022v-1l-1.34-.024Z" transform="translate(-1010.099 -1193.583)" fill="#a7abec"/>
          <path id="Path_30957" data-name="Path 30957" d="M953.57,1115.33l3.167.054v-7.79l-3.167-.083Z" transform="translate(-953.3 -1105.361)" fill="#bdbff1"/>
          <path id="Path_30958" data-name="Path 30958" d="M997.24,1152.5l3.74.083v-.319l-3.74-.084Z" transform="translate(-993.803 -1146.791)" fill="#cacbf4"/>
          <path id="Path_30959" data-name="Path 30959" d="M997.24,1160.489l3.74.08v-.317l-3.74-.082Z" transform="translate(-993.803 -1154.202)" fill="#cacbf4"/>
          <path id="Path_30960" data-name="Path 30960" d="M997.24,1168.47l3.74.078v-.318l-3.74-.08Z" transform="translate(-993.803 -1161.603)" fill="#cacbf4"/>
          <path id="Path_30961" data-name="Path 30961" d="M997.24,1176.46l3.74.075v-.318l-3.74-.077Z" transform="translate(-993.803 -1169.014)" fill="#cacbf4"/>
          <path id="Path_30962" data-name="Path 30962" d="M997.24,1184.45l3.74.073v-.318l-3.74-.074Z" transform="translate(-993.803 -1176.424)" fill="#cacbf4"/>
          <path id="Path_30963" data-name="Path 30963" d="M997.24,1192.439l3.74.07v-.318l-3.74-.071Z" transform="translate(-993.803 -1183.835)" fill="#cacbf4"/>
          <path id="Path_30964" data-name="Path 30964" d="M966.12,1202.742l1.352.023v-1l-1.352-.025Z" transform="translate(-964.939 -1192.757)" fill="#a7abec"/>
          <path id="Path_30965" data-name="Path 30965" d="M952.74,1079.708a1.729,1.729,0,0,1,1.676-1.836,1.846,1.846,0,0,1,1.669,1.926,1.73,1.73,0,0,1-1.669,1.836A1.845,1.845,0,0,1,952.74,1079.708Z" transform="translate(-952.53 -1077.871)" fill="#bdbff1"/>
          <path id="Path_30966" data-name="Path 30966" d="M949.929,1103.712l3.585.094a.092.092,0,0,0,.088-.1v-.37a.1.1,0,0,0-.088-.1l-3.585-.1a.092.092,0,0,0-.089.1v.372A.1.1,0,0,0,949.929,1103.712Z" transform="translate(-949.84 -1101.307)" fill="#a7abec"/>
          <path id="Path_30967" data-name="Path 30967" d="M981.48,1118.218l.717.018v-.807l-.717-.019Z" transform="translate(-979.185 -1114.543)" fill="#cacbf4"/>
          <path id="Path_30968" data-name="Path 30968" d="M970.06,1117.929l.719.017v-.807l-.719-.019Z" transform="translate(-968.594 -1114.274)" fill="#cacbf4"/>
          <path id="Path_30969" data-name="Path 30969" d="M958.62,1117.639l.719.017v-.809l-.719-.018Z" transform="translate(-957.983 -1114.005)" fill="#cacbf4"/>
          <path id="Path_30970" data-name="Path 30970" d="M981.48,1132.117l.717.017v-.807l-.717-.017Z" transform="translate(-979.185 -1127.435)" fill="#cacbf4"/>
          <path id="Path_30971" data-name="Path 30971" d="M970.06,1131.839l.719.017v-.808l-.719-.017Z" transform="translate(-968.594 -1127.175)" fill="#cacbf4"/>
          <path id="Path_30972" data-name="Path 30972" d="M958.62,1131.559l.719.017v-.809l-.719-.017Z" transform="translate(-957.983 -1126.915)" fill="#cacbf4"/>
          <path id="Path_30973" data-name="Path 30973" d="M981.48,1146.008l.717.016v-.807l-.717-.017Z" transform="translate(-979.185 -1140.317)" fill="#cacbf4"/>
          <path id="Path_30974" data-name="Path 30974" d="M970.06,1145.748l.719.016v-.807l-.719-.017Z" transform="translate(-968.594 -1140.076)" fill="#cacbf4"/>
          <path id="Path_30975" data-name="Path 30975" d="M958.62,1145.479l.719.016v-.809l-.719-.017Z" transform="translate(-957.983 -1139.826)" fill="#cacbf4"/>
          <path id="Path_30976" data-name="Path 30976" d="M981.48,1159.9l.717.015v-.807l-.717-.016Z" transform="translate(-979.185 -1153.2)" fill="#cacbf4"/>
          <path id="Path_30977" data-name="Path 30977" d="M970.06,1159.649l.719.015v-.808l-.719-.016Z" transform="translate(-968.594 -1152.968)" fill="#cacbf4"/>
          <path id="Path_30978" data-name="Path 30978" d="M958.62,1159.4l.719.015v-.808l-.719-.016Z" transform="translate(-957.983 -1152.736)" fill="#cacbf4"/>
          <g id="Group_28333" data-name="Group 28333" transform="translate(0.637 6.863)">
            <path id="Path_30979" data-name="Path 30979" d="M981.48,1173.788l.717.014V1173l-.717-.015Z" transform="translate(-979.822 -1172.946)" fill="#cacbf4"/>
            <path id="Path_30980" data-name="Path 30980" d="M970.06,1173.559l.719.014v-.808l-.719-.015Z" transform="translate(-969.23 -1172.733)" fill="#cacbf4"/>
            <path id="Path_30981" data-name="Path 30981" d="M958.62,1173.319l.719.015v-.808l-.719-.015Z" transform="translate(-958.62 -1172.51)" fill="#cacbf4"/>
          </g>
          <g id="Group_28334" data-name="Group 28334" transform="translate(0.637 7.873)">
            <path id="Path_30982" data-name="Path 30982" d="M981.48,1187.688l.717.013v-.807l-.717-.014Z" transform="translate(-979.822 -1186.848)" fill="#cacbf4"/>
            <path id="Path_30983" data-name="Path 30983" d="M970.06,1187.468l.719.014v-.808l-.719-.014Z" transform="translate(-969.23 -1186.644)" fill="#cacbf4"/>
            <path id="Path_30984" data-name="Path 30984" d="M958.62,1187.24l.719.014v-.808l-.719-.015Z" transform="translate(-958.62 -1186.43)" fill="#cacbf4"/>
          </g>
        </g>
        <g id="Group_28336" data-name="Group 28336" transform="translate(39.769 16.182)">
          <path id="Path_30985" data-name="Path 30985" d="M1438.207,781.862a1.522,1.522,0,0,1-.017-.36c-.028-.021-.065-.012-.109.025a1.916,1.916,0,0,0-.148-1.017c-.022-.032-.046-.029-.075.01a3.654,3.654,0,0,0-.265,1.057.7.7,0,0,1-.041.328.539.539,0,0,0-.078.368.453.453,0,0,0-.166.459q.979.268,1.125.06A1.914,1.914,0,0,0,1438.207,781.862Z" transform="translate(-1429.484 -780.488)" fill="#d6d8f7" fill-rule="evenodd"/>
          <path id="Path_30986" data-name="Path 30986" d="M1440.937,793.271a3.118,3.118,0,0,1-.029-.463c.014-.158.041-.213-.047-.09-.02.029-.025.536-.044.629-.013.066-.058.574.032.59a.309.309,0,0,0,.146-.015C1441.066,793.819,1440.913,793.526,1440.937,793.271Zm-.234.719c.018-.044-.066-.156-.017-.292.009-.025.015-.433.009-.475-.03,0-.055.125-.055.167,0,.139-.032.115-.064.247-.017.066-.013.3.059.324a.3.3,0,0,0,.057.016s.007.007.006.015Zm.423.023c-.018-.046.066-.148.017-.29-.01-.025-.015-.434-.01-.476.03,0,.055.131.055.173,0,.139.032.119.065.254.017.067.014.3-.058.318a.3.3,0,0,1-.057.009.011.011,0,0,0-.006.014Z" transform="translate(-1432.516 -791.768)" fill="#b2b4ee" fill-rule="evenodd"/>
          <path id="Path_30987" data-name="Path 30987" d="M1425.885,824.8l-.9.52-.681-.546,1.667-.679Z" transform="translate(-1417.43 -820.937)" fill="#7392da" fill-rule="evenodd"/>
          <path id="Path_30988" data-name="Path 30988" d="M1446.15,824.8l.632.513.734-.107-1.283-1.111Z" transform="translate(-1437.695 -820.937)" fill-rule="evenodd" fill="url(#radial-gradient-5)"/>
          <path id="Path_30989" data-name="Path 30989" d="M1447.29,815.437l1.283,1.111.229-.413-1.491-1.376Z" transform="translate(-1438.752 -812.275)" fill-rule="evenodd" fill="url(#radial-gradient-6)"/>
          <path id="Path_30990" data-name="Path 30990" d="M1423.219,814.934l.006-.174-1.746.663-.159.258Z" transform="translate(-1414.666 -812.275)" fill-rule="evenodd" fill="url(#radial-gradient-7)"/>
          <path id="Path_30991" data-name="Path 30991" d="M1421.32,817.907l1.9-.747-.015.5-1.667.679Z" transform="translate(-1414.666 -814.5)" fill-rule="evenodd" fill="url(#radial-gradient-8)"/>
          <path id="Path_30992" data-name="Path 30992" d="M1447.432,808.1l1.039.958.261-.379-1.311-1.1Z" transform="translate(-1438.873 -805.615)" fill-rule="evenodd" fill="url(#radial-gradient-9)"/>
          <path id="Path_30993" data-name="Path 30993" d="M1425.775,808.1l-.012-.521-1.693.65.233.429Z" transform="translate(-1417.216 -805.615)" fill="#7392da" fill-rule="evenodd"/>
          <path id="Path_30994" data-name="Path 30994" d="M1443.872,857.066l.223.037-.494-22.77-.632-.513-.249,23.3Z" transform="translate(-1434.514 -829.952)" fill-rule="evenodd" fill="url(#radial-gradient-10)"/>
          <path id="Path_30995" data-name="Path 30995" d="M1423.186,833.82l-.249,23.3-1.547.07.892-22.847Z" transform="translate(-1414.73 -829.952)" fill-rule="evenodd" fill="url(#radial-gradient-11)"/>
          <path id="Path_30996" data-name="Path 30996" d="M1371.793,1208.721l-11.143-.189v-1.072l11.143.2Z" transform="translate(-1358.396 -1176.496)" fill-rule="evenodd" fill="url(#radial-gradient-12)"/>
          <path id="Path_30997" data-name="Path 30997" d="M1352.658,1169.64l-.439-.009q-4.292.135-6.9.254a11.608,11.608,0,0,1,3.5,2.534l3.4.062.439.008.1,0a6.819,6.819,0,0,1,.666-2.833Z" transform="translate(-1344.177 -1141.41)" fill-rule="evenodd" fill="url(#radial-gradient-13)"/>
          <path id="Path_30998" data-name="Path 30998" d="M1448.546,1170a6.828,6.828,0,0,0-.666,2.833l3.071.056a8.686,8.686,0,0,1,2.858-2.1A34.463,34.463,0,0,0,1448.546,1170Z" transform="translate(-1439.3 -1141.753)" fill-rule="evenodd" fill="url(#radial-gradient-14)"/>
          <path id="Path_30999" data-name="Path 30999" d="M1457.147,1159.05q-.087.793-.087.793a34.527,34.527,0,0,1,5.263.786l.642.081.423-.613Q1460.455,1159.563,1457.147,1159.05Z" transform="translate(-1447.814 -1131.597)" fill="#cacbf4" fill-rule="evenodd"/>
          <path id="Path_31000" data-name="Path 31000" d="M1329.912,1160.054l-.352-.613q4.027-.207,9.334-.391l-.087.793-.766-.017-.439-.009q-4.292.135-6.9.254Z" transform="translate(-1329.56 -1131.597)" fill="#cacbf4" fill-rule="evenodd"/>
          <path id="Path_31001" data-name="Path 31001" d="M1464.5,1155.748q-2.935-.536-6.243-1.047l.024-.34s2.045.341,6,1.017Z" transform="translate(-1448.927 -1127.247)" fill="#7392da" fill-rule="evenodd"/>
          <path id="Path_31002" data-name="Path 31002" d="M1338.918,1154.36l-.024.34q-5.3.185-9.334.391l.218-.319Z" transform="translate(-1329.56 -1127.247)" fill="#7392da" fill-rule="evenodd"/>
        </g>
        <g id="Group_28337" data-name="Group 28337" transform="translate(6.454 7.494)">
          <path id="Path_31003" data-name="Path 31003" d="M872.869,660.7l.833,1.943,1.858.42-1.344,1.385.318,2.094-1.665-1.078-1.672.883.32-2.063-1.356-1.56,1.873-.186Z" transform="translate(-870.16 -660.7)" fill="#6469d4" fill-rule="evenodd"/>
          <path id="Path_31004" data-name="Path 31004" d="M962.717,666.55l.82,1.928,1.829.416-1.323,1.375.313,2.077-1.639-1.07-1.646.877.315-2.047-1.335-1.547,1.844-.185Z" transform="translate(-953.531 -666.126)" fill="#6469d4" fill-rule="evenodd"/>
          <path id="Path_31005" data-name="Path 31005" d="M1051.165,672.32l.808,1.913,1.8.411-1.3,1.365.308,2.061-1.614-1.061-1.62.871.311-2.031-1.315-1.534,1.815-.184Z" transform="translate(-1035.604 -671.477)" fill="#6469d4" fill-rule="evenodd"/>
          <path id="Path_31006" data-name="Path 31006" d="M1138.244,678l.8,1.9,1.773.408-1.282,1.355.3,2.044-1.59-1.052-1.595.865.3-2.015-1.294-1.522,1.788-.184Z" transform="translate(-1116.406 -676.745)" fill="#6469d4" fill-rule="evenodd"/>
          <path id="Path_31007" data-name="Path 31007" d="M1223.975,683.59l.783,1.883,1.745.4-1.262,1.345.3,2.029-1.564-1.043-1.571.859.3-2-1.275-1.509,1.761-.184Z" transform="translate(-1195.956 -681.93)" fill="#6469d4" fill-rule="evenodd"/>
        </g>
        <g id="Group_28339" data-name="Group 28339" transform="translate(4.34 66.352)">
          <path id="Path_31008" data-name="Path 31008" d="M895.623,1476.337v18.84c0,2.232-1.537,4.121-3.424,4.2l-47.292,1.927a3.952,3.952,0,0,1-3.887-4.185v-20.165a4.18,4.18,0,0,1,3.887-4.367l47.292-.284C894.087,1472.289,895.623,1474.106,895.623,1476.337Z" transform="translate(-841.02 -1472.3)" fill="#71bca5"/>
          <path id="Path_31009" data-name="Path 31009" d="M895.623,1476.337v3.189l-54.6.838v-3.413a4.18,4.18,0,0,1,3.887-4.367l47.292-.284C894.087,1472.289,895.623,1474.106,895.623,1476.337Z" transform="translate(-841.02 -1472.3)" fill="#6469d4"/>
          <path id="Path_31010" data-name="Path 31010" d="M1114.92,1503.9l-7.435.168a.647.647,0,0,0-.606.566.626.626,0,0,0,.575.762l7.467-.181a.638.638,0,0,0,.572-.671h0A.6.6,0,0,0,1114.92,1503.9Zm12.359-.28-10.443.236a.635.635,0,0,0-.569.669h0a.6.6,0,0,0,.569.643l10.473-.255a.64.64,0,0,0,.546-.769A.586.586,0,0,0,1127.279,1503.617Zm-7.4,3.376-12.4.331a.651.651,0,0,0-.606.569.623.623,0,0,0,.575.759l12.426-.352a.635.635,0,0,0,.564-.669h0A.594.594,0,0,0,1119.879,1506.993Zm0,3.208-12.4.38a.654.654,0,0,0-.606.571.621.621,0,0,0,.575.757l12.426-.4a.638.638,0,0,0,.564-.672h0A.591.591,0,0,0,1119.879,1510.2Zm7.4-3.406-5.507.146a.633.633,0,0,0-.563.667h0a.593.593,0,0,0,.563.637l5.536-.157a.643.643,0,0,0,.546-.771A.582.582,0,0,0,1127.278,1506.8Zm12.075-9.53h-.059c-.4-3.105-2.667-5.48-5.425-5.459-2.782.022-5.1,2.464-5.5,5.621h-.074l.049.172c-.025.264-.049.533-.049.806,0,2.262,1.4,5.274,2.793,7.7a48.535,48.535,0,0,0,2.782,4.273s5.485-7.681,5.485-12.147a7.46,7.46,0,0,0-.044-.793Zm-5.485,4.588a2.968,2.968,0,0,1-2.774-3.2,3.1,3.1,0,0,1,2.774-3.3,2.981,2.981,0,0,1,2.746,3.21A3.089,3.089,0,0,1,1133.868,1501.854Z" transform="translate(-1087.59 -1490.393)" fill="#e4f2f3"/>
          <path id="Path_31011" data-name="Path 31011" d="M1446.42,1543.907a3.089,3.089,0,0,1-2.746,3.291,2.968,2.968,0,0,1-2.774-3.2,3.1,3.1,0,0,1,2.774-3.3A2.981,2.981,0,0,1,1446.42,1543.907Z" transform="translate(-1397.397 -1535.737)" fill="#6469d4"/>
          <path id="Path_31012" data-name="Path 31012" d="M900.342,1618.05l1.906,4.314,4.232.592-3.058,3.457.724,4.748-3.8-2.13-3.84,2.4.736-4.835-3.128-3.329,4.316-.808Z" transform="translate(-890.26 -1607.48)" fill="#6469d4" fill-rule="evenodd"/>
          <g id="Group_28338" data-name="Group 28338" transform="translate(9.029 15.598)">
            <path id="Path_31013" data-name="Path 31013" d="M966.207,1688.766q.116-.162.574-.174h.01a.737.737,0,0,1,.4.1c.241.142.36.53.36,1.166a4.794,4.794,0,0,1-.051.92,1.644,1.644,0,0,1-.1.286q-.172.363-.857.384-1.018.031-1.019-.734v-.442l.663-.019v.443a.412.412,0,0,0,.078.267.323.323,0,0,0,.271.089.36.36,0,0,0,.276-.1.445.445,0,0,0,.085-.3v-1.192a.64.64,0,0,0-.076-.354.284.284,0,0,0-.262-.107q-.384.01-.384.435l-.591-.02v-1.985l1.833-.046v.422l-1.205.03Z" transform="translate(-965.52 -1687.38)" fill="#e4f2f3"/>
          </g>
        </g>
        <g id="Group_28341" data-name="Group 28341" transform="translate(4.736 96.35)">
          <path id="Path_31014" data-name="Path 31014" d="M901.022,1889.877v18.832c0,2.231-1.536,4.178-3.421,4.327l-47.248,3.745a3.774,3.774,0,0,1-3.883-4.034v-20.156a4.377,4.377,0,0,1,3.883-4.514l47.248-2.1C899.487,1885.889,901.022,1887.646,901.022,1889.877Z" transform="translate(-846.47 -1885.969)" fill="#71bca5"/>
          <path id="Path_31015" data-name="Path 31015" d="M901.022,1889.868v3.187l-54.552,2.938v-3.411a4.378,4.378,0,0,1,3.883-4.515l47.248-2.1C899.487,1885.88,901.022,1887.637,901.022,1889.868Z" transform="translate(-846.47 -1885.961)" fill="#6469d4"/>
          <path id="Path_31016" data-name="Path 31016" d="M1120.111,1920.847l-7.428.454a.678.678,0,0,0-.606.59.6.6,0,0,0,.574.74l7.459-.469a.667.667,0,0,0,.571-.693h0A.575.575,0,0,0,1120.111,1920.847Zm12.347-.755-10.433.638a.665.665,0,0,0-.569.691h0a.572.572,0,0,0,.569.62l10.463-.657a.669.669,0,0,0,.546-.79A.559.559,0,0,0,1132.459,1920.092Zm-7.392,3.659-12.384.807a.682.682,0,0,0-.606.592.6.6,0,0,0,.574.737l12.415-.829a.665.665,0,0,0,.564-.69h0A.568.568,0,0,0,1125.067,1923.752Zm0,3.206-12.384.857a.685.685,0,0,0-.606.594.594.594,0,0,0,.574.735l12.415-.88a.668.668,0,0,0,.564-.693h0A.566.566,0,0,0,1125.067,1926.958Zm7.392-3.688-5.5.358a.662.662,0,0,0-.562.689h0a.566.566,0,0,0,.562.615l5.531-.37a.671.671,0,0,0,.546-.792A.557.557,0,0,0,1132.459,1923.269Zm12.064-9.99-.059,0c-.4-3.089-2.665-5.375-5.421-5.248-2.779.128-5.092,2.658-5.5,5.83l-.074,0,.049.17c-.025.265-.049.534-.049.808,0,2.261,1.4,5.217,2.791,7.586a46,46,0,0,0,2.779,4.164s5.48-7.889,5.48-12.353a7.469,7.469,0,0,0-.043-.791Zm-5.48,4.8a2.833,2.833,0,0,1-2.771-3.091,3.245,3.245,0,0,1,2.771-3.406,2.846,2.846,0,0,1,2.744,3.1A3.234,3.234,0,0,1,1139.043,1918.076Z" transform="translate(-1092.808 -1906.429)" fill="#e4f2f3"/>
          <path id="Path_31017" data-name="Path 31017" d="M1451.314,1960.033a3.235,3.235,0,0,1-2.744,3.395,2.833,2.833,0,0,1-2.771-3.092,3.245,3.245,0,0,1,2.771-3.406A2.846,2.846,0,0,1,1451.314,1960.033Z" transform="translate(-1402.337 -1951.781)" fill="#6469d4"/>
          <path id="Path_31018" data-name="Path 31018" d="M905.726,2053.49l1.905,4.238,4.228.43-3.055,3.573.724,4.718-3.8-1.983-3.836,2.543.735-4.862-3.125-3.207,4.312-.973Z" transform="translate(-895.654 -2041.341)" fill="#6469d4" fill-rule="evenodd"/>
          <g id="Group_28340" data-name="Group 28340" transform="translate(9.021 17.143)">
            <path id="Path_31019" data-name="Path 31019" d="M971.545,2123.781c.078-.111.268-.176.573-.2h.01a.723.723,0,0,1,.4.081q.36.2.36,1.152a4.741,4.741,0,0,1-.051.921,1.811,1.811,0,0,1-.1.291c-.115.246-.4.386-.856.417q-1.017.07-1.018-.695v-.44l.663-.044v.443a.4.4,0,0,0,.078.264.311.311,0,0,0,.27.078.374.374,0,0,0,.276-.114.457.457,0,0,0,.084-.3v-1.191a.624.624,0,0,0-.076-.351.274.274,0,0,0-.262-.1q-.384.024-.384.45l-.59,0v-1.984l1.831-.116v.421l-1.2.077v.933Z" transform="translate(-970.86 -2122.35)" fill="#e4f2f3"/>
          </g>
        </g>
        <g id="Group_28342" data-name="Group 28342" transform="translate(0.028 54.073)">
          <path id="Path_31020" data-name="Path 31020" d="M839.807,1303.482l-54.016-.494a4.452,4.452,0,0,0-4.241,4.677h0a4.489,4.489,0,0,0,4.241,4.707l54.016-.116c2.032,0,3.671-1.962,3.671-4.374h0C843.478,1305.47,841.838,1303.5,839.807,1303.482Z" transform="translate(-781.55 -1302.988)" fill="#71bca5"/>
          <path id="Path_31021" data-name="Path 31021" d="M1535.164,1324.473a1.557,1.557,0,0,0-2.464-.021,2.349,2.349,0,0,0,0,2.93,1.545,1.545,0,0,0,2.35.115l.313.373a.6.6,0,0,0,.082.6l1.266,1.507a.391.391,0,0,0,.621,0,.6.6,0,0,0,0-.74l-1.264-1.507a.387.387,0,0,0-.5-.1l-.313-.372A2.35,2.35,0,0,0,1535.164,1324.473Zm-2.2,2.6a1.857,1.857,0,0,1,0-2.315,1.229,1.229,0,0,1,1.946.017,1.853,1.853,0,0,1,0,2.3A1.231,1.231,0,0,1,1532.96,1327.076Z" transform="translate(-1477.751 -1322.345)" fill="#6469d4"/>
        </g>
      </g>
      <path id="Path_31022" data-name="Path 31022" d="M789.571,1020.919v44.039l-72.2-37.309V983.61Z" transform="translate(-710.256 -943.025)" fill="#fff" opacity="0.57"/>
      <path id="Path_31023" data-name="Path 31023" d="M789.571,698.869v16.709l-72.2-37.309V661.56Z" transform="translate(-710.256 -644.33)" fill="#fff" opacity="0.57"/>
      <path id="Path_31024" data-name="Path 31024" d="M1611.477,1247.98a7.454,7.454,0,0,0,1.108.532,2.761,2.761,0,0,0,.523.109,3.331,3.331,0,0,0,.4.02,2.9,2.9,0,0,0,.529-.048l3.295,2.04a5.783,5.783,0,0,0,.948-1.68s-3.2-1.6-3.432-2.226a.1.1,0,0,1-.007-.017c0-.01,0-.02,0-.03a1.222,1.222,0,0,0-.284-.569,2.989,2.989,0,0,0-.413-.427c-.365-.307-.235-1.607-.53-1.615s-.574.728-.422,1.093-.177.5-.506.312l-.1-.058c-.656-.37-2.692-1.506-2.929-1.207-.155.195.642.751,1.279,1.151-.8-.46-1.962-1.078-2.015-.794-.041.218,1.059.986,1.677,1.409-.45-.251-1.358-.714-1.448-.563-.194.329.7.894,1.324,1.236-.386-.179-.846-.343-.972-.181C1609.343,1246.669,1610.5,1247.439,1611.477,1247.98Z" transform="translate(-1537.146 -1184.596)" fill="#f9b098"/>
      <path id="Path_31025" data-name="Path 31025" d="M1675.84,1285.677a.951.951,0,0,0,.227-.033,1.3,1.3,0,0,0,.634-.464,1.11,1.11,0,0,0,.262-.741,1.135,1.135,0,0,0-.083-.32,1.674,1.674,0,0,1-.478.752,1.6,1.6,0,0,1-.551.774C1675.848,1285.666,1675.844,1285.676,1675.84,1285.677Z" transform="translate(-1599.217 -1221.742)" fill="#231f20" opacity="0.1"/>
      <path id="Path_31026" data-name="Path 31026" d="M1645.028,1247.876a2.727,2.727,0,0,0,1.029.636,2.763,2.763,0,0,0,.523.109,3.334,3.334,0,0,0,.4.02.953.953,0,0,0,.274-.14,1.6,1.6,0,0,0,.551-.774,1.686,1.686,0,0,0,.478-.752.848.848,0,0,0,.029-.263c0-.01,0-.02,0-.03a1.218,1.218,0,0,0-.284-.569,2.963,2.963,0,0,0-.413-.427c-.365-.307-.235-1.607-.529-1.615s-.574.728-.422,1.093-.119.424-.5.455c-.326.027-.672.346-.948.926A2.346,2.346,0,0,0,1645.028,1247.876Z" transform="translate(-1570.618 -1184.596)" fill="#fff" opacity="0.2"/>
      <path id="Path_31027" data-name="Path 31027" d="M1631.634,1264.127s-.009,0-.014,0l-1.01-.579,1.033.518c.005-.031.008-.062.015-.094a2.548,2.548,0,0,1,.118-.42h0l-.972-.64,1,.58c.005-.011.009-.023.014-.033a4.035,4.035,0,0,1,.266-.464l.058-.083h0l-.972-.64,1.007.585h0s0,0,0,.006a1.9,1.9,0,0,1,.246-.278,3.7,3.7,0,0,0-.3.436,4.97,4.97,0,0,0-.249.464,2.622,2.622,0,0,0-.165.495c-.043.17-.076.342-.107.516A3.219,3.219,0,0,1,1631.634,1264.127Z" transform="translate(-1557.268 -1201.477)" fill="#dd8f7a"/>
      <path id="Path_31028" data-name="Path 31028" d="M1707.985,1297.108c-.375.135-.583.214-.583.214l-20.832-10.842-.73,1.733s15.432,16.163,19.306,19.071c.047.036.107.066.159.1C1706.054,1303.929,1707.128,1300.541,1707.985,1297.108Z" transform="translate(-1608.493 -1223.931)" fill="#f9b098"/>
      <path id="Path_31029" data-name="Path 31029" d="M1933.224,1242.58s-9.913,6.672-9.154,12.1,4.846,4.549,4.846,4.549Z" transform="translate(-1829.407 -1183.215)" fill="#29477c"/>
      <path id="Path_31030" data-name="Path 31030" d="M1930.816,1291.7a26.581,26.581,0,0,0-2.794,2.659,7.609,7.609,0,0,0-.994,1.358,6.718,6.718,0,0,1-.938,1.36,2.736,2.736,0,0,1-1.961.8,4.631,4.631,0,0,0-.017,1.31c.759,5.426,4.846,4.549,4.846,4.549l3.408-13.167A16.04,16.04,0,0,0,1930.816,1291.7Z" transform="translate(-1829.45 -1227.724)" fill="#202234" opacity="0.15"/>
      <rect id="Rectangle_17627" data-name="Rectangle 17627" width="1.835" height="21.785" transform="translate(119.35 122.959) rotate(178.94)" fill="#182856"/>
      <rect id="Rectangle_17628" data-name="Rectangle 17628" width="1.835" height="21.785" transform="matrix(-1, 0.019, -0.019, -1, 110.886, 123.195)" fill="#182856"/>
      <g id="Group_28344" data-name="Group 28344" transform="translate(108.58 101.19)" opacity="0.35">
        <path id="Path_31031" data-name="Path 31031" d="M2126.885,1819.32l-1.835.034.034,1.843c.547.436,1.184.756,1.387,1.482a2.476,2.476,0,0,1,.014,1.214,3.391,3.391,0,0,0-.1,1.2,2.039,2.039,0,0,1-.06,1.125,1.288,1.288,0,0,1-.557.589,1.81,1.81,0,0,1-.573.189l.262,14.138,1.835-.034Zm-8.54.158-1.835.034.035,1.871a2.525,2.525,0,0,1,1.028,1.167,6.372,6.372,0,0,1,.439,1.954,2.791,2.791,0,0,1-.3,1.8,1.726,1.726,0,0,1-1.063.729l.265,14.26,1.835-.034Z" transform="translate(-2116.51 -1819.32)" fill="#202234"/>
      </g>
      <path id="Path_31032" data-name="Path 31032" d="M2075.284,1802.5l13.739-.254a1.412,1.412,0,0,0,1.385-1.439h0a1.412,1.412,0,0,0-1.437-1.387l-13.739.255a1.412,1.412,0,0,0-1.385,1.439h0A1.412,1.412,0,0,0,2075.284,1802.5Z" transform="translate(-1968.361 -1699.67)" fill="#182856"/>
      <path id="Path_31033" data-name="Path 31033" d="M2145.322,1800.76a1.088,1.088,0,0,1-.475,1.167,2.532,2.532,0,0,1-1.668.3,7.161,7.161,0,0,0-1.9-.014c-.609.117-1.188.349-1.8.462a8.972,8.972,0,0,1-2.063,0,4.477,4.477,0,0,0-2.041.291c-.328.146-.615.365-.932.532q-.206.108-.419.2l10.812-.2a1.413,1.413,0,0,0,.489-2.728Z" transform="translate(-2024.171 -1700.916)" fill="#202234" opacity="0.35"/>
      <path id="Path_31034" data-name="Path 31034" d="M1924.025,1857.811l-20.523.381a7.886,7.886,0,0,0-7.9,7.865l.6,32.6a7.885,7.885,0,0,0,8.185,7.567l20.523-.381a7.885,7.885,0,0,0,7.9-7.865l-.6-32.6A7.884,7.884,0,0,0,1924.025,1857.811Z" transform="translate(-1803.043 -1753.828)" fill="#f7c54f"/>
      <path id="Path_31035" data-name="Path 31035" d="M1968.987,1852.612l-20.523.381a8.043,8.043,0,0,0-7.892,8.191l.63,33.972a8.043,8.043,0,0,0,8.19,7.892l20.523-.381a8.043,8.043,0,0,0,7.892-8.191l-.63-33.972A8.043,8.043,0,0,0,1968.987,1852.612Z" transform="translate(-1844.75 -1749.006)" fill="#f3ac04"/>
      <path id="Path_31036" data-name="Path 31036" d="M2001.3,1900.187l-19.972.37a5.8,5.8,0,0,0-5.69,5.905l.586,31.57a5.8,5.8,0,0,0,5.906,5.69l19.972-.371a5.8,5.8,0,0,0,5.69-5.906l-.586-31.57A5.8,5.8,0,0,0,2001.3,1900.187Z" transform="translate(-1877.273 -1793.132)" fill="#fce5b0"/>
      <path id="Path_31037" data-name="Path 31037" d="M2276.593,1970.339h0a2.178,2.178,0,0,0,2.135-2.219l-.64-34.528a2.178,2.178,0,0,0-2.217-2.138h0a2.179,2.179,0,0,0-2.136,2.219l.64,34.528A2.177,2.177,0,0,0,2276.593,1970.339Z" transform="translate(-2153.753 -1822.132)" fill="url(#linear-gradient-3)"/>
      <path id="Path_31038" data-name="Path 31038" d="M2164.543,1972.411h0a2.178,2.178,0,0,0,2.136-2.217l-.64-34.532a2.177,2.177,0,0,0-2.217-2.136h0a2.177,2.177,0,0,0-2.136,2.217l.64,34.532A2.177,2.177,0,0,0,2164.543,1972.411Z" transform="translate(-2049.83 -1824.052)" fill="url(#linear-gradient-3)"/>
      <path id="Path_31039" data-name="Path 31039" d="M2052.482,1974.491h0a2.178,2.178,0,0,0,2.137-2.217l-.64-34.532a2.178,2.178,0,0,0-2.217-2.136h0a2.177,2.177,0,0,0-2.136,2.217l.64,34.532A2.177,2.177,0,0,0,2052.482,1974.491Z" transform="translate(-1945.896 -1825.982)" fill="url(#linear-gradient-3)"/>
      <path id="Path_31040" data-name="Path 31040" d="M2033.84,2077.239c-.427,1.4-.468,2.89-.885,4.3a47.92,47.92,0,0,0-1.223,4.7,13.387,13.387,0,0,0-.254,2.241c-.012.6.032,1.2,0,1.8a4.831,4.831,0,0,1-1.572,3.248,5.37,5.37,0,0,1-2.935,1.454c-1.138.2-2.3.165-3.453.263a18.806,18.806,0,0,0-3.857.843c-1.353.412-2.683.891-4.02,1.351a5.049,5.049,0,0,0-2.868,1.632,10.18,10.18,0,0,0-.581,1.125,6.377,6.377,0,0,1-.849,1.326,5.515,5.515,0,0,1-3.134,1.675,5.546,5.546,0,0,0-2.513.981,5.777,5.777,0,0,0,4.311,1.813l19.973-.371a5.8,5.8,0,0,0,5.69-5.905l-.456-24.576A5.223,5.223,0,0,0,2033.84,2077.239Z" transform="translate(-1905.156 -1955.388)" fill="#202234" opacity="0.1"/>
      <path id="Path_31041" data-name="Path 31041" d="M1973.734,1935.767l-.587-31.632a5.952,5.952,0,0,1,5.831-6.056l20.045-.372a5.951,5.951,0,0,1,6.051,5.836l.587,31.633a5.951,5.951,0,0,1-5.831,6.056l-20.045.372A5.951,5.951,0,0,1,1973.734,1935.767Zm5.25-37.33a5.592,5.592,0,0,0-5.478,5.691l.587,31.633a5.593,5.593,0,0,0,5.686,5.484l20.045-.372a5.592,5.592,0,0,0,5.478-5.691l-.587-31.633a5.593,5.593,0,0,0-5.686-5.484Z" transform="translate(-1874.963 -1790.831)" fill="#fff"/>
      <g id="Group_28345" data-name="Group 28345" transform="translate(81.53 89.527)">
        <path id="Path_31042" data-name="Path 31042" d="M1847.691,2410.225s-1.234-4.335-.63-4.661,2.759-1.3,3.1-1.022-.294,5.742-.832,6.37S1848.06,2411.368,1847.691,2410.225Z" transform="translate(-1839.397 -2350.393)" fill="#f89a6d"/>
        <path id="Path_31043" data-name="Path 31043" d="M1848.9,2430.269c-.426-.6-.818-1.213-1.2-1.838-.185-.3-.365-.6-.569-.895l-.235-.336a22.091,22.091,0,0,0,.8,4.085c.369,1.143,1.1,1.314,1.642.687a1.63,1.63,0,0,0,.234-.687C1849.358,2430.941,1849.14,2430.6,1848.9,2430.269Z" transform="translate(-1839.402 -2371.453)" fill="#fff" opacity="0.2"/>
        <path id="Path_31044" data-name="Path 31044" d="M1848.8,2438.331c-.268-.042-.531-.113-.8-.161a5.7,5.7,0,0,0,.685,2.923c.387,1.2,1.154,1.375,1.718.719a9.552,9.552,0,0,0,.886-4.082A5.1,5.1,0,0,1,1848.8,2438.331Z" transform="translate(-1840.423 -2381.219)" fill="#f2faff"/>
        <path id="Path_31045" data-name="Path 31045" d="M1744.017,2524.194l-.452.089s-.147.563.062.813,2.121.81,5.807.6,5.361-.881,5.262-1.534S1745.648,2525.679,1744.017,2524.194Z" transform="translate(-1743.515 -2461.263)" fill="#0f1019"/>
        <path id="Path_31046" data-name="Path 31046" d="M1755.161,2468.978c-4.836,1.759-12.2.766-11.018-.056a4.839,4.839,0,0,1,1.279-.5c1.986-.56,5.233-1.06,5.29-2.07.074-1.294.751-1.5.909-1.46.041.011.15.052.3.1a2.147,2.147,0,0,0,1.729-.036c.647-.472.742-.527,1.042-.239C1755.569,2465.557,1755.568,2466.293,1755.161,2468.978Z" transform="translate(-1743.979 -2406.082)" fill="#202234"/>
        <path id="Path_31047" data-name="Path 31047" d="M1768.866,2469.452a3.628,3.628,0,0,1-.327.936c-.371.715.165,1.094-.965,2.387s-4.038.735-4.883.484c-.5-.148-.45-.285-.326-.373,1.986-.56,5.233-1.06,5.29-2.071.074-1.294.75-1.5.909-1.461C1768.6,2469.365,1768.714,2469.406,1768.866,2469.452Z" transform="translate(-1760.922 -2410.547)" fill="#0f1019"/>
        <path id="Path_31048" data-name="Path 31048" d="M1807.739,1660.064c2.966-1.078,20.532-5.583,21.4,8.065.592,9.354-12.908,8.856-27.74,13.17l-6.708,33.363-4.638.575s-8.339-33.129.021-43.376S1807.739,1660.064,1807.739,1660.064Z" transform="translate(-1783.243 -1658.488)" fill="#29477c"/>
        <path id="Path_31049" data-name="Path 31049" d="M1976.812,1668.129c-.864-13.647-18.43-9.143-21.4-8.065a22.337,22.337,0,0,0-5.33,1.878.172.172,0,0,1,.1.159,2.157,2.157,0,0,0,.28,1.023,4.82,4.82,0,0,0,1.933,1.715,16.129,16.129,0,0,0,3,1.248c1.844.593,3.738.973,5.627,1.38a27.889,27.889,0,0,0,5.272.267c1.48.032,3.208.093,4.418,1.065a2.071,2.071,0,0,1,.817,1.274,1.792,1.792,0,0,1-.54,1.454,5.352,5.352,0,0,1-1.918,1.223,8.432,8.432,0,0,1-2.2.518c-1.588.175-3.187.048-4.78.13a7.872,7.872,0,0,0-2.227.358,4.411,4.411,0,0,0-1.521.911,20.352,20.352,0,0,1-2.219,2.24,7.457,7.457,0,0,1-3.261.964c-1.135.146-2.278.244-3.4.5a5.632,5.632,0,0,0-2.856,1.4,3.531,3.531,0,0,0-.82,1.394,6.41,6.41,0,0,0-.146,2.428c.067.879.178,1.756.167,2.638s-.222,1.755-.241,2.644a25.089,25.089,0,0,0,.645,4.8c.061.353.109.709.152,1.064l2.7-13.433C1963.9,1676.985,1977.4,1677.483,1976.812,1668.129Z" transform="translate(-1930.919 -1658.488)" fill="#202234" opacity="0.15"/>
      </g>
      <g id="Group_28346" data-name="Group 28346" transform="translate(70.95 88.369)">
        <path id="Path_31050" data-name="Path 31050" d="M1910.445,2129.7s-3.9-3.274-3.543-3.962,1.756-2.967,2.257-2.924,3.365,5.56,3.258,6.488S1911.516,2130.534,1910.445,2129.7Z" transform="translate(-1884.452 -2087.981)" fill="#f89a6d"/>
        <path id="Path_31051" data-name="Path 31051" d="M1913.9,2173.621c-.776-.286-1.534-.617-2.287-.959-.365-.166-.726-.335-1.1-.477-.145-.055-.29-.109-.434-.166a24.989,24.989,0,0,0,3.334,3.319c1.071.835,1.866.53,1.972-.4a1.844,1.844,0,0,0-.217-.792C1914.752,2173.962,1914.332,2173.78,1913.9,2173.621Z" transform="translate(-1887.421 -2133.621)" fill="#fff" opacity="0.2"/>
        <path id="Path_31052" data-name="Path 31052" d="M1922.48,2154.57c-.278.132-.568.232-.85.356a6.436,6.436,0,0,0,2.493,2.3c1.119.874,1.951.554,2.062-.417a10.809,10.809,0,0,0-1.758-4.382A5.75,5.75,0,0,1,1922.48,2154.57Z" transform="translate(-1898.133 -2115.452)" fill="#f2faff"/>
        <path id="Path_31053" data-name="Path 31053" d="M1892.251,2184.551c-3.41,4.712-9.387,7.72-9.836,7.463-.364-.21-.053-1.308.37-1.811,1.5-1.783,4.225-4.309,3.638-5.291-.751-1.258-.251-1.882-.075-1.943.045-.015.173-.047.344-.1.5-.156,1.368-.495,1.6-1.128.306-.852.36-.963.823-.884C1890.464,2181.091,1890.93,2181.78,1892.251,2184.551Z" transform="translate(-1861.613 -2141.797)" fill="#202234"/>
        <path id="Path_31054" data-name="Path 31054" d="M1885.953,2220.219a4.362,4.362,0,0,0,1.963-1.478,3.2,3.2,0,0,0,.662-2.04,4.237,4.237,0,0,0-.354-1.2,3.83,3.83,0,0,1-.187-.817,1.881,1.881,0,0,0,.331,1.622C1888.813,2217.05,1887.343,2218.691,1885.953,2220.219Zm-1.594,3.185c.354.1,2.57-.157,5.885-2.692s4.458-4.222,3.951-4.771S1884,2223.3,1884.359,2223.4Z" transform="translate(-1863.556 -2173.188)" fill="#0f1019"/>
        <path id="Path_31055" data-name="Path 31055" d="M1632.405,1650.528l-16.624,6.354,8.175,21.918-3.936,2.762s-32.282-24.453-19.331-34.892,30.736,2.126,30.736,2.126Z" transform="translate(-1597.625 -1642.524)" fill="#203a6f"/>
        <path id="Path_31056" data-name="Path 31056" d="M1635.046,1647.168c1.961,2.9,5.754,2.569,8.727,3.561a5.479,5.479,0,0,1,3.536,2.922,2.289,2.289,0,0,1,.154,2c-.264.424-.774.588-1.173.849a1.456,1.456,0,0,0-.7,1.471,4.385,4.385,0,0,0,1.075,1.89c.517.632,1.087,1.218,1.593,1.859a5.232,5.232,0,0,1,.564.841,7.243,7.243,0,0,1,.41,1.1c.557,1.746.839,3.569,1.446,5.3a9.462,9.462,0,0,0,1.206,2.418,6.48,6.48,0,0,0,.912,1.025,5.629,5.629,0,0,0,1.079.691,4.878,4.878,0,0,1,2.029,1.556,4.154,4.154,0,0,1,.346,1.478,2.775,2.775,0,0,0,.625,1.321,5.615,5.615,0,0,0,1.686,1.358l-8.171-21.907,16.624-6.354-.98-1.732s-17.784-12.565-30.736-2.126c-.126.1-.241.207-.359.313C1634.977,1647.049,1635.007,1647.112,1635.046,1647.168Z" transform="translate(-1632.234 -1642.533)" fill="#202234" opacity="0.15"/>
      </g>
      <g id="Group_28349" data-name="Group 28349" transform="translate(71.136 39.806)">
        <path id="Path_31057" data-name="Path 31057" d="M1968.512,1233.8h-29.191s-3.3-38.428,14.761-40.489S1968.512,1233.8,1968.512,1233.8Z" transform="translate(-1914.507 -1177.258)" fill="url(#linear-gradient)"/>
        <path id="Path_31058" data-name="Path 31058" d="M1965.436,1331a1.49,1.49,0,0,0-.8-.28c-.839.045-1.454.862-1.766,1.556a9.326,9.326,0,0,0-.667,3.2,33,33,0,0,0,.4,6.915c.147,1.019.324,2.033.469,3.052a13.645,13.645,0,0,1,.17,3.73,4.4,4.4,0,0,1-1.361,2.724,8.655,8.655,0,0,1-3.952,1.7c-3.52.846-7.447,2.772-10.98.951-1.344-.693-2.435-1.794-3.771-2.5a4.554,4.554,0,0,0-3.022-.229c-.341.06-.679.134-1.018.207-.128,5.384.206,9.289.206,9.289h29.192s1.5-17.591-2.231-29.6A5.294,5.294,0,0,0,1965.436,1331Z" transform="translate(-1914.526 -1304.765)" fill="#202234" opacity="0.15"/>
        <path id="Path_31059" data-name="Path 31059" d="M2030.651,1245.02l-2.991,8.712c-.968,2.911-1.971,5.819-2.746,8.781a58.4,58.4,0,0,0-1.566,9.051c-.147,1.527-.213,3.06-.23,4.593a39.428,39.428,0,0,0,.167,4.6,45.179,45.179,0,0,1-.09-9.2,58.445,58.445,0,0,1,1.5-9.095c.806-2.974,1.833-5.868,2.826-8.774S2029.565,1247.893,2030.651,1245.02Zm-.33,3.409a.6.6,0,1,0,.6-.6A.6.6,0,0,0,2030.321,1248.429Z" transform="translate(-1992.341 -1225.284)" fill="#215a84"/>
        <path id="Path_31060" data-name="Path 31060" d="M2040.844,1372.225a.6.6,0,1,0,.6-.6A.6.6,0,0,0,2040.844,1372.225Zm-1.869,5.773a.6.6,0,1,0,.6-.6A.605.605,0,0,0,2038.974,1378Zm-1.708,8.063a.6.6,0,1,0,.6-.6A.6.6,0,0,0,2037.266,1386.061Zm-.546,7.659a.6.6,0,1,0,.605-.6A.605.605,0,0,0,2036.72,1393.72Z" transform="translate(-2005.062 -1342.703)" fill="#215a84"/>
        <path id="Path_31061" data-name="Path 31061" d="M1623.178,1615.3l-6.227.969-7.817-3.657-8.954.471a19.1,19.1,0,0,0,7.1-6.8s1.54.948,4.379-1.161l.14-.075,5.494,4.042,5.232-1.086,5.042,2.634,2.656-1.83,4.549,6.961-5.879,2.794Z" transform="translate(-1600.18 -1559.204)" fill="#dfdfdf"/>
        <path id="Path_31062" data-name="Path 31062" d="M1617.81,1621.283l7.708-.69,7.81,3.653,6.238-.97,5.684,3.248,4.866-2.313s-1.957-3.127-3.611-6.144l-2.553,1.859-5.1-2.662-5.255,1.091-5.457-4.015s-3.271,2.162-4.392,1.138C1623.752,1615.477,1623.422,1618.1,1617.81,1621.283Z" transform="translate(-1616.532 -1567.821)" fill="url(#linear-gradient-7)"/>
        <path id="Path_31063" data-name="Path 31063" d="M1693.724,1633.972c-.131-.354-1.188-.531-1.292.26s-1.213.714-.978,1.333,1.152-.321,1.551.3,1.039-.308,1.666-.188,1.351,2.285,1.7,1.744,1.724,1.173,1.244-.641a6.348,6.348,0,0,1-.381-2.91c.07-.933-.705-.708-1.218-.367S1694.016,1634.759,1693.724,1633.972Zm4.33,4.272c.3-.28.545-.951.8-.241s.469.482.448.884-.72-.037-.98-.187A.572.572,0,0,1,1698.054,1638.244Zm1.647-1.881c.566.986.492.768,1.274,1.24s.3-.011,1.266-.256,2.488-1.306.935-1.2-1.973-.121-2.242-.5-.529-.142-1.062-.2S1699.7,1636.363,1699.7,1636.363Zm6.459,3.4c.6-.5,1.56-1.027,2.022-.786s.244.064,1.749.453,1.972.529,2.841.095a2.14,2.14,0,0,0,1.306-1.3c.39-.736,1.439-1.009.4-.97a4.122,4.122,0,0,0-1.862.46c-1.008.343-.632,1.019-1.67.384s-1.39-.23-2.094-.938a8.232,8.232,0,0,0-1.585-1.2c-.16-.113-1.214.328-1.683.611s-1.313,1.606-1.841,1.556-.687-.156-.813.651-.58,2.174.707,1.339,1.5-2.417,1.922-1.524S1706.159,1639.766,1706.159,1639.766Z" transform="translate(-1684.804 -1585.315)" fill="#dfdfdf"/>
        <path id="Path_31064" data-name="Path 31064" d="M1650.124,1624.192l-4.866,2.314-1.3-6.6,2.553-1.859C1648.167,1621.065,1650.124,1624.192,1650.124,1624.192Zm-21.972-9.872-2.853,6.275-7.48.669c5.612-3.184,5.942-5.807,5.942-5.807C1624.882,1616.484,1628.153,1614.32,1628.153,1614.32Z" transform="translate(-1616.541 -1567.802)" fill="#202234" opacity="0.15"/>
        <path id="Path_31065" data-name="Path 31065" d="M1838.018,1660.664l-6.238.97.255-5.907.018.014,5.255-1.091Z" transform="translate(-1814.984 -1605.208)" fill="#202234" opacity="0.15"/>
        <path id="Path_31066" data-name="Path 31066" d="M2102.849,1136.83c-.906.2-2.247.938-3.369-.06a2.327,2.327,0,0,1-.777-1.216,1.428,1.428,0,0,1-.028-.161,11.593,11.593,0,0,0-1.434-3.781,2.308,2.308,0,0,1,.175-.162c.062-.05.128-.1.194-.139a2.727,2.727,0,0,1,.436-.216,2.276,2.276,0,0,1,.241-.08c.083-.022.167-.044.252-.062a4.515,4.515,0,0,1,.538-.073c.085-.006.168-.011.256-.015s.175,0,.263,0l.173,0a1.171,1.171,0,0,1,.146.007,9.269,9.269,0,0,1,1.07.12c.132.02.26.046.39.069a16.75,16.75,0,0,0,2.708-.561C2102.278,1132.993,2104.111,1136.547,2102.849,1136.83Z" transform="translate(-2061.193 -1119.069)" fill="#f9b098"/>
        <path id="Path_31067" data-name="Path 31067" d="M2099.47,1140.767c.023.02.049.04.073.06.008-.1.017-.208.023-.312a6.793,6.793,0,0,1,.193-2.052,3.484,3.484,0,0,1,1.325-1.489,5.223,5.223,0,0,0,1.4-1.212,2.561,2.561,0,0,0,.355-.952,6.431,6.431,0,0,1-1.476.247c-.129-.023-.258-.048-.389-.069a9.092,9.092,0,0,0-1.071-.12,1.237,1.237,0,0,0-.146-.007l-.173,0c-.088,0-.176,0-.262,0s-.172.008-.257.015a4.591,4.591,0,0,0-.538.073c-.086.019-.169.041-.252.063a2.3,2.3,0,0,0-.241.08,2.706,2.706,0,0,0-.436.216c-.066.045-.132.089-.194.139a2.043,2.043,0,0,0-.175.162,11.59,11.59,0,0,1,1.434,3.781,1.365,1.365,0,0,0,.028.161A2.331,2.331,0,0,0,2099.47,1140.767Z" transform="translate(-2061.184 -1123.066)" fill="#e5a18f"/>
        <path id="Path_31068" data-name="Path 31068" d="M2068.452,1017.478l-.861,4.39s-1.265,1.337-1.137,2.381c.024.193.9.337.9.337s-1.479,3.942.355,4.184c2.876.381,6.5-2.7,8.131-3.693S2072.926,1016.235,2068.452,1017.478Z" transform="translate(-2032.631 -1014.12)" fill="#f9b098"/>
        <path id="Path_31069" data-name="Path 31069" d="M2081.151,1063.164c.055.26,1.392.048,1.721-.19S2081,1062.434,2081.151,1063.164Z" transform="translate(-2046.264 -1056.19)" fill="#561b1b"/>
        <path id="Path_31070" data-name="Path 31070" d="M2152.316,1099.962s.63-.062.808.381-.728,1.048-.728,1.048.559-.648.47-.861S2152.2,1100.184,2152.316,1099.962Z" transform="translate(-2112.261 -1090.742)" fill="#e5a18f"/>
        <path id="Path_31071" data-name="Path 31071" d="M2107.391,1036.746a2.038,2.038,0,0,0,.675,2.134c1.1,1.172.738,2.355,1.342,2.782s.227-.993,1.463-.829c.845.112,1.6,1.562,0,2.45s1.165-.284,1.633.994c.7,1.913,2.854,1.724,3.22-.221S2114.386,1036.173,2107.391,1036.746Z" transform="translate(-2070.533 -1032.077)" fill="#561b1b"/>
        <path id="Path_31072" data-name="Path 31072" d="M2191.83,1115.88s1.22,1.167.858,1.953c-.426.926-1.661.8-1.742.225s1.043-.137,1.18-.589A2.036,2.036,0,0,0,2191.83,1115.88Z" transform="translate(-2148.099 -1105.509)" fill="#fff" opacity="0.2"/>
        <path id="Path_31073" data-name="Path 31073" d="M2100.068,972.975s-.782-.315-1.121.142-2.512,1.7-2.1,2.252S2100.01,973.466,2100.068,972.975Z" transform="translate(-2060.783 -972.869)" fill="url(#linear-gradient-8)"/>
        <path id="Path_31074" data-name="Path 31074" d="M2100.4,979.865c.432-2.276-.792-7.217-6.9-6.839,0,0-2.19,2.21-3.282,2.348l-.492,1.207s6.783,2.057,9.524,6.346A6.125,6.125,0,0,0,2100.4,979.865Z" transform="translate(-2054.228 -972.996)" fill="#29477c"/>
        <path id="Path_31075" data-name="Path 31075" d="M2093.87,973.678c-.016.247.183.731-.064.91a1.324,1.324,0,0,1-.286.085,1.832,1.832,0,0,0-.406.231.968.968,0,0,0-.419,1.141c.409,1.084,1.782,1.175,2.537,1.891a1.629,1.629,0,0,1,.453.725c.1.337.108.7.176,1.044.011.055.028.107.041.162a24.918,24.918,0,0,0-6.172-3.283l.492-1.207c1.092-.139,3.282-2.348,3.282-2.348.219-.014.429-.019.634-.02A1.263,1.263,0,0,0,2093.87,973.678Z" transform="translate(-2054.228 -973)" fill="#561b1b" opacity="0.1"/>
        <path id="Path_31076" data-name="Path 31076" d="M2194.63,1085.2c-.645-1.366-3.06-3.041-3.06-3.041s1.395,3.4,1.956,4.57a9.36,9.36,0,0,0,2.117,2.44A18.091,18.091,0,0,0,2194.63,1085.2Z" transform="translate(-2148.683 -1074.234)" fill="url(#linear-gradient-9)"/>
        <path id="Path_31077" data-name="Path 31077" d="M2100.219,1025.091s-3.906-6.186-10.343-7.731l-.146.36A31.872,31.872,0,0,1,2100.219,1025.091Z" transform="translate(-2054.228 -1014.134)" fill="url(#linear-gradient)"/>
        <path id="Path_31078" data-name="Path 31078" d="M2089.616,1076.538c0,.232-.136.417-.3.417s-.3-.186-.3-.417.133-.418.3-.418a.15.15,0,0,1,.053.01.186.186,0,0,0-.139.182.19.19,0,0,0,.192.189.187.187,0,0,0,.172-.109A.521.521,0,0,1,2089.616,1076.538Z" transform="translate(-2053.569 -1068.632)" fill="#561b1b"/>
        <path id="Path_31079" data-name="Path 31079" d="M2075.258,1130.49a2.608,2.608,0,0,0,1.845.2s-1.085,1.207-1.9.531C2074.9,1130.969,2075.258,1130.49,2075.258,1130.49Z" transform="translate(-2040.641 -1119.059)" fill="#fff"/>
        <g id="Group_28347" data-name="Group 28347" transform="translate(26.27 18.148)">
          <path id="Path_31080" data-name="Path 31080" d="M2056.934,1431.919a60.013,60.013,0,0,1,1.93,11.167l-22.144,9.232.041,2.906c16.2.482,29.1-.929,30.6-9.675.612-3.555-.581-9.788-2.714-15.339A38,38,0,0,1,2056.934,1431.919Z" transform="translate(-2031.332 -1415.192)" fill="#f9b098"/>
          <path id="Path_31081" data-name="Path 31081" d="M1964.624,1715.575h0a5.7,5.7,0,0,0,1.1-.318h-.011a7.087,7.087,0,0,0,.764-.308,8.329,8.329,0,0,0,.954-.512s0,0,0,0a2.19,2.19,0,0,0,.41-.311s4.667-.623,5.22-.891c.456-.482-.467-2.582-.467-2.582-.481-.319-4.523.82-5.388.479-1.01-.4-2.6-2.367-2.906-1.6s1.158,1.7,1.158,1.7h-.062a6.088,6.088,0,0,0-1.969.307h0a2.715,2.715,0,0,0-.622.32c-.033.024-.065.047-.1.072a1.437,1.437,0,0,0-.157.144l-.025.025c-.025.025-.048.052-.07.08l0,0v0a.6.6,0,0,0-.025.358.521.521,0,0,0,.5.483.54.54,0,0,0-.182.617c.147.413.451.289.451.289a.776.776,0,0,0-.125.663.357.357,0,0,0,.484.189.572.572,0,0,0-.06.614C1963.64,1715.75,1964.624,1715.575,1964.624,1715.575Z" transform="translate(-1962.42 -1674.093)" fill="#f9b098"/>
          <path id="Path_31082" data-name="Path 31082" d="M1963.75,1715.265a.036.036,0,0,0,0,.043,1,1,0,0,1,.163.606.3.3,0,0,0,.029.224.428.428,0,0,0,.082.07.286.286,0,0,1,.081.11,1.516,1.516,0,0,1,.13.456,1.886,1.886,0,0,1,.016.219c-.292.013-.655-.015-.735-.223a.574.574,0,0,1,.06-.615.357.357,0,0,1-.484-.189.773.773,0,0,1,.125-.663s-.3.124-.451-.29a.54.54,0,0,1,.182-.616.521.521,0,0,1-.5-.483.608.608,0,0,1,.024-.358v0l0,0c.022-.028.046-.054.07-.08l.024-.025a1.732,1.732,0,0,1,.158-.144c.031-.025.063-.048.1-.072a1.172,1.172,0,0,0,.029.366.636.636,0,0,0,.18.356c.109.1.258.115.374.2a.426.426,0,0,1,.148.394c-.015.124-.076.23-.04.356a1.107,1.107,0,0,0,.232.361Zm.784-4.416s.461.459.576.442.122-.16.122-.16S1964.726,1710.765,1964.534,1710.849Z" transform="translate(-1962.431 -1675.468)" fill="#fff" opacity="0.2"/>
          <path id="Path_31083" data-name="Path 31083" d="M2248.834,1241.115a38.046,38.046,0,0,0,7.1-1.578c-3.185-8.129-8.633-15.929-14.412-16.417-1,.582,1.877,10.554,4.253,18.2A28.28,28.28,0,0,0,2248.834,1241.115Z" transform="translate(-2221.09 -1223.12)" fill="#29477c"/>
          <path id="Path_31084" data-name="Path 31084" d="M2262.542,1302.221a6.722,6.722,0,0,0-2.11-.546c-1.287-.073-2.626.106-3.8-.535a5.629,5.629,0,0,1-2.017-2.372,29.611,29.611,0,0,1-1.379-3.088,24.24,24.24,0,0,0-1.862-3.612c-.127-.207-.264-.407-.4-.608.866,3.7,2.392,8.854,3.755,13.238a28.458,28.458,0,0,0,3.064-.2,37.613,37.613,0,0,0,6.676-1.449C2263.811,1302.815,2263.188,1302.478,2262.542,1302.221Z" transform="translate(-2230.044 -1286.504)" fill="#202234" opacity="0.15"/>
        </g>
        <g id="Group_28348" data-name="Group 28348" transform="translate(30.52 15.852)">
          <path id="Path_31085" data-name="Path 31085" d="M2043.016,1469.14l9.454-1.442a1.1,1.1,0,0,1,1.252.92l.858,5.627a1.1,1.1,0,0,1-.92,1.252l-9.454,1.442a1.1,1.1,0,0,1-1.252-.921l-.858-5.626A1.1,1.1,0,0,1,2043.016,1469.14Z" transform="translate(-2040.556 -1447.653)" fill="#001a2f"/>
          <rect id="Rectangle_17629" data-name="Rectangle 17629" width="12.479" height="6.311" transform="translate(1.142 22.48) rotate(-8.673)" fill="#27324f"/>
          <path id="Path_31086" data-name="Path 31086" d="M2084.908,1504.3a2.367,2.367,0,1,1-2.7-1.983A2.367,2.367,0,0,1,2084.908,1504.3Z" transform="translate(-2075.91 -1479.75)" fill="#eaf6fc"/>
          <path id="Path_31087" data-name="Path 31087" d="M2093.092,1513.268a1.674,1.674,0,0,1-.984,1.785,1.643,1.643,0,0,1-.419.122,1.575,1.575,0,0,1-.3.018,1.026,1.026,0,0,1-.168-.014,1.674,1.674,0,0,1-.039-3.314,1.581,1.581,0,0,1,.3-.018.982.982,0,0,1,.168.014,1.666,1.666,0,0,1,1.442,1.407Z" transform="translate(-2084.779 -1488.612)" fill="#7aa5b8"/>
          <rect id="Rectangle_17630" data-name="Rectangle 17630" width="1.434" height="1.434" transform="matrix(0.989, -0.151, 0.151, 0.989, 9.537, 19.762)" fill="#26374d"/>
          <path id="Path_31088" data-name="Path 31088" d="M2101.366,1511.848l-.258,3.331a1.671,1.671,0,0,1-.687-.248l.23-2.944a1.63,1.63,0,0,1,.716-.139Zm.856.262-.23,2.944a1.646,1.646,0,0,1-.418.122,1.581,1.581,0,0,1-.3.018l.258-3.331A1.66,1.66,0,0,1,2102.221,1512.109Z" transform="translate(-2094.662 -1488.612)" fill="#011323" opacity="0.1"/>
          <path id="Path_31089" data-name="Path 31089" d="M2033.1,1191.753s4.282,14.7.469,19.754a60.081,60.081,0,0,0,.952-16.163C2033.948,1189.935,2033.1,1191.753,2033.1,1191.753Zm-5.483.176s-7.283,10.177-4.9,21.536C2022.71,1213.464,2016.615,1203.44,2027.613,1191.929Z" transform="translate(-2021.025 -1191.459)" fill="#001a2f"/>
        </g>
      </g>
      <g id="Group_28351" data-name="Group 28351" transform="translate(56.601 123.58)">
        <path id="Path_31090" data-name="Path 31090" d="M1558.19,2128.689s15.629-2.675,16.723,2.956c.81,4.172.42,16.5.163,22.609a5.618,5.618,0,0,1-3.366,4.914l-2.892,1.261Z" transform="translate(-1546.701 -2128.054)" fill="#6469d4"/>
        <path id="Path_31091" data-name="Path 31091" d="M1704.02,2142.35s4.731,2.307,3.855,9.125c-.984,7.666-1.528,21.222-1.528,21.222l.617-.269s2.033-18.237,1.432-24.29C1708.217,2146.333,1707.076,2143.114,1704.02,2142.35Z" transform="translate(-1681.955 -2141.313)" fill="#25377a"/>
        <path id="Path_31092" data-name="Path 31092" d="M1411.878,2136.386c-.625.016-10.471-.312-11.1,7.509-.474,5.923-.857,15.971-1.015,20.5a3.072,3.072,0,0,0,2.214,3.057c4.587,1.336,14.888,3.795,19.9.689l.782-27.689S1424.069,2136.073,1411.878,2136.386Z" transform="translate(-1399.764 -2135.767)" fill="#5159bf"/>
        <path id="Path_31093" data-name="Path 31093" d="M1454.282,2360.81h13.91s3.126,12.319-8.44,12.319S1454.282,2360.81,1454.282,2360.81Z" transform="translate(-1448.84 -2343.93)" fill="#25377a"/>
        <path id="Path_31094" data-name="Path 31094" d="M1732,2258.8v6.022a2.247,2.247,0,0,1-4.495,0V2258.8a2.242,2.242,0,0,1,1.295-2.033V2255.3c0-.133.426-.239.953-.239s.954.106.954.239v1.472A2.243,2.243,0,0,1,1732,2258.8Z" transform="translate(-1703.742 -2245.85)" fill="#fcffff" opacity="0.63"/>
        <path id="Path_31095" data-name="Path 31095" d="M1745.007,2254.763c0-.207-.511-.373-1.144-.373s-1.144.166-1.144.373a.158.158,0,0,0,.011.039.151.151,0,0,0-.011.042c0,.225.511.406,1.144.406s1.144-.18,1.144-.406a.177.177,0,0,0-.012-.042A.154.154,0,0,0,1745.007,2254.763Z" transform="translate(-1717.849 -2245.228)" fill="#de3d76"/>
        <path id="Path_31096" data-name="Path 31096" d="M1747.247,2255.289c0,.133-.426.239-.954.239s-.954-.106-.954-.239.426-.239.954-.239S1747.247,2255.157,1747.247,2255.289Z" transform="translate(-1720.279 -2245.84)" fill="#25377a"/>
        <path id="Path_31097" data-name="Path 31097" d="M1731.373,2295.7a2.814,2.814,0,0,1-1.327.061,6.248,6.248,0,0,1-1.409-.614,3.971,3.971,0,0,0-.963-.362,2.228,2.228,0,0,0-.174.863v6.022a2.247,2.247,0,0,0,4.495,0v-6.022c0-.033,0-.066,0-.1C1731.785,2295.593,1731.578,2295.646,1731.373,2295.7Z" transform="translate(-1703.732 -2282.689)" fill="#fcffff" opacity="0.63"/>
        <path id="Path_31098" data-name="Path 31098" d="M1715.714,2327.98h4.814s1.082,11.023-2.921,11.023S1715.714,2327.98,1715.714,2327.98Z" transform="translate(-1692.286 -2313.481)" fill="#25377a"/>
        <path id="Path_31099" data-name="Path 31099" d="M1477.371,2251.188h-15.012a.469.469,0,0,1-.469-.469h0a.47.47,0,0,1,.469-.469h15.012a.469.469,0,0,1,.469.469h0A.469.469,0,0,1,1477.371,2251.188Z" transform="translate(-1457.385 -2241.388)" fill="#7c85ce"/>
        <path id="Path_31100" data-name="Path 31100" d="M1507.29,2233.42s-.684,4.935-.2,5.081.923-5.081.8-5.081Z" transform="translate(-1499.147 -2225.779)" fill="#25377a"/>
        <path id="Path_31101" data-name="Path 31101" d="M1503.394,2269.061s-.1.439,0,.586a1.75,1.75,0,0,0,1.059.1.529.529,0,0,0,.156-.684C1504.428,2268.732,1503.711,2268.743,1503.394,2269.061Z" transform="translate(-1495.838 -2258.61)" fill="#6469d4"/>
        <g id="Group_28350" data-name="Group 28350" transform="translate(15.589 7.641)">
          <path id="Path_31102" data-name="Path 31102" d="M1618.673,2233.42s-.684,4.935-.2,5.081.923-5.081.8-5.081Z" transform="translate(-1618.043 -2233.42)" fill="#25377a"/>
          <path id="Path_31103" data-name="Path 31103" d="M1614.774,2269.061s-.1.439,0,.586a1.75,1.75,0,0,0,1.059.1.529.529,0,0,0,.156-.684C1615.808,2268.732,1615.091,2268.743,1614.774,2269.061Z" transform="translate(-1614.73 -2266.251)" fill="#6469d4"/>
        </g>
      </g>
    </g>
  </g>
</svg>
