<svg xmlns="http://www.w3.org/2000/svg" width="239.923" height="169.767" viewBox="0 0 239.923 169.767">
  <g id="_03" data-name="03" transform="translate(-94.236 -72.616)">
    <path id="Path_30059" data-name="Path 30059" d="M302.395,114.707c-14.442-23.757-55.892-39.925-104-38.18C139.441,78.649,92.809,106.88,94.27,139.575c.717,15.93,12.76,30,31.749,39.981C140.433,203.3,181.883,219.481,230,217.736c58.979-2.15,105.583-30.362,104.122-63.058C333.4,138.749,321.384,124.675,302.395,114.707Z" transform="translate(0 -3.782)" fill="#d5efe7" fill-rule="evenodd"/>
    <g id="Group_28319" data-name="Group 28319" transform="translate(191.657 100.026)">
      <path id="Path_30060" data-name="Path 30060" d="M1955.923,329.553c-1.02,10.932-7.708,22.324-18.86,30.123s-24.143,10.17-34.763,7.386c1.029-10.932,7.708-22.324,18.86-30.123S1945.3,326.76,1955.923,329.553Z" transform="translate(-1852.15 -304.887)" fill="#5e9d9a" fill-rule="evenodd"/>
      <path id="Path_30061" data-name="Path 30061" d="M1900,365.418l.018-.156c1.066-11.4,8.149-22.719,18.943-30.261s23.849-10.326,34.928-7.414l.156.037-.018.156c-1.066,11.4-8.149,22.71-18.943,30.261s-23.849,10.317-34.928,7.414Zm53.632-37.519c-10.932-2.811-23.794-.055-34.45,7.4s-17.657,18.594-18.769,29.829c10.942,2.811,23.8.046,34.45-7.4S1952.521,339.135,1953.632,327.9Z" transform="translate(-1850.061 -303.096)" fill="#38c551"/>
      <path id="Path_30062" data-name="Path 30062" d="M1900.149,376.425a.192.192,0,0,1,.046-.266l53.632-37.509a.191.191,0,0,1,.22.312l-53.632,37.509A.192.192,0,0,1,1900.149,376.425Z" transform="translate(-1850.165 -314.139)" fill="#fff"/>
      <path id="Path_30063" data-name="Path 30063" d="M1998.015,336.372a.327.327,0,0,1-.037-.1.194.194,0,0,1,.184-.2l8.185-.441a.193.193,0,1,1,.018.386l-8.185.441A.2.2,0,0,1,1998.015,336.372Zm-6.8,4.759a.188.188,0,0,1-.028-.156l3.078-12.2a.189.189,0,1,1,.367.092l-3.077,12.2a.189.189,0,0,1-.23.138A.183.183,0,0,1,1991.217,341.131Zm-7.184,5.025a.181.181,0,0,1-.028-.138.2.2,0,0,1,.221-.156l15.792,2.756a.191.191,0,1,1-.064.377l-15.792-2.756A.162.162,0,0,1,1984.033,346.156Zm-11.171,7.818a.188.188,0,0,1-.028-.156l5.705-20.33a.193.193,0,0,1,.239-.129.19.19,0,0,1,.129.239l-5.705,20.33a.194.194,0,0,1-.239.129A.989.989,0,0,1,1972.862,353.974Zm-7.956,5.558a.181.181,0,0,1-.028-.138.2.2,0,0,1,.22-.156l18.906,3.335a.191.191,0,1,1-.064.377l-18.906-3.335A.178.178,0,0,1,1964.906,359.532Zm-5.769,4.042a.22.22,0,0,1-.037-.138l2.343-15.59a.191.191,0,0,1,.377.064l-2.333,15.59a.19.19,0,0,1-.221.156A.212.212,0,0,1,1959.137,363.574Z" transform="translate(-1903.732 -305.073)" fill="#fff"/>
      <path id="Path_30064" data-name="Path 30064" d="M1818.5,74.9c7.661,7.864,12.007,20.33,10.721,33.89s-7.9,24.979-16.913,31.262c-7.662-7.864-12.007-20.33-10.721-33.89S1809.5,81.175,1818.5,74.9Z" transform="translate(-1760.486 -74.652)" fill="#8dd0cc" fill-rule="evenodd"/>
      <path id="Path_30065" data-name="Path 30065" d="M1810.561,137.848l-.11-.119c-7.992-8.2-12.016-20.927-10.767-34.037s7.6-24.859,16.986-31.4l.129-.092.11.119c7.992,8.195,12.016,20.918,10.767,34.037s-7.6,24.85-16.986,31.4Zm6.192-65.152c-9.233,6.5-15.461,18.089-16.692,31.033s2.71,25.493,10.555,33.623c9.233-6.5,15.47-18.1,16.692-31.033S1824.589,80.817,1816.753,72.7Z" transform="translate(-1758.758 -72.2)" fill="#61ea75"/>
      <path id="Path_30066" data-name="Path 30066" d="M1918.568,138.331a.2.2,0,0,1-.174-.211l6.192-65.152a.194.194,0,0,1,.386.037l-6.192,65.152a.19.19,0,0,1-.212.175Z" transform="translate(-1866.765 -72.738)" fill="#fff"/>
      <path id="Path_30067" data-name="Path 30067" d="M1827.482,132.18a.226.226,0,0,1-.1-.037.191.191,0,0,1-.037-.266l4.97-6.523a.19.19,0,1,1,.3.23l-4.97,6.523A.216.216,0,0,1,1827.482,132.18Zm-.781,8.259a.218.218,0,0,1-.138-.083l-7.294-10.252a.191.191,0,0,1,.313-.22l7.294,10.252a.192.192,0,0,1-.046.266A.211.211,0,0,1,1826.7,140.439Zm-.836,8.737a.193.193,0,0,1-.129-.064.189.189,0,0,1,.028-.266l12.338-10.234a.189.189,0,1,1,.239.294l-12.328,10.225A.217.217,0,0,1,1825.865,149.176Zm-1.286,13.56a.2.2,0,0,1-.138-.083l-11.786-17.519a.192.192,0,1,1,.321-.211l11.787,17.519a.2.2,0,0,1-.055.266A.167.167,0,0,1,1824.579,162.735Zm-.919,9.664a.244.244,0,0,1-.129-.064.189.189,0,0,1,.027-.266l14.791-12.227a.189.189,0,1,1,.239.294L1823.8,172.363A.186.186,0,0,1,1823.66,172.4Zm-.671,7.019a.193.193,0,0,1-.129-.064l-10.353-11.888a.189.189,0,1,1,.285-.248l10.363,11.888a.181.181,0,0,1-.018.266.2.2,0,0,1-.147.046Z" transform="translate(-1770.561 -120.403)" fill="#fff"/>
      <path id="Path_30068" data-name="Path 30068" d="M1663.379,106c7.377,5.31,12.705,14.846,13.606,26.081s-2.857,21.5-9.288,27.909c-7.377-5.31-12.705-14.846-13.606-26.081S1656.949,112.4,1663.379,106Z" transform="translate(-1626.623 -102.895)" fill="#5e9d9a" fill-rule="evenodd"/>
      <path id="Path_30069" data-name="Path 30069" d="M1666.175,158.1l-.11-.073c-7.689-5.54-12.8-15.333-13.67-26.2s2.618-21.35,9.334-28.038l.092-.092.11.073c7.689,5.53,12.8,15.323,13.67,26.2s-2.618,21.341-9.334,28.038Zm-4.318-53.99c-6.587,6.624-10,16.968-9.15,27.689s5.87,20.385,13.431,25.888c6.587-6.633,10-16.968,9.15-27.689S1669.417,109.607,1661.857,104.113Z" transform="translate(-1625.083 -100.806)" fill="#38c551"/>
      <path id="Path_30070" data-name="Path 30070" d="M1759.365,158.594a.149.149,0,0,1-.165-.147l-4.309-53.99a.156.156,0,0,1,.312-.018l4.308,53.99A.154.154,0,0,1,1759.365,158.594Z" transform="translate(-1718.282 -101.343)" fill="#fff"/>
      <path id="Path_30071" data-name="Path 30071" d="M1663.372,147.22a.136.136,0,0,1-.083-.018.153.153,0,0,1-.064-.211l3.115-6.026a.156.156,0,1,1,.276.147l-3.114,6.026A.156.156,0,0,1,1663.372,147.22Zm.551,6.844a.141.141,0,0,1-.12-.046l-7.423-7.3a.156.156,0,0,1,.22-.22l7.423,7.3a.15.15,0,0,1,0,.22A.148.148,0,0,1,1663.924,154.064Zm.579,7.239a.16.16,0,0,1-.11-.037.158.158,0,0,1-.018-.22l8.59-10.115a.156.156,0,0,1,.239.2l-8.589,10.115A.159.159,0,0,1,1664.5,161.3Zm.9,11.245a.172.172,0,0,1-.129-.046l-12.117-12.586a.156.156,0,0,1,.221-.22l12.117,12.586a.158.158,0,0,1,0,.22A.146.146,0,0,1,1665.4,172.548Zm.634,8.011a.16.16,0,0,1-.11-.037.159.159,0,0,1-.019-.22l10.3-12.1a.156.156,0,0,1,.239.2l-10.3,12.1A.209.209,0,0,1,1666.037,180.559Zm.469,5.806a.161.161,0,0,1-.11-.037l-10.151-8.2a.16.16,0,0,1-.028-.22.17.17,0,0,1,.221-.028l10.151,8.2a.16.16,0,0,1,.028.22A.13.13,0,0,1,1666.505,186.365Z" transform="translate(-1625.855 -134.57)" fill="#fff"/>
      <path id="Path_30072" data-name="Path 30072" d="M1358.2,341.955c8.82-2.177,19.54-.055,28.681,6.55s14.524,16.1,15.232,25.162c-8.819,2.177-19.54.055-28.681-6.55S1358.907,351.013,1358.2,341.955Z" transform="translate(-1358.034 -316.425)" fill="#8dd0cc" fill-rule="evenodd"/>
      <path id="Path_30073" data-name="Path 30073" d="M1400.643,372.283l-.129.028c-9.2,2.269-19.972-.193-28.809-6.568s-14.561-15.838-15.3-25.282l-.009-.129.129-.028c9.2-2.269,19.972.184,28.809,6.568s14.552,15.829,15.3,25.282Zm-43.912-31.712c.771,9.306,6.431,18.612,15.158,24.914s19.329,8.746,28.414,6.55c-.781-9.315-6.44-18.621-15.158-24.914S1365.817,338.384,1356.731,340.57Z" transform="translate(-1356.4 -314.921)" fill="#61ea75"/>
      <path id="Path_30074" data-name="Path 30074" d="M1400.692,380.356a.161.161,0,0,1-.22.037l-43.912-31.713a.158.158,0,1,1,.184-.257l43.912,31.712A.16.16,0,0,1,1400.692,380.356Z" transform="translate(-1356.487 -323.021)" fill="#fff"/>
      <path id="Path_30075" data-name="Path 30075" d="M1392.481,346.686a.124.124,0,0,1-.064.055.152.152,0,0,1-.2-.083l-2.572-6.284a.154.154,0,1,1,.285-.119l2.572,6.284a.169.169,0,0,1-.018.147Zm5.567,4.015a.14.14,0,0,1-.11.064l-10.372.919a.161.161,0,0,1-.027-.322l10.372-.919a.162.162,0,0,1,.174.147A.306.306,0,0,1,1398.048,350.7Zm5.879,4.253a.15.15,0,0,1-.1.064.163.163,0,0,1-.184-.129L1401.5,341.8a.158.158,0,1,1,.312-.055l2.141,13.091A.132.132,0,0,1,1403.927,354.954Zm9.15,6.605a.157.157,0,0,1-.119.064l-17.445,1.075a.156.156,0,1,1-.018-.312l17.445-1.075a.155.155,0,0,1,.166.147A.184.184,0,0,1,1413.077,361.559Zm6.513,4.7a.15.15,0,0,1-.1.064.162.162,0,0,1-.184-.129l-2.536-15.682a.159.159,0,0,1,.312-.055l2.535,15.682A.253.253,0,0,1,1419.591,366.262Zm4.722,3.417a.162.162,0,0,1-.1.064l-12.825,2.416a.159.159,0,1,1-.055-.312l12.825-2.416a.156.156,0,0,1,.184.129A.146.146,0,0,1,1424.313,369.68Z" transform="translate(-1384.544 -315.543)" fill="#fff"/>
    </g>
    <path id="Path_30076" data-name="Path 30076" d="M770.622,569.1h67.725a10.356,10.356,0,0,1,10.322,10.328v50.109a10.352,10.352,0,0,1-10.322,10.328H786.61L773.3,651.172V639.866h-2.67A10.358,10.358,0,0,1,760.3,629.538V579.428A10.352,10.352,0,0,1,770.622,569.1Z" transform="translate(-594.405 -408.789)" fill="#f3ac04" fill-rule="evenodd"/>
    <path id="Path_30077" data-name="Path 30077" d="M997.936,663.595c3.219-2.485,7.741-3.264,10.986-6.592,4.03-4.765,5.864-16.85,8.061-20.516,1.463-2.2,3.807-1.054,4.759.37,4.03,6.592-1.833,13.918-1.1,20.146,1.59,1.986,13.554-1.833,17.584,2.2,4.088,5.5,1.284,12.826-1.06,17.9-1.833,4.03-4.516,7.556-7.729,9.217-5.052,2.715-10.993,2.568-16.122,1.463-4.759-1.463-8.789-4.03-15.381-4.395Zm-15.062-1.654H991.3a2.879,2.879,0,0,1,2.874,2.874v16.844a2.879,2.879,0,0,1-2.874,2.874h-8.425A2.879,2.879,0,0,1,980,681.658V664.815A2.875,2.875,0,0,1,982.874,661.94Z" transform="translate(-800.071 -470.721)" fill="#fff" fill-rule="evenodd"/>
    <path id="Path_30117" data-name="Path 30117" d="M962.832,565.455l-.79-2.214a3.816,3.816,0,0,0-1.608-.441c-1.424.092-4.079.064-4.143,1.038-.064,1.387,3.353,2.021,4.456,1.929Z" transform="translate(-782.86 -445.499)" fill="#2db58b" fill-rule="evenodd"/>
    <path id="Path_30118" data-name="Path 30118" d="M1021.141,562.1l-.818-2.4-1.929.79a1.919,1.919,0,0,0,.763,2.15Z" transform="translate(-839.175 -442.684)" fill="#ff9866" fill-rule="evenodd"/>
    <g id="Group_28320" data-name="Group 28320" transform="translate(154.914 105.354)">
      <path id="Path_30115" data-name="Path 30115" d="M1080.5,471.7h7.643a2.384,2.384,0,0,1,0,4.768H1080.5a2.384,2.384,0,1,1,0-4.768Z" transform="translate(-1066.925 -440.327)" fill="#6767fd" fill-rule="evenodd"/>
      <path id="Path_30116" data-name="Path 30116" d="M1024.882,274.2h-.211c-1.038,0-2.113,0-3.188.092a11.656,11.656,0,0,0-3.353.762c-2.655,1.8-6.036,9.83-5.53,12.926.661,1.828,5.4,1.644,8.875,2.085v.441h5.944v-.349c3.509-.57,8.847-.221,9.545-2.177.533-3.1-2.848-11.125-5.494-12.926A17.954,17.954,0,0,0,1024.882,274.2Z" transform="translate(-1007.396 -260.971)" fill="#ea718b" fill-rule="evenodd"/>
      <path id="Path_30119" data-name="Path 30119" d="M1033.3,465.964a5.038,5.038,0,0,1-1.3-3.032c4.8-1.672,24.3-12.384,27.422-8.939C1063.272,459.23,1040.02,463.621,1033.3,465.964Z" transform="translate(-1025.059 -423.632)" fill="#2db58b" fill-rule="evenodd"/>
      <path id="Path_30120" data-name="Path 30120" d="M1263.8,565.455l.79-2.214a3.944,3.944,0,0,1,1.645-.441c1.424.092,4.042.064,4.106,1.038.092,1.387-3.353,2.021-4.419,1.929Z" transform="translate(-1235.565 -523.058)" fill="#42c5a0" fill-rule="evenodd"/>
      <path id="Path_30121" data-name="Path 30121" d="M1242.1,562.1l.818-2.4,1.929.79a1.832,1.832,0,0,1-.762,2.15Z" transform="translate(-1215.858 -520.243)" fill="#ff9866" fill-rule="evenodd"/>
      <path id="Path_30122" data-name="Path 30122" d="M983,465.964a5.3,5.3,0,0,0,1.268-3.032c-4.8-1.672-24.262-12.384-27.395-8.939C953.028,459.23,976.28,463.621,983,465.964Z" transform="translate(-956.45 -423.632)" fill="#42c5a0" fill-rule="evenodd"/>
      <path id="Path_30123" data-name="Path 30123" d="M1052.181,363h15.608a.9.9,0,0,1,.882.882v10.454a.882.882,0,0,1-.882.882h-15.608a.86.86,0,0,1-.882-.882V363.882A.87.87,0,0,1,1052.181,363Z" transform="translate(-1042.585 -341.613)" fill="#62cbec" fill-rule="evenodd"/>
      <path id="Path_30124" data-name="Path 30124" d="M1130.543,412.8h.064a1,1,0,0,0-.028.285,1.208,1.208,0,0,0,1.231,1.231.849.849,0,0,0,.257-.028v.064a1.517,1.517,0,0,1-1.516,1.516,1.534,1.534,0,1,1-.009-3.068Z" transform="translate(-1113.149 -386.838)" fill="#fff" fill-rule="evenodd"/>
      <path id="Path_30125" data-name="Path 30125" d="M1124.8,242.857c.028,1.36.028,2.683.064,4.042a2.467,2.467,0,0,0,4.079,0l-.156-4.3Z" transform="translate(-1109.335 -232.274)" fill="#ff9866" fill-rule="evenodd"/>
      <path id="Path_30126" data-name="Path 30126" d="M1103.091,177.964l-4.391-.064c.726,4.419.028,8.847,4.327,9.2h.092c4.327-.349,3.6-4.768,4.327-9.2l-4.354.064Z" transform="translate(-1085.631 -173.518)" fill="#ffaa81" fill-rule="evenodd"/>
      <path id="Path_30127" data-name="Path 30127" d="M1094.446,137.871a7.134,7.134,0,0,0,1.359-4.235,1.09,1.09,0,0,0,.156-.533,1.309,1.309,0,0,0-1.01-1.167,4.507,4.507,0,0,0-2.4-1.038,2.341,2.341,0,0,0-1.773-.7,2.289,2.289,0,0,0-1.608.57,6.519,6.519,0,0,0-1.773.257,2.373,2.373,0,0,0-.441-.028c-1.1,0-1.993.57-1.993,1.3a1,1,0,0,0,.092.441,3.529,3.529,0,0,0-.257.818,3.932,3.932,0,0,0,.193.6,6.8,6.8,0,0,1,.028,1.139c.027.092-.028.7.193.882a9.385,9.385,0,0,0,1.268,2.085c.946-1.038.257-3.381,2.848-3.16.919,0,.983-.505,1.709-.092.661-.946,1.038.377,2.5,0C1094.29,135.06,1093.592,136.484,1094.446,137.871Z" transform="translate(-1073.008 -130.2)" fill="#060352" fill-rule="evenodd"/>
    </g>
    <path id="Path_30128" data-name="Path 30128" d="M262.274,514.6a1.954,1.954,0,0,1-1.626-.854c-3.491-5.044-10.308-8.3-17.795-8.507s-14.469,2.655-18.236,7.5a1.984,1.984,0,1,1-3.133-2.434,22.557,22.557,0,0,1,9.058-6.752,30.439,30.439,0,0,1,24.676.689,22.669,22.669,0,0,1,8.672,7.257,1.986,1.986,0,0,1-.5,2.756A1.906,1.906,0,0,1,262.274,514.6Z" transform="translate(-115.18 -376.651)" fill="#5e9d9a"/>
    <path id="Path_30129" data-name="Path 30129" d="M314.116,598.959a1.981,1.981,0,0,1-1.635-.854c-2.343-3.39-6.954-5.576-12.025-5.723s-9.8,1.792-12.338,5.044a1.984,1.984,0,1,1-3.133-2.435,16.442,16.442,0,0,1,6.605-4.924,21.955,21.955,0,0,1,17.831.5,16.584,16.584,0,0,1,6.32,5.292,1.979,1.979,0,0,1-.505,2.756A2.016,2.016,0,0,1,314.116,598.959Z" transform="translate(-172.847 -455.79)" fill="#5e9d9a"/>
    <path id="Path_30130" data-name="Path 30130" d="M421.314,769.486a3.534,3.534,0,1,0,3.436,3.629A3.531,3.531,0,0,0,421.314,769.486Z" transform="translate(-293.734 -620.225)" fill="#5e9d9a" fill-rule="evenodd"/>
    <path id="Path_30131" data-name="Path 30131" d="M364.978,681.818a1.965,1.965,0,0,1-1.626-.854,8.008,8.008,0,0,0-6.385-2.986h-.009a7.984,7.984,0,0,0-6.541,2.637,1.984,1.984,0,1,1-3.133-2.435,10.564,10.564,0,0,1,4.189-3.142,13.729,13.729,0,0,1,11.116.312A10.531,10.531,0,0,1,366.6,678.7a1.977,1.977,0,0,1-.5,2.756A1.955,1.955,0,0,1,364.978,681.818ZM547.8,684.436a1.594,1.594,0,0,1-1.314-.689c-2.811-4.061-8.3-6.688-14.331-6.853s-11.649,2.141-14.68,6.036a1.6,1.6,0,0,1-2.517-1.966,18.1,18.1,0,0,1,7.294-5.439,24.522,24.522,0,0,1,19.871.551,18.234,18.234,0,0,1,6.982,5.843,1.6,1.6,0,0,1-.4,2.223A1.507,1.507,0,0,1,547.8,684.436Z" transform="translate(-229.424 -533.228)" fill="#5e9d9a"/>
    <path id="Path_30132" data-name="Path 30132" d="M2247.712,752.322a1.593,1.593,0,0,1-1.313-.689c-1.883-2.728-5.595-4.492-9.692-4.612s-7.9,1.442-9.94,4.061a1.6,1.6,0,1,1-2.517-1.966,13.266,13.266,0,0,1,5.319-3.969,17.67,17.67,0,0,1,14.359.4,13.267,13.267,0,0,1,5.089,4.263,1.6,1.6,0,0,1-.4,2.223,1.559,1.559,0,0,1-.9.285Z" transform="translate(-1934.027 -596.916)" fill="#5e9d9a"/>
    <path id="Path_30133" data-name="Path 30133" d="M2334.109,889.788a2.844,2.844,0,1,0,2.765,2.921A2.843,2.843,0,0,0,2334.109,889.788Z" transform="translate(-2031.448 -729.476)" fill="#5e9d9a" fill-rule="evenodd"/>
    <path id="Path_30134" data-name="Path 30134" d="M2288.679,821.736a1.594,1.594,0,0,1-1.314-.689,6.448,6.448,0,0,0-5.145-2.407h-.009a6.445,6.445,0,0,0-5.264,2.122,1.6,1.6,0,1,1-2.526-1.957,8.428,8.428,0,0,1,3.371-2.526,11.028,11.028,0,0,1,8.957.248,8.5,8.5,0,0,1,3.225,2.7,1.6,1.6,0,0,1-.4,2.223A1.561,1.561,0,0,1,2288.679,821.736Z" transform="translate(-1979.597 -661.966)" fill="#5e9d9a"/>
  </g>
</svg>
