<svg xmlns="http://www.w3.org/2000/svg" width="410.208" height="292.671" viewBox="0 0 410.208 292.671">
  <g id="log" transform="translate(-79.997 -71.69)">
    <path id="Path_29605" data-name="Path 29605" d="M248.874,466.921l5.66,1.128a2.113,2.113,0,0,0,2.48-1.654l1.551-7.768a2.113,2.113,0,0,0-1.654-2.48l-5.66-1.128a26.719,26.719,0,0,0-1.711-8.621l4.794-3.2a2.107,2.107,0,0,0,.583-2.923l-4.4-6.589a2.107,2.107,0,0,0-2.923-.583l-4.8,3.2a26.56,26.56,0,0,0-7.307-4.884l1.128-5.66a2.113,2.113,0,0,0-1.654-2.48l-7.768-1.551a2.113,2.113,0,0,0-2.48,1.654l-1.128,5.66a26.718,26.718,0,0,0-8.621,1.711l-3.2-4.794a2.107,2.107,0,0,0-2.923-.583l-6.589,4.4a2.107,2.107,0,0,0-.583,2.923l3.2,4.794a26.561,26.561,0,0,0-4.884,7.307l-5.66-1.128a2.113,2.113,0,0,0-2.48,1.654l-1.551,7.768a2.113,2.113,0,0,0,1.654,2.48l5.66,1.128a26.546,26.546,0,0,0,1.711,8.621l-4.794,3.2a2.107,2.107,0,0,0-.583,2.923l4.4,6.589a2.107,2.107,0,0,0,2.923.583l4.794-3.2a26.563,26.563,0,0,0,7.307,4.884l-1.128,5.66a2.113,2.113,0,0,0,1.654,2.48l7.768,1.551a2.113,2.113,0,0,0,2.48-1.654l1.128-5.66a26.716,26.716,0,0,0,8.621-1.711l3.2,4.8a2.107,2.107,0,0,0,2.923.583l6.589-4.4a2.107,2.107,0,0,0,.583-2.923l-3.2-4.8a26.535,26.535,0,0,0,4.89-7.307Zm-37.367-13.639a13.176,13.176,0,1,1,10.345,15.5A13.174,13.174,0,0,1,211.506,453.281Z" transform="translate(-39.589 -125.668)" fill="#ffaca3"/>
    <path id="Path_29606" data-name="Path 29606" d="M256.9,472.869l-5.66-1.128a26.939,26.939,0,0,0-.333-3.461H236.869a13.113,13.113,0,0,1,.481,6.884c-.019.083-.045.167-.064.25h21.254l.013-.064A2.1,2.1,0,0,0,256.9,472.869Zm-45.4-2.859a13.765,13.765,0,0,1,.481-1.731H190.605l-.308,1.545a2.113,2.113,0,0,0,1.654,2.48l5.66,1.128c.019.667.07,1.327.141,1.981h13.812A13.2,13.2,0,0,1,211.506,470.011Z" transform="translate(-39.589 -142.397)" fill="#f99c95"/>
    <path id="Path_29607" data-name="Path 29607" d="M427.309,150.52H164.232a26.613,26.613,0,0,0-26.612,26.612V327.921a26.613,26.613,0,0,0,26.612,26.612H427.3a26.613,26.613,0,0,0,26.612-26.612V177.132A26.6,26.6,0,0,0,427.309,150.52Z" transform="translate(-20.69 -28.304)" fill="#83c7cc"/>
    <path id="Path_29608" data-name="Path 29608" d="M611.564,315.98s-9.736,34.515,6.672,53.167,23.728,30.926,23.728,30.926.961-16.363-9.55-30.067S614.236,329.248,611.564,315.98Z" transform="translate(-189.831 -87.713)" fill="#76b832"/>
    <path id="Path_29609" data-name="Path 29609" d="M608.167,353.61s-4.282,19.151,4.826,29.029,27.221,25.311,29.657,31.765,4.538,1.583,4.538,1.583.5-10.717-18.331-24.266A49.288,49.288,0,0,1,608.167,353.61Z" transform="translate(-189.28 -101.224)" fill="#5da71c"/>
    <path id="Path_29610" data-name="Path 29610" d="M656.644,371.106c.006.846-.032,1.775-.122,2.814-1.038,11.7-2.923,24.728-2.923,24.728s-8.255-11.755-10.479-23.452-12.691-15.049-10.524-23.85a144.779,144.779,0,0,0,2.993-20.062.527.527,0,0,0,.006-.064s13.53,11.755,14.838,22.151c1.179,9.467,6.127,9.025,6.211,17.735Z" transform="translate(-198.307 -93.185)" fill="#5da71c"/>
    <path id="Path_29611" data-name="Path 29611" d="M658.478,371.106a77.5,77.5,0,0,1-7.057,8.864c3.275-5.019,1.282-11.281-3.128-15.331-3.307-3.038-8.018-5.41-9.23-9.4-.654-2.141-.173-4.429.122-6.666.763-5.807.91-12.172-1.775-17.293a.524.524,0,0,0,.006-.064s13.53,11.755,14.838,22.151c1.192,9.467,6.14,9.025,6.224,17.735Z" transform="translate(-200.141 -93.185)" fill="#76b832"/>
    <path id="Path_29612" data-name="Path 29612" d="M687.369,381.023l-.006.006a14.028,14.028,0,0,1-.3,3.391c-2.423,10.7-22.222,25.08-22.222,25.08v-.019c-.128-19.049,15.876-27.554,11.447-40.828-4.365-13.095,5.32-25.106,5.589-25.433C677.21,352.783,687.151,369.909,687.369,381.023Z" transform="translate(-209.989 -97.494)" fill="#6fad27"/>
    <path id="Path_29613" data-name="Path 29613" d="M686.062,402.22a14.029,14.029,0,0,1-.3,3.391c-2.423,10.7-22.222,25.08-22.222,25.08v-.019c.032-.455-7.089-7.884,3.359-15.787C676,407.988,685.684,403.463,686.062,402.22Z" transform="translate(-208.682 -118.678)" fill="#5da71c"/>
    <path id="Path_29614" data-name="Path 29614" d="M679.106,389.61s-21.209,6.967-17.62,23.568,1.154,21.17,1.154,21.17l-.365-10.755s-7.794-14.043,1.782-27.836Z" transform="translate(-207.995 -114.15)" fill="#5da71c"/>
    <path id="Path_29615" data-name="Path 29615" d="M697.829,320.94a15.2,15.2,0,0,0-8.928,14.928c.641,11.088,3.474,21.69-10.165,29.086s-24.657,15.684-16.831,33.989c0,0-8.852-12.492,1.006-32s6.647-14.03,14.146-20.856S687.542,321.01,697.829,320.94Z" transform="translate(-207.624 -89.494)" fill="#76b832"/>
    <path id="Path_29616" data-name="Path 29616" d="M634.37,445.291l9.191,22.927a9.012,9.012,0,0,0,9.313,5.916l12.748-1.6a9.011,9.011,0,0,0,7.563-8.037l3.237-24.484c.372-2.794-1.814-5.256-4.378-4.935l-34.663,4.352C634.825,439.747,633.319,442.676,634.37,445.291Z" transform="translate(-198.928 -130.464)" fill="#ef8a7f"/>
    <path id="Path_29617" data-name="Path 29617" d="M258.5,395.4a15.7,15.7,0,0,1,15.7-15.7H404.142a15.7,15.7,0,0,1,0,31.406H274.2A15.7,15.7,0,0,1,258.5,395.4Z" transform="translate(-64.092 -110.592)" fill="#eee"/>
    <path id="Path_29618" data-name="Path 29618" d="M298.107,408.281h-3.564l.058-6.115-5.281,3.083-1.839-3.262,5.339-3.025-5.339-2.91,1.839-3.384,5.281,3.147-.058-6.115h3.564l-.058,6.115,5.281-3.083,1.782,3.32-5.339,2.91,5.339,3.025-1.782,3.327-5.281-3.147Zm26.644,0h-3.564l.058-6.115-5.281,3.083-1.839-3.262,5.339-3.025-5.339-2.91,1.839-3.384,5.281,3.147-.058-6.115h3.564l-.058,6.115,5.281-3.083,1.782,3.32-5.339,2.91,5.339,3.025-1.782,3.327-5.281-3.147Zm26.638,0h-3.564l.058-6.115-5.281,3.083-1.84-3.262,5.339-3.025-5.339-2.91,1.84-3.384,5.281,3.147-.058-6.115h3.564l-.058,6.115,5.281-3.083,1.782,3.32-5.339,2.91,5.339,3.025-1.782,3.327-5.281-3.147Zm26.638,0h-3.564l.058-6.115-5.281,3.083-1.84-3.262,5.339-3.025-5.339-2.91,1.84-3.384,5.281,3.147-.058-6.115h3.564l-.058,6.115,5.281-3.083,1.782,3.32-5.339,2.91,5.339,3.025-1.782,3.327-5.281-3.147Zm26.644,0h-3.564l.058-6.115-5.281,3.083-1.84-3.262,5.339-3.025-5.339-2.91,1.84-3.384,5.281,3.147-.058-6.115h3.564l-.058,6.115,5.281-3.083,1.782,3.32-5.339,2.91,5.339,3.025-1.782,3.327-5.281-3.147Z" transform="translate(-74.497 -114.182)" fill="#4979ff"/>
    <path id="Path_29619" data-name="Path 29619" d="M109.17,356.411l4.942-10.351,7.832,3.589L117,359.994Z" transform="translate(-10.474 -98.513)" fill="#934d2a"/>
    <path id="Path_29620" data-name="Path 29620" d="M94.651,397.986l14.12-29.573a3.71,3.71,0,0,0-1.807-4.987l-7.409-3.391a3.857,3.857,0,0,0-5.07,1.84l-14.12,29.573a3.71,3.71,0,0,0,1.807,4.987l7.409,3.391A3.849,3.849,0,0,0,94.651,397.986Z" transform="translate(0 -103.407)" fill="#ab673c"/>
    <ellipse id="Ellipse_7051" data-name="Ellipse 7051" cx="23.619" cy="23.234" rx="23.619" ry="23.234" transform="matrix(0.94, -0.341, 0.341, 0.94, 90.192, 208.828)" fill="#b2b2ba" opacity="0.55"/>
    <path id="Path_29621" data-name="Path 29621" d="M153.6,302.789a30.338,30.338,0,0,0-14.8-40.8,31.553,31.553,0,0,0-41.463,15.043,30.338,30.338,0,0,0,14.8,40.8A31.547,31.547,0,0,0,153.6,302.789Zm-38.226,8.268a22.978,22.978,0,0,1-11.21-30.894,23.891,23.891,0,0,1,31.4-11.39,22.978,22.978,0,0,1,11.21,30.894A23.892,23.892,0,0,1,115.372,311.058Z" transform="translate(-5.146 -67.312)" fill="#5c637f"/>
    <circle id="Ellipse_7052" data-name="Ellipse 7052" cx="53.827" cy="53.827" r="53.827" transform="translate(221.257 71.69)" fill="#eee"/>
    <path id="Path_29622" data-name="Path 29622" d="M394.741,114.55v10.729h-8.569V114.55a15.011,15.011,0,1,0-30.022,0v10.729h-8.57V114.55a23.58,23.58,0,1,1,47.161,0Z" transform="translate(-96.076 -6.915)" fill="#c1c1c1"/>
    <path id="Path_29623" data-name="Path 29623" d="M213.087,275.194H430.208a3.4,3.4,0,0,0,0-6.794H213.087a3.4,3.4,0,0,0,0,6.794Zm0,19.818H430.208a3.4,3.4,0,0,0,0-6.794H213.087a3.4,3.4,0,1,0,0,6.794Zm0,19.818H349.134a3.4,3.4,0,1,0,0-6.794H213.087a3.4,3.4,0,0,0,0,6.794Z" transform="translate(-46.567 -70.629)" fill="#69b5b7"/>
    <path id="Path_29624" data-name="Path 29624" d="M593.35,184.75l6.929,14.569a2.145,2.145,0,0,0,3.961,0l6.929-14.569Z" transform="translate(-184.321 -40.595)" fill="#fc6363"/>
    <path id="Path_29625" data-name="Path 29625" d="M595.15,188.55l.923,1.942h13.659l.923-1.942Z" transform="translate(-184.967 -41.959)" fill="#f25555"/>
    <path id="Path_29626" data-name="Path 29626" d="M609.452,160.519H574.027a9.965,9.965,0,0,1-9.967-9.967V120.447a9.965,9.965,0,0,1,9.967-9.967h35.425a9.965,9.965,0,0,1,9.967,9.967v30.105A9.973,9.973,0,0,1,609.452,160.519Z" transform="translate(-173.804 -13.928)" fill="#fc6363"/>
    <path id="Path_29627" data-name="Path 29627" d="M580.129,142.387l13.39,13.3a1.346,1.346,0,0,0,2.057-.186l19.19-27.368a1.223,1.223,0,0,0-1.923-1.506l-18.209,20.869a1.358,1.358,0,0,1-1.782.231l-10.96-7.473a1.39,1.39,0,0,0-1.763,2.134Z" transform="translate(-179.42 -19.568)" fill="#eee"/>
    <path id="Path_29628" data-name="Path 29628" d="M374.706,305.943a15.7,15.7,0,0,1-13.966,22.875H230.8a15.6,15.6,0,0,1-7.172-1.737,15.7,15.7,0,0,0,13.966,8.531H367.534a15.7,15.7,0,0,0,7.172-29.669ZM175.929,270.576a30.324,30.324,0,0,0-9.55-37.733,30.282,30.282,0,0,1,4.98,24.555q0,.115,0,0a30.9,30.9,0,0,1-2.224,6.39A31.566,31.566,0,0,1,137.62,281.5v7.512l.9-1.872A31.58,31.58,0,0,0,175.929,270.576Zm119.844-62.935a53.617,53.617,0,0,1-34.509-12.524,53.834,53.834,0,0,0,94.181-44.6h-5.954c.064,1.09.109,2.186.109,3.294A53.823,53.823,0,0,1,295.774,207.641ZM421.508,174.9a10.676,10.676,0,0,1-3.25-.513,10.561,10.561,0,0,0,10.044,7.307h5.8l-3.23-6.794h-9.364Zm32.31,0h-7.441l-5.769,12.14a2.382,2.382,0,0,1-.224.372l3.051,6.416a2.145,2.145,0,0,0,3.961,0l5.768-12.139h.75v-4.551c.006-.756-.032-1.5-.1-2.237Z" transform="translate(-20.69 -28.304)" fill="#72bfc1"/>
    <path id="Path_29629" data-name="Path 29629" d="M394.321,143.6H340.058a3.537,3.537,0,0,0-3.538,3.538v15a30.669,30.669,0,0,0,61.339,0v-15A3.537,3.537,0,0,0,394.321,143.6Z" transform="translate(-92.105 -25.819)" fill="#ff9c00"/>
    <path id="Path_29630" data-name="Path 29630" d="M386.8,172.845a5.525,5.525,0,1,0-7.493,5.16l-2.782,8.127h9.5L383.243,178A5.527,5.527,0,0,0,386.8,172.845Z" transform="translate(-106.191 -34.336)" fill="#e88a03"/>
    <path id="Path_29631" data-name="Path 29631" d="M397.423,119.35V129.5h3.551a3.508,3.508,0,0,1,1.884.551v-5.269a23.591,23.591,0,0,0-9.864-19.177A23.521,23.521,0,0,1,397.423,119.35Zm8.986,15.581h-1.9v13.107a30.66,30.66,0,0,1-49.462,24.228,30.663,30.663,0,0,0,54.9-18.793v-15A3.545,3.545,0,0,0,406.409,134.932ZM364.26,124.785a15.044,15.044,0,0,1,15.011-15.03,14.868,14.868,0,0,1,7.531,2.038,15,15,0,0,0-27.977,7.557V129.5h5.435Z" transform="translate(-98.758 -11.716)" fill="#d4d6d6"/>
  </g>
</svg>
