<svg xmlns="http://www.w3.org/2000/svg" xmlns:xlink="http://www.w3.org/1999/xlink" width="219.438" height="162.563" viewBox="0 0 219.438 162.563">
  <defs>
    <filter id="Ellipse_7052" x="66.567" y="0" width="75.589" height="75.589" filterUnits="userSpaceOnUse">
      <feOffset dy="3" input="SourceAlpha"/>
      <feGaussianBlur stdDeviation="3" result="blur"/>
      <feFlood flood-opacity="0.161"/>
      <feComposite operator="in" in2="blur"/>
      <feComposite in="SourceGraphic"/>
    </filter>
  </defs>
  <g id="pass" transform="translate(-79.997 -65.69)">
    <path id="Path_29605" data-name="Path 29605" d="M221.614,445.885l3.028.6a1.13,1.13,0,0,0,1.327-.885l.83-4.156a1.13,1.13,0,0,0-.885-1.327l-3.028-.6a14.293,14.293,0,0,0-.915-4.612l2.565-1.714a1.127,1.127,0,0,0,.312-1.564L222.5,428.1a1.127,1.127,0,0,0-1.564-.312l-2.568,1.714a14.208,14.208,0,0,0-3.909-2.613l.6-3.028a1.13,1.13,0,0,0-.885-1.327l-4.156-.83a1.13,1.13,0,0,0-1.327.885l-.6,3.028a14.293,14.293,0,0,0-4.612.916l-1.714-2.565a1.127,1.127,0,0,0-1.563-.312l-3.525,2.352a1.127,1.127,0,0,0-.312,1.563l1.714,2.565a14.208,14.208,0,0,0-2.613,3.909l-3.028-.6a1.13,1.13,0,0,0-1.327.885l-.83,4.156a1.13,1.13,0,0,0,.885,1.327l3.028.6a14.2,14.2,0,0,0,.915,4.612l-2.565,1.714a1.127,1.127,0,0,0-.312,1.563l2.352,3.525a1.127,1.127,0,0,0,1.563.312l2.565-1.714a14.209,14.209,0,0,0,3.909,2.613l-.6,3.028a1.13,1.13,0,0,0,.885,1.327l4.156.83a1.13,1.13,0,0,0,1.327-.885l.6-3.028a14.292,14.292,0,0,0,4.612-.915l1.714,2.568a1.127,1.127,0,0,0,1.563.312l3.525-2.352a1.127,1.127,0,0,0,.312-1.564L219,449.793a14.194,14.194,0,0,0,2.616-3.909Zm-19.989-7.3a7.048,7.048,0,1,1,5.534,8.291A7.047,7.047,0,0,1,201.624,438.588Z" transform="translate(-72.455 -229.993)" fill="#ffaca3"/>
    <path id="Path_29606" data-name="Path 29606" d="M225.91,470.735l-3.028-.6a14.411,14.411,0,0,0-.178-1.852h-7.512a7.015,7.015,0,0,1,.257,3.682c-.01.045-.024.089-.034.134h11.37l.007-.034A1.123,1.123,0,0,0,225.91,470.735Zm-24.286-1.529a7.363,7.363,0,0,1,.257-.926H190.443l-.165.826a1.13,1.13,0,0,0,.885,1.327l3.028.6c.01.357.038.71.075,1.06h7.389A7.064,7.064,0,0,1,201.624,469.206Z" transform="translate(-72.455 -260.611)" fill="#f99c95"/>
    <path id="Path_29607" data-name="Path 29607" d="M292.587,150.52H151.856a14.236,14.236,0,0,0-14.236,14.236V245.42a14.236,14.236,0,0,0,14.236,14.236H292.584A14.236,14.236,0,0,0,306.82,245.42V164.756A14.231,14.231,0,0,0,292.587,150.52Z" transform="translate(-37.865 -51.801)" fill="#83c7cc"/>
    <path id="Path_29608" data-name="Path 29608" d="M610.23,315.98s-5.208,18.464,3.569,28.441,12.693,16.544,12.693,16.544a26.514,26.514,0,0,0-5.109-16.084C615.761,337.55,611.66,323.077,610.23,315.98Z" transform="translate(-347.423 -160.53)" fill="#76b832"/>
    <path id="Path_29609" data-name="Path 29609" d="M607.7,353.61s-2.29,10.245,2.582,15.529,14.562,13.54,15.865,16.993,2.428.847,2.428.847.267-5.733-9.806-12.981A26.366,26.366,0,0,1,607.7,353.61Z" transform="translate(-346.415 -185.258)" fill="#5da71c"/>
    <path id="Path_29610" data-name="Path 29610" d="M645.324,352.557c0,.453-.017.95-.065,1.505-.555,6.261-1.563,13.228-1.563,13.228s-4.416-6.288-5.606-12.546-6.789-8.051-5.63-12.758a77.445,77.445,0,0,0,1.6-10.732.28.28,0,0,0,0-.034s7.238,6.288,7.937,11.85c.631,5.064,3.278,4.828,3.322,9.487Z" transform="translate(-362.936 -170.545)" fill="#5da71c"/>
    <path id="Path_29611" data-name="Path 29611" d="M648.68,352.557a41.45,41.45,0,0,1-3.775,4.742c1.752-2.685.686-6.035-1.673-8.2-1.769-1.625-4.289-2.894-4.937-5.027a8.465,8.465,0,0,1,.065-3.566c.408-3.106.487-6.511-.95-9.251a.281.281,0,0,0,0-.034s7.238,6.288,7.938,11.85c.638,5.064,3.285,4.828,3.329,9.487Z" transform="translate(-366.292 -170.545)" fill="#76b832"/>
    <path id="Path_29612" data-name="Path 29612" d="M676.891,363.443l0,0a7.5,7.5,0,0,1-.161,1.814c-1.3,5.723-11.887,13.417-11.887,13.417v-.01c-.069-10.19,8.493-14.74,6.124-21.841-2.335-7,2.846-13.43,2.99-13.605C671.457,348.336,676.774,357.5,676.891,363.443Z" transform="translate(-384.316 -178.43)" fill="#6fad27"/>
    <path id="Path_29613" data-name="Path 29613" d="M674.5,402.22a7.5,7.5,0,0,1-.161,1.814c-1.3,5.723-11.887,13.417-11.887,13.417v-.01c.017-.243-3.792-4.217,1.8-8.445C669.117,405.306,674.3,402.885,674.5,402.22Z" transform="translate(-381.925 -217.201)" fill="#5da71c"/>
    <path id="Path_29614" data-name="Path 29614" d="M669.888,389.61s-11.346,3.727-9.426,12.607.617,11.325.617,11.325l-.2-5.753s-4.169-7.512.953-14.891Z" transform="translate(-380.666 -208.914)" fill="#5da71c"/>
    <path id="Path_29615" data-name="Path 29615" d="M679.424,320.94a8.13,8.13,0,0,0-4.776,7.985c.343,5.932,1.858,11.6-5.438,15.559s-13.19,8.39-9,18.182c0,0-4.735-6.683.538-17.12s3.556-7.505,7.567-11.157S673.921,320.978,679.424,320.94Z" transform="translate(-379.988 -163.789)" fill="#76b832"/>
    <path id="Path_29616" data-name="Path 29616" d="M634.213,440.526l4.917,12.264a4.821,4.821,0,0,0,4.982,3.165l6.82-.857a4.821,4.821,0,0,0,4.046-4.3l1.731-13.1a2.246,2.246,0,0,0-2.342-2.64l-18.543,2.328A2.245,2.245,0,0,0,634.213,440.526Z" transform="translate(-364.072 -238.772)" fill="#ef8a7f"/>
    <path id="Path_29617" data-name="Path 29617" d="M258.5,388.1a8.4,8.4,0,0,1,8.4-8.4h69.51a8.4,8.4,0,0,1,0,16.8H266.9A8.4,8.4,0,0,1,258.5,388.1Z" transform="translate(-117.299 -202.402)" fill="#eee"/>
    <path id="Path_29618" data-name="Path 29618" d="M293.165,399.64h-1.906l.031-3.271-2.825,1.649-.984-1.745,2.856-1.618L287.48,393.1l.984-1.81,2.825,1.684-.031-3.271h1.906l-.031,3.271,2.825-1.649.953,1.776-2.856,1.557,2.856,1.618-.953,1.779-2.825-1.684Zm14.253,0h-1.906l.031-3.271-2.825,1.649-.984-1.745,2.856-1.618-2.856-1.557.984-1.81,2.825,1.684-.031-3.271h1.906l-.031,3.271,2.825-1.649.953,1.776-2.856,1.557,2.856,1.618-.953,1.779-2.825-1.684Zm14.25,0h-1.906l.031-3.271-2.825,1.649-.984-1.745,2.856-1.618-2.856-1.557.984-1.81,2.825,1.684-.031-3.271h1.906l-.031,3.271,2.825-1.649.953,1.776-2.856,1.557,2.856,1.618-.953,1.779-2.825-1.684Zm14.25,0h-1.906l.031-3.271-2.825,1.649-.984-1.745,2.856-1.618-2.856-1.557.984-1.81,2.825,1.684-.031-3.271h1.906l-.031,3.271,2.825-1.649.953,1.776-2.856,1.557,2.856,1.618-.953,1.779-2.825-1.684Zm14.253,0h-1.906l.031-3.271-2.825,1.649-.984-1.745,2.856-1.618-2.856-1.557.984-1.81,2.825,1.684-.031-3.271h1.906l-.031,3.271,2.825-1.649.953,1.776-2.856,1.557,2.856,1.618-.953,1.779-2.825-1.684Z" transform="translate(-136.343 -208.974)" fill="#4979ff"/>
    <path id="Path_29619" data-name="Path 29619" d="M109.17,351.6l2.644-5.537,4.19,1.92-2.644,5.534Z" transform="translate(-19.17 -180.297)" fill="#934d2a"/>
    <path id="Path_29620" data-name="Path 29620" d="M87.836,380.175l7.553-15.82a1.985,1.985,0,0,0-.967-2.668l-3.964-1.814a2.063,2.063,0,0,0-2.712.984l-7.553,15.82a1.985,1.985,0,0,0,.967,2.668l3.964,1.814A2.059,2.059,0,0,0,87.836,380.175Z" transform="translate(0 -189.252)" fill="#ab673c"/>
    <ellipse id="Ellipse_7051" data-name="Ellipse 7051" cx="12.635" cy="12.429" rx="12.635" ry="12.429" transform="matrix(0.94, -0.341, 0.341, 0.94, 85.451, 145.051)" fill="#b2b2ba" opacity="0.55"/>
    <path id="Path_29621" data-name="Path 29621" d="M126.034,282.5a16.229,16.229,0,0,0-7.917-21.824,16.879,16.879,0,0,0-22.18,8.047,16.229,16.229,0,0,0,7.917,21.824A16.876,16.876,0,0,0,126.034,282.5Zm-20.449,4.423a12.292,12.292,0,0,1-6-16.526,12.78,12.78,0,0,1,16.8-6.093,12.292,12.292,0,0,1,6,16.526A12.781,12.781,0,0,1,105.585,286.923Z" transform="translate(-9.417 -123.192)" fill="#5c637f"/>
    <path id="Path_29623" data-name="Path 29623" d="M211.507,272.034H327.655a1.817,1.817,0,0,0,0-3.634H211.507a1.817,1.817,0,1,0,0,3.634Zm0,10.6H327.655a1.817,1.817,0,0,0,0-3.634H211.507a1.817,1.817,0,1,0,0,3.634Zm0,10.6h72.778a1.817,1.817,0,1,0,0-3.634H211.507a1.817,1.817,0,1,0,0,3.634Z" transform="translate(-85.225 -129.264)" fill="#69b5b7"/>
    <path id="Path_29625" data-name="Path 29625" d="M595.15,188.55l.494,1.039h7.307l.494-1.039Z" transform="translate(-338.522 -76.792)" fill="#f25555"/>
    <g id="Group_27148" data-name="Group 27148">
      <path id="Path_29624" data-name="Path 29624" d="M593.35,184.75l3.706,7.793a1.147,1.147,0,0,0,2.119,0l3.707-7.793Z" transform="translate(-337.338 -74.295)" fill="#eee"/>
      <path id="Path_29626" data-name="Path 29626" d="M588.342,137.248H569.392a5.331,5.331,0,0,1-5.332-5.332v-16.1a5.331,5.331,0,0,1,5.332-5.332h18.951a5.331,5.331,0,0,1,5.332,5.332v16.1A5.335,5.335,0,0,1,588.342,137.248Z" transform="translate(-318.092 -25.49)" fill="#eee"/>
      <path id="Path_29633" data-name="Path 29633" d="M357.5,95.914v2.257h-1.8V95.914a3.158,3.158,0,1,0-6.315,0v2.257h-1.8V95.914a4.96,4.96,0,1,1,9.921,0Z" transform="translate(-92.332 -1.873)" fill="#c1c1c1"/>
      <path id="Path_29634" data-name="Path 29634" d="M348.679,143.6H337.264a.744.744,0,0,0-.744.744V147.5a6.451,6.451,0,0,0,12.9,0v-3.156A.744.744,0,0,0,348.679,143.6Z" transform="translate(-82.765 -47.424)" fill="#ff9c00"/>
      <path id="Path_29635" data-name="Path 29635" d="M378.074,168.482a1.162,1.162,0,1,0-1.576,1.085l-.585,1.709h2l-.585-1.709A1.163,1.163,0,0,0,378.074,168.482Z" transform="translate(-116.705 -67.946)" fill="#e88a03"/>
      <path id="Path_29636" data-name="Path 29636" d="M363.963,107.482v2.134h.747a.738.738,0,0,1,.4.116v-1.108a4.962,4.962,0,0,0-2.075-4.034A4.947,4.947,0,0,1,363.963,107.482Zm1.89,3.277h-.4v2.757a6.45,6.45,0,0,1-10.4,5.1,6.45,6.45,0,0,0,11.548-3.953V111.5A.746.746,0,0,0,365.854,110.759Zm-8.866-2.134a3.164,3.164,0,0,1,3.158-3.162,3.128,3.128,0,0,1,1.584.429,3.156,3.156,0,0,0-5.885,1.59v2.134h1.143Z" transform="translate(-98.796 -13.44)" fill="#d4d6d6"/>
    </g>
    <path id="Path_29628" data-name="Path 29628" d="M264.448,233.663a8.4,8.4,0,0,1-7.471,12.237h-69.51a8.344,8.344,0,0,1-3.837-.929,8.4,8.4,0,0,0,7.471,4.564h69.51a8.4,8.4,0,0,0,3.837-15.871Zm-106.335-18.92A16.222,16.222,0,0,0,153,194.558a16.2,16.2,0,0,1,2.664,13.135h0a16.529,16.529,0,0,1-1.19,3.418,16.886,16.886,0,0,1-16.859,9.477v4.018l.48-1A16.894,16.894,0,0,0,158.113,214.743Z" transform="translate(-37.865 -51.801)" fill="#72bfc1"/>
    <g id="Group_27149" data-name="Group 27149">
      <g transform="matrix(1, 0, 0, 1, 80, 65.69)" filter="url(#Ellipse_7052)">
        <circle id="Ellipse_7052-2" data-name="Ellipse 7052" cx="28.794" cy="28.794" r="28.794" transform="translate(75.57 6)" fill="#fff"/>
      </g>
      <path id="Path_29632" data-name="Path 29632" d="M580.032,138.706l10.347,10.278a1.04,1.04,0,0,0,1.59-.144L606.8,127.69a.945.945,0,0,0-1.486-1.164l-14.072,16.127a1.05,1.05,0,0,1-1.377.178l-8.47-5.775A1.074,1.074,0,0,0,580.032,138.706Z" transform="translate(-408.984 -37.254)" fill="#5ebc0d"/>
    </g>
  </g>
</svg>
