<svg xmlns="http://www.w3.org/2000/svg" width="440.094" height="384.428" viewBox="0 0 440.094 384.428">
  <g id="reg" transform="translate(-0.055 -189.727)">
    <g id="Group_28220" data-name="Group 28220" transform="translate(32.962 189.727)">
      <path id="Path_29796" data-name="Path 29796" d="M27609.018,5154.9c92.055-131.732,189.969-84.8,189.969,17.721s-77.8,185.749-173.645,185.749-183.7-28.118-183.7-130.636S27551.635,5237.008,27609.018,5154.9Z" transform="translate(-27441.641 -5074.282)" fill="#f2f3fc" fill-rule="evenodd"/>
      <ellipse id="Ellipse_7076" data-name="Ellipse 7076" cx="25.736" cy="19.271" rx="25.736" ry="19.271" transform="translate(86.09 56.14)" fill="#f2f3fc"/>
    </g>
    <path id="Path_29797" data-name="Path 29797" d="M11983.513,2512.776c7.3-4.936,17.571-8.863,31.982-10.214,45.612-4.279,39.776-20.4,52.417-32.069,0,0,18.939-14.225,53.608-16.775,31.78-2.337,37.479-9.377,37.479-9.377s-14.748,37.2-46.551,41.144-44.579,9.183-65.784,23.491l-5.6,3.8h-57.547Z" transform="translate(-11718.851 -1942.807)" fill="#adfae0" fill-rule="evenodd"/>
    <path id="Path_29798" data-name="Path 29798" d="M1829.806,2170.271c25.984-13.5,17.993-25.657,24.746-38.244,0,0,10.837-24.744,44.781-29.844s42.608-37.034,42.608-37.034,23.165,56.466-5.619,68.461-38.661,12.092-53.55,31.2l-4.235,5.467Z" transform="translate(-1561.332 -1600.303)" fill="#defff4" fill-rule="evenodd"/>
    <path id="Path_29799" data-name="Path 29799" d="M1536.717,2030.12c1.9-1.292,3.979-2.546,6.245-3.78,38.479-20.955,24.633-33.173,29.684-48.351,0,0,6.288-25.825,38.936-35.127s35.5-41.964,35.5-41.964,33,52.921,6.692,68.393-36.061,16.807-47.364,37.564c-6.229,11.46-9.66,18.424-13.536,23.266l-56.158,0Z" transform="translate(-1311.238 -1460.148)" fill="#adfae0" fill-rule="evenodd"/>
    <path id="Path_29800" data-name="Path 29800" d="M0,0C7.3,4.936,17.571,8.863,31.981,10.215c45.612,4.279,39.777,20.4,52.417,32.069,0,0,18.94,14.225,53.608,16.774,31.781,2.337,37.48,9.377,37.48,9.377s-14.748-37.2-46.55-41.144S84.357,18.109,63.152,3.8L57.548,0H0Z" transform="translate(175.542 569.969) rotate(180)" fill="#adfae0" fill-rule="evenodd"/>
    <path id="Path_29801" data-name="Path 29801" d="M466.8,2170.271c-25.984-13.5-17.993-25.657-24.746-38.244,0,0-10.837-24.744-44.781-29.844s-42.608-37.034-42.608-37.034-23.165,56.466,5.619,68.461,38.661,12.092,53.55,31.2l4.235,5.467Z" transform="translate(-295.07 -1600.303)" fill="#defff4" fill-rule="evenodd"/>
    <path id="Path_29802" data-name="Path 29802" d="M723.327,2030.13c-1.9-1.292-3.979-2.546-6.245-3.78C678.6,2005.394,692.45,1993.177,687.4,1978c0,0-6.288-25.825-38.936-35.127s-35.5-41.964-35.5-41.964-33,52.921-6.692,68.393,36.061,16.807,47.364,37.564c6.229,11.46,9.66,18.424,13.536,23.266l56.158,0Z" transform="translate(-508.597 -1460.156)" fill="#adfae0" fill-rule="evenodd"/>
    <path id="Path_29803" data-name="Path 29803" d="M6917.057,1526.617a15.71,15.71,0,0,0-15.714-15.711H6744.1a15.711,15.711,0,0,0-15.711,15.711v327.5a15.711,15.711,0,0,0,15.711,15.711h157.238a15.71,15.71,0,0,0,15.714-15.711Z" transform="translate(-6599.741 -1299.932)" fill="#73c7c4" fill-rule="evenodd"/>
    <path id="Path_29804" data-name="Path 29804" d="M9809.566,1948.078h166.807v311.757H9809.566Z" transform="translate(-9669.989 -1717.547)" fill="#fff" fill-rule="evenodd"/>
    <path id="Path_29805" data-name="Path 29805" d="M8600.332,1288.118a1.385,1.385,0,0,0-.41-.981,1.355,1.355,0,0,0-.971-.406H8457.915a1.354,1.354,0,0,0-.971.406,1.383,1.383,0,0,0-.411.981v203.146a1.382,1.382,0,0,0,.411.981,1.355,1.355,0,0,0,.971.406h141.036a1.355,1.355,0,0,0,.971-.406,1.385,1.385,0,0,0,.41-.981Z" transform="translate(-8301.999 -991.779)" fill="#dedee5" fill-rule="evenodd"/>
    <path id="Path_29806" data-name="Path 29806" d="M8600.332,1288.118a1.385,1.385,0,0,0-.41-.981,1.355,1.355,0,0,0-.971-.406H8457.915a1.354,1.354,0,0,0-.971.406,1.383,1.383,0,0,0-.411.981v203.146a1.382,1.382,0,0,0,.411.981,1.355,1.355,0,0,0,.971.406h141.036a1.355,1.355,0,0,0,.971-.406,1.385,1.385,0,0,0,.41-.981Z" transform="translate(-8305.45 -995.23)" fill="#f2f3fc" fill-rule="evenodd"/>
    <circle id="Ellipse_7077" data-name="Ellipse 7077" cx="9.203" cy="9.203" r="9.203" transform="translate(213.781 546.888)" fill="#fff"/>
    <path id="Path_29807" data-name="Path 29807" d="M6148.093,1693.861H6166.5v2.3h-18.406Z" transform="translate(-5872.189 -1443.774)" fill="#dedee5" fill-rule="evenodd"/>
    <path id="Path_29808" data-name="Path 29808" d="M6148.093,1693.861H6166.5v2.3h-18.406Z" transform="translate(-5872.189 -1439.173)" fill="#dedee5" fill-rule="evenodd"/>
    <path id="Path_29809" data-name="Path 29809" d="M6148.093,1693.861H6166.5v2.3h-18.406Z" transform="translate(-5872.189 -1434.571)" fill="#dedee5" fill-rule="evenodd"/>
    <path id="Path_29810" data-name="Path 29810" d="M12296.139,3387.723h36.813v4.6h-36.813Z" transform="translate(-12145.635 -3137.635)" fill="#dedee5" fill-rule="evenodd"/>
    <path id="Path_29811" data-name="Path 29811" d="M7685.1,3387.723h23.008v4.6H7685.1Z" transform="translate(-7534.594 -3128.433)" fill="#dedee5" fill-rule="evenodd"/>
    <path id="Path_29812" data-name="Path 29812" d="M8830.035,1552.706h26.459v3.451h-26.459Z" transform="translate(-8624.882 -1333.679)" fill="#6c9b99" fill-rule="evenodd"/>
    <path id="Path_29813" data-name="Path 29813" d="M1535.661,1552.706h4.6v3.451h-4.6Z" transform="translate(-1299.447 -1333.679)" fill="#6c9b99" fill-rule="evenodd"/>
    <path id="Path_29814" data-name="Path 29814" d="M8586.936,4469.912h96.633v9.2h-96.633Z" transform="translate(-8412.268 -4150.801)" fill="#dedee5" fill-rule="evenodd"/>
    <path id="Path_29815" data-name="Path 29815" d="M3271.2,2075.313h36.813v4.273H3271.2Z" transform="translate(-3102.289 -1691.781)" fill="#dedee5" fill-rule="evenodd"/>
    <path id="Path_29816" data-name="Path 29816" d="M5009.045,2075.313h56.369v4.273h-56.369Z" transform="translate(-4840.129 -1652.668)" fill="#dedee5" fill-rule="evenodd"/>
    <path id="Path_29817" data-name="Path 29817" d="M8586.936,4469.912h96.633v9.2h-96.633Z" transform="translate(-8412.268 -4118.59)" fill="#dedee5" fill-rule="evenodd"/>
    <path id="Path_29818" data-name="Path 29818" d="M9717.342,10057.583a.259.259,0,0,0-.089-.2.264.264,0,0,0-.194-.082h-107.57a.3.3,0,0,0-.283.284v20.138a.261.261,0,0,0,.091.2.264.264,0,0,0,.192.084h107.57a.27.27,0,0,0,.194-.084.259.259,0,0,0,.089-.2Z" transform="translate(-9439.137 -9663.413)" fill="#d0ceff" fill-rule="evenodd"/>
    <path id="Path_29819" data-name="Path 29819" d="M9717.342,10057.583a.259.259,0,0,0-.089-.2.264.264,0,0,0-.194-.082h-107.57a.3.3,0,0,0-.283.284v20.138a.261.261,0,0,0,.091.2.264.264,0,0,0,.192.084h107.57a.27.27,0,0,0,.194-.084.259.259,0,0,0,.089-.2Z" transform="translate(-9439.137 -9624.3)" fill="#d0ceff" fill-rule="evenodd"/>
    <path id="Path_29820" data-name="Path 29820" d="M9717.342,10057.583a.259.259,0,0,0-.089-.2.264.264,0,0,0-.194-.082h-107.57a.3.3,0,0,0-.283.284v20.138a.261.261,0,0,0,.091.2.264.264,0,0,0,.192.084h107.57a.27.27,0,0,0,.194-.084.259.259,0,0,0,.089-.2Z" transform="translate(-9437.986 -9589.788)" fill="#d0ceff" fill-rule="evenodd"/>
    <path id="Path_29821" data-name="Path 29821" d="M9717.342,10057.583a.259.259,0,0,0-.089-.2.264.264,0,0,0-.194-.082h-107.57a.3.3,0,0,0-.283.284v20.138a.261.261,0,0,0,.091.2.264.264,0,0,0,.192.084h107.57a.27.27,0,0,0,.194-.084.259.259,0,0,0,.089-.2Z" transform="translate(-9440.286 -9664.563)" fill="#fff" fill-rule="evenodd"/>
    <path id="Path_29822" data-name="Path 29822" d="M9717.342,10057.583a.259.259,0,0,0-.089-.2.264.264,0,0,0-.194-.082h-107.57a.3.3,0,0,0-.283.284v20.138a.261.261,0,0,0,.091.2.264.264,0,0,0,.192.084h107.57a.27.27,0,0,0,.194-.084.259.259,0,0,0,.089-.2Z" transform="translate(-9440.286 -9625.45)" fill="#fff" fill-rule="evenodd"/>
    <path id="Path_29823" data-name="Path 29823" d="M9717.342,10057.583a.259.259,0,0,0-.089-.2.264.264,0,0,0-.194-.082h-107.57a.3.3,0,0,0-.283.284v20.138a.261.261,0,0,0,.091.2.264.264,0,0,0,.192.084h107.57a.27.27,0,0,0,.194-.084.259.259,0,0,0,.089-.2Z" transform="translate(-9440.286 -9592.089)" fill="#f3ac04" fill-rule="evenodd"/>
    <path id="Path_29824" data-name="Path 29824" d="M10222.569,4469.912h115.04v9.2h-115.04Z" transform="translate(-10057.1 -4134.696)" fill="#dedee5" fill-rule="evenodd"/>
    <path id="Path_29825" data-name="Path 29825" d="M23.461,64.457c-4.9,17.7-27.64,11.24-22.785-6.3L23.461,1.669,39.751,0Z" transform="translate(56.931 561.386) rotate(-174.152)" fill="#516b6c"/>
    <path id="Path_29826" data-name="Path 29826" d="M91.559,2.91c8.417,5.864,7.059,18.727-8.352,20.566L3.949,33.109,0,0H78.218l.034,1.322a6.928,6.928,0,0,0,7.744,6A6.834,6.834,0,0,0,91.559,2.91Z" transform="matrix(-0.126, 0.992, -0.992, -0.126, 73.97, 417.802)" fill="#516b6c" fill-rule="evenodd"/>
    <path id="Path_29827" data-name="Path 29827" d="M-2.648-85.376c0,5.425-1.938,12.524,2.182,12.524H22.644c1.685-.051,5.83-.343,2.056-3.46L13.727-85.376Z" transform="translate(20.039 642.688)" fill="#39428f"/>
    <path id="Path_29828" data-name="Path 29828" d="M15.913,62.038C20.8,79.743,43.546,73.294,38.7,55.747L15.913,0,0,3.49Z" transform="translate(103.657 562.934) rotate(-159.333)" fill="#516b6c"/>
    <path id="Path_29829" data-name="Path 29829" d="M80.522,9.308a6.893,6.893,0,0,0,12.9,4.574c7.493,6.977,1.614,19.817-13.015,19.226H0L3.949,0Z" transform="translate(95.049 411.668) rotate(72.85)" fill="#516b6c" fill-rule="evenodd"/>
    <path id="Path_29830" data-name="Path 29830" d="M-2.648-85.376c0,5.425-1.938,12.524,2.182,12.524H22.644c1.685-.051,5.83-.343,2.056-3.46L13.727-85.376Z" transform="translate(91.409 642.688)" fill="#39428f"/>
    <path id="Path_29831" data-name="Path 29831" d="M8.574,17.162H44.749c11.382.751,10.244-14.147,1.031-14.756L9.772.028C-2.594-.789-3.477,16.367,8.574,17.162" transform="translate(92.944 360.739) rotate(58.204)" fill="#547c7c"/>
    <path id="Path_29832" data-name="Path 29832" d="M-19.092-83.627l8.434-5c1.5-.892,3.009-1.553-.744,4.247,1.5,1.17,5.031-.9,7.646-1.462,5.954-.988,2.347,9.663-11.212,13.923-6.765,2.352-10.493-9.489-4.124-11.7" transform="translate(149.631 455.224)" fill="#ffb89c"/>
    <path id="Path_29833" data-name="Path 29833" d="M-211.556-215.9l-22.906,28.017a9.5,9.5,0,0,1-3.88,2.608c-6.76,2.283-13.4-5.788-6.974-12.661l2.448-2.622,22.208-23.774c1.428,4.762,4.8,7.158,9.1,8.432" transform="translate(349.374 597.067)" fill="#ffb89c"/>
    <path id="Path_29834" data-name="Path 29834" d="M40.09,83.943c.4-.165,41.659-12.2,43.078-39.166L40.09.5C21.211-3.481-1,17.164.035,36.915L40.09,83.943Z" transform="translate(67.273 339.612) rotate(42.277)" fill="#6c9b99"/>
    <path id="Path_29835" data-name="Path 29835" d="M20.817,61.315C25.568,52.9,35.11,47.859,45.6,44A101.661,101.661,0,0,0,69.908,31.147l13.26,13.63c-1.419,26.961-42.68,39-43.078,39.166Zm-7.862-9.231L.035,36.915C-1,17.164,21.211-3.481,40.09.5L51.6,12.326c-1.911,5.791-6.286,12.806-15.935,18.535A69.565,69.565,0,0,0,12.955,52.084Z" transform="translate(67.273 339.612) rotate(42.277)" fill="#6c9b99" fill-rule="evenodd"/>
    <path id="Path_29836" data-name="Path 29836" d="M0-17.7c1.306-.406,2.848-.73,3.362-1.629L5.339-39.78l12.84-1,.034,21.387a14.464,14.464,0,0,0,3.617,1.834C17.358-11.722,6.706-12.552,0-17.7H0Z" transform="translate(59.47 374.443)" fill="#ffb89c"/>
    <path id="Path_29837" data-name="Path 29837" d="M-54.161-20.473v2.4c-4.3.721-6.987-.43-9.311-3.177Z" transform="translate(131.809 372.107)" fill="#ff956b"/>
    <path id="Path_29838" data-name="Path 29838" d="M-46.822-175.473h5.8a8.032,8.032,0,0,1,8.049,8.049v9.642a8.031,8.031,0,0,1-8.049,8.049h-5.8a8.031,8.031,0,0,1-5.7-2.352,8.031,8.031,0,0,1-2.352-5.7v-9.642a8.032,8.032,0,0,1,2.353-5.7,8.032,8.032,0,0,1,5.7-2.353" transform="translate(118.535 501.372)" fill="#ffb89c"/>
    <path id="Path_29839" data-name="Path 29839" d="M13343.645,3403c5.295-4.309,19.494-9.928,22.313-5.347,1.4,2.288,2.357,5.469-1.445,13.564-8.592,4.445-12.1,2.642-16.662,3.4,1.193,6.86-3.445,7.571-5.174,10.556.73-2.679-7.861-16.292-2.582-20.138-.7-.668-1.059-1.294-.85-1.669.225-.415,1.09-.412,2.191-.072.135-1.147.479-1.94.941-1.983S13343.316,3401.947,13343.645,3403Z" transform="translate(-13279.092 -3078.124)" fill="#3d174d"/>
    <path id="Path_29840" data-name="Path 29840" d="M3.371,5.812A3.165,3.165,0,0,1,0,2.906,3.165,3.165,0,0,1,3.371,0,3.164,3.164,0,0,1,6.742,2.906,3.165,3.165,0,0,1,3.371,5.812" transform="translate(66.791 345.94) rotate(-153.74)" fill="#ffb89c"/>
    <path id="Path_29841" data-name="Path 29841" d="M0,11.169s1.616-2.874,3.972.193c0,0-2.493-1.015-3.972-.193" transform="translate(63.166 330.483)" fill="#ff956b"/>
    <path id="Path_29842" data-name="Path 29842" d="M10.639.886A.886.886,0,0,0,9.753,0H.886A.886.886,0,0,0,0,.886V19.354a.886.886,0,0,0,.886.886H9.753a.886.886,0,0,0,.886-.886V.886Z" transform="matrix(0.805, 0.593, -0.593, 0.805, 77.798, 424.303)" fill="#dedee5" fill-rule="evenodd"/>
    <path id="Path_29843" data-name="Path 29843" d="M2.073,0,2.066.145A2.566,2.566,0,0,0,4.63,2.71a2.485,2.485,0,0,0,.492-.048A2.563,2.563,0,1,1,2.073,0Z" transform="translate(76.694 430.8) rotate(36.39)" fill="#e2e1ff" fill-rule="evenodd"/>
    <circle id="Ellipse_7078" data-name="Ellipse 7078" cx="0.526" cy="0.526" r="0.526" transform="matrix(0.805, 0.593, -0.593, 0.805, 83.502, 429.208)" fill="#928ff5"/>
    <circle id="Ellipse_7079" data-name="Ellipse 7079" cx="0.526" cy="0.526" r="0.526" transform="matrix(0.805, 0.593, -0.593, 0.805, 84.54, 429.973)" fill="#928ff5"/>
    <circle id="Ellipse_7080" data-name="Ellipse 7080" cx="0.526" cy="0.526" r="0.526" transform="matrix(0.805, 0.593, -0.593, 0.805, 83.793, 430.987)" fill="#928ff5"/>
    <circle id="Ellipse_7081" data-name="Ellipse 7081" cx="0.526" cy="0.526" r="0.526" transform="matrix(0.805, 0.593, -0.593, 0.805, 82.779, 430.24)" fill="#928ff5"/>
    <ellipse id="Ellipse_7082" data-name="Ellipse 7082" cx="11.693" cy="10.719" rx="11.693" ry="10.719" transform="translate(64.567 380.822)" fill="#82bfbc"/>
    <path id="Path_29844" data-name="Path 29844" d="M13366.377,4142.792c.016.058.016.115.03.171C13366.393,4142.907,13366.393,4142.851,13366.377,4142.792Zm-.134,1.77v0Zm-.045-.013s0,0,.015,0Zm-.015-.015v0Zm-.016-.1c-.015.047-.015.08.016.1C13366.153,4144.511,13366.153,4144.478,13366.168,4144.431Zm.492.054-.015,0Zm-.477-.073c-.016.006-.016.011-.016.015S13366.168,4144.418,13366.184,4144.412Zm.015-.039s-.015.011-.015.015S13366.2,4144.378,13366.2,4144.373Zm.015-.031c0,.008-.015.014-.015.021Zm.015-.037-.015.025Zm.03-.048v0Zm.045-.065a.1.1,0,0,0-.03.055A.1.1,0,0,1,13366.3,4144.191Zm0-.012v0Zm.03-.081v0Zm.014-.057c0,.017-.014.031-.014.048C13366.333,4144.074,13366.347,4144.059,13366.347,4144.042Zm.046-.163-.016.015Zm.015-.124v0Zm.015-.523v0Zm-.015-.234c0,.072.015.142.015.209C13366.422,4143.14,13366.407,4143.07,13366.407,4143Zm-.224,1.547.015,0Zm.193-1.769v-.033l.105.241.969,1.166c.925.966,2.192,1.936,3.117,3.02,1.581,4.527-7.458,7.049-17.078-2.867-5.25-4.873,3.476-13.716,8.412-9.128l3.014,1.84a10.083,10.083,0,0,1,1.268,4.6h-.016a1.785,1.785,0,0,0,.209,1.131Z" transform="translate(-13290.607 -3707.814)" fill="#ffb89c" fill-rule="evenodd"/>
    <path id="Path_29845" data-name="Path 29845" d="M-229.814-6.655c-4.759,1.445-7.143,4.824-8.4,9.128L-266.3-20.345a10.235,10.235,0,0,1-1.845-2.243c-.048-.084-.1-.154-.148-.238s-.094-.179-.147-.269c-3.681-7.1,4.886-14.893,12.164-8.136l1.751,1.628Z" transform="translate(301.109 434.014)" fill="#ffb89c"/>
    <path id="Path_29846" data-name="Path 29846" d="M-149.807-251.434l-10.569,32.606-.584,1.805c-2.282,9.031-11.914,6.907-14.133.944a7.412,7.412,0,0,1-.218-4.515l8.836-34.988c3.035-12.015,19.635-7.563,16.668,4.147" transform="translate(207.335 626.095)" fill="#ffb89c"/>
    <path id="Path_29847" data-name="Path 29847" d="M-149.807-196.3-160.376-163.7l-14.717,2.749a7.412,7.412,0,0,1-.218-4.515l8.836-34.988c3.035-12.015,19.635-7.563,16.668,4.147" transform="translate(207.335 570.966)" fill="#547c7c"/>
    <path id="Path_29848" data-name="Path 29848" d="M-147.085-250.188l-8.867,31.689a19.929,19.929,0,0,1-16.419,3.665" transform="translate(204.613 624.85)" fill="#547c7c"/>
    <path id="Path_29849" data-name="Path 29849" d="M13335.745,3656.276a3.673,3.673,0,0,0,.492.459,14.891,14.891,0,0,0,2.7,1.52c4.519,2.049,12.514,3.838,17.48-2.038a.749.749,0,0,1,1.147.963c-5.474,6.472-14.259,4.689-19.255,2.433a14.908,14.908,0,0,1-3.3-1.947,2.4,2.4,0,0,1-.67-.856.754.754,0,0,1,.462-.953.746.746,0,0,1,.94.417Z" transform="translate(-13275.622 -3299.867)" fill="#fff" fill-rule="evenodd"/>
    <path id="Path_29850" data-name="Path 29850" d="M13367.412,4592.325l-.268,2.171a17.864,17.864,0,0,1-4.3,10.695,6.826,6.826,0,0,1-3.67-6.075,6.926,6.926,0,0,1,6.921-6.924Z" transform="translate(-13303.324 -4096.931)" fill="#0aa6ae" fill-rule="evenodd"/>
    <path id="Path_29851" data-name="Path 29851" d="M13365.519,4592.578l.492,2.663c.836,4.626,1.029,8.472-.358,11.167-3.28-.525-6.473-3.53-6.473-6.962A6.868,6.868,0,0,1,13365.519,4592.578Z" transform="translate(-13255.629 -4101.222)" fill="#0aa6ae" fill-rule="evenodd"/>
    <path id="Path_29852" data-name="Path 29852" d="M28545.861,5334.8a3.834,3.834,0,0,0-3.834-3.821h-66.187a3.811,3.811,0,0,0-3.809,3.821v66.186a3.81,3.81,0,0,0,3.809,3.821h66.188a3.833,3.833,0,0,0,3.834-3.821Z" transform="translate(-28143.813 -4954.963)" fill="#79c7c4" fill-rule="evenodd"/>
    <path id="Path_29853" data-name="Path 29853" d="M25337.3,4659.01v-6.125a12.266,12.266,0,0,1,24.531,0v6.125h-2.227v-6.125a10.038,10.038,0,0,0-20.076,0v6.125Z" transform="translate(-24983.443 -4247.329)" fill="#4a6c6c" fill-rule="evenodd"/>
    <path id="Path_29854" data-name="Path 29854" d="M22135.775,3287.91a2.57,2.57,0,0,0-2.572-2.567h-28.186a2.5,2.5,0,0,0-1.8.752,2.558,2.558,0,0,0-.754,1.815v20.55a2.555,2.555,0,0,0,.754,1.815,2.5,2.5,0,0,0,1.8.753h28.186a2.573,2.573,0,0,0,2.572-2.569Z" transform="translate(-21752.99 -2873.935)" fill="#4a6c6c" fill-rule="evenodd"/>
    <path id="Path_29855" data-name="Path 29855" d="M17273.135,3273.091a4.058,4.058,0,1,1,2.029,0v3.721h-2.029Z" transform="translate(-16908.027 -2847.26)" fill="#4a6c6c" fill-rule="evenodd"/>
    <path id="Path_29856" data-name="Path 29856" d="M25337.3,4659.01v-6.125a12.266,12.266,0,0,1,24.531,0v6.125h-2.227v-6.125a10.038,10.038,0,0,0-20.076,0v6.125Z" transform="translate(-24985.459 -4249.588)" fill="#fff" fill-rule="evenodd"/>
    <path id="Path_29857" data-name="Path 29857" d="M22135.775,3287.91a2.57,2.57,0,0,0-2.572-2.567h-28.186a2.5,2.5,0,0,0-1.8.752,2.558,2.558,0,0,0-.754,1.815v20.55a2.555,2.555,0,0,0,.754,1.815,2.5,2.5,0,0,0,1.8.753h28.186a2.573,2.573,0,0,0,2.572-2.569Z" transform="translate(-21755.004 -2876.194)" fill="#fff" fill-rule="evenodd"/>
    <path id="Path_29858" data-name="Path 29858" d="M17273.135,3273.091a4.058,4.058,0,1,1,2.029,0v3.721h-2.029Z" transform="translate(-16910.041 -2849.519)" fill="#6c9b99" fill-rule="evenodd"/>
    <path id="Path_29859" data-name="Path 29859" d="M16779.627,3022.045h12.707v1.963h-12.707Z" transform="translate(-16395.959 -2639.076)" fill="#fff" fill-rule="evenodd"/>
    <path id="Path_29860" data-name="Path 29860" d="M28545.861,5334.8a3.834,3.834,0,0,0-3.834-3.821h-66.187a3.811,3.811,0,0,0-3.809,3.821v66.186a3.81,3.81,0,0,0,3.809,3.821h66.188a3.833,3.833,0,0,0,3.834-3.821Z" transform="translate(-28397.559 -5139.709)" fill="#79c7c4" fill-rule="evenodd"/>
    <text id="_" data-name="@" transform="translate(92.49 238.266)" fill="#4a6c6c" font-size="37" font-family="Montserrat-Bold, Montserrat" font-weight="700"><tspan x="0" y="0">@</tspan></text>
    <text id="_2" data-name="@" transform="translate(91.356 236.618)" fill="#fff" font-size="37" font-family="Montserrat-Bold, Montserrat" font-weight="700"><tspan x="0" y="0">@</tspan></text>
    <path id="Path_29861" data-name="Path 29861" d="M16779.627,3022.045h12.707v1.963h-12.707Z" transform="translate(-16650.404 -2823.821)" fill="#fff" fill-rule="evenodd"/>
    <path id="Path_29862" data-name="Path 29862" d="M14501.315,3210.044h-28.487a.746.746,0,1,1,0-1.491h29.233a.743.743,0,0,1,.746.746v38.67h56.336v-31.394a.751.751,0,0,1,.745-.746.742.742,0,0,1,.746.746v32.14a.742.742,0,0,1-.746.746h-57.827a.752.752,0,0,1-.746-.746Zm15.84-158.5h-3.713a.746.746,0,1,1,0-1.492h4.46a.742.742,0,0,1,.745.746v120.085a.742.742,0,0,1-.745.746h-45.06a.746.746,0,1,1,0-1.491h44.313Zm-212.127-1.441h18.571a.746.746,0,0,1,0,1.491h-19.315a.743.743,0,0,1-.747-.746v-19.316a.743.743,0,0,1,.747-.746.751.751,0,0,1,.744.746Z" transform="translate(-14195.472 -2766.531)" fill="#6c9b99" fill-rule="evenodd"/>
    <path id="Path_29863" data-name="Path 29863" d="M13830.336,5109.972h434.174v4.535h-434.174Z" transform="translate(-13828.712 -4540.352)" fill="#6c9b99" fill-rule="evenodd"/>
  </g>
</svg>
