<svg xmlns="http://www.w3.org/2000/svg" width="22.062" height="21.162" viewBox="0 0 22.062 21.162">
    <g id="Group_27989" data-name="Group 27989" transform="translate(0 9.616)">
        <path id="Path_29679" data-name="Path 29679"
            d="M.924,20.476a.552.552,0,0,1,.557-.552H15.147a.553.553,0,0,1,.557.552v2.591a.552.552,0,0,1-.557.552H1.48a.552.552,0,0,1-.557-.552Zm-.924,0v2.591a1.476,1.476,0,0,0,1.48,1.476H15.147a1.476,1.476,0,0,0,1.48-1.476V20.476A1.476,1.476,0,0,0,15.147,19H1.48A1.476,1.476,0,0,0,0,20.476Z"
            transform="translate(0 -14.381)" fill-rule="evenodd" />
        <path id="Path_29681" data-name="Path 29681"
            d="M3.924,8.185V6.058A1.569,1.569,0,0,1,5.5,4.49h8.862a1.573,1.573,0,0,1,1.573,1.568V8.185a.462.462,0,1,0,.924,0V6.058a2.5,2.5,0,0,0-2.5-2.492H5.5A2.493,2.493,0,0,0,3,6.058V8.185a.462.462,0,1,0,.924,0Zm.924,6.466V13.265a.462.462,0,0,0-.924,0v1.386a.462.462,0,1,0,.924,0Zm11.085,0V13.265a.462.462,0,0,0-.924,0v1.386a.462.462,0,1,0,.924,0Z"
            transform="translate(-1.614 -3.566)" fill-rule="evenodd" />
        <rect id="Rectangle_17555" data-name="Rectangle 17555" width="3.695" height="0.924"
            rx="0.462" transform="translate(9.237 2.771)" />
        <rect id="Rectangle_17556" data-name="Rectangle 17556" width="3.695" height="0.924"
            rx="0.462" transform="translate(3.695 2.771)" />
    </g>
    <g id="Icon_ionic-md-time" data-name="Icon ionic-md-time" transform="translate(12.264)">
        <path id="Path_29708" data-name="Path 29708"
            d="M8.269,3.375a4.9,4.9,0,1,0,4.9,4.9A4.9,4.9,0,0,0,8.269,3.375Zm0,8.818a3.919,3.919,0,1,1,3.919-3.919A3.919,3.919,0,0,1,8.274,12.193Z"
            transform="translate(-3.375 -3.375)" fill="rgba(0,0,0,0.9)" />
        <path id="Path_29709" data-name="Path 29709"
            d="M17.272,10.688h-.735v2.939l2.572,1.543.367-.6-2.2-1.307Z"
            transform="translate(-12.129 -8.238)" fill="rgba(0,0,0,0.9)" />
    </g>
</svg>
  