<svg xmlns="http://www.w3.org/2000/svg" width="17.807" height="17.808" viewBox="0 0 17.807 17.808">
    <path id="Path_29694" data-name="Path 29694"
        d="M11.044,19.878a8.9,8.9,0,1,1,6.3-2.6,8.875,8.875,0,0,1-6.3,2.6Zm0-16.383a7.482,7.482,0,1,0,5.289,2.191,7.429,7.429,0,0,0-5.289-2.191Z"
        transform="translate(-2.144 -2.07)" fill="#5e9d9a" />
    <path id="Path_29695" data-name="Path 29695"
        d="M10.107,16.8a.712.712,0,0,1-.5-1.216l6.045-6.045a.712.712,0,0,1,1.007,1.007l-6.045,6.045a.707.707,0,0,1-.5.209Z"
        transform="translate(-4.228 -4.157)" fill="#5e9d9a" />
    <path id="Path_29696" data-name="Path 29696"
        d="M16.153,16.8a.71.71,0,0,1-.5-.209L9.6,10.544a.712.712,0,0,1,1.007-1.007l6.045,6.045a.712.712,0,0,1-.5,1.216Z"
        transform="translate(-4.229 -4.157)" fill="#5e9d9a" />
</svg>
  