<svg id="dateOut" xmlns="http://www.w3.org/2000/svg" width="30" height="27.814" viewBox="0 0 30 27.814">
  <path id="Path_29544" data-name="Path 29544" d="M28,56h2.021v2.021H28Zm4.042,0h2.021v2.021H32.042Zm4.33,0h2.021v2.021H36.372Zm4.33,0h2.021v2.021H40.7ZM28,60.042h2.021v2.021H28Zm4.042,0h2.021v2.021H32.042Z" transform="translate(-24.536 -44.485)" fill="#86959f"/>
  <path id="Path_29545" data-name="Path 29545" d="M39.751,33.794V24.375A1.875,1.875,0,0,0,37.876,22.5H36v-.991A1.509,1.509,0,0,0,34.491,20H32.822a1.509,1.509,0,0,0-1.509,1.509V22.5H24.125v-.991A1.509,1.509,0,0,0,22.616,20H20.947a1.509,1.509,0,0,0-1.509,1.509V22.5H17.875A1.875,1.875,0,0,0,16,24.375v16.25A1.875,1.875,0,0,0,17.875,42.5H32.15a7.031,7.031,0,1,0,7.6-8.706ZM32.875,21.563h1.563V23.75H32.875ZM21,21.563h1.563V23.75H21Zm-3.125,2.5h1.6a.075.075,0,0,1,0,.025.874.874,0,0,0,.028.1,1.381,1.381,0,0,0,.053.172c0,.034.031.069.047.1l.078.147.072.081.1.128.081.081.128.1.091.066a1.147,1.147,0,0,0,.15.081l.1.047a1.744,1.744,0,0,0,.181.056l.088.025a1.478,1.478,0,0,0,.291.028h1.669a1.478,1.478,0,0,0,.291-.028l.088-.025a1.744,1.744,0,0,0,.181-.056l.1-.047a1.146,1.146,0,0,0,.15-.081L23.5,25l.128-.1.081-.081.1-.128.066-.091.078-.147c0-.034.034-.069.047-.1a1.381,1.381,0,0,0,.053-.172.875.875,0,0,0,.028-.1.075.075,0,0,1,0-.025h7.25a.075.075,0,0,1,0,.025.875.875,0,0,0,.028.1,1.381,1.381,0,0,0,.053.172c0,.034.031.069.047.1l.078.147.084.091.1.128.081.081.128.1.091.066a1.147,1.147,0,0,0,.15.081l.1.047a1.745,1.745,0,0,0,.181.056l.088.025a1.478,1.478,0,0,0,.291.028H34.5a1.478,1.478,0,0,0,.291-.028l.088-.025a1.745,1.745,0,0,0,.181-.056l.1-.047a1.146,1.146,0,0,0,.15-.081L35.375,25l.128-.1.081-.081.1-.128.066-.091.078-.147c0-.034.034-.069.047-.1a1.381,1.381,0,0,0,.053-.172.875.875,0,0,0,.028-.1.075.075,0,0,1,0-.025h1.916a.313.313,0,0,1,.313.313v2.188H17.563V24.375A.313.313,0,0,1,17.875,24.063Zm-.313,16.563v-12.5H38.188v5.669c-.216.025-.428.059-.625.1h-.022c-.2.041-.391.094-.584.15h-.038c-.188.059-.369.125-.55.2l-.066.028c-.175.072-.344.15-.509.238l-.078.037c-.163.088-.313.178-.475.278l-.075.047q-.234.15-.45.313l-.066.05c-.147.116-.291.234-.425.363l-.05.047c-.141.131-.275.266-.4.409l-.022.025c-.131.147-.259.313-.375.456a5.289,5.289,0,0,0-.331.484.269.269,0,0,0-.031.05,5.272,5.272,0,0,0-.278.491l-.038.075q-.122.247-.225.506l-.034.084c-.066.175-.125.35-.178.531a.861.861,0,0,0-.025.084c-.053.184-.1.369-.134.556a.586.586,0,0,0,0,.078,5.907,5.907,0,0,0-.084.588.268.268,0,0,0,0,.05c-.019.209-.031.422-.031.625v.156H17.875A.313.313,0,0,1,17.563,40.625Zm21.407,5.469a5.5,5.5,0,0,1-5.41-4.641,6.375,6.375,0,0,1-.059-.828,5.469,5.469,0,1,1,5.469,5.469Z" transform="translate(-16 -20)" fill="#86959f"/>
  <path id="Path_29546" data-name="Path 29546" d="M82.545,74.713a.727.727,0,0,0-1.022,0l-2.309,2.309a.723.723,0,0,0,1.022,1.022l1.077-1.088v3.464a.722.722,0,1,0,1.443,0V76.956l1.077,1.077a.723.723,0,1,0,1.022-1.022Z" transform="translate(-59.003 -56.926)" fill="#86959f"/>
</svg>
