<svg xmlns="http://www.w3.org/2000/svg" width="15.121" height="18.069" viewBox="0 0 15.121 18.069">
    <path id="Path_29710" data-name="Path 29710"
        d="M110.308,375.327a3.732,3.732,0,0,0,.377-.007,2.077,2.077,0,0,0,.818-.242,1.992,1.992,0,0,0,.946-1.216,4.886,4.886,0,0,0,.066-1.221v-2.983a1.972,1.972,0,0,0-1.536-1.954,2.6,2.6,0,0,0-1.241.036,1.986,1.986,0,0,0-1.179.99,2.129,2.129,0,0,0-.217.953v3.577a2.09,2.09,0,0,0,.113.749,1.979,1.979,0,0,0,1.026,1.128,2.05,2.05,0,0,0,.827.19.547.547,0,1,0,0-1.093,1.486,1.486,0,0,1-.2-.015l.146.02a1.462,1.462,0,0,1-.352-.1l.131.055a1.567,1.567,0,0,1-.231-.124.339.339,0,0,1-.058-.042s.12.1.046.035c-.033-.029-.066-.057-.1-.087s-.055-.056-.08-.087-.06-.1.026.036c-.013-.02-.027-.038-.042-.058a1.415,1.415,0,0,1-.124-.231l.055.131a1.462,1.462,0,0,1-.1-.352c.007.049.013.1.02.146a4.053,4.053,0,0,1-.015-.516v-3.014a4.467,4.467,0,0,1,.015-.605c-.007.049-.013.1-.02.146a1.461,1.461,0,0,1,.1-.352l-.055.131a1.568,1.568,0,0,1,.124-.231.339.339,0,0,1,.042-.058s-.1.12-.035.046c.029-.033.056-.066.087-.1s.056-.055.087-.08.1-.06-.036.026c.02-.013.038-.027.058-.042a1.413,1.413,0,0,1,.231-.124l-.131.055a1.462,1.462,0,0,1,.352-.1l-.146.02a2.507,2.507,0,0,1,.64,0l-.146-.02a1.463,1.463,0,0,1,.352.1l-.131-.055a1.564,1.564,0,0,1,.231.124.339.339,0,0,1,.058.042s-.12-.1-.046-.035c.033.029.066.057.1.087s.055.056.08.087.06.1-.026-.036c.013.02.027.038.042.058a1.414,1.414,0,0,1,.124.231l-.055-.131a1.462,1.462,0,0,1,.1.352c-.007-.049-.013-.1-.02-.146a4.054,4.054,0,0,1,.015.516v3.014a4.466,4.466,0,0,1-.015.605c.007-.049.013-.1.02-.146a1.462,1.462,0,0,1-.1.352l.055-.131a1.569,1.569,0,0,1-.124.231.339.339,0,0,1-.042.058s.1-.12.035-.046c-.029.033-.057.066-.087.1s-.057.055-.087.08-.1.06.036-.026c-.02.013-.038.027-.058.042a1.41,1.41,0,0,1-.231.124l.131-.055a1.462,1.462,0,0,1-.352.1l.146-.02a3.211,3.211,0,0,1-.439.015.547.547,0,1,0,0,1.093Zm-10.941,0a3.732,3.732,0,0,0,.377-.007,2.077,2.077,0,0,0,.818-.242,1.992,1.992,0,0,0,.946-1.216,4.886,4.886,0,0,0,.066-1.221v-2.983a1.972,1.972,0,0,0-1.536-1.954,2.6,2.6,0,0,0-1.241.036,1.986,1.986,0,0,0-1.179.99,2.129,2.129,0,0,0-.217.953v3.577a2.09,2.09,0,0,0,.113.749,1.979,1.979,0,0,0,1.026,1.128,2.05,2.05,0,0,0,.827.19.547.547,0,0,0,0-1.093,1.486,1.486,0,0,1-.2-.015l.146.02a1.462,1.462,0,0,1-.352-.1l.131.055a1.567,1.567,0,0,1-.231-.124.34.34,0,0,1-.058-.042s.12.1.046.035c-.033-.029-.066-.057-.1-.087s-.055-.056-.08-.087-.06-.1.026.036c-.013-.02-.027-.038-.042-.058a1.414,1.414,0,0,1-.124-.231l.055.131a1.462,1.462,0,0,1-.1-.352c.007.049.013.1.02.146a4.054,4.054,0,0,1-.015-.516v-3.014a4.466,4.466,0,0,1,.015-.605c-.007.049-.013.1-.02.146a1.461,1.461,0,0,1,.1-.352l-.055.131a1.567,1.567,0,0,1,.124-.231.338.338,0,0,1,.042-.058s-.1.12-.035.046c.029-.033.056-.066.087-.1s.056-.055.087-.08.1-.06-.036.026c.02-.013.038-.027.058-.042a1.413,1.413,0,0,1,.231-.124l-.131.055a1.463,1.463,0,0,1,.352-.1l-.146.02a2.507,2.507,0,0,1,.64,0l-.146-.02a1.463,1.463,0,0,1,.352.1l-.131-.055a1.564,1.564,0,0,1,.231.124.339.339,0,0,1,.058.042s-.12-.1-.046-.035c.033.029.066.057.1.087s.055.056.08.087.06.1-.026-.036c.013.02.027.038.042.058a1.413,1.413,0,0,1,.124.231l-.055-.131a1.462,1.462,0,0,1,.1.352c-.007-.049-.013-.1-.02-.146a4.054,4.054,0,0,1,.015.516v3.014a4.465,4.465,0,0,1-.015.605c.007-.049.013-.1.02-.146a1.462,1.462,0,0,1-.1.352l.055-.131a1.567,1.567,0,0,1-.124.231.338.338,0,0,1-.042.058s.1-.12.035-.046c-.029.033-.056.066-.087.1s-.056.055-.087.08-.1.06.036-.026c-.02.013-.038.027-.058.042a1.41,1.41,0,0,1-.231.124l.131-.055a1.462,1.462,0,0,1-.352.1l.146-.02a3.211,3.211,0,0,1-.439.015.547.547,0,1,0,0,1.093Z"
        transform="translate(-97.4 -361.246)" />
    <path id="Path_29711" data-name="Path 29711"
        d="M98.491,28.36v-4.2a8.774,8.774,0,0,1,.064-1.177c-.007.049-.013.1-.02.146a7,7,0,0,1,.488-1.779l-.055.131a7.139,7.139,0,0,1,.488-.946c.091-.148.186-.29.288-.43.026-.036.053-.071.078-.106l.029-.038c.058-.078-.087.111-.027.035s.109-.138.168-.2a7.056,7.056,0,0,1,.731-.745c.064-.055.128-.109.193-.164.031-.026.062-.051.093-.075s.109-.082-.035.026l.058-.044c.14-.106.286-.208.436-.3a7.094,7.094,0,0,1,1.048-.552l-.131.055a7,7,0,0,1,1.779-.488l-.146.02a7.023,7.023,0,0,1,1.875,0l-.146-.02a7,7,0,0,1,1.779.488l-.131-.055a7.14,7.14,0,0,1,.946.488c.148.091.29.186.43.288.036.026.071.053.106.078l.038.029c.078.058-.111-.087-.035-.027s.139.109.2.168a7.055,7.055,0,0,1,.745.731c.055.064.109.128.164.193.026.031.051.062.075.093s.082.109-.026-.035l.044.058c.106.14.208.286.3.436a7.093,7.093,0,0,1,.552,1.048l-.055-.131a7,7,0,0,1,.488,1.779c-.007-.049-.013-.1-.02-.146a9.2,9.2,0,0,1,.064,1.226v4.611a8.154,8.154,0,0,1-.031,1.055c.007-.049.013-.1.02-.146a3.452,3.452,0,0,1-.226.829l.055-.131a3.392,3.392,0,0,1-.308.572c-.029.044-.06.086-.089.128-.067.095.08-.1.02-.026-.015.018-.029.038-.046.056-.069.084-.14.162-.217.239s-.157.149-.239.217c-.018.015-.036.031-.056.046-.075.06.108-.08.035-.027-.046.033-.091.066-.137.1a3.392,3.392,0,0,1-.572.308l.131-.055a3.429,3.429,0,0,1-.829.226l.146-.02a6.612,6.612,0,0,1-.891.031h-1.39a.547.547,0,0,0,0,1.093h1.383c.173,0,.348,0,.521,0a3.818,3.818,0,0,0,1.352-.275,3.941,3.941,0,0,0,2.043-1.861,4.131,4.131,0,0,0,.423-1.87V23.921a7.466,7.466,0,0,0-.441-2.535,7.762,7.762,0,0,0-1.35-2.336,7.576,7.576,0,0,0-1.963-1.656,7.45,7.45,0,0,0-2.462-.911,7.749,7.749,0,0,0-2.8.02,7.43,7.43,0,0,0-2.435.94,7.518,7.518,0,0,0-1.941,1.68A7.78,7.78,0,0,0,97.8,21.488a7.542,7.542,0,0,0-.4,2.436V28.36a.546.546,0,1,0,1.092,0Z"
        transform="translate(-97.4 -16.365)" />
    <path id="Path_29712" data-name="Path 29712"
        d="M395.521,826.073a1.011,1.011,0,0,1-.011.149c.007-.049.013-.1.02-.146a1.257,1.257,0,0,1-.077.281l.055-.131a1.29,1.29,0,0,1-.095.179.257.257,0,0,1-.033.049s.091-.111.042-.055c-.024.027-.047.053-.071.078s-.046.044-.069.064-.084.042.046-.035c-.013.007-.026.018-.038.027a1.262,1.262,0,0,1-.19.1l.131-.055a1.254,1.254,0,0,1-.281.077l.146-.02a6.092,6.092,0,0,1-.753.011,6.764,6.764,0,0,1-.769-.009l.146.02a1.318,1.318,0,0,1-.277-.073l.131.055a1.152,1.152,0,0,1-.2-.106c-.051-.035-.06-.075.02.018-.024-.027-.056-.049-.082-.075a.4.4,0,0,1-.075-.082c.016.022.035.044.051.067l-.033-.046a1.152,1.152,0,0,1-.106-.2l.055.131a1.191,1.191,0,0,1-.073-.277c.007.049.013.1.02.146a1.249,1.249,0,0,1,0-.3c-.007.049-.013.1-.02.146a1.255,1.255,0,0,1,.077-.281l-.055.131a1.286,1.286,0,0,1,.095-.179.254.254,0,0,1,.033-.049s-.091.111-.042.055c.024-.027.047-.053.071-.078s.046-.044.069-.064.084-.042-.046.035c.013-.007.025-.018.038-.027a1.259,1.259,0,0,1,.19-.1l-.131.055a1.257,1.257,0,0,1,.281-.077l-.146.02a6.1,6.1,0,0,1,.753-.011,6.764,6.764,0,0,1,.769.009l-.146-.02a1.317,1.317,0,0,1,.277.073l-.131-.055a1.155,1.155,0,0,1,.2.106c.051.035.06.075-.02-.018.024.027.056.049.082.075a.4.4,0,0,1,.075.082c-.016-.022-.035-.044-.051-.067l.033.046a1.153,1.153,0,0,1,.106.2l-.055-.131a1.193,1.193,0,0,1,.073.277c-.007-.049-.013-.1-.02-.146a1,1,0,0,1,.011.148.547.547,0,1,0,1.093,0,1.684,1.684,0,0,0-.92-1.492,1.77,1.77,0,0,0-.76-.18h-1.048a1.963,1.963,0,0,0-.984.213,1.7,1.7,0,0,0-.847,1.308,1.676,1.676,0,0,0,.764,1.558,1.851,1.851,0,0,0,1.061.264h1.061a1.746,1.746,0,0,0,.8-.2,1.693,1.693,0,0,0,.878-1.471.552.552,0,0,0-.547-.547A.561.561,0,0,0,395.521,826.073Z"
        transform="translate(-386.676 -809.675)" />
</svg>
  