<svg xmlns="http://www.w3.org/2000/svg" width="26.81" height="26.865" viewBox="0 0 26.81 26.865">
  <path id="kids" d="M41.61,8.5l0-.009a.741.741,0,0,0-.034-.093A13.152,13.152,0,0,0,23.472.963.745.745,0,0,0,23.4.994q-.033.017-.064.036A13.153,13.153,0,1,0,41.61,8.5ZM29.181,1.135A11.7,11.7,0,0,1,39.9,8.182,14.432,14.432,0,0,1,31.989,7.7,14.585,14.585,0,0,1,24.8,1.986a11.615,11.615,0,0,1,4.376-.852ZM23.335,2.707a6.525,6.525,0,0,1-1.182,6.1A6.6,6.6,0,0,1,17.644,11a11.706,11.706,0,0,1,5.691-8.3Zm5.846,21.784A11.691,11.691,0,0,1,17.5,12.813q0-.16,0-.319a8.062,8.062,0,0,0,5.772-2.729,7.839,7.839,0,0,0,1.826-4.988,15.742,15.742,0,0,0,6.386,4.316,15.936,15.936,0,0,0,8.913.489A11.681,11.681,0,0,1,29.181,24.491Zm4.431-12.417a.738.738,0,1,0,.738.738A.738.738,0,0,0,33.612,12.075Zm-2.72,5.92a3.155,3.155,0,0,1-1.711.513h-.017a3.156,3.156,0,0,1-1.693-.513.738.738,0,1,0-.812,1.234,4.584,4.584,0,0,0,2.5.756h.025a4.642,4.642,0,0,0,2.524-.756.738.738,0,0,0-.812-1.234Zm-6.142-5.92a.738.738,0,1,0,.738.738.738.738,0,0,0-.738-.738Z" transform="translate(-15.776 0.647)" fill="#86959f" stroke="#86959f" stroke-width="0.5"/>
</svg>
