<svg xmlns="http://www.w3.org/2000/svg" width="18.889" height="18.889" viewBox="0 0 18.889 18.889">
  <g id="Group_27067" data-name="Group 27067" transform="translate(-4 -4)">
    <path id="Path_29557" data-name="Path 29557" d="M23.54,14.77c0,1.1-1.292,1.7-1.664,2.671-.378.988.159,2.351-.529,3.13-.834.944-2.329.62-3.5,1.136-1.083.479-1.82,1.833-3.081,1.833s-2-1.354-3.081-1.833c-1.167-.516-2.663-.192-3.5-1.136-.688-.779-.151-2.143-.529-3.13C7.292,16.468,6,15.873,6,14.77s1.292-1.7,1.664-2.671c.335-.877-.281-2.147.3-2.863.775-.952,1.746-.65,2.851-1.209C12,7.427,13.348,6,14.77,6s2.766,1.427,3.954,2.028c1.105.559,2.076.257,2.851,1.209.583.715-.033,1.986.3,2.863C22.248,13.072,23.54,13.666,23.54,14.77Z" transform="translate(-1.325 -1.325)" fill="#fff"/>
    <path id="Path_29558" data-name="Path 29558" d="M8.165,6.419A3.861,3.861,0,0,0,9.186,6.1a7.469,7.469,0,0,0,.839-.523l.274-.192c.227-.16.47-.33.711-.487A4.587,4.587,0,0,1,13.445,4a4.587,4.587,0,0,1,2.433.9c.241.157.484.328.711.487l.274.192A7.47,7.47,0,0,0,17.7,6.1a3.861,3.861,0,0,0,1.021.319c.119.025.244.052.379.084a2.826,2.826,0,0,1,1.669.982,2.525,2.525,0,0,1,.393,1.848c-.005.069-.011.135-.016.2-.016.2-.03.363-.031.531a1.32,1.32,0,0,0,.062.472,1.787,1.787,0,0,0,.307.484c.1.127.21.24.329.367.064.069.132.142.206.224a2.747,2.747,0,0,1,.867,1.837,2.747,2.747,0,0,1-.867,1.837c-.074.082-.142.155-.206.224-.119.127-.224.24-.329.367a1.787,1.787,0,0,0-.307.484,1.92,1.92,0,0,0-.1.588c-.009.177-.007.348,0,.54,0,.086,0,.176,0,.273a2.793,2.793,0,0,1-.549,1.934,3.225,3.225,0,0,1-2.02.948c-.166.027-.321.049-.468.07A4.649,4.649,0,0,0,16.8,21a2.821,2.821,0,0,0-.611.4c-.139.112-.251.21-.373.316-.1.086-.2.177-.331.284a3.179,3.179,0,0,1-2.039.894A3.179,3.179,0,0,1,11.405,22c-.128-.107-.233-.2-.331-.284-.122-.106-.234-.2-.373-.316a2.821,2.821,0,0,0-.611-.4A4.65,4.65,0,0,0,8.85,20.71c-.147-.021-.3-.043-.468-.07a3.225,3.225,0,0,1-2.02-.948,2.793,2.793,0,0,1-.549-1.934c0-.1,0-.187,0-.273,0-.192,0-.363,0-.54a1.92,1.92,0,0,0-.1-.588,1.788,1.788,0,0,0-.307-.484c-.1-.127-.21-.24-.329-.367-.064-.069-.132-.142-.206-.224A2.747,2.747,0,0,1,4,13.445a2.747,2.747,0,0,1,.867-1.837c.074-.082.142-.155.206-.224.119-.127.224-.24.329-.367a1.788,1.788,0,0,0,.307-.484,1.321,1.321,0,0,0,.062-.472c0-.168-.015-.336-.031-.531-.005-.063-.011-.128-.016-.2a2.525,2.525,0,0,1,.393-1.848A2.826,2.826,0,0,1,7.786,6.5C7.921,6.471,8.047,6.444,8.165,6.419Zm13.174,8.608a2.425,2.425,0,0,0,.875-1.583,2.425,2.425,0,0,0-.875-1.583,3.586,3.586,0,0,1-.789-1.088,3.075,3.075,0,0,1-.072-1.316,2.134,2.134,0,0,0-.23-1.547A2.459,2.459,0,0,0,18.63,7.09,4.753,4.753,0,0,1,17.4,6.7,10.43,10.43,0,0,1,16.19,5.93a5.239,5.239,0,0,0-2.745-1.255A5.239,5.239,0,0,0,10.7,5.93,10.43,10.43,0,0,1,9.491,6.7a4.753,4.753,0,0,1-1.232.387,2.459,2.459,0,0,0-1.619.821,2.134,2.134,0,0,0-.23,1.547,3.075,3.075,0,0,1-.072,1.316,3.586,3.586,0,0,1-.789,1.088,2.425,2.425,0,0,0-.875,1.583,2.425,2.425,0,0,0,.875,1.583,3.586,3.586,0,0,1,.789,1.088,3.845,3.845,0,0,1,.15,1.4,2.484,2.484,0,0,0,.378,1.732,3.077,3.077,0,0,0,2.023.788,5.56,5.56,0,0,1,1.473.348,4.907,4.907,0,0,1,1.172.837,3.012,3.012,0,0,0,1.909,1,3.012,3.012,0,0,0,1.909-1,4.907,4.907,0,0,1,1.172-.837A5.561,5.561,0,0,1,18,20.034a3.077,3.077,0,0,0,2.023-.788,2.483,2.483,0,0,0,.378-1.732,3.846,3.846,0,0,1,.15-1.4A3.586,3.586,0,0,1,21.339,15.027Z" fill="#5e9d9a" fill-rule="evenodd"/>
    <path id="Path_29559" data-name="Path 29559" d="M25.922,21.107a2.425,2.425,0,0,0,.875-1.583,2.425,2.425,0,0,0-.875-1.583,3.586,3.586,0,0,1-.789-1.088,3.075,3.075,0,0,1-.072-1.316,2.68,2.68,0,0,0-.1-1.345,1.972,1.972,0,0,1,.547.473,2.134,2.134,0,0,1,.23,1.547,3.075,3.075,0,0,0,.072,1.316,3.586,3.586,0,0,0,.789,1.088,2.425,2.425,0,0,1,.875,1.583,2.425,2.425,0,0,1-.875,1.583,3.586,3.586,0,0,0-.789,1.088,3.846,3.846,0,0,0-.15,1.4A2.483,2.483,0,0,1,25.279,26a3.077,3.077,0,0,1-2.023.788,5.561,5.561,0,0,0-1.473.348,4.907,4.907,0,0,0-1.172.837,3.012,3.012,0,0,1-1.909,1,3.012,3.012,0,0,1-1.909-1,4.907,4.907,0,0,0-1.172-.837,5.561,5.561,0,0,0-1.473-.348A3.077,3.077,0,0,1,12.124,26a1.267,1.267,0,0,1-.191-.29,4.48,4.48,0,0,0,1.54.4,5.56,5.56,0,0,1,1.473.348,4.907,4.907,0,0,1,1.172.837,3.012,3.012,0,0,0,1.909,1,3.012,3.012,0,0,0,1.909-1,4.907,4.907,0,0,1,1.172-.837,5.56,5.56,0,0,1,1.473-.348,3.077,3.077,0,0,0,2.023-.788,2.483,2.483,0,0,0,.378-1.732,3.845,3.845,0,0,1,.15-1.4A3.586,3.586,0,0,1,25.922,21.107Z" transform="translate(-5.257 -6.754)" fill="#e7c63c" fill-rule="evenodd"/>
    <path id="Path_29560" data-name="Path 29560" d="M23.6,22.675a.928.928,0,1,0,.928.928A.928.928,0,0,0,23.6,22.675ZM22,23.6a1.6,1.6,0,1,1,1.6,1.6A1.6,1.6,0,0,1,22,23.6Zm7.322-1.082a.337.337,0,0,1,0,.477L23,29.322a.337.337,0,0,1-.477-.477l6.324-6.324A.337.337,0,0,1,29.322,22.52Zm-1.5,4.371a.928.928,0,1,0,.928.928A.928.928,0,0,0,27.819,26.891Zm-1.6.928a1.6,1.6,0,1,1,1.6,1.6A1.6,1.6,0,0,1,26.216,27.819Z" transform="translate(-11.929 -11.929)" fill="#e7c63c" fill-rule="evenodd"/>
    <path id="Path_29561" data-name="Path 29561" d="M28.322,21.52a.337.337,0,0,1,0,.477L22,28.322a.337.337,0,0,1-.477-.477l6.324-6.324A.337.337,0,0,1,28.322,21.52Zm-1.5,4.371a.928.928,0,1,0,.928.928A.928.928,0,0,0,26.819,25.891Zm-1.6.928a1.6,1.6,0,1,1,1.6,1.6A1.6,1.6,0,0,1,25.216,26.819ZM22.6,21.675a.928.928,0,1,0,.928.928A.928.928,0,0,0,22.6,21.675ZM21,22.6a1.6,1.6,0,1,1,1.6,1.6A1.6,1.6,0,0,1,21,22.6Z" transform="translate(-11.266 -11.266)" fill="#5e9d9a" fill-rule="evenodd"/>
    <path id="Path_29562" data-name="Path 29562" d="M13.382,9.848a7.165,7.165,0,0,1-.817.506,4.462,4.462,0,0,1-1.146.362c-.085.018-.165.035-.239.052a1.5,1.5,0,0,0-.918.521,1.3,1.3,0,0,0-.131.922c0,.045.007.091.011.138.014.172.03.361.031.541a2,2,0,0,1-.113.729,2.4,2.4,0,0,1-.408.663c-.105.127-.225.256-.336.376l-.143.155a1.456,1.456,0,0,0-.5.945.337.337,0,1,1-.675,0,2.1,2.1,0,0,1,.673-1.4c.058-.064.113-.123.166-.18.1-.111.2-.215.293-.327a1.739,1.739,0,0,0,.3-.475,1.34,1.34,0,0,0,.068-.484c0-.152-.014-.306-.027-.473,0-.052-.009-.1-.013-.159a1.914,1.914,0,0,1,.281-1.4,2.16,2.16,0,0,1,1.285-.751c.1-.024.2-.045.3-.066a3.579,3.579,0,0,0,.938-.294A6.538,6.538,0,0,0,13,9.293l.237-.166c.191-.134.391-.275.591-.405A3.657,3.657,0,0,1,15.758,8a.337.337,0,1,1,0,.675,3.019,3.019,0,0,0-1.563.612c-.19.124-.374.253-.561.384Z" transform="translate(-2.651 -2.651)" fill="#fff" fill-rule="evenodd"/>
  </g>
</svg>
