<svg xmlns="http://www.w3.org/2000/svg" width="33.963" height="48.306" viewBox="0 0 33.963 48.306">
  <path id="title" d="M166.893,187.619a9.307,9.307,0,0,0-1.783-1.1,17.973,17.973,0,0,0-2.971-1.07c-1.438-.4-2.9-.7-4.358-1.009-1.313-.279-2.627-.558-3.927-.9a26.115,26.115,0,0,1-3.167-1.012,11.308,11.308,0,0,1-2.252-1.177,5.945,5.945,0,0,1-1.308-1.215,4.33,4.33,0,0,1-.9-2.985,7.279,7.279,0,0,1,.389-1.915,1.88,1.88,0,0,0,.069-.213.181.181,0,0,0-.065-.2.222.222,0,0,0-.182.11,3.749,3.749,0,0,0-.23.318,6.781,6.781,0,0,0-.909,2.334,5.658,5.658,0,0,0-.03,2.115,5.473,5.473,0,0,0,1.063,2.379,7.614,7.614,0,0,0,1.475,1.448,12.1,12.1,0,0,0,2.213,1.305,21.133,21.133,0,0,0,3.449,1.223,33.239,33.239,0,0,0,3.558.743,1.154,1.154,0,0,1,.164.034c.046.013.111-.014.146.066a2.835,2.835,0,0,1-.54.221,23.569,23.569,0,0,1-2.293.62q-1.4.323-2.829.541c-.581.09-1.164.16-1.748.233a.758.758,0,0,1-.331,0c-.032-.04-.061-.076-.089-.113a15.506,15.506,0,0,0-2.362-2.46A12.261,12.261,0,0,0,144,184.03c-.024-.009-.05-.013-.085-.023a1.086,1.086,0,0,0-.073.082,12.051,12.051,0,0,0-1.071,1.963,5.966,5.966,0,0,0-.4,1.366,3.16,3.16,0,0,0,.972,2.874,3.568,3.568,0,0,0,1.389.816,6.84,6.84,0,0,0,2.57.307,15.629,15.629,0,0,0,1.807-.188,1.314,1.314,0,0,1,.238,0,8.39,8.39,0,0,1,1.3,2.825.129.129,0,0,1-.05.013,6.342,6.342,0,0,0-1.529-.15c-.86.015-1.718.033-2.576.071-1.137.049-2.275.1-3.413.1a19.769,19.769,0,0,1-2.681-.169,8.556,8.556,0,0,1-1.551-.357,4.3,4.3,0,0,1-1.287-.664,2.577,2.577,0,0,1-.971-1.527,3.4,3.4,0,0,1-.056-1.086,9.923,9.923,0,0,1,.343-1.614,30.123,30.123,0,0,1,1.282-3.521c.831-1.959,1.767-3.868,2.748-5.757,1.958-3.771,3.641-6.736,5.842-10.368.813-1.34.588-.975,1.455-2.283a4.869,4.869,0,0,0,.323-.587.863.863,0,0,0,.067-.3.121.121,0,0,0-.165-.131.966.966,0,0,0-.254.11,1.739,1.739,0,0,0-.495.488c-.063.091-.123.187-.185.279-2.474,3.724-3.338,5.116-5.53,9.016-1.317,2.342-2.57,4.72-3.7,7.162a45.376,45.376,0,0,0-1.956,4.851,16.824,16.824,0,0,0-.841,3.645,6.422,6.422,0,0,0,.085,1.98,3.588,3.588,0,0,0,1.852,2.5,5.207,5.207,0,0,0,.478.23,7.883,7.883,0,0,0,2.277.545,19.135,19.135,0,0,0,2.461.1c1.231-.025,2.461-.1,3.691-.176a1.522,1.522,0,0,1,.177.013c0,.1.011.2.015.29.022.672.057,1.344.128,2.011a19.23,19.23,0,0,0,.591,3.132,12.937,12.937,0,0,0,1.729,3.834c.026.04.045.082.074.136-.09.073-.176.141-.263.209-1.087.824-2.207,1.6-3.349,2.344-2.014,1.319-4.087,2.543-6.175,3.741q-1.309.752-2.621,1.505a1.183,1.183,0,0,0-.229.157.138.138,0,0,0-.025.124.142.142,0,0,0,.1.073,1.1,1.1,0,0,0,.3-.041c.47-.152.942-.3,1.406-.471a12.806,12.806,0,0,0,1.27-.512c2.033-1,4.045-2.046,6.024-3.15,1.526-.849,3.03-1.731,4.475-2.711a.988.988,0,0,1,.1-.054c.046.041.09.077.131.115a8.66,8.66,0,0,0,1.061.866,7.073,7.073,0,0,0,3.437,1.235,7.385,7.385,0,0,0,2.551-.242,9.5,9.5,0,0,0,3.035-1.457,13.408,13.408,0,0,0,2.953-2.924,20.441,20.441,0,0,0,2.76-5.137,1.168,1.168,0,0,0,.058-.214,8.236,8.236,0,0,0,.112-1.673,6.67,6.67,0,0,0-.709-2.8,7.7,7.7,0,0,0-1.994-2.464,12.911,12.911,0,0,0-3.124-1.893c-.05-.021-.1-.033-.163-.052a1.673,1.673,0,0,0-.132.155,11.825,11.825,0,0,0-1.106,2.038,5.432,5.432,0,0,0-.422,1.676,2.736,2.736,0,0,0,.788,2.194,4.681,4.681,0,0,0,1.358.923,13.264,13.264,0,0,0,1.645.627c.62.2,1.242.4,1.858.615a8.125,8.125,0,0,1,.784.364.663.663,0,0,1,.137.114.689.689,0,0,1-.024.07,16.94,16.94,0,0,1-3.468,4.881,11.257,11.257,0,0,1-3.369,2.278,7.939,7.939,0,0,1-4.1.644,6.681,6.681,0,0,1-2.583-.857,1.24,1.24,0,0,1-.118-.087,17.749,17.749,0,0,0,1.469-1.327,17.434,17.434,0,0,0,1.214-1.546l.278.053c.369.057.737.115,1.1.165.426.06.851.126,1.276.164a12.812,12.812,0,0,0,1.7.016,9.94,9.94,0,0,0,1.3-.181.854.854,0,0,0,.6-.422,3.449,3.449,0,0,0,.217-.422,4.056,4.056,0,0,0,.243-.947c.037-.249.067-.5.1-.748a3.487,3.487,0,0,0-.177-1.627,3.808,3.808,0,0,0-1.426-1.887,4.371,4.371,0,0,0-1.624-.719,6.166,6.166,0,0,1-2.8-1.382c-.161-.139-.327-.275-.485-.418a.409.409,0,0,0-.364-.093,2.367,2.367,0,0,0-.832.315,4.254,4.254,0,0,0-1.307,1.285,6.275,6.275,0,0,0-.645,1.27,6.61,6.61,0,0,0-.487,2.366,4.651,4.651,0,0,0,.192,1.46,1.341,1.341,0,0,0,.291.5,3.191,3.191,0,0,0,1.015.733c.071.033.143.073.217.111a17.856,17.856,0,0,1-2.4,2.217,1.218,1.218,0,0,1-.139-.126c-.218-.257-.444-.507-.643-.776a9.657,9.657,0,0,1-1.419-2.9,13.486,13.486,0,0,1-.513-2.547,16.983,16.983,0,0,1-.1-1.956c0-.091.007-.183.011-.275a.9.9,0,0,1,.347-.046c.542-.008,1.082-.021,1.623-.013.4.005.8.04,1.2.064a1.171,1.171,0,0,1,.193.034.33.33,0,0,1,.279.308c.007.067-.013.151.074.2a.611.611,0,0,0,.152-.26,6.383,6.383,0,0,0,.485-2.37,7.979,7.979,0,0,0-.541-3.124c-.037-.1-.074-.208-.114-.324.093-.024.172-.049.253-.068.809-.179,1.62-.354,2.431-.536a57.265,57.265,0,0,1,5.633-1.059c.575-.067,1.151-.126,1.729-.141a14.1,14.1,0,0,1,1.846.045,8.111,8.111,0,0,1,1.911.407,4.761,4.761,0,0,1,3,3,7.892,7.892,0,0,1,.428,2.133,15.077,15.077,0,0,1-.145,3.267,3.012,3.012,0,0,0-.016,1.057.452.452,0,0,0,.149.332c.038-.037.093-.067.114-.112a2.461,2.461,0,0,0,.132-.337c.047-.151.083-.307.127-.458a20.748,20.748,0,0,0,.787-4.06,10.487,10.487,0,0,0-.136-2.927,6.353,6.353,0,0,0-2.317-3.819m-19.9,1.058a11.746,11.746,0,0,1-2.054-.2,2.624,2.624,0,0,1-1.219-.52,2.087,2.087,0,0,1-.278-.274.7.7,0,0,1-.042-.879c.054-.085.13-.157.19-.241a.27.27,0,0,1,.345-.093,4.974,4.974,0,0,1,.537.235,11.647,11.647,0,0,1,1.721,1.139c.263.206.516.428.772.645.046.04.086.09.159.165a1.238,1.238,0,0,1-.131.023m16.885,7.349c-.841-.3-1.685-.6-2.521-.914a6.978,6.978,0,0,1-.885-.413,2.679,2.679,0,0,1-.525-.366.659.659,0,0,1-.06-1.066c.024-.029.052-.054.075-.082a.169.169,0,0,1,.2-.049c.148.06.3.118.437.189a9.5,9.5,0,0,1,1.238.76,13.088,13.088,0,0,1,1.436,1.156,4.221,4.221,0,0,1,.668.77.46.46,0,0,1-.066.014m-8.283,4.428c.063-.194.13-.389.193-.582a3.768,3.768,0,0,0,.2-1.264.394.394,0,0,1,.014-.078c.069-.054.126-.009.184.012.594.216,1.186.439,1.783.647a8.354,8.354,0,0,1,.934.368,2.517,2.517,0,0,1,.8.553,1.616,1.616,0,0,1,.226.317.239.239,0,0,1-.09.361,1.253,1.253,0,0,1-.325.159,4.226,4.226,0,0,1-.87.16,8.777,8.777,0,0,1-1.005.021,10.81,10.81,0,0,1-1.637-.16,1.393,1.393,0,0,1-.51-.167c.038-.119.071-.233.108-.347m-3.642-.565a.439.439,0,0,1-.218-.476,2.129,2.129,0,0,1,.2-.64,3.915,3.915,0,0,1,.879-1.181,3.681,3.681,0,0,1,.676-.522.64.64,0,0,1,.344.138,3.387,3.387,0,0,1,1.238,1.41.508.508,0,0,1-.01.481c-.254.487-.512.972-.767,1.457a1.831,1.831,0,0,1-.532-.037,4.376,4.376,0,0,1-1.264-.343,5.02,5.02,0,0,1-.541-.287" transform="translate(-135.426 -165.715)" fill="#5e9d9a"/>
</svg>
