<svg xmlns="http://www.w3.org/2000/svg" width="220" height="140" viewBox="0 0 220 140">
  <g id="Group_28045" data-name="Group 28045" transform="translate(0.286)">
    <rect id="Rectangle_17564" data-name="Rectangle 17564" width="220" height="140" rx="2" transform="translate(-0.286)" fill="#479951"/>
    <path id="Path_29702" data-name="Path 29702" d="M222.479,105.422a1.564,1.564,0,0,0-.73.282,5.427,5.427,0,0,0-2.281,3.833c-.045,1.005-.235,1,.423,1.641.475.686.95.618,1.909.116a2.031,2.031,0,0,0,.922-1.346c.229-1.142-1.2.541-1.384-.73-.32-1.18.593-1.666,1.46-2.808C222.819,105.872,222.829,105.433,222.479,105.422Zm13.967.077c-.268.036-.6.38-1.051,1.2-.326.865-1.732,2.173-.718,4.872a14.475,14.475,0,0,1,.795,7.59,14.615,14.615,0,0,1-1.461,2.064,2.392,2.392,0,0,1-3.088.423,3.3,3.3,0,0,1-1.845-2.6c.068-2.81.231-7.409-.282-8.385a1.519,1.519,0,0,0-2.537-.513c-2.561,2.344-3.827,6.3-4.6,9.448-.71,2.3-1.468,1.631-2,.706-1.294-1.214-1.385-10.7-2.947-9.142-2.5,7.155,1.436,14.994,4.164,14.232,1.968.816,3.218-2.934,4.023-7.039.552-1.152.973-1.284,1.256-.692-.073,5.459.391,6.677,1.794,8.333a4.527,4.527,0,0,0,5.92.1l2.434-2.436a1.464,1.464,0,0,1,2.025-.1c.744.677.649,1.843,2.243,2.654,1.341.537,4.2.13,4.869-1.026.894-1.533,1.11-2.06,1.524-2.641.639-.85,1.73-.474,1.73-.205-.1.474-.743.941-.308,1.795.759.569.935.2,1.384.077,1.588-.759,2.78-4.205,2.78-4.205.071-1.285-.66-1.188-1.128-.923-.609.373-.646.5-1.255.872-.776.115-2.28.628-3.024-.526-.76-1.387-.764-3.32-1.345-4.718,0-.1-1.016-2.2-.077-2.333.474.088,1.493.351,1.653-.5.5-.83-1.072-3.184-2.14-4.371a2.3,2.3,0,0,0-3.447-.1c-.868.8-.739,1.692-.909,2.538a3.968,3.968,0,0,0,.807,3.462c.867,1.71,2.441,3.9,1.922,7a2.807,2.807,0,0,1-2.524,1.282c-.671-.146-1.764-.437-2.345-4.731-.44-3.251.111-7.8-1.268-9.937-.311-.8-.578-1.586-1.025-1.525Zm-4.42.345c-.417.036-.879.522-1.256,1.461a23.748,23.748,0,0,0-.653,4.449c-.259,1.112,1.16,1.582,1.807.154a13.624,13.624,0,0,0,1.038-4.846C232.809,106.216,232.442,105.808,232.025,105.844Zm16.324.294c-.429.039-.77.29-.9.923a9.743,9.743,0,0,0,.167,3.538,12.509,12.509,0,0,0,1.986,3.013c2.827,3.8,5.547,7.624,8.175,11.578q.611,4.315.909,8.667a174.6,174.6,0,0,1,.167,20.68c1.174.047,3.055-1.9,3.716-4.743.429-3.938-.153-11.972-.192-14.3-.027-.965-.087-2.116-.154-3.321q4.807,7.857,8.931,16.1c1.061-.5.826-6.481.205-7.321-2.329-5.016-5.547-9.968-6.573-11.873-.371-.688-1.632-2.607-3.127-4.821-.275-3.158-.574-5.834-.769-6.641-.481-3.339,1.372.377,1.116-1.564-.6-3.334-2.441-5.6-4.613-8.654-.7-.993-.687-1.2-1.768.244a6.37,6.37,0,0,0-.448,3.833q-.535-.783-1.14-1.513c-1.876-1.611-1.993-1.7-3.55-3.013a3.842,3.842,0,0,0-2.14-.821Zm48.383.5c-.209-.033-.436.07-.692.448a2.917,2.917,0,0,0-1,2.205c.119,1.76.432,3.561.551,5.321.042.236.086.47.128.705a6.862,6.862,0,0,0-.448-.526c-3.428-3.6,1.575-.589-.654-3.371a26.7,26.7,0,0,0-4.049-3.975c-.809-.523-1.3-1.522-1.563.18a33.515,33.515,0,0,0-.115,4.488,6.035,6.035,0,0,0,1.345,2.795q3.569,4.4,6.971,8.923c.494,6.366.626,12.2,1.128,18.578-.071,2.727-.909,6.349-1.7,6.692,0,0-1.214.7-2.025-.077-.589-.237-2.947-3.936-2.947-3.936a1.8,1.8,0,0,0-2.87,0c-2.368,2.288-3.439,6.574-5.048,9.526-.415.659-1.583,1.219-2.883-.051-3.3-4.511-1.37-10.933-1.781-9.282-2.939,3.314-1.638,8.806-.974,9.987.969,1.94,1.753,3.182,3.639,4.141a2.552,2.552,0,0,0,3.793-.41c1.728-1.792,1.751-6.376,2.563-7.282a1.515,1.515,0,0,1,2.691-.641,6.618,6.618,0,0,0,2.46,2.129,4.13,4.13,0,0,0,5.433.384,6.3,6.3,0,0,0,2.9-3.538c.814-2.179.412-13.6.23-19.949,1.218,1.716,2.419,3.469,3.614,5.244a130.042,130.042,0,0,1,.589,16.334c-.123,1.047,3.652-3.126,3.626-5.1-.017-1.729,0-3.3,0-4.757,1.832,2.925,3.6,5.9,5.279,8.911,1.038-.551.682-6.433.026-7.244-1.754-2.945-4-6.128-5.741-8.59-.344-3.108-.812-6.775-1.025-7.9-.332-1.752-.664-4.383-1.166-6.462a22.052,22.052,0,0,1-.423-3.654c.2-.58.978.019,1.358-.654.57-.622-1.975-7.22-3.267-9.1-.464-.844-1.3-.552-2.344.821-.965.9-.612,2.964-.244,4.923.957,4.995,1.81,10.081,2.486,15.155q-2.119-3.155-4.28-6.282c-.04-.209-.192-.977-.192-.987,0-.09-.207-4.086-.384-5.038-.031-.387-.123-.5.282-.449a2.336,2.336,0,0,0,.756.5c.434.079.813-.655.551-1.333-1.341-2.475-2.682-4.961-4.023-7.437a1.119,1.119,0,0,0-.551-.359Zm-124.866.128c-.743-.021-1.563.439-1.243,1.333-.186.487,1.454,2.133,1.743,3.039.258.644-.256,2.719.282,2.91.495.214,1.176-1.436,1.435-2.962.144-.835.035-3.7-1.909-4.282a1.6,1.6,0,0,0-.307-.039Zm142.243.016c-.169.016-.376.291-.692.961a8.913,8.913,0,0,0-.718,5.449,299.66,299.66,0,0,1,3.472,35.374,11.476,11.476,0,0,1-.691,2.91,23.367,23.367,0,0,1-3.4,3.962c-1.123.837-3.512,1.636-4.293,2.257-2.478,1.433-2.49,3.081-.487,3.141,3.453-.4,7.539-.685,10.353-4.936a16.475,16.475,0,0,0,1.679-6.4c.263-11.589-.149-22.92-1.884-31.3a15.5,15.5,0,0,1-.333-2.936c.224-.574,1.353.057,1.755-.6.591-.6-2.921-5.1-4.151-7.026C314.479,107.159,314.327,106.762,314.11,106.784Zm-36.211.192c-.142.025-.353.242-.743.757-.965,3.156-1.3,5.733-.936,7.693,2.478,12.938,5.016,24.724,4.613,37.04,1.175.008,2.534-2.689,3.114-5.359a45.45,45.45,0,0,0-.307-8.077c-.1-2.161-2.445-19.7-2.921-21.334-.574-3.092,2.286-.407,1.973-2.205-.989-2.267-3.457-5.569-4.228-7.539-.29-.528-.326-1.015-.564-.974Zm-88.168.244a.923.923,0,0,0-.7.718c-.067.271.117.722-.128.859-.141.142-.676.047-.653-.705a1.255,1.255,0,0,0-.282-.641.561.561,0,0,0-.371-.09c-.235.01-.23.072-.359.27a2.221,2.221,0,0,0-.131.628c-.029.267-.137.358-.333.4-.22,0-.168.024-.346-.09-.106-.116-.231-.161-.231-.359a2.115,2.115,0,0,0-.115-.667.715.715,0,0,0-.41-.231c-.922,0-.989,1.063-.936,1.461-.069.075-.1,1.953,1.153,2.474,1.687.8,4.849.464,4.715-2.257,0-.24-.053-1.049-.077-1.269a.726.726,0,0,0-.795-.5Zm22.629.026a3.766,3.766,0,0,0-1.538.422,2.915,2.915,0,0,0-.5,3.859c.857.4,1.712,1.268,1.14,1.744-2.422,2.589-8.728,6.916-9.046,7.705,0,.006-.011.02-.012.025a.185.185,0,0,0,0,.026.062.062,0,0,0,0,.013.114.114,0,0,0,.012.026l.013.012s.01,0,.012,0,.01.012.013.013h.012l.013.013a17.939,17.939,0,0,0,4.7.013s.01-.011.012-.012.012,0,.013,0,0-.012,0-.013c1.356-.5,7.791-7.859,7.791-7.859-.334-.286-.641-.5-.974-.782-.357-.309-.321-.613,0-.923,1.593-.928,1.089-2.97.256-3.9a4.152,4.152,0,0,0-1.922-.385Zm59.147.026c-.169.017-.376.278-.692.949a10.807,10.807,0,0,0-1.218,5.448c1.647,11.412,2.153,21.4,3.229,32.81.087,1.1-.074,2.707-.808,3.346-2.711,2.833-6.622,6.328-10.878,7.936-.458.515,1.139,2.707,3.2,2.705,3.453-.4,6.488-2.34,9.3-7.449a13.283,13.283,0,0,0,2.114-5.718,124.887,124.887,0,0,0-2.319-28.976,4.794,4.794,0,0,1,.1-2.026c.224-.267.982.006,1.384-.654.59-.6-1.576-5.6-2.806-7.526-.246-.483-.4-.868-.615-.846Zm-91.629.349a1.516,1.516,0,0,0-1.14.962,33.1,33.1,0,0,0,.115,5.346,58.37,58.37,0,0,1,1.5,8.591c.112,4.058-2.342,1.755-2.229-.256.566-2.613.414-6.727-.09-7.77-.4-1.042-.861-1.3-1.833-1.128-.771-.047-2.762,2.123-3.319,5.718a33.9,33.9,0,0,0-.666,3.488c-.272,1.856-1.5,3.171-2.357-.256-.74-2.491-1.195-8.629-2.435-7.193-.355,4.792-.776,13.225,3.293,14.09,4.923.473,2.2-8.326,3.985-9.924.337-.789.961-.8,1.012.192v7.475c-.045,2.43,1.552,3.152,2.793,3.654,1.291-.1,2.146-.064,2.652,1.193q.3,6.463.615,12.936s2.984.858,3.126-7.27c.143-4.772-.949-8.777-.308-9.705.023-.912,1.192-.957,2-.513,1.287.908,1.858,2.026,3.857,1.577,3.042-.839,4.875-2.316,4.92-4.654a20.282,20.282,0,0,0-1.4-6.667c.135-.4-.582-1.455-.448-1.859.547.857,1.374.786,1.563,0-.518-1.708-1.324-3.344-2.626-4.052-1.077-.949-2.652-.748-3.229,1.231-.268,2.28.826,4.983,2.486,7.192a7.057,7.057,0,0,1,.628,3.59,1.915,1.915,0,0,1-2.5-.487s-2.422-1.814-2.422-2.218c.643-4.117.139-4.589-.218-5.731-.249-1.577-1-2.076-1.6-3.154-.606-.642-1.428-.642-1.82,0-1.07,1.857-.568,5.843.205,7.629.559,1.642,1.416,2.667,1.013,2.667-.333.928-1.026.712-1.525-.359a26.675,26.675,0,0,1-.859-7c-.214-1.844-.453-5.783-1.666-6.782a1.15,1.15,0,0,0-1.076-.551Zm17.285.026c-.244.031-.514.17-.833.243a2.443,2.443,0,0,0-1.717,3c1.237,7.521,2.044,13.261,3.28,20.783.19.881-.548,2.042-1.5,1.923-1.618-1.095-2.019-3.312-4.779-3.218-2,.024-4.277,2.2-4.562,4.3a10.434,10.434,0,0,0,0,4.923c1.4,1.689,3.087,1.509,4.562,1.128,1.213-.5,2.211-1.7,2.64-1.411,0,0,.012,0,.012,0s0,.011,0,.013c.265.463-.025,4.375-5.714,7.4-3.5,1.571-6.28,1.946-7.778-.91-.928-1.785.068-8.585-2.216-7.013-6.755,17.423,15.826,19.855,18.349.718.163-.539.661-1.081,1.012-.948.154.066.3.275.346.667-.524,17.328-17.47,18.516-20.348,13.065-.713-1.285-.928-4.145-1-5.859a2.922,2.922,0,0,0-.692-1.872c-.686-.516-1.609.83-1.807,3.167a21,21,0,0,0-.205,4.205c.9,13.686,22.711,7.805,26.255-3.5,1.755-5.845-.036-10.254.551-10.795,0,0,.02-.009.025-.013l.026-.013c.006,0,.019-.011.025-.013a.367.367,0,0,1,.077-.012c2.165,2.333,5.2.3,5.868-.513a.975.975,0,0,1,1.5-.141c1.689,1.214,4.648.642,5.266-1.5a47.477,47.477,0,0,0,.73-6.487,6.575,6.575,0,0,0-2.345.974.621.621,0,0,0-.166.308c-.1.62-.187,1.24-.282,1.859a.471.471,0,0,1-.051.141.6.6,0,0,1-.205.192c-.389.213-1.067.091-1.1-.474-.523-2.38-2.676-2.69-3.985,1-.88.714-2.485.853-2.652-.218.214-2.476-.783-2.808-2.781-1.641-.642-4.9-1.279-9.584-1.922-14.488.832-.024,1.6.58,2.358-.372-.824-2.564-2.567-7.78-3.549-8.269l-.026-.013a1.3,1.3,0,0,0-.2-.193c-.018-.012-.046-.028-.064-.038a.7.7,0,0,0-.128-.051.663.663,0,0,0-.269-.025Zm67.384.038c-.865-.026-1.82.52-1.448,1.6-.217.591,1.857,2.6,2.191,3.692.6,1.686-.459,3.294.167,3.526.576.26,1.378-1.74,1.679-3.59.347-1.5-.719-4.56-2.23-5.192a1.791,1.791,0,0,0-.359-.038Zm-52.5,1.846a1.273,1.273,0,0,1,1.1.833c.248.546.123,1.068-.282,1.167s-.931-.262-1.179-.808-.124-1.08.282-1.18a.548.548,0,0,1,.077-.012Zm97.382,2.526a1.275,1.275,0,0,0-1.307,1.744c-.2.64,1.681,2.813,1.986,4,.274.845-.417,3.569.154,3.821.525.281,1.264-1.882,1.538-3.885.152-1.1-.66-4.943-2.037-5.628A1.443,1.443,0,0,0,309.432,112.055Zm-53.841,1.333c.072.322.144.645.192.974.161.711.3,1.416.448,2.116-.622-.857-1.137-1.55-1.358-1.795C253.466,113.01,254.905,113.585,255.591,113.389Zm12.4,6.1a.942.942,0,0,0-.7.731c-.067.271.13.71-.115.846-.141.142-.689.059-.666-.692a1.3,1.3,0,0,0-.282-.654.56.56,0,0,0-.371-.09c-.235.009-.23.072-.359.269a2.337,2.337,0,0,0-.128.629c-.03.268-.124.358-.321.4-.22,0-.18.024-.359-.089-.106-.116-.23-.162-.23-.359a2.107,2.107,0,0,0-.115-.667.7.7,0,0,0-.41-.218c-.922,0-.976,1.05-.923,1.449-.069.075-.116,1.965,1.14,2.487,1.687.8,4.862.452,4.729-2.269,0-.241-.066-1.049-.09-1.269a.726.726,0,0,0-.794-.5Zm-56.633.564a1.366,1.366,0,0,0-.794.244,3.475,3.475,0,0,0-1.141,4.6,2.248,2.248,0,0,0,2.422.781c1.461.183,2.332-2.743,2.332-2.743s.044-.823-1.691.731c-.73.137-.83-.127-1.012-.538a3.646,3.646,0,0,1,.231-2.3c.162-.457,0-.747-.346-.782Zm80.058.372a1.891,1.891,0,0,0-1.935,1.628c0,.667.3,1.035.244,1.641-.086.346-.443.574-1.294.167.133-.123-.551-1.09-.551-1.09-.664-.4-1.55.022-2.127.4a3.243,3.243,0,0,0-.192,2.577c.953,1.761,4.22,4.767,5.779,4.8.029-1.588.183-3.7.269-5.013.037-.5.153-1.042.628-1.167s1.3.478,1.307-.039a6.805,6.805,0,0,0-.859-3.205A1.61,1.61,0,0,0,291.42,120.428Zm-66.269,5.526a.5.5,0,0,0-.064.038l-.039.026a8.206,8.206,0,0,1-.794.718c-.734.835-.865,1.416-.82,3.09.042.177,1.392,3.935,2.537,6.577.772,2.746,1.486,5.89.961,8.859a21.814,21.814,0,0,1-8.944,9.359c-1.786.573-3.329.378-3.742-.013l-.013-.013a2.317,2.317,0,0,1-.987-2.129v-.013l.013-.013c2.958-2.062,6.337-3.73,8.982-9.3.781-2.127,1.02-3.4.243-6.692a6.369,6.369,0,0,0-1.512-3.1l.012-.012c.5-.241,1.81.722,2.012.115a9.751,9.751,0,0,0-2.575-4.757,2.176,2.176,0,0,0-3.166-.192c-1.087.6-1.317,2.778-.794,4.68.581,1.432,2.15,1.682,3.268,4.564v.012c.023.181.383,2.151-.18,2.949-.457,1.425-6.324,6.056-6.74,6.334,0,0-.034.021-.039.026l-.012.013-.013.013-.013.013h-.026l-.012-.012v-.013s-.011-.021-.013-.026c-.018-.115.014-.41,0-.885-.039-.867.32-2.83.295-3.167v-.012l-.013-.013v-.013h-.013c-1.94,1.253-2.58,5.094-2.934,6.231-4.91,3.395-10.486,5.92-13.7,9.359-1.672,2.613,11.524-3,13.057-3.68a.369.369,0,0,1,.038.038c.292.321.316,1.44,1.192,2.449a6.975,6.975,0,0,0,7.124,2.295c4.757-1.721,7.5-4.965,10.289-8.564.4-.581,1.024-1.038,1.6-.589,1.918,4.3,7.447,7.352,14.594,7.667,1.654-2.013.863-3,.193-3.423-.207-.137-3.555-1.443-4.075-2.743-.327-1.21.469-2.283,2.063-3.09a71.7,71.7,0,0,0,13.467-2.576,11.86,11.86,0,0,1,1.486-4.616,2.173,2.173,0,0,1,.756-.821l.013-.013.012-.013.013-.013v-.026a.414.414,0,0,0-.013-.128l-.743-.436-14.646-.064a1.571,1.571,0,0,1-.4-.205c-.006-.005-.02-.021-.026-.026l-.013-.012-.013-.013s-.011-.021-.013-.026l-.013-.012V139.9l-.012-.013v-.1l.012-.013a.211.211,0,0,1,.013-.026,1.1,1.1,0,0,1,.461-.269c3.5-.477,9.71-1.5,10.123-7.475-.065-3.114-1.332-5.153-5.151-5.718a5.193,5.193,0,0,0-4.485,5.924c-.135.805.272,2.385-.551,2.564-5.383.492-11.258,3.867-11.456,6.282h-.012l-.013.013-.025.013h-.026l-.038.012h-.077l-.051-.012a1.406,1.406,0,0,1-.73-1.487,28.91,28.91,0,0,0-3.69-12.539c-.759-.76-1.09-1.067-1.307-1.1h-.1Zm14.018,2.205a.922.922,0,0,0-.7.718c-.067.271.13.722-.115.859-.141.142-.689.059-.667-.692a1.3,1.3,0,0,0-.282-.654.522.522,0,0,0-.359-.09c-.235.01-.242.072-.372.27a2.347,2.347,0,0,0-.128.628c-.03.268-.124.358-.321.4-.22,0-.168.024-.345-.09-.106-.115-.244-.161-.244-.359a2.13,2.13,0,0,0-.1-.667.733.733,0,0,0-.423-.218c-.921,0-.976,1.05-.923,1.448-.069.076-.116,1.966,1.141,2.488,1.686.8,5.706.331,4.728-2.269,0-.241-.065-1.049-.09-1.27A.726.726,0,0,0,239.169,128.159Zm56.572,2.321a.277.277,0,0,0-.141.013s-7.815,5.563-8.008,5.756c-.775.689-.388,3.114,0,2.833.56.215,8.427-5.12,8.277-5.744.343.021.508-2.744-.128-2.859Zm-49.187.824a2,2,0,0,1,1.14.308c.583.338.943.848.9,1.218,0,.01,0,.029,0,.038s-.023.029-.026.039-.009.029-.012.039-.01.02-.013.025l-.013.026a.511.511,0,0,1-.077.09,1.427,1.427,0,0,1-1.538-.128,1.536,1.536,0,0,1-.9-1.218c0-.01.011-.029.012-.038a.443.443,0,0,1,.052-.128.527.527,0,0,1,.025-.051l.013-.013a.547.547,0,0,1,.064-.064A.731.731,0,0,1,246.553,131.3Zm-68.438,1.41c-4.049.074-9.979,5.311-10.135,8.218,4.273-2.053,8.47-4.029,12.813-6.154-.7-1.047-.043-1.99-2.678-2.064Zm13.121,1.821a1.1,1.1,0,0,1,1.038.756,1.315,1.315,0,0,1-.23,1.307s0,.011,0,.013-.009.021-.013.026c-.17.219-.767.128-1.192.128a1.156,1.156,0,0,1-1.077-.525c-.147-.466.3-.923.5-1.27,0,0,.01-.009.012-.012a.62.62,0,0,1,.09-.1,1.334,1.334,0,0,1,.7-.308A1.2,1.2,0,0,1,191.236,134.535Zm102.983,1.612a1.359,1.359,0,0,0-1.089,1.859c-.2.64.977,2.877,1.281,4.064.274.845-.352,3.236.218,3.487.525.282,1.906-1.419,1.858-3.551.152-1.1-.391-5.135-1.768-5.821a1.3,1.3,0,0,0-.5-.038ZM206.756,140.1c-.636.044-1.2.385-.948,1.282-.039.651,1.8,1.442,1.909,2.949.262.621-.393,2.61.154,2.8.5.207,1.2-1.375,1.461-2.847.146-.806-.63-3.625-1.948-4.128A2.247,2.247,0,0,0,206.756,140.1Zm26.178,3.577c.048,0,.091,0,.141,0h.026a45.4,45.4,0,0,0,6.125.7c1.7.108,2.541,1.44.948,2-1.571.539-3.081.959-3.088,3.231a3.136,3.136,0,0,1-.013,1.987.544.544,0,0,1-.051.064l-.012.012-.013.013-.013.013-.013.013-.026.013a.44.44,0,0,1-.077.038.532.532,0,0,1-.077.013c-.373.055-.916-.3-1.32-.513a8.308,8.308,0,0,1-4.074-6,1.522,1.522,0,0,1,1.537-1.59Zm-63.94,2.782c-.1,0-.306.308-.576.654-2.409,3.84-2.623,9.572-1.294,11.282a2.807,2.807,0,0,0,2.729.91c1.513-.656,2.178-3.724,1.819-4.846-.5-.791-.9-.916-1.409-.243-1.065,2.163-1.509.684-1.6-.526a27.76,27.76,0,0,1,.308-6.077c.132-.858.127-1.157.025-1.154Zm82.072,5.042a1.106,1.106,0,0,0-.564.115,10.224,10.224,0,0,0-2.268,1.936c-.332.252-.294.472-.193.91.258.594.714.408,1.23.128.686-.094,1.017.356.961,1.179a1.518,1.518,0,0,0,.141,1.475,1.138,1.138,0,0,0,1.435.18,27.133,27.133,0,0,1,4.946-1.731c.6-.011.566-1.622-.385-1.679a5.626,5.626,0,0,0-3.626,1.1c-.763.177-.894-.288-1.063-.7-.194-1.034.436-1.763.308-2.539a1.8,1.8,0,0,0-.922-.372Zm52.549,1.962c-.3.01-.625.052-1.089.09-.5.107-.677.327-.769.936.036.924.6.878,1.179,1.244a1,1,0,0,1-.026,1.513c-.548.5-.938.78-1.486,1.282-.259.442-.42,1.12.372,1.333,1.462.411,4.844-1.787,4.844-1.834a1.073,1.073,0,0,0,.32-1.192c-.319-.366-1.04-.146-1.525-.205-.231,0-.988-.112-.628-.782a4.554,4.554,0,0,0,.615-1.18c.228-.5.027-.841-.795-1.116A4.568,4.568,0,0,0,303.615,153.459Zm-21.953,22.749s-.01.011-.013.013a2.309,2.309,0,0,0-.795,4.256c-25.665,0-65.051-.436-73.5-.436-4.725,0-19.676-.564-19.964-.564,3.206,4.692,7.851,5.648,13.929,5.744,11.4,0,64.219-.141,79.25-.141-1.069,1.9.1,4.954.935,5.513.018.011.047.03.064.038a.544.544,0,0,0,.1.038c.01,0,.029,0,.038,0,1,.235,1.433-.486,1.768-1.013,1.615.142,10.7.274,11.532-.013,0,0,.01-.012.013-.012.563.828,1.12,1.611,2.191,1.474,1.873-.4,3.349-.606,3.4-4.411,0,0-.191-6.483-4.446-6.077-1.007.152-3.831.436-3.831.436-3.268-.389-5.666-.429-9.341-.564.339-.431.938-2.176.205-2.808a1.183,1.183,0,0,0-.872-.218h-.038s-.01-.012-.013-.013a.244.244,0,0,1-.038-.012.378.378,0,0,1-.064-.064c0-.006-.021-.02-.026-.026-.186-.271-.287-.934-.41-1.1l-.013-.013-.013-.013-.026-.012h-.025Zm1.742,9.27s.008,0,.013,0c3.744.183,7.263.035,11.007.218a1.356,1.356,0,0,1-.09,1.872.449.449,0,0,1-.064.025.257.257,0,0,1-.051,0,.257.257,0,0,1-.051,0c-1.218-.03-1.922-.059-3.139-.089a.7.7,0,0,0-.026-.18c-.288-.855-2.378-.8-2.87-.128l-.025.038c-.008.013-.019.038-.026.051s-.02.046-.025.064a.568.568,0,0,0-.013.089.539.539,0,0,0-.013.1,29.42,29.42,0,0,1-4.767-.115c-.483-.6-.427-1.688.14-1.949Z" transform="translate(-133.147 -78.272)" fill="#fff" fill-rule="evenodd"/>
  </g>
</svg>
