<svg xmlns="http://www.w3.org/2000/svg" width="422.395" height="264.268" viewBox="0 0 422.395 264.268">
  <g id="fa1a8cc1dbea2ba2f42ae6a40d4cb278" transform="translate(-49 -83.968)">
    <path id="Path_29884" data-name="Path 29884" d="M531.622,189.323H512.338v-32.77H493.055V129.122h-28V155h-3.924V126.551H452.3V103.125h-5.334v23.427H438.13V155h-3.924v49.773H414.667v-15l-24.535-17.1V146.548h-5.895v-14.67l-6.716-13.534-4.722-9.516V83.968h-3.988v24.86l-4.722,9.516-6.716,13.534v14.67h-5.895v8.637H340.858V127.753H313v57.074l-27.09.1-12.522-13.863-16.4.057,2.137,128.672c.253-.57,272.033.584,272.033.366Z" transform="translate(-138.595)" fill="#f2f2f2"/>
    <path id="Path_29885" data-name="Path 29885" d="M413.137,494.964a9.864,9.864,0,0,1-1.742,2.558,30.838,30.838,0,0,1-5.48,5.557,14.9,14.9,0,0,1-5.084,2.632l-.763.178a5.619,5.619,0,0,1-.762.113c-.192.023-.384.047-.574.059a2.683,2.683,0,0,1-.3.025,14.136,14.136,0,0,1-13.169-7.093c-1.281-2.287-2.371-5.789-1.047-6.785.266-.177.575-.255.785-.609.443-.687-.029-1.537-.547-2.723-.964-2.192-1.461-3.281-1.231-4.1a13.127,13.127,0,0,1,1.666-2.57c.722-1.012.8-1.04.842-1.29.164-1.253-1.811-1.679-2.763-3.55a4.546,4.546,0,0,1,.31-4.681c.606-.72,1.083-.622,2.381-1.841a5.856,5.856,0,0,0,1.611-1.906c.9-2.292-2.743-4.336-1.834-6.16.451-.9,1.815-1.36,3.118-1.8,1.337-.433,1.766-.269,2.286-.5,2.99-1.317-.641-11.535.8-12.023,1.1-.366,5.952,4.812,7.608,9.243a4.785,4.785,0,0,0,2.048,2.827c1.563.9,2.773.121,3.681.934.447.421.467.908.388,5.391-.032,1.431-.059,2.424.564,2.731.606.3,1.378-.287,2.23.166a1.614,1.614,0,0,1,.7.716c.946,1.557.6,4.125.4,5.38-.387,2.512-.8,3.753-.285,4.02.522.244,1.25-.761,2.294-.521a2.258,2.258,0,0,1,1.4,1.433c.269.742.006,1.4-.969,3.287-1,1.934-1.217,2.2-1.7,3.242-.871,1.785-1.656,3.413-1.031,3.957.565.491,1.67-.378,2.984.212a2.838,2.838,0,0,1,1.4,1.433A2.869,2.869,0,0,1,413.137,494.964Z" transform="translate(-222.21 -242.861)" fill="#e6e2e4"/>
    <path id="Path_29886" data-name="Path 29886" d="M416.808,521.193c-.146,1.3-1.606,1.79-2.585,2.351a19.284,19.284,0,0,0-6.7,6.393c0-.008,0-.016,0-.024-.195-2.37-.592-4.735-.938-7.066a51.085,51.085,0,0,1-.683-7.261,31.537,31.537,0,0,1,.662-5.981v0c1.68-1.51,3.837-2.256,5.624-3.6,1.565-1.179,2.815-3.158,2.068-5.158-.066-.177-.334-.052-.267.125.791,2.114-.836,4.065-2.493,5.161a52.184,52.184,0,0,0-4.843,3.016l0-.01q.068-.349.136-.7a22.467,22.467,0,0,0,.6-5.768,32.948,32.948,0,0,0-.511-4,10.376,10.376,0,0,0,2.916-5.6c.029-.187-.265-.214-.294-.027a10,10,0,0,1-2.686,5.264c-.011-.069-.027-.135-.038-.2a92.3,92.3,0,0,0-2.262-9.393c-.081-.268-.162-.542-.25-.811-.055-.177-.344-.127-.289.05a87.118,87.118,0,0,1,2.247,8.846c.321,1.582.606,3.173.782,4.782.036.371.068.735.076,1.1v0c-1.1-.191-1.722-1.184-2.327-2.019a9.232,9.232,0,0,0-6.84-3.821.148.148,0,0,0-.027.294,9.045,9.045,0,0,1,5.177,2.119,12.261,12.261,0,0,1,1.881,2.179,3.432,3.432,0,0,0,2.14,1.549s.005,0,.009,0v0a18.2,18.2,0,0,1-.231,3.45c-.38,2.364-1.01,4.682-1.19,7.076a35.244,35.244,0,0,0,.287,6.988c.023.2.053.4.081.594,0,0,0,0,0,0-2.251-1.14-4.609-2.36-6.071-4.5a6.831,6.831,0,0,1-.81-1.6,9.908,9.908,0,0,0-.61-1.633,4.67,4.67,0,0,0-2.508-1.8c-.176-.073-.279.2-.1.276a7.282,7.282,0,0,1,1.6.82,2.994,2.994,0,0,1,1.017,1.429c.209.565.351,1.146.61,1.691a7.571,7.571,0,0,0,.859,1.384c1.525,1.97,3.788,3.127,5.964,4.229a.116.116,0,0,0,.1,0,.023.023,0,0,1,0,.005c.405,2.976.964,5.954,1.178,8.948,0,.009,0,.019,0,.028a.133.133,0,0,0,.005.075s0,.007,0,.01c.043.621.075,1.24.077,1.856a2.6,2.6,0,0,0,.3-.025c-.007-.629-.038-1.254-.08-1.88,0,0,0,0,0,0a19.333,19.333,0,0,1,4.572-5.107,19.868,19.868,0,0,1,2.953-1.889c.906-.477,1.885-1.069,2.01-2.186A.147.147,0,0,0,416.808,521.193Z" transform="translate(-231.127 -269.086)" fill="#fff"/>
    <path id="Path_29887" data-name="Path 29887" d="M1159.9,679.557a3.029,3.029,0,0,1,2.857,1.338,4.519,4.519,0,0,1,.633,3.17,9.831,9.831,0,0,1-1.109,3.114,12.541,12.541,0,0,1-3.387,4.3,53.181,53.181,0,0,0,8.105.277c.246-.01.492-.025.738-.039l-.614-5.7a9.956,9.956,0,0,1,.082-3.8,3.474,3.474,0,0,1,2.584-2.582,3.029,3.029,0,0,1,2.857,1.338,4.518,4.518,0,0,1,.633,3.171,9.835,9.835,0,0,1-1.109,3.114,12.358,12.358,0,0,1-3.526,4.407,54.4,54.4,0,0,0,8.907-1.393q-.2-2.9-.4-5.8a9.968,9.968,0,0,1,.229-3.8,3.478,3.478,0,0,1,2.682-2.483,3.026,3.026,0,0,1,2.8,1.446,4.519,4.519,0,0,1,.509,3.193,9.849,9.849,0,0,1-1.228,3.07,12.755,12.755,0,0,1-3.405,4.071,53.632,53.632,0,0,0,6.195-2.06c.6-.241,1.189-.5,1.778-.759q-.105-2.991-.211-5.982a9.978,9.978,0,0,1,.355-3.79,3.48,3.48,0,0,1,2.762-2.4,3.021,3.021,0,0,1,2.751,1.537,4.522,4.522,0,0,1,.4,3.208,9.844,9.844,0,0,1-1.33,3.029,13.458,13.458,0,0,1-3.077,3.621,51.327,51.327,0,0,0,5.689-3.251l2.622-5.244a10.163,10.163,0,0,1,2.133-3.18,3.5,3.5,0,0,1,3.57-.814,2.981,2.981,0,0,1,1.672,2.654,4.584,4.584,0,0,1-1.189,3.023,10.019,10.019,0,0,1-2.62,2.049,12,12,0,0,1-5.8,1.878l-.016.013a51.746,51.746,0,0,1-6.061,3.448,13.21,13.21,0,0,1,4.955.559,9.9,9.9,0,0,1,3.036,1.327,4.528,4.528,0,0,1,1.884,2.631,3.012,3.012,0,0,1-.978,2.992,3.488,3.488,0,0,1-3.657.109,10.015,10.015,0,0,1-2.836-2.545l-3.807-4.42a53.622,53.622,0,0,1-8.045,2.854,12.8,12.8,0,0,1,4.914,1.792,9.8,9.8,0,0,1,2.6,2.033,4.513,4.513,0,0,1,1.161,3.016,3.037,3.037,0,0,1-1.7,2.664,3.468,3.468,0,0,1-3.563-.793,9.937,9.937,0,0,1-2.1-3.168l-2.572-5.224c-.087.021-.174.044-.261.064a55.22,55.22,0,0,1-8.7,1.336,12.012,12.012,0,0,1,5.034,2.911,9.737,9.737,0,0,1,2.128,2.516,4.518,4.518,0,0,1,.519,3.191,3.055,3.055,0,0,1-2.2,2.273,3.444,3.444,0,0,1-3.321-1.492,9.926,9.926,0,0,1-1.409-3.529q-.746-2.91-1.492-5.82l-.123.007-.029.049c0-.016,0-.031-.005-.047a54.057,54.057,0,0,1-8.555-.193,12.887,12.887,0,0,1,3.341,4.035,9.907,9.907,0,0,1,1.236,3.117,4.641,4.641,0,0,1-.533,3.259,3.127,3.127,0,0,1-2.859,1.5,3.474,3.474,0,0,1-2.718-2.5,10.144,10.144,0,0,1-.216-3.87q.2-2.765.4-5.53c-.006-.055-.012-.111-.018-.167a51.346,51.346,0,0,1-9.182-2.05c-.315-.1-.212-.611.108-.508a51.2,51.2,0,0,0,9.017,2.027q-.291-2.7-.582-5.409a9.953,9.953,0,0,1,.082-3.8A3.469,3.469,0,0,1,1159.9,679.557Z" transform="translate(-732.658 -392.954)" fill="#e6e2e4"/>
    <path id="Path_29888" data-name="Path 29888" d="M155.613,545.726a3.029,3.029,0,0,1-.689-3.079,4.517,4.517,0,0,1,2.121-2.439,9.812,9.812,0,0,1,3.142-1.027,12.546,12.546,0,0,1,5.477.047,53.186,53.186,0,0,0-4.738-6.582c-.158-.189-.32-.374-.482-.561l-4.136,3.973a9.964,9.964,0,0,1-3.059,2.262,3.473,3.473,0,0,1-3.623-.465,3.028,3.028,0,0,1-.689-3.078,4.519,4.519,0,0,1,2.121-2.44,9.828,9.828,0,0,1,3.142-1.027,12.347,12.347,0,0,1,5.643.094,54.444,54.444,0,0,0-6.549-6.2l-4.348,3.864a9.973,9.973,0,0,1-3.145,2.142,3.477,3.477,0,0,1-3.6-.6,3.025,3.025,0,0,1-.57-3.1,4.52,4.52,0,0,1,2.214-2.356,9.838,9.838,0,0,1,3.181-.906,12.762,12.762,0,0,1,5.3.2,53.687,53.687,0,0,0-5.419-3.641c-.557-.326-1.12-.638-1.688-.943l-4.6,3.825a9.975,9.975,0,0,1-3.216,2.038,3.48,3.48,0,0,1-3.584-.72,3.021,3.021,0,0,1-.467-3.117,4.521,4.521,0,0,1,2.292-2.281,9.849,9.849,0,0,1,3.21-.8,13.463,13.463,0,0,1,4.747.22,51.384,51.384,0,0,0-6.052-2.512l-5.753,1.132a10.157,10.157,0,0,1-3.82.258,3.5,3.5,0,0,1-2.828-2.327,2.981,2.981,0,0,1,1.077-2.945,4.582,4.582,0,0,1,3.12-.908,10,10,0,0,1,3.224.82,12,12,0,0,1,5.034,3.442l.02.005a51.761,51.761,0,0,1,6.435,2.687,13.215,13.215,0,0,1-2.589-4.262,9.885,9.885,0,0,1-.807-3.213,4.527,4.527,0,0,1,.929-3.1,3.011,3.011,0,0,1,2.965-1.056,3.489,3.489,0,0,1,2.323,2.827,10.011,10.011,0,0,1-.28,3.8q-.584,2.858-1.168,5.716a53.552,53.552,0,0,1,7.178,4.62,12.789,12.789,0,0,1-1.587-4.983,9.805,9.805,0,0,1,.017-3.3,4.513,4.513,0,0,1,1.676-2.764,3.036,3.036,0,0,1,3.144-.287,3.466,3.466,0,0,1,1.552,3.3,9.952,9.952,0,0,1-1.219,3.6l-2.56,5.229c.07.056.141.11.211.167a55.243,55.243,0,0,1,6.379,6.067,12.017,12.017,0,0,1-.776-5.763,9.736,9.736,0,0,1,.689-3.223,4.521,4.521,0,0,1,2.207-2.362,3.057,3.057,0,0,1,3.145.353,3.444,3.444,0,0,1,.851,3.54,9.937,9.937,0,0,1-1.93,3.273l-3.692,4.74.08.093.057-.007-.035.033a54.065,54.065,0,0,1,5.08,6.887,12.886,12.886,0,0,1,1.149-5.111,9.879,9.879,0,0,1,1.71-2.884,4.636,4.636,0,0,1,2.9-1.572,3.127,3.127,0,0,1,2.936,1.343,3.475,3.475,0,0,1-.318,3.682,10.14,10.14,0,0,1-2.929,2.537l-4.621,3.064-.122.116a51.224,51.224,0,0,1,3.994,8.518c.113.312-.353.541-.467.225a51.229,51.229,0,0,0-3.912-8.374l-3.924,3.769a9.951,9.951,0,0,1-3.059,2.262A3.472,3.472,0,0,1,155.613,545.726Z" transform="translate(-50.689 -281.874)" fill="#e6e2e4"/>
    <path id="Path_29889" data-name="Path 29889" d="M1033.6,502.691c.406,1.1,1.543,2.168,3.813,4.314,3.849,3.637,8.419,6.9,10.053,10.69.186.431.411,1.047.138,1.385-.582.717-3.332.032-5.254-1.449-3.55-2.748-2.667-7.008-6.76-9.867-.817-.574-1.1-.579-1.286-.531-2.337.574-4.219,12.435.711,18.548,4.084,5.073,9.415,1.91,22,6.423a1.815,1.815,0,0,1,.2.074,1.711,1.711,0,0,1,.194.069l.131.048c.133.044.267.1.4.146,10.193,3.852,10.823,7.357,16.7,7.223,10.76-.248,19.485-12.209,18.682-13.327-.324-.451-2.036,1.066-6.792,2.081-.9.192-14.213,2.138-14.766-1.812-.083-.607.712-1.234,1.248-1.527,7.554-4.136,14.189,4.282,22.569-2.512,6.281-5.1,5.013-16.639,4.161-16.811-.325-.07-.381,1.534-1.878,3.482-1.948,2.543-5.1,3.453-11.341,5.174-4.179,1.153-6.428,1.433-8.6.456-.427-.195-1.827-.824-1.814-1.634.017-1.03,2.292-1.752,4.451-2.424,6.99-2.168,8.745-2.554,10.716-3.218,4.248-1.428,9.255-3.109,10.587-7,.481-1.4,0-3.392-.983-7.316a86.149,86.149,0,0,0-3.788-11.483c-1.719-4.25-3.289-15.868-2.694-16.412-.412-.076-2.43,1.444-3.47,2.013-1.123.614-3.825.536-5.122.46a48.4,48.4,0,0,0-12.817,1.2c-2.694.673-4.042,1.008-5.069,1.992-3.759,3.609-2.124,11.435-1.855,12.711.816,3.9,2.32,5.852,1.4,9.086a4.567,4.567,0,0,1-2.157,3.1c-1.638.736-3.5-.307-4.014-.587-4.088-2.273-5.024-8.372-5.65-12.779-1.034-7.3.277-10.06-1.163-10.76-2.27-1.1-8.65,4.242-9.785,10.868a14.2,14.2,0,0,0,.224,5.5c.967,4.654,3.588,7.988,7.374,12.689,1.914,2.382,4.764,5.637,4.847,8.906.01.439.022,1.515-.629,1.955-.2.134-1,.581-3.294-.822-3-1.824-5.831-5.151-9.239-11.595-2.063-3.9-3.1-5.9-3.227-8.324-.182-3.563,1.177-6.123.6-6.406-.681-.322-3,2.928-4.605,5.82C1034.57,494.414,1032.148,498.775,1033.6,502.691Z" transform="translate(-654.972 -254.223)" fill="#e6e2e4"/>
    <path id="Path_29890" data-name="Path 29890" d="M1044.364,549.391a11.292,11.292,0,0,0,2.41,4.82,11.9,11.9,0,0,0,4.178,3.094,40.839,40.839,0,0,0,5.459,1.838,52.7,52.7,0,0,1,5.872,2.115,25.545,25.545,0,0,1,2.558,1.211,2.748,2.748,0,0,1,1.5,1.729c0,.009.01.011.011.02-.061.132-.113.266-.179.4-.21.44-.433.875-.675,1.3a1.711,1.711,0,0,1,.194.069,23.568,23.568,0,0,0,1.155-2.4c.005,0,.01-.006.011-.01a3.913,3.913,0,0,1,.849-.781,2.132,2.132,0,0,1,1.009-.459,4.69,4.69,0,0,1,1.64.286c.521.161,1.042.334,1.557.518,3.621,1.3,7.083,3.087,10.859,3.915a14.281,14.281,0,0,0,9.365-.718c.117-.058.017-.237-.105-.177a12.055,12.055,0,0,1-5.457,1.146c-3.681-.04-7.146-1.379-10.513-2.751-1.864-.762-3.723-1.544-5.652-2.132a3.2,3.2,0,0,0-2.248-.136,4.083,4.083,0,0,0-1.105.772,48.371,48.371,0,0,0,1.927-7.215c.026-.112.049-.229.074-.34l.005,0a10.267,10.267,0,0,1,4.556-2.846c3.519-1.143,7.19-.639,10.756-.011.975.172,1.953.349,2.933.505a19.835,19.835,0,0,0,2.787.309,5.408,5.408,0,0,0,4.351-1.671c.082-.1-.061-.25-.144-.144-1.325,1.608-3.543,1.739-5.468,1.52-3.825-.439-7.592-1.6-11.478-1.394a12.239,12.239,0,0,0-8.218,3.353,39.159,39.159,0,0,1,1.916-6.731,21.633,21.633,0,0,1,1.784-3.371c.006-.007.015-.009.022-.02s.011-.023.015-.038c.624-.969,1.306-1.9,2.019-2.808,1.188-1.509,2.446-2.961,3.651-4.456a19.041,19.041,0,0,1,5.732-1.874c3.542-.675,7.271-.737,10.616-2.21,2.976-1.314,5.7-4.137,5.517-7.594-.007-.133-.21-.133-.2,0a7.005,7.005,0,0,1-2.071,5.109c-2.52,2.669-6.278,3.389-9.764,3.871-3.208.442-6.589.813-9.514,2.3.153-.192.311-.383.464-.579a33.505,33.505,0,0,0,3.841-6.258,74.983,74.983,0,0,0,4.527-14.378.1.1,0,0,0-.2-.053c-.143.6-.286,1.2-.433,1.792a61.782,61.782,0,0,1-4.672,13.746,9.592,9.592,0,0,0-.675-3.86c-.487-1.538-.987-3.345-.084-4.834a.1.1,0,0,0-.177-.1c-.848,1.392-.519,3.108-.068,4.576.468,1.528,1.126,3.188.687,4.8,0,.008.006.01,0,.018v0a38.794,38.794,0,0,1-4.15,5.972c-1.479,1.8-3.017,3.558-4.377,5.458-.129.181-.255.368-.38.551a7.72,7.72,0,0,0-.87-5.442,20.07,20.07,0,0,0-4.107-4.876,31.44,31.44,0,0,1-4.134-4.714,26.783,26.783,0,0,1-4.432-11.2c-.016-.131-.217-.075-.2.053a26.87,26.87,0,0,0,4.66,11.552,33.242,33.242,0,0,0,4.051,4.547,19,19,0,0,1,4.077,4.927,6.919,6.919,0,0,1,.478,5.876,23.1,23.1,0,0,0-2.414,5.012,72.113,72.113,0,0,0-1.834,7.482l-.146.639a9.193,9.193,0,0,0-2.005-3.7,20.47,20.47,0,0,0-3.419-2.967,45.273,45.273,0,0,1-3.65-2.927,34.564,34.564,0,0,1-5.836-6.937c-.071-.112-.252-.008-.179.1a35.056,35.056,0,0,0,2.973,4,34.578,34.578,0,0,0,3.126,3.19c1.139,1.017,2.354,1.927,3.577,2.835a18.808,18.808,0,0,1,3.424,3.04,8.628,8.628,0,0,1,1.88,3.809c0,.005.008,0,.007.006a32.355,32.355,0,0,1-1.721,5.477,2.982,2.982,0,0,0-1.412-1.564A23.012,23.012,0,0,0,1062.2,561a52.856,52.856,0,0,0-5.739-2.058,38.123,38.123,0,0,1-5.575-1.895,11.62,11.62,0,0,1-4.169-3.223,11.1,11.1,0,0,1-2.159-4.49C1044.531,549.21,1044.334,549.264,1044.364,549.391Z" transform="translate(-663.264 -287.863)" fill="#fff"/>
    <path id="Path_29891" data-name="Path 29891" d="M478.558,787.852c-1.892-.6-8.247-1.027-10.988-1.356,5.41-.909,17.034-.912,17.034-3.992,0-2.223-12.484-2.116-12.484-2.116l-281.958-.263c-4.856.113-12.837.045-13.574,1.26-.665,1.094,3.131,1.35,1.46,1.79-2.548.671-24.921,1.114-36.907,2.125-2.121.179-4.493.432-5.189.968-1.225.943,3.705,1.651,7.64,1.679s8.612-.119,11.1.65c1.318.408,1.6.978,2.85,1.4,2.041.685,5.912.772,9.307.8l63.485.526c-1.587.18-1.6.8-.43,1.123a24.449,24.449,0,0,0,4.718.5c12.41.545,25.081.547,37.678.547l112.515,0c8.211,0,17.713-.157,22.524-1.834a15.354,15.354,0,0,1,3.365-1.021,33.533,33.533,0,0,1,5.172-.174c18.5.311,37.077.363,55.6.154a33,33,0,0,0,7.673-.653C481.078,789.377,480.449,788.451,478.558,787.852Z" transform="translate(-57.813 -463.888)" fill="#f2f2f2"/>
    <path id="Path_29892" data-name="Path 29892" d="M590.6,612.664c-.093,1.221,1.273,2.5,1.348,3.757-5.195,1.11-10.433,2.014-15.67,2.931.89-4.233,6.138-3.994,9.6-5.358,0-21.085-8.884-45.6-3.991-66.392,1.635-.037,1.752.452,3.672.373s5.206-.307,7.411-.444C593.615,566.776,590.724,610.976,590.6,612.664Z" transform="translate(-351.351 -308.898)" fill="#f9cbcb"/>
    <path id="Path_29893" data-name="Path 29893" d="M638,593.092c1.165-.405,2.523.86,3.7.563-1.052,4.812-2.6,7.768-4.8,12.192-1.346-2.746-.909-5.455-1.414-8.389-25.166-1.37-36.793-26.735-33.136-49.6,3.087-.1,6.174-.364,9.25-.508C619.75,559.1,613.494,587.736,638,593.092Z" transform="translate(-368.279 -308.773)" fill="#f9cbcb"/>
    <path id="Path_29894" data-name="Path 29894" d="M577.772,746.092c-1.286.626-5.765,1.346-4.737,3.778s13.562.967,15.762-.312.139-4.751-.528-6.233c-1.977,3.95-7.771,6.076-11.615,4.426C575.208,747.13,577.521,746.35,577.772,746.092Z" transform="translate(-349.092 -439.366)" fill="#3f4883"/>
    <path id="Path_29895" data-name="Path 29895" d="M704.432,691.68c.065.886-.771,5.622,1.407,5.173s5.957-12.212,5.042-14.448c-1.045-2.554-3.605-.513-4.448-.171,3.123,2.176,1.482,8.887-.967,10.539C704.613,693.349,704.412,692.087,704.432,691.68Z" transform="translate(-436.681 -397.928)" fill="#3f4883"/>
    <path id="Path_29896" data-name="Path 29896" d="M601.638,578.129c0,2.4-5.567,5.529-8.678,2.339,0,0-3.8,4.88-8.469,2.064-.093-.055-.189-.117-.285-.179-2.94,1.085-5.292.852-7.013-.223-4.794,3.2-7.854-1.432-7.854-1.432-2.754.673-5.69-2.569-5.69-2.569,2.569-12.078,8.04-22.439,9.591-31.1.021-.113.041-.223.055-.333s.041-.227.058-.336l.824.027,12.38.409C590.639,550.855,593.252,567.809,601.638,578.129Z" transform="translate(-342.94 -308.115)" fill="#3f4883"/>
    <path id="Path_29897" data-name="Path 29897" d="M620.576,578.183c0,2.4-5.567,5.529-8.678,2.339,0,0-3.8,4.88-8.469,2.064,3.713.875,7.9-1.54,7.745-4.463,2.553,2.839,6.234-.53,4.62-2.911-4.344-6.41-9.318-19.666-10.077-22.89s-3.54-2.6-8.108-2.462c-3.743.11-5.069-2.009-5.429-2.779a2.386,2.386,0,0,1-.11-.274l.165-.059.882-.309,12.38.409C609.576,550.909,612.19,567.864,620.576,578.183Z" transform="translate(-361.878 -308.169)" fill="#353d73"/>
    <path id="Path_29898" data-name="Path 29898" d="M606.134,437.145c-.916-1.945-1.176-5.186,1.94-6.306,2.267-.815,4.125-.954,6.187.6s2.861,4.975,2.424,7.425c-.524,2.936,2.948,5.484,1.593,7.866-1.82,3.2-11.574.444-14.705-.031C605.626,443.356,608.253,441.648,606.134,437.145Z" transform="translate(-369.543 -230.742)" fill="#3f4883"/>
    <path id="Path_29899" data-name="Path 29899" d="M552.65,437.724c-6.057-1.149-10.878-2.589-15.169-6.618-3.316-3.114-4.3-9.154-5.768-12.887-.873-2.213-.525-1.9-1.2-3.736-1.98-.695-6.427-3.422-3.775-5.533,3.635-2.894,6.148,1.447,7.227,3.674a12.865,12.865,0,0,0,1.916,3.151c2.225,3.221,3.326,9.658,6.534,12.486,2.793,2.462,8.371.826,11.9,2.084C553.806,433.649,553.217,434.393,552.65,437.724Z" transform="translate(-317.799 -215.912)" fill="#f9cbcb"/>
    <path id="Path_29900" data-name="Path 29900" d="M563.517,453.949c-6.118-1.268-10.784-2.016-15.127-6.888-3.129-3.51-3.622-9.216-5.429-13.6,1.418-.8,2.815-1.536,4.178-2.286,2.543,3.328,3.43,8.869,6.726,11.714,2.87,2.477,7.956,1.92,13.352,2.177C566.693,448.377,564.076,450.6,563.517,453.949Z" transform="translate(-329.153 -231.365)" fill="#c9910d"/>
    <path id="Path_29901" data-name="Path 29901" d="M605.495,497.46c-3.705.1-9.31,2.191-12.5.591a3.95,3.95,0,0,1-.924-.632c.787-2.6.419-6.848.529-11.14.147-5.883,1.195-11.855,7.342-13.792,1.192-.374,2.5.007,3.751.038C612.208,479.417,604.465,488.507,605.495,497.46Z" transform="translate(-361.876 -258.782)" fill="#f3ac04"/>
    <path id="Path_29902" data-name="Path 29902" d="M601.386,515.106a13.234,13.234,0,0,1-5.124,2.817c-2.957.773-2.608,2.234-2.845,4.452-.172,1.641-.347,2.97-.426,3.548a3.949,3.949,0,0,1-.924-.632c.787-2.6.419-6.848.529-11.14C595.831,514.658,601.386,515.106,601.386,515.106Z" transform="translate(-361.876 -286.654)" fill="#c9910d"/>
    <path id="Path_29903" data-name="Path 29903" d="M619.416,461.962c-1.23.7-4,2.01-3.73-.1a4.784,4.784,0,0,1,.389-1.037c.393-.757.564-2.024,1.061-2.781s1.748-1.042,2.427-1.609c-.007,1.067-.064,2.687-.086,3.609S619.44,461.172,619.416,461.962Z" transform="translate(-377.602 -248.196)" fill="#f9cbcb"/>
    <path id="Path_29904" data-name="Path 29904" d="M620.229,460.093a5.335,5.335,0,0,1-.961.433,6.2,6.2,0,0,1-2.466.3c.486-.84.563-2.016,1.085-2.8s1.736-1.018,2.433-1.626C620.308,457.642,620.261,458.856,620.229,460.093Z" transform="translate(-378.358 -248.169)" fill="#ccc"/>
    <path id="Path_29905" data-name="Path 29905" d="M610.777,449.107c-1.605-.718-1.209-6.047.124-7.742,1.361,1.736,3.787,1.7,5.742,1.081a13.633,13.633,0,0,1-.435,2.435c.317-.523,1.921-.76,1.725.27-.179.939-1.25,1.462-2.076,1.743A3.754,3.754,0,0,1,610.777,449.107Z" transform="translate(-373.645 -238.153)" fill="#f9cbcb"/>
    <path id="Path_29906" data-name="Path 29906" d="M610.411,441.049a3.368,3.368,0,0,1,1.185-2.139,3.476,3.476,0,0,0,1.8,2.177,1.712,1.712,0,0,1,.426-1.077,3.964,3.964,0,0,0,1.418,2.139c1.1.861.075,2.851-.323,3.291A3.807,3.807,0,0,0,616.736,442s1.641-1.4,1.669-1.475-.112-1.671-.112-1.671-3.834-1-3.841-1.039-1.563-.548-1.563-.548l-1.2.112-.9.323Z" transform="translate(-374.099 -235.423)" fill="#3f4883"/>
    <path id="Path_29907" data-name="Path 29907" d="M506.772,344.528A32.074,32.074,0,0,1,496.7,339.95l-9.079.017-9.079.017a32.082,32.082,0,0,1-10.054,4.616,23.494,23.494,0,0,1,2.631,13.181,22.979,22.979,0,0,1-2.59,8.5,19.553,19.553,0,0,0,5.632,13.525,19.143,19.143,0,0,0,27.071-.051,19.552,19.552,0,0,0,5.581-13.546,22.984,22.984,0,0,1-2.623-8.493A23.5,23.5,0,0,1,506.772,344.528Z" transform="translate(-279.527 -170.575)" fill="#96ddc8"/>
    <path id="Path_29908" data-name="Path 29908" d="M492.262,387.616a16.8,16.8,0,0,1-11.967-4.931,17.36,17.36,0,0,1-4.964-11.425,25.044,25.044,0,0,0,2.568-8.8,25.3,25.3,0,0,0-1.743-11.989,38.288,38.288,0,0,0,7.605-3.8l16.847-.031a38.28,38.28,0,0,0,7.619,3.772,25.294,25.294,0,0,0-1.7,11.995,25.011,25.011,0,0,0,2.6,8.791,17.366,17.366,0,0,1-4.921,11.443,16.8,16.8,0,0,1-11.949,4.976Z" transform="translate(-284.088 -175.033)" fill="#74b7b4"/>
    <path id="Path_29909" data-name="Path 29909" d="M495.616,389.445A15.144,15.144,0,0,1,484.831,385a15.682,15.682,0,0,1-4.462-10.073,24.814,24.814,0,0,0,1.046-19.516,38.66,38.66,0,0,0,6.348-3.251l15.566-.029a38.7,38.7,0,0,0,6.36,3.227,24.811,24.811,0,0,0,1.119,19.511,15.684,15.684,0,0,1-4.424,10.089,15.141,15.141,0,0,1-10.768,4.484Z" transform="translate(-287.446 -178.693)" fill="#f2f2f2"/>
    <path id="Path_29910" data-name="Path 29910" d="M504.148,396a.479.479,0,0,1-.242-.065l-8.472-4.954a.478.478,0,0,1-.157-.677l3.254-4.923a.478.478,0,0,1,.334-.21.418.418,0,0,1,.064,0,.478.478,0,0,1,.314.116l4.589,3.966,6.048-9.758a.478.478,0,0,1,.695-.129l4.956,3.75a.479.479,0,0,1,.063.706L504.5,395.847A.483.483,0,0,1,504.148,396Z" transform="translate(-297.326 -196.773)" fill="#c7cdff"/>
    <path id="Path_29911" data-name="Path 29911" d="M499.884,386.6l-3.254,4.923,8.472,4.954L516.2,384.45,511.24,380.7,504.9,390.934Z" transform="translate(-298.281 -197.728)" fill="#74b7b4"/>
    <path id="Path_29912" data-name="Path 29912" d="M558.4,465.865c-5.961,1.871-11.541,3.958-17.752.916-4.951-2.426-7.246-10.376-8.554-15.137-.619-2.255-.471-2.368-.935-4.258-2.071-1.527-5.068-4.116-2.339-6.623,3.442-3.162,5.4,2.841,5.806,4.8.213,3.365,5.393,11.637,8.685,14.458,2.957.2,10.248-2.241,15.218-5.059C558.422,458.537,558.3,462.183,558.4,465.865Z" transform="translate(-319.001 -237.15)" fill="#f9cbcb"/>
    <path id="Path_29913" data-name="Path 29913" d="M565.785,483.654c-6,1.775-11.623,3.848-17.89.651-5-2.549-7.789-10.385-9.275-15.651,1.235-1.3,3.027-1.445,4.443-2.4a.293.293,0,0,1,.451.141c.585,2.47,6.694,10.19,7.752,10.565,4.7-.122,9.634-3.115,14.52-5.038C568.039,476.432,566.031,480.094,565.785,483.654Z" transform="translate(-326.261 -254.703)" fill="#f3ac04"/>
    <path id="Path_29914" data-name="Path 29914" d="M965.178,308.238l-.808,98.042,0,.249-.2,24.5a9.29,9.29,0,0,1-9.512,9.223,9.427,9.427,0,0,1-9.068-9.565l.009-1.218a2.243,2.243,0,0,1,2.26-2.227h0a2.243,2.243,0,0,1,2.227,2.26l-.009,1.288a4.895,4.895,0,0,0,4.31,4.952,4.811,4.811,0,0,0,5.3-4.746l.027-3.668.173-20.829,0-.249.779-93.554.033-4.487Z" transform="translate(-597.443 -149.422)" fill="#a7b3cd"/>
    <path id="Path_29915" data-name="Path 29915" d="M964.368,602.834l-.2,24.5a9.29,9.29,0,0,1-9.512,9.223,9.426,9.426,0,0,1-9.068-9.565l.009-1.218a2.243,2.243,0,0,1,2.26-2.227h0a2.243,2.243,0,0,1,2.227,2.26l-.009,1.288a4.895,4.895,0,0,0,4.31,4.952,4.811,4.811,0,0,0,5.3-4.746l.027-3.668.173-20.829Z" transform="translate(-597.443 -345.727)" fill="#a7b3cd"/>
    <path id="Path_29916" data-name="Path 29916" d="M794.093,116.3c-51.331-.841-94.663,35.541-104.566,84.389l.225,0a18.438,18.438,0,0,1,34.394.564S757.357,115.693,794.093,116.3Z" transform="translate(-426.818 -21.532)" fill="#74b7b4"/>
    <path id="Path_29917" data-name="Path 29917" d="M1002.933,116.324c36.353.6,66.137,84.519,67.057,87.141l.024.062h.008a18.435,18.435,0,0,1,34.39.564l.261,0C1096.375,154.948,1054.264,117.165,1002.933,116.324Z" transform="translate(-635.658 -21.561)" fill="#beeadd"/>
    <path id="Path_29918" data-name="Path 29918" d="M998.756,373.27c-.021.044-.038.089-.059.138-.03.069-.06.137-.089.211H998.6c-.043-.119-.09-.238-.137-.353Z" transform="translate(-632.68 -192.775)" fill="#9894d6"/>
    <path id="Path_29919" data-name="Path 29919" d="M863.234,116.318c-36.736-.6-69.948,84.957-69.948,84.957h.009a18.435,18.435,0,0,1,34.3.313.062.062,0,0,1,0-.016C827.809,200.257,841.594,115.963,863.234,116.318Z" transform="translate(-495.959 -21.554)" fill="#beeadd"/>
    <path id="Path_29920" data-name="Path 29920" d="M964.63,202.51a18.438,18.438,0,0,0-34.074-.457l-.294,0a18.435,18.435,0,0,0-34.148-.474c.214-1.315,13.962-85.385,35.552-85.251a.171.171,0,0,1,.045,0h.041a1.236,1.236,0,0,1,.126.007,8.025,8.025,0,0,1,1.73.232l.061.013C954.3,121.684,964.63,202.51,964.63,202.51Z" transform="translate(-564.479 -21.558)" fill="#74b7b4"/>
    <path id="Path_29921" data-name="Path 29921" d="M1033.315,202.471c0,.012-.013.024-.017.037a18.438,18.438,0,0,0-34.074-.457c-.021.044-.038.089-.059.138l0-.139,1.169-85.729v0h.086a1.238,1.238,0,0,1,.126.007,15.419,15.419,0,0,1,1.73.232l.061.013c4.331.838,14.754,4.461,22.156,20.12C1030.915,150.271,1032.783,182.666,1033.315,202.471Z" transform="translate(-633.147 -21.556)" fill="#beeadd"/>
    <path id="Path_29922" data-name="Path 29922" d="M1070.24,203.475a18.436,18.436,0,0,0-34.163-.989c0,.012-.013.024-.017.037s-10.332-80.826-30.959-85.938l-.061-.013a8.027,8.027,0,0,0-1.73-.232C1039.606,117.122,1069.321,200.857,1070.24,203.475Z" transform="translate(-635.909 -21.571)" fill="#74b7b4"/>
    <path id="Path_29923" data-name="Path 29923" d="M506.649,650.058c-.006.036-.015.071-.021.106-3.505,16.352-195.079,17.784-260.91,14.395-15.473-.8-49.208-12.669-66.972-23.335-5.2-3.122-9.033-6.14-10.637-8.748v0a5.012,5.012,0,0,1-.822-2.317c0-.059-.006-.116-.006-.172a10.7,10.7,0,0,1,.829-4.188c4.607-10.964,26.9-12.3,26.9-12.3s249.322-2.272,265.675,1.818c6.167,1.542,14.564,5.187,22.507,9.767.413.234.823.475,1.23.716h0c.428.252.855.511,1.28.769a89.721,89.721,0,0,1,12.348,8.9A47.621,47.621,0,0,1,501.691,639C505.285,642.914,507.3,646.755,506.649,650.058Z" transform="translate(-78.817 -352.433)" fill="#beeadd"/>
    <path id="Path_29924" data-name="Path 29924" d="M402.35,750.482l-70.3,37.043h45.015l126.006-33.637a1.732,1.732,0,0,0-.447-3.406H402.35Z" transform="translate(-188.613 -444.135)" fill="#74b7b4"/>
    <path id="Path_29925" data-name="Path 29925" d="M217.977,490.466l-16.223-59.506,28.164-2.726c13.5,25.309,27.126,39.715,49.708,61.812Z" transform="translate(-101.788 -229.404)" fill="#74b7b4"/>
    <path id="Path_29926" data-name="Path 29926" d="M209.551,717.845,140.732,736.27l-18.775-5.019,34.631-23.485Z" transform="translate(-48.615 -415.671)" fill="#74b7b4"/>
    <path id="Path_29927" data-name="Path 29927" d="M167.3,664.688q.436,1.078.822,2.317A5.015,5.015,0,0,1,167.3,664.688Z" transform="translate(-78.829 -386.966)" fill="#949fff"/>
    <path id="Path_29928" data-name="Path 29928" d="M1117.808,651.619c.047.042.469.38,1.117.954l-1.12-.954Z" transform="translate(-712.204 -378.257)" fill="#949fff"/>
    <path id="Path_29929" data-name="Path 29929" d="M529.548,702.262c-.006.036-.015.071-.021.106-3.505,16.352-195.079,17.784-260.91,14.395-15.473-.8-49.208-12.669-66.971-23.335,53.355,22.424,284.3,7.74,305.672,6.306,11.816-.793,16.495-4.8,17.273-8.525C528.185,695.118,530.2,698.959,529.548,702.262Z" transform="translate(-101.716 -404.638)" fill="#74b7b4"/>
    <rect id="Rectangle_17611" data-name="Rectangle 17611" width="13.479" height="29.737" transform="translate(154.196 272.141)" fill="#74b7b4"/>
    <path id="Path_29930" data-name="Path 29930" d="M435.439,649.473h0a5.077,5.077,0,0,1,5.077,5.076h0a5.077,5.077,0,0,1-5.077,5.077h0a5.076,5.076,0,0,1-5.076-5.077h0A5.076,5.076,0,0,1,435.439,649.473Z" transform="translate(-254.123 -376.827)" fill="#fff"/>
    <path id="Path_29931" data-name="Path 29931" d="M487.379,649.473h0a5.076,5.076,0,0,1,5.076,5.076h0a5.076,5.076,0,0,1-5.076,5.077h0a5.076,5.076,0,0,1-5.076-5.077h0A5.077,5.077,0,0,1,487.379,649.473Z" transform="translate(-288.734 -376.827)" fill="#fff"/>
    <path id="Path_29932" data-name="Path 29932" d="M539.32,649.473h0a5.076,5.076,0,0,1,5.076,5.076h0a5.076,5.076,0,0,1-5.076,5.077h0a5.077,5.077,0,0,1-5.077-5.077h0A5.076,5.076,0,0,1,539.32,649.473Z" transform="translate(-323.344 -376.827)" fill="#fff"/>
    <path id="Path_29933" data-name="Path 29933" d="M591.259,649.473h0a5.076,5.076,0,0,1,5.077,5.076h0a5.077,5.077,0,0,1-5.077,5.077h0a5.076,5.076,0,0,1-5.076-5.077h0A5.076,5.076,0,0,1,591.259,649.473Z" transform="translate(-357.955 -376.827)" fill="#fff"/>
    <path id="Path_29934" data-name="Path 29934" d="M643.2,649.473h0a5.076,5.076,0,0,1,5.076,5.076h0a5.076,5.076,0,0,1-5.076,5.077h0a5.076,5.076,0,0,1-5.076-5.077h0A5.076,5.076,0,0,1,643.2,649.473Z" transform="translate(-392.565 -376.827)" fill="#fff"/>
    <path id="Path_29935" data-name="Path 29935" d="M695.14,649.473h0a5.076,5.076,0,0,1,5.076,5.076h0a5.076,5.076,0,0,1-5.076,5.077h0a5.077,5.077,0,0,1-5.077-5.077h0A5.076,5.076,0,0,1,695.14,649.473Z" transform="translate(-427.176 -376.827)" fill="#fff"/>
    <path id="Path_29936" data-name="Path 29936" d="M747.079,649.473h0a5.076,5.076,0,0,1,5.076,5.076h0a5.076,5.076,0,0,1-5.076,5.077h0A5.076,5.076,0,0,1,742,654.549h0A5.076,5.076,0,0,1,747.079,649.473Z" transform="translate(-461.786 -376.827)" fill="#fff"/>
    <path id="Path_29937" data-name="Path 29937" d="M799.019,649.473h0a5.076,5.076,0,0,1,5.076,5.076h0a5.076,5.076,0,0,1-5.076,5.077h0a5.077,5.077,0,0,1-5.077-5.077h0A5.076,5.076,0,0,1,799.019,649.473Z" transform="translate(-496.396 -376.827)" fill="#fff"/>
    <path id="Path_29938" data-name="Path 29938" d="M850.958,649.473h0a5.077,5.077,0,0,1,5.077,5.076h0a5.077,5.077,0,0,1-5.077,5.077h0a5.076,5.076,0,0,1-5.076-5.077h0A5.077,5.077,0,0,1,850.958,649.473Z" transform="translate(-531.006 -376.827)" fill="#fff"/>
    <path id="Path_29939" data-name="Path 29939" d="M977.629,649.824h0a5.076,5.076,0,0,1,5.076,5.076h0a5.076,5.076,0,0,1-5.076,5.077h0a5.076,5.076,0,0,1-5.076-5.077h0A5.077,5.077,0,0,1,977.629,649.824Z" transform="translate(-615.414 -377.061)" fill="#fff"/>
    <rect id="Rectangle_17612" data-name="Rectangle 17612" width="13.922" height="28.898" transform="translate(331.928 273.728)" fill="#74b7b4"/>
    <path id="Path_29940" data-name="Path 29940" d="M1074.2,659.86h-37.683l-4.6-10.387h27.426c.413.235.823.475,1.23.716h0c.428.252.855.511,1.28.769A89.694,89.694,0,0,1,1074.2,659.86Z" transform="translate(-654.972 -376.827)" fill="#74b7b4"/>
    <rect id="Rectangle_17613" data-name="Rectangle 17613" width="2.355" height="9.529" transform="translate(364.117 308.045)" fill="#74b7b4"/>
    <path id="Path_29941" data-name="Path 29941" d="M978.607,775.988a6.136,6.136,0,1,1,6.136,6.136A6.137,6.137,0,0,1,978.607,775.988Z" transform="translate(-619.448 -457.042)" fill="#74b7b4"/>
    <path id="Path_29942" data-name="Path 29942" d="M985.081,780.3a3.977,3.977,0,1,1,3.977,3.977A3.977,3.977,0,0,1,985.081,780.3Z" transform="translate(-623.762 -461.355)" fill="#beeadd"/>
    <rect id="Rectangle_17614" data-name="Rectangle 17614" width="2.355" height="9.53" transform="translate(159.758 307.116)" fill="#74b7b4"/>
    <path id="Path_29943" data-name="Path 29943" d="M367.1,778.079a5.805,5.805,0,1,1,5.805,5.805A5.806,5.806,0,0,1,367.1,778.079Z" transform="translate(-211.964 -458.656)" fill="#74b7b4"/>
    <path id="Path_29944" data-name="Path 29944" d="M373.218,782.161a3.762,3.762,0,1,1,3.762,3.763A3.762,3.762,0,0,1,373.218,782.161Z" transform="translate(-216.044 -462.738)" fill="#beeadd"/>
    <path id="Path_29945" data-name="Path 29945" d="M794.783,677.115c.245,1.581.715,3.68,1.319,6.027,1.677,6.6,4.691,17.681,6.283,23.5.645,2.35,1.055,3.844,1.055,3.844l3.526.346c.239-1.272.442-2.687.6-4.19a103.383,103.383,0,0,0,.129-19.977,56.874,56.874,0,0,0-1.686-8.815c5.759-16.623,14.7-21.133,7.163-39.076l-14.192,1.981-.005.025-.014.062C798.629,642.5,793.359,668.086,794.783,677.115Z" transform="translate(-496.794 -369.702)" fill="#f1cccd"/>
    <path id="Path_29946" data-name="Path 29946" d="M796.353,850.684c-5.429,2.084-11.452,1.869-11.827,6.769l17.08-.6a12.256,12.256,0,0,0-1.036-6.173Z" transform="translate(-490.122 -510.905)" fill="#353d78"/>
    <path id="Path_29947" data-name="Path 29947" d="M794.783,677.114c.245,1.581.715,3.68,1.319,6.027,1.677,6.6,3.383,19.5,4.975,25.321l7.652-.275c.7-6.4-.62-29.252-1.486-32.479,5.759-16.623,13.477-18.987,5.936-36.929l-14.192,1.981-.005.025-.014.062C798.629,642.5,793.359,668.086,794.783,677.114Z" transform="translate(-496.794 -369.701)" fill="#30386e"/>
    <path id="Path_29948" data-name="Path 29948" d="M738,537.637s5.512,16.3,10.031,16.794c2.046.225,4.5-.6,6.792-1.778,3.869-2,7.245-5.02,7.273-5.709l2.234-13.185c-2.226,1.387-14.62,11.176-15.616,12.085-2.2-2.423-7.158-8.843-7.364-9.338,0,0,.267-3.906-.636-4.856-.8-.841-.577,2.282-.911,1.949-.366-.366-2.825-4.462-3.827-3C733.757,533.841,738,537.637,738,537.637Z" transform="translate(-457.344 -297.403)" fill="#f9cbcb"/>
    <path id="Path_29949" data-name="Path 29949" d="M781.5,550.664c.807,3.23,3.379,7.372,3.888,9.4,3.869-2,8.715-3.2,8.743-3.894l.965-15.461C792.867,542.092,785.8,547.138,781.5,550.664Z" transform="translate(-488.103 -304.349)" fill="#ff9f8a"/>
    <path id="Path_29950" data-name="Path 29950" d="M822.8,643.753s3.674,36.726,10.711,44.014a50.981,50.981,0,0,1,3.354,3.981c3.16,4.052,11.392,18.074,11.392,18.074l4.817-2.477c-.287-1.846-4.7-15.229-6.834-19.128-.383-.695-.788-1.373-1.215-2.046a21.5,21.5,0,0,1-3.5-11.089c-.27-11.4,2.029-22.945-7.09-31.33Z" transform="translate(-515.628 -373.016)" fill="#f1cccd"/>
    <path id="Path_29951" data-name="Path 29951" d="M817.158,642.6s2.181,26.036,8.493,40.79c.557,1.3,14.947,19.946,17.266,23.435l5.986-2.459c-1.138-14.056-10.973-19.781-11.137-30.051-.182-11.406,2.029-22.945-7.09-31.33Z" transform="translate(-511.866 -372.249)" fill="#353d78"/>
    <path id="Path_29952" data-name="Path 29952" d="M826.5,547.935c-.1,7.333-1.906,20.048-2.592,24.622a2.359,2.359,0,0,1-.984,1.593,2.3,2.3,0,0,1-.976.389,64.63,64.63,0,0,1-9.635.747,48.135,48.135,0,0,1-8.248-.678,2.37,2.37,0,0,1-1.959-2.073c-.373-3.461.712-11.053.537-18.44-.114-4.673,1.352-16.633,10.077-18.515l5.111-.046a11,11,0,0,1,8.53,8.934A24.3,24.3,0,0,1,826.5,547.935Z" transform="translate(-501.786 -300.903)" fill="#ff876d"/>
    <path id="Path_29953" data-name="Path 29953" d="M885.493,835.386c-3.6,4.568-7.731,7.642-5.547,12.044l14.6-7.964c-.89-1.887-2.073-5.061-3.882-6.357Z" transform="translate(-553.3 -499.193)" fill="#353d78"/>
    <path id="Path_29954" data-name="Path 29954" d="M829.355,488.1a2.64,2.64,0,0,0,1.347-1.208c1.145-1.236,3.921-.491,4.982.6.429.626.908,1.229,1.735,1.052,2.862.074,3.795,2.922,2.778,5.2-.1,1.1,1.361,2.9-.242,4.361-1.752,1.6-3.095,1.791-5.378,1.59-2.638-.233-5.1-6.406-5.1-6.406A3.093,3.093,0,0,1,829.355,488.1Z" transform="translate(-519.092 -268.061)" fill="#3f4883"/>
    <path id="Path_29955" data-name="Path 29955" d="M839.264,525.455c-1.86,1.86-3.614,2.216-5.184.033l.442-3.588.185-1.51h4.115l.079.937Z" transform="translate(-523.142 -290.812)" fill="#f1cccd"/>
    <path id="Path_29956" data-name="Path 29956" d="M839.792,521.994c-1.017,1.224-3.7.633-4.463.108l.21-1.712h4.116Z" transform="translate(-523.974 -290.812)" fill="#f0b4b4"/>
    <path id="Path_29957" data-name="Path 29957" d="M837.55,502.2s2.1-1.659,2.577-.161-1.955,2.905-1.955,2.905-2.953,4.013-6.128,1.75c-2.305-1.644-1.536-5.385-.942-7.311a.527.527,0,0,1,.879-.2c1,.959,3.462,1.162,5.546.95C838.128,500.07,837.033,501.8,837.55,502.2Z" transform="translate(-520.746 -276.574)" fill="#f1cccd"/>
    <path id="Path_29958" data-name="Path 29958" d="M769.874,546.025l-24.929,21.937a.829.829,0,0,0-.075,1.169l28.79,32.718a.829.829,0,0,0,1.17.075l24.929-21.937a.829.829,0,0,0,.075-1.169L771.044,546.1A.828.828,0,0,0,769.874,546.025Z" transform="translate(-463.559 -307.756)" fill="#817db1"/>
    <path id="Path_29959" data-name="Path 29959" d="M774.425,552.589,751.332,572.91a.881.881,0,0,0-.073,1.244l26.557,30.18a.881.881,0,0,0,1.244.085L802.152,584.1a.882.882,0,0,0,.073-1.244l-26.557-30.18A.881.881,0,0,0,774.425,552.589Z" transform="translate(-467.806 -312.124)" fill="#fff"/>
    <path id="Path_29960" data-name="Path 29960" d="M771.854,561.75h0a1.886,1.886,0,0,0-.17,2.662l2.184,2.482L776.7,564.4l-2.184-2.482A1.886,1.886,0,0,0,771.854,561.75Zm1.715,1.948a.791.791,0,1,1,.071-1.116A.791.791,0,0,1,773.569,563.7Z" transform="translate(-481.251 -318.059)" fill="#615d9e"/>
    <path id="Path_29961" data-name="Path 29961" d="M772.251,548.154l-18.278,16.084a.786.786,0,0,1-1.109-.071h0a.786.786,0,0,1,.071-1.109l18.278-16.084a.786.786,0,0,1,1.109.071h0A.785.785,0,0,1,772.251,548.154Z" transform="translate(-468.893 -308.396)" fill="#615d9e"/>
    <path id="Path_29962" data-name="Path 29962" d="M775.672,553.085l-16.03,14.105a.805.805,0,0,1-1.136-.072h0l17.238-15.169h0A.806.806,0,0,1,775.672,553.085Z" transform="translate(-472.783 -311.842)" fill="#c0bed8"/>
    <path id="Path_29963" data-name="Path 29963" d="M774.3,552.978l2.248,2.555a.277.277,0,0,1,.005.39l-6.054,5.328a.271.271,0,0,0-.031.339,1.357,1.357,0,0,1-2.029,1.786.27.27,0,0,0-.34-.012l-6.054,5.328a.277.277,0,0,1-.386-.055l-2.248-2.555a.278.278,0,0,0-.386-.055h0a.278.278,0,0,0,.006.39l2.444,2.778.165.187a.277.277,0,0,0,.386.055l.19-.168L768.2,564a.258.258,0,0,1,.3-.012q.086.051.174.093a1.725,1.725,0,0,0,2.463-2.168c-.02-.062-.044-.123-.07-.184a.258.258,0,0,1,.051-.3l5.985-5.266.19-.168a.278.278,0,0,0-.005-.39l-.165-.187-2.444-2.778a.278.278,0,0,0-.386-.055h0A.276.276,0,0,0,774.3,552.978Z" transform="translate(-473.079 -312.23)" fill="#615d9e"/>
    <path id="Path_29964" data-name="Path 29964" d="M776.928,618.8l-1.868-2.123.281-.247,1.868,2.123Z" transform="translate(-483.814 -354.807)" fill="#7772cb"/>
    <path id="Path_29965" data-name="Path 29965" d="M779.244,614.313l-1.868-2.123.288-.254,2.582.686-1.467-1.667.269-.237,1.868,2.123-.288.254-2.583-.687,1.468,1.668Z" transform="translate(-485.357 -351.003)" fill="#7772cb"/>
    <path id="Path_29966" data-name="Path 29966" d="M785.552,608.963l.245-.256a.776.776,0,0,0,.318.184.637.637,0,0,0,.359-.022,1.077,1.077,0,0,0,.381-.224,1.04,1.04,0,0,0,.242-.3.519.519,0,0,0,.068-.293.4.4,0,0,0-.1-.234.367.367,0,0,0-.211-.124.571.571,0,0,0-.3.043,4.8,4.8,0,0,0-.469.23,2.6,2.6,0,0,1-.526.228.758.758,0,0,1-.4,0,.642.642,0,0,1-.307-.2.716.716,0,0,1-.173-.381.749.749,0,0,1,.08-.447,1.347,1.347,0,0,1,.326-.415,1.415,1.415,0,0,1,.483-.29.8.8,0,0,1,.474-.02.857.857,0,0,1,.4.243l-.252.258a.58.58,0,0,0-.414-.175.76.76,0,0,0-.46.223.787.787,0,0,0-.289.42.371.371,0,0,0,.082.328.32.32,0,0,0,.248.115,1.487,1.487,0,0,0,.557-.221,3.639,3.639,0,0,1,.589-.278.856.856,0,0,1,.464-.024.7.7,0,0,1,.354.224.763.763,0,0,1,.183.4.844.844,0,0,1-.073.479,1.289,1.289,0,0,1-.336.442,1.627,1.627,0,0,1-.557.342.9.9,0,0,1-.528.016A.947.947,0,0,1,785.552,608.963Z" transform="translate(-490.216 -348.138)" fill="#7772cb"/>
    <path id="Path_29967" data-name="Path 29967" d="M791.134,600.087l.281-.247,1.079,1.227a1.932,1.932,0,0,1,.375.572.823.823,0,0,1,.008.535,1.228,1.228,0,0,1-.392.554,1.356,1.356,0,0,1-.579.327.784.784,0,0,1-.533-.06,1.892,1.892,0,0,1-.549-.461l-1.08-1.226.281-.247,1.078,1.225a1.585,1.585,0,0,0,.41.362.519.519,0,0,0,.354.046.809.809,0,0,0,.369-.2.781.781,0,0,0,.318-.53,1.079,1.079,0,0,0-.343-.656Z" transform="translate(-493.599 -343.754)" fill="#7772cb"/>
    <path id="Path_29968" data-name="Path 29968" d="M798.033,598.345l-1.868-2.123.941-.828a1.665,1.665,0,0,1,.482-.322.627.627,0,0,1,.414-.006.8.8,0,0,1,.37.242.712.712,0,0,1,.188.509.334.334,0,1,0-.016.551,1.959,1.959,0,0,1,.482.077l.878.253-.354.311-.669-.195q-.291-.083-.46-.114a.859.859,0,0,0-.267-.016.553.553,0,0,0-.178.056,1.12,1.12,0,0,0-.165.127l-.326.287.829.943Zm-.763-1.433.6-.531a1.2,1.2,0,0,0,.266-.3.423.423,0,0,0,.053-.273.453.453,0,0,0-.111-.24.419.419,0,0,0-.327-.151.681.681,0,0,0-.431.207l-.672.591Z" transform="translate(-497.877 -340.552)" fill="#7772cb"/>
    <path id="Path_29969" data-name="Path 29969" d="M805.368,593.731l-1.053-2.84.3-.267,2.737,1.359-.32.281-.813-.425-.887.781.332.848Zm-.155-1.411.72-.633-.739-.393q-.337-.179-.538-.308a3.609,3.609,0,0,1,.243.506Z" transform="translate(-503.308 -337.613)" fill="#7772cb"/>
    <path id="Path_29970" data-name="Path 29970" d="M810.359,586.931l-1.868-2.123.288-.254,2.582.686-1.467-1.667.269-.237,1.868,2.123-.288.254-2.583-.687,1.468,1.669Z" transform="translate(-506.091 -332.756)" fill="#7772cb"/>
    <path id="Path_29971" data-name="Path 29971" d="M818.481,579.823l.343-.177a1.256,1.256,0,0,1,.147.807,1.169,1.169,0,0,1-.4.676,1.34,1.34,0,0,1-.681.351,1.164,1.164,0,0,1-.683-.116,1.921,1.921,0,0,1-.613-.471,1.66,1.66,0,0,1-.382-.69,1.156,1.156,0,0,1,.03-.692,1.4,1.4,0,0,1,.4-.581,1.159,1.159,0,0,1,.678-.309,1.126,1.126,0,0,1,.7.19l-.219.309a.88.88,0,0,0-.511-.149.764.764,0,0,0-.446.205.918.918,0,0,0-.306.477.827.827,0,0,0,.046.518,1.7,1.7,0,0,0,.292.466,1.736,1.736,0,0,0,.5.4.782.782,0,0,0,.512.086.916.916,0,0,0,.448-.218.8.8,0,0,0,.28-.487A.921.921,0,0,0,818.481,579.823Z" transform="translate(-511.209 -329.612)" fill="#7772cb"/>
    <path id="Path_29972" data-name="Path 29972" d="M823.223,575.854l-1.868-2.123,1.535-1.35.22.25-1.254,1.1.572.65,1.174-1.034.219.249-1.174,1.033.636.723,1.3-1.147.221.251Z" transform="translate(-514.663 -325.457)" fill="#7772cb"/>
    <path id="Path_29973" data-name="Path 29973" d="M785.361,631.6a3.963,3.963,0,1,1,5.593.357A3.963,3.963,0,0,1,785.361,631.6Z" transform="translate(-490.019 -360.529)" fill="#e4e3f5"/>
    <path id="Path_29974" data-name="Path 29974" d="M791.7,632.444a1.613,1.613,0,1,0-2.276-.145A1.613,1.613,0,0,0,791.7,632.444Z" transform="translate(-493.119 -363.599)" fill="#fff"/>
    <path id="Path_29975" data-name="Path 29975" d="M796.089,635.178a.351.351,0,0,0-.325.295,1.612,1.612,0,0,1-1.5,1.345.347.347,0,0,0-.325.3,1.523,1.523,0,0,0,.4,1.25l.031.035a.489.489,0,0,0,.691.044l2.263-1.991a.49.49,0,0,0,.044-.691l-.031-.035A1.508,1.508,0,0,0,796.089,635.178Z" transform="translate(-496.386 -367.3)" fill="#fff"/>
    <path id="Path_29976" data-name="Path 29976" d="M815.485,585.383l-12.374,10.888c-.175.155-.384.205-.464.113h0c-.081-.092,0-.291.172-.446l12.374-10.888c.175-.155.384-.206.464-.114h0C815.738,585.028,815.661,585.228,815.485,585.383Z" transform="translate(-502.175 -333.792)" fill="#e4e3f5"/>
    <path id="Path_29977" data-name="Path 29977" d="M818.059,588.308,805.685,599.2c-.176.155-.383.205-.464.113h0c-.081-.092,0-.292.171-.446l12.374-10.888c.176-.155.384-.205.464-.113h0C818.311,587.953,818.234,588.153,818.059,588.308Z" transform="translate(-503.89 -335.742)" fill="#e4e3f5"/>
    <path id="Path_29978" data-name="Path 29978" d="M820.632,591.232,808.258,602.12c-.176.154-.384.205-.464.113h0c-.081-.092,0-.292.172-.447L820.339,590.9c.175-.155.383-.205.464-.113h0C820.885,590.877,820.807,591.077,820.632,591.232Z" transform="translate(-505.605 -337.69)" fill="#e4e3f5"/>
    <path id="Path_29979" data-name="Path 29979" d="M823.2,594.156l-12.374,10.889c-.176.154-.384.205-.464.113h0c-.081-.092,0-.292.172-.446l12.374-10.889c.176-.155.384-.205.464-.113h0C823.458,593.8,823.381,594,823.2,594.156Z" transform="translate(-507.319 -339.638)" fill="#e4e3f5"/>
    <path id="Path_29980" data-name="Path 29980" d="M825.778,597.08,813.4,607.968c-.176.155-.383.205-.464.113h0c-.081-.092,0-.292.171-.446l12.374-10.889c.176-.154.384-.205.464-.113h0C826.03,596.725,825.954,596.926,825.778,597.08Z" transform="translate(-509.034 -341.587)" fill="#e4e3f5"/>
    <path id="Path_29981" data-name="Path 29981" d="M802.587,652.794l-.377.332a1.213,1.213,0,0,1-1.712-.109h0a1.213,1.213,0,0,1,.109-1.712l.377-.332a1.213,1.213,0,0,1,1.712.109h0A1.213,1.213,0,0,1,802.587,652.794Z" transform="translate(-500.563 -377.625)" fill="#e4e3f5"/>
    <path id="Path_29982" data-name="Path 29982" d="M809.154,660.256l-.378.332a1.212,1.212,0,0,1-1.712-.109h0a1.213,1.213,0,0,1,.109-1.712l.378-.332a1.213,1.213,0,0,1,1.712.109h0A1.213,1.213,0,0,1,809.154,660.256Z" transform="translate(-504.939 -382.598)" fill="#e4e3f5"/>
    <path id="Path_29983" data-name="Path 29983" d="M823.226,613.172l-12.331,10.851a.188.188,0,0,1-.265-.017h0a.188.188,0,0,1,.017-.265l12.332-10.851a.188.188,0,0,1,.265.017h0A.187.187,0,0,1,823.226,613.172Z" transform="translate(-507.484 -352.418)" fill="#e4e3f5"/>
    <path id="Path_29984" data-name="Path 29984" d="M816.554,638.91l-3.5,3.082a.188.188,0,0,1-.266-.017h0a.188.188,0,0,1,.017-.265l3.5-3.082a.188.188,0,0,1,.266.017h0A.188.188,0,0,1,816.554,638.91Z" transform="translate(-508.922 -369.569)" fill="#e4e3f5"/>
    <path id="Path_29985" data-name="Path 29985" d="M823.852,637.842l-5.983,5.265a.189.189,0,0,1-.266-.017h0a.188.188,0,0,1,.017-.265l5.983-5.265a.187.187,0,0,1,.265.017h0A.187.187,0,0,1,823.852,637.842Z" transform="translate(-512.132 -368.857)" fill="#e4e3f5"/>
    <path id="Path_29986" data-name="Path 29986" d="M824.787,643.809,820.1,647.93a.188.188,0,0,1-.266-.017h0a.189.189,0,0,1,.017-.266l4.683-4.121a.188.188,0,0,1,.265.017h0A.188.188,0,0,1,824.787,643.809Z" transform="translate(-513.621 -372.833)" fill="#e4e3f5"/>
    <path id="Path_29987" data-name="Path 29987" d="M827.692,632.155l-1.769,1.556a.188.188,0,0,1-.266-.017h0a.188.188,0,0,1,.017-.266l1.769-1.556a.188.188,0,0,1,.265.017h0A.188.188,0,0,1,827.692,632.155Z" transform="translate(-517.499 -365.068)" fill="#e4e3f5"/>
    <path id="Path_29988" data-name="Path 29988" d="M839.628,631.366l-1.769,1.557a.189.189,0,0,1-.266-.017h0a.188.188,0,0,1,.017-.266l1.769-1.556a.188.188,0,0,1,.265.017h0A.188.188,0,0,1,839.628,631.366Z" transform="translate(-525.452 -364.542)" fill="#e4e3f5"/>
    <path id="Path_29989" data-name="Path 29989" d="M838.931,616.767l-4.9,4.311a.189.189,0,0,1-.266-.017h0a.188.188,0,0,1,.017-.265l4.9-4.31a.187.187,0,0,1,.265.017h0A.188.188,0,0,1,838.931,616.767Z" transform="translate(-522.902 -354.814)" fill="#e4e3f5"/>
    <path id="Path_29990" data-name="Path 29990" d="M803.258,652.075q.052.517.1,1.033l-.577-.019c.008.137.015.273.023.41l.847-.117q.018-.668.037-1.337Z" transform="translate(-502.289 -378.542)" fill="#fff"/>
    <path id="Path_29991" data-name="Path 29991" d="M810.1,659.848q.052.517.1,1.033l-.577-.019c.007.137.015.273.023.41l.847-.117q.019-.668.037-1.337Z" transform="translate(-506.846 -383.721)" fill="#fff"/>
    <path id="Path_29992" data-name="Path 29992" d="M830.638,633.09l-13.862,12.2a.141.141,0,0,1-.2-.013h0a.141.141,0,0,1,.013-.2l13.862-12.2a.141.141,0,0,1,.2.013h0A.141.141,0,0,1,830.638,633.09Z" transform="translate(-511.455 -365.746)" fill="#e4e3f5"/>
    <path id="Path_29993" data-name="Path 29993" d="M833.277,626.677l-18.928,16.656a.141.141,0,0,1-.2-.013h0a.141.141,0,0,1,.013-.2l18.928-16.656a.141.141,0,0,1,.2.013h0A.141.141,0,0,1,833.277,626.677Z" transform="translate(-509.838 -361.472)" fill="#e4e3f5"/>
    <path id="Path_29994" data-name="Path 29994" d="M837.247,624.576l-20.68,18.2a.141.141,0,0,1-.2-.013h0a.141.141,0,0,1,.013-.2l20.68-18.2a.141.141,0,0,1,.2.013h0A.141.141,0,0,1,837.247,624.576Z" transform="translate(-511.316 -360.072)" fill="#e4e3f5"/>
    <path id="Path_29995" data-name="Path 29995" d="M835.157,638.456l-16.373,14.408a.14.14,0,0,1-.2-.013h0a.141.141,0,0,1,.013-.2l16.373-14.408a.141.141,0,0,1,.2.013h0A.141.141,0,0,1,835.157,638.456Z" transform="translate(-512.793 -369.321)" fill="#e4e3f5"/>
    <path id="Path_29996" data-name="Path 29996" d="M839.044,636.574,821,652.451a.141.141,0,0,1-.2-.013h0a.141.141,0,0,1,.013-.2l18.042-15.877a.141.141,0,0,1,.2.013h0A.141.141,0,0,1,839.044,636.574Z" transform="translate(-514.271 -368.067)" fill="#e4e3f5"/>
    <path id="Path_29997" data-name="Path 29997" d="M843.342,633.61,823.22,651.316a.141.141,0,0,1-.2-.013h0a.141.141,0,0,1,.013-.2L843.155,633.4a.141.141,0,0,1,.2.013h0A.141.141,0,0,1,843.342,633.61Z" transform="translate(-515.749 -366.092)" fill="#e4e3f5"/>
    <path id="Path_29998" data-name="Path 29998" d="M882.881,642.758a2.181,2.181,0,1,1,.2-3.078A2.183,2.183,0,0,1,882.881,642.758Zm-2.772-3.15a2.015,2.015,0,1,0,2.844.182A2.018,2.018,0,0,0,880.109,639.608Z" transform="translate(-553.248 -369.809)" fill="#e4e3f5"/>
    <path id="Path_29999" data-name="Path 29999" d="M881.99,643.625a1.384,1.384,0,1,1,1.954.125A1.384,1.384,0,0,1,881.99,643.625Z" transform="translate(-554.837 -371.398)" fill="#e4e3f5"/>
    <path id="Path_3,0000" data-name="Path 3,0000" d="M861.671,650.154l-6.4,5.635a.148.148,0,0,1-.208-.013h0a.147.147,0,0,1,.013-.207l6.4-5.635a.147.147,0,0,1,.208.013h0A.146.146,0,0,1,861.671,650.154Z" transform="translate(-537.098 -377.109)" fill="#e4e3f5"/>
    <path id="Path_3,0001" data-name="Path 3,0001" d="M871.153,651.692l-2.334,2.054a.148.148,0,0,1-.208-.013h0a.147.147,0,0,1,.013-.208l2.334-2.054a.148.148,0,0,1,.208.013h0A.147.147,0,0,1,871.153,651.692Z" transform="translate(-546.128 -378.134)" fill="#e4e3f5"/>
    <path id="Path_3,0002" data-name="Path 3,0002" d="M863.38,660.429l-1.255,1.1a.147.147,0,0,1-.207-.013h0a.148.148,0,0,1,.013-.208l1.255-1.1a.147.147,0,0,1,.208.013h0A.148.148,0,0,1,863.38,660.429Z" transform="translate(-541.667 -383.956)" fill="#e4e3f5"/>
    <path id="Path_3,0003" data-name="Path 3,0003" d="M874.693,653.268l-1.255,1.105a.147.147,0,0,1-.208-.013h0a.147.147,0,0,1,.013-.208l1.255-1.1a.147.147,0,0,1,.208.013h0A.147.147,0,0,1,874.693,653.268Z" transform="translate(-549.206 -379.185)" fill="#e4e3f5"/>
    <path id="Path_3,0004" data-name="Path 3,0004" d="M883.527,643.118c-.046.04-.093.078-.142.113a.081.081,0,1,1-.1-.132,1.663,1.663,0,0,0,.256-.226.081.081,0,1,1,.12.11A1.827,1.827,0,0,1,883.527,643.118Zm-.448.285a.081.081,0,0,1-.021.013,1.8,1.8,0,0,1-.358.113.082.082,0,0,1-.033-.16,1.6,1.6,0,0,0,.325-.1.082.082,0,0,1,.086.136Zm.793-.7a.082.082,0,0,1-.124-.1,1.63,1.63,0,0,0,.141-.311.082.082,0,1,1,.155.052,1.781,1.781,0,0,1-.156.341A.072.072,0,0,1,883.872,642.7Zm-1.49.844a.084.084,0,0,1-.055.02,1.814,1.814,0,0,1-.372-.042.081.081,0,1,1,.035-.159,1.653,1.653,0,0,0,.339.038.082.082,0,0,1,.08.082A.079.079,0,0,1,882.382,643.545Zm1.716-1.519a.081.081,0,0,1-.135-.07,1.615,1.615,0,0,0,0-.341.081.081,0,0,1,.162-.016,1.784,1.784,0,0,1,0,.375A.082.082,0,0,1,884.1,642.026Zm-2.411,1.366a.082.082,0,0,1-.087.013,1.764,1.764,0,0,1-.323-.19.081.081,0,0,1,.1-.131,1.612,1.612,0,0,0,.294.173.082.082,0,0,1,.04.108A.085.085,0,0,1,881.686,643.392Zm2.344-2.075a.093.093,0,0,1-.029.016.082.082,0,0,1-.1-.053,1.636,1.636,0,0,0-.136-.313.082.082,0,0,1,.142-.08,1.783,1.783,0,0,1,.149.344A.083.083,0,0,1,884.03,641.317Zm-2.917,1.652a.081.081,0,0,1-.115-.007l-.005-.005a1.852,1.852,0,0,1-.217-.305.082.082,0,0,1,.142-.08,1.638,1.638,0,0,0,.2.278l0,.005A.08.08,0,0,1,881.114,642.969Zm2.565-2.272a.081.081,0,0,1-.115-.007,1.607,1.607,0,0,0-.251-.231.081.081,0,0,1,.1-.131,1.8,1.8,0,0,1,.276.254.082.082,0,0,1-.007.115h0Zm-2.919,1.646a.082.082,0,0,1-.132-.037,1.791,1.791,0,0,1-.073-.368.081.081,0,1,1,.162-.015,1.621,1.621,0,0,0,.067.334A.08.08,0,0,1,880.76,642.343Zm2.348-2.07a.082.082,0,0,1-.088.013,1.633,1.633,0,0,0-.323-.108.082.082,0,1,1,.035-.159,1.832,1.832,0,0,1,.356.119.082.082,0,0,1,.04.108A.088.088,0,0,1,883.108,640.273Zm-2.415,1.361a.081.081,0,0,1-.134-.071,1.833,1.833,0,0,1,.082-.366.082.082,0,0,1,.155.052,1.644,1.644,0,0,0-.074.333A.083.083,0,0,1,880.693,641.634Zm1.719-1.516a.08.08,0,0,1-.055.02,1.614,1.614,0,0,0-.34.032.081.081,0,1,1-.032-.159,1.815,1.815,0,0,1,.373-.035.081.081,0,0,1,.08.082A.078.078,0,0,1,882.412,640.118Zm-1.492.841a.081.081,0,0,1-.124-.1,1.823,1.823,0,0,1,.224-.3.082.082,0,0,1,.12.111,1.652,1.652,0,0,0-.2.273A.067.067,0,0,1,880.92,640.959Zm.794-.7a.082.082,0,0,1-.021.013,1.615,1.615,0,0,0-.3.168.081.081,0,1,1-.095-.132,1.789,1.789,0,0,1,.327-.185.081.081,0,0,1,.086.136Z" transform="translate(-554.11 -370.499)" fill="#e4e3f5"/>
    <path id="Path_3,0005" data-name="Path 3,0005" d="M830.562,564.906a12.882,12.882,0,0,1-1.054,3.086c-3.032,5.712-13.952,12.711-13.952,12.711-1.2,4.956-4.818,6.412-6.675,5.708-4.7-1.784,2.269-4.471,1.624-6.262,0,0-2.974.853-3.286.027-.57-1.509,4.478-2.374,4.478-2.374a120.059,120.059,0,0,0,10.416-12.924c-.077-.764-.155-1.528-.216-2.294-.413-5.521-.164-11.094,2.021-16.568C828.026,546.841,831.685,559.893,830.562,564.906Z" transform="translate(-505.214 -307.888)" fill="#f1cccd"/>
    <path id="Path_3,0006" data-name="Path 3,0006" d="M858.2,563.332a42.864,42.864,0,0,1-10.743-1.3c-.413-5.521-1.7-16.975,4.185-17.251C857.516,544.5,859.324,558.32,858.2,563.332Z" transform="translate(-531.783 -307.059)" fill="#ff9f8a"/>
    <path id="Path_3,0007" data-name="Path 3,0007" d="M122.532,709.346l1.116-4a51.126,51.126,0,0,0-2.991-8.5c-4.38-9.008-7.608-20.819-7.024-25.389.848-6.63-22.6-21.011-12.5-43.406,0,0,11.852,2.083,12.053-.179.123.185,11.334,25.137,10.737,41.217-.3,8.019,2.135,19.722,4.11,27.757.538,2.181,1.445,6.148,1.849,7.643l6.012,4.59Z" transform="translate(-33.053 -362.435)" fill="#f9cbcb"/>
    <path id="Path_3,0008" data-name="Path 3,0008" d="M128.75,696.229l-4.749.487-3.982.409c-4.329-8.9-6.61-21.245-6.034-25.76.316-2.472-2.786-6.034-6.235-10.7-5.692-7.7-12.332-18.409-6.116-32.19,0,0,10.186-.122,12.963-.6.122.182,10.147,25.261,9.558,41.152C123.86,676.95,126.8,688.289,128.75,696.229Z" transform="translate(-33.406 -362.435)" fill="#333b73"/>
    <path id="Path_3,0009" data-name="Path 3,0009" d="M136.962,742.291l-3.982.409c-4.329-8.9-6.61-21.245-6.034-25.76.316-2.472-2.786-6.034-6.235-10.7l-2.128-9.34,9.47,5.837C129.911,717.98,132.371,732.111,136.962,742.291Z" transform="translate(-46.367 -408.429)" fill="#2a3369"/>
    <path id="Path_30010" data-name="Path 30010" d="M92.753,705.076l7,4.6h-12.3v-4.219c-.369-1.869-.5-5.749-.747-7.6-1.436-10.8-.8-21.014,1.559-27.034,2.587-6.612-12.542-29.448-1.343-42.44L98.683,629.4c-.349,14.5,5.675,32.319.731,42.386-1.818,3.7-4.878,16.957-5.919,26.068C93.263,699.868,92.751,703.614,92.753,705.076Z" transform="translate(-22.477 -362.772)" fill="#f9cbcb"/>
    <path id="Path_30011" data-name="Path 30011" d="M99.372,628.484c-.349,14.5,6.7,28.646,1.973,42.978-1.292,3.916-5.43,16.954-6.472,26.065H85.358a57.556,57.556,0,0,1,2.9-27.034c2.588-6.612-12.76-29.628-1.56-42.619Z" transform="translate(-22.361 -362.435)" fill="#3f4883"/>
    <path id="Path_30012" data-name="Path 30012" d="M93.566,851.06c-1.522,1.1-1.449,5.048-1.259,6.712h14.365c.8-4.815-6.041-3.356-7.232-6.712C97.886,849.464,95.936,852.822,93.566,851.06Z" transform="translate(-28.791 -510.86)" fill="#3f4883"/>
    <path id="Path_30013" data-name="Path 30013" d="M170.033,851.486c-1.21,1.46-.8,4.692-.607,6.356h14.365c.8-4.815-6.041-3.356-7.232-6.712C175,849.533,172.4,853.248,170.033,851.486Z" transform="translate(-80.097 -510.93)" fill="#3f4883"/>
    <path id="Path_30014" data-name="Path 30014" d="M148.859,850.291a2.761,2.761,0,1,1,2.761,2.761A2.761,2.761,0,0,1,148.859,850.291Z" transform="translate(-66.542 -508.803)" fill="#3f4883"/>
    <path id="Path_30015" data-name="Path 30015" d="M233.263,850.291a2.761,2.761,0,1,1,2.761,2.761A2.761,2.761,0,0,1,233.263,850.291Z" transform="translate(-122.785 -508.803)" fill="#3f4883"/>
    <path id="Path_30016" data-name="Path 30016" d="M194.3,667.324H176.078V648.81a1.123,1.123,0,0,1,1.124-1.123h15.975a1.123,1.123,0,0,1,1.123,1.123Zm-17.117-1.1H193.2V649.915a1.123,1.123,0,0,0-1.123-1.123H178.306a1.123,1.123,0,0,0-1.123,1.123V666.22Z" transform="translate(-84.679 -375.637)" fill="#7279c7"/>
    <path id="Path_30017" data-name="Path 30017" d="M196.361,648.071h-7.456a1.242,1.242,0,0,1-1.242-1.241v-.278a1.242,1.242,0,0,1,1.242-1.242h7.456a1.242,1.242,0,0,1,1.242,1.242v.278A1.242,1.242,0,0,1,196.361,648.071Z" transform="translate(-92.399 -374.053)" fill="#ff78ba"/>
    <path id="Path_30018" data-name="Path 30018" d="M184.388,707.66v36.961a2.243,2.243,0,0,1-2.243,2.243H150.188a2.243,2.243,0,0,1-2.243-2.243V707.66A14.357,14.357,0,0,1,162.3,693.3h7.731A14.357,14.357,0,0,1,184.388,707.66Z" transform="translate(-65.933 -406.034)" fill="#ff78ba"/>
    <path id="Path_30019" data-name="Path 30019" d="M180.616,707.269a14.282,14.282,0,0,1,1.945,7.212v31.854a7.35,7.35,0,0,1-7.35,7.35h-26.85a2.251,2.251,0,0,1-.417-.04v.282a2.243,2.243,0,0,0,2.243,2.243h31.956a2.243,2.243,0,0,0,2.243-2.243V716.966A14.3,14.3,0,0,0,180.616,707.269Z" transform="translate(-65.933 -415.34)" fill="#f062a7"/>
    <path id="Path_30020" data-name="Path 30020" d="M189.067,736.336H165.323a.828.828,0,0,1-.828-.828h0a.828.828,0,0,1,.828-.828h23.743a.828.828,0,0,1,.828.828h0A.828.828,0,0,1,189.067,736.336Z" transform="translate(-76.961 -433.605)" fill="#ffc9e3"/>
    <path id="Path_30021" data-name="Path 30021" d="M189.067,749.575H165.323a.829.829,0,0,1-.828-.829h0a.828.828,0,0,1,.828-.828h23.743a.828.828,0,0,1,.828.828h0A.829.829,0,0,1,189.067,749.575Z" transform="translate(-76.961 -442.427)" fill="#ffc9e3"/>
    <path id="Path_30022" data-name="Path 30022" d="M189.067,762.815H165.323a.828.828,0,0,1-.828-.828h0a.828.828,0,0,1,.828-.828h23.743a.828.828,0,0,1,.828.828h0A.828.828,0,0,1,189.067,762.815Z" transform="translate(-76.961 -451.25)" fill="#ffc9e3"/>
    <path id="Path_30023" data-name="Path 30023" d="M189.067,776.055H165.323a.828.828,0,0,1-.828-.828h0a.828.828,0,0,1,.828-.828h23.743a.828.828,0,0,1,.828.828h0A.828.828,0,0,1,189.067,776.055Z" transform="translate(-76.961 -460.072)" fill="#ffc9e3"/>
    <path id="Path_30024" data-name="Path 30024" d="M189.067,789.294H165.323a.828.828,0,0,1-.828-.828h0a.828.828,0,0,1,.828-.828h23.743a.828.828,0,0,1,.828.828h0A.828.828,0,0,1,189.067,789.294Z" transform="translate(-76.961 -468.894)" fill="#ffc9e3"/>
    <path id="Path_30025" data-name="Path 30025" d="M189.067,802.534H165.323a.828.828,0,0,1-.828-.828h0a.828.828,0,0,1,.828-.828h23.743a.828.828,0,0,1,.828.828h0A.828.828,0,0,1,189.067,802.534Z" transform="translate(-76.961 -477.717)" fill="#ffc9e3"/>
    <path id="Path_30026" data-name="Path 30026" d="M189.067,815.774H165.323a.828.828,0,0,1-.828-.828h0a.828.828,0,0,1,.828-.828h23.743a.828.828,0,0,1,.828.828h0A.828.828,0,0,1,189.067,815.774Z" transform="translate(-76.961 -486.539)" fill="#ffc9e3"/>
    <path id="Path_30027" data-name="Path 30027" d="M189.067,829.013H165.323a.828.828,0,0,1-.828-.828h0a.828.828,0,0,1,.828-.828h23.743a.828.828,0,0,1,.828.828h0A.828.828,0,0,1,189.067,829.013Z" transform="translate(-76.961 -495.361)" fill="#ffc9e3"/>
    <path id="Path_30028" data-name="Path 30028" d="M160.421,586.97c-.6-.539-2.545-.189-4.211-1.259-.75-.482-9.821-1.683-12.938-4.8a12.847,12.847,0,0,1-2.511-4.048,32.375,32.375,0,0,1-1.891-6.624l2.1-13.082c2.362,2.388,3.677,11,5.1,15.6a10.517,10.517,0,0,0,.928,2.281c1.77,2.838,11.176,8.766,11.176,8.766a4.354,4.354,0,0,1,4.631,4.414C162.734,590.087,161.665,588.084,160.421,586.97Z" transform="translate(-59.885 -315.312)" fill="#f9cbcb"/>
    <path id="Path_30029" data-name="Path 30029" d="M144.943,572.717l-6.445,4.146a43.434,43.434,0,0,1-2.05-6.169l2.911-13.537C141.72,559.546,143.523,568.124,144.943,572.717Z" transform="translate(-58.271 -315.312)" fill="#95b5ff"/>
    <path id="Path_30030" data-name="Path 30030" d="M87.124,559.783c-.149,2.313-1.269,8.106-1.8,10.782a1.621,1.621,0,0,0,1.153,1.879c6.549,1.82,12.678-1.574,18.2-.73a.654.654,0,0,0,.724-.868c-1.04-2.821-3.4-10.469-1.218-16.823C108.261,542.155,96,539.632,96,539.632H91.6a55.593,55.593,0,0,0-8.067,3S87.473,554.373,87.124,559.783Z" transform="translate(-23.013 -303.634)" fill="#7aa3ff"/>
    <path id="Path_30031" data-name="Path 30031" d="M90.14,500.174c.261-1.169.137-2.39.313-3.573a6.956,6.956,0,0,1,4.391-5.435,6.468,6.468,0,0,1,6.751,1.57c1.741,1.854,2.145,4.545,3.011,6.936a4.978,4.978,0,0,1,.511,2.821c-.549,2.2-3.365,3.385-5.366,3.427l-4.109.357c-1.555.13-2.66.826-4.147.352s-2.156-1.044-2.292-2.6C89.087,502.705,89.85,501.475,90.14,500.174Z" transform="translate(-26.782 -271.097)" fill="#3f4883"/>
    <path id="Path_30032" data-name="Path 30032" d="M107.165,504.961c-.009.27-.026.527-.051.773-.326,3.093-2,4.447-3.535,4.9-3.023.886-4.77-3.147-4.922-3.511l-.011-.027a2.727,2.727,0,0,1-1.359-2.112c-.007-1.359,1.785-.2,1.785-.2,1.224-1.443,1.875-4.758,1.875-4.758,2.862,2.34,5.17.9,5.17.9S107.293,500.793,107.165,504.961Z" transform="translate(-32.177 -277.239)" fill="#f9cbcb"/>
    <path id="Path_30033" data-name="Path 30033" d="M107.712,526.349l.4-6.651h3.351l.654,6.651C113.245,528.054,109.129,529.109,107.712,526.349Z" transform="translate(-39.123 -290.351)" fill="#f9cbcb"/>
    <path id="Path_30034" data-name="Path 30034" d="M80.171,578.947H68.347l-.016-.309c-.021-.422-.073-1.089-.138-1.933-.521-6.71-1.906-24.534,3.306-30.185a5.193,5.193,0,0,1,3.92-1.778h.008a2.522,2.522,0,0,1,1.87.889c4.773,5.1,2.974,31.875,2.9,33.013Zm-11.208-.65h10.6c.189-3.022,1.578-27.607-2.741-32.221a1.876,1.876,0,0,0-1.4-.683h-.006a4.509,4.509,0,0,0-3.444,1.569c-5.02,5.442-3.651,23.06-3.135,29.693C68.893,577.322,68.936,577.879,68.963,578.3Z" transform="translate(-12.414 -307.04)" fill="#656d9c"/>
    <path id="Path_30035" data-name="Path 30035" d="M68.456,578.123c-1.091,3.6-5.67.041-5.67.041S49,575.524,49,569.649c0-2.1,1.041-4.628,2.616-7.129,2.928-4.65,5.139-6.26,8.5-7.808l.691,7.718a12.1,12.1,0,0,1-3.134,4.591,8.713,8.713,0,0,0-1.853,2.346c-.471,1.47,7.668,5.412,7.668,5.412S69.548,574.528,68.456,578.123Z" transform="translate(0 -313.682)" fill="#f9cbcb"/>
    <path id="Path_30036" data-name="Path 30036" d="M67.623,558.782a23.379,23.379,0,0,0-5.316,4.086l-6.957-5.32a38.145,38.145,0,0,1,9.466-8.825C66.458,551.426,67.174,554.774,67.623,558.782Z" transform="translate(-4.231 -309.693)" fill="#95b5ff"/>
    <path id="Path_30037" data-name="Path 30037" d="M76.667,658.319H61.6a1.43,1.43,0,0,1-1.431-1.43V646.741a1.431,1.431,0,0,1,1.431-1.43H76.667a1.431,1.431,0,0,1,1.43,1.43v10.147A1.431,1.431,0,0,1,76.667,658.319Z" transform="translate(-7.443 -374.054)" fill="#ff876d"/>
    <path id="Path_30038" data-name="Path 30038" d="M63.478,646.148c2.126,1.518,6.352,4.646,7.46,5.467a.459.459,0,0,0,.545,0l7.541-5.472a.461.461,0,0,0-.271-.833H63.746A.461.461,0,0,0,63.478,646.148Z" transform="translate(-9.518 -374.055)" fill="#ff9f8a"/>
  </g>
</svg>
