<svg xmlns="http://www.w3.org/2000/svg" width="35.707" height="20.274" viewBox="0 0 35.707 20.274">
  <g id="_01" data-name="01" transform="translate(0 -0.5)">
    <path id="Path_29647" data-name="Path 29647" d="M1.21,20.934a.724.724,0,0,1,.729-.723H19.848a.724.724,0,0,1,.729.723v3.4a.724.724,0,0,1-.729.723H1.94a.724.724,0,0,1-.729-.723Zm-1.21,0v3.4a1.934,1.934,0,0,0,1.94,1.934H19.848a1.934,1.934,0,0,0,1.94-1.934v-3.4A1.934,1.934,0,0,0,19.848,19H1.94A1.934,1.934,0,0,0,0,20.934Z" transform="translate(0 -7.304)" fill="#86959f" fill-rule="evenodd"/>
    <rect id="Rectangle_17540" data-name="Rectangle 17540" width="2.421" height="1.21" rx="0.605" transform="translate(30.866 14.722)" fill="#86959f"/>
    <path id="Path_29648" data-name="Path 29648" d="M50.683,17.657v6.052H42.21V17.657Zm-9.078-1.21a.605.605,0,0,0-.605.605v7.262a.605.605,0,0,0,.605.605h9.683a.605.605,0,0,0,.605-.605V17.052a.605.605,0,0,0-.605-.605Zm5.447-1.21V11.605a.605.605,0,0,0-1.21,0v3.631a.605.605,0,1,0,1.21,0Z" transform="translate(-16.187 -4.145)" fill="#86959f" fill-rule="evenodd"/>
    <path id="Path_29649" data-name="Path 29649" d="M33.372,1.71l.977,4.842h-5.8l.976-4.842ZM28.43.987,27.22,7.039a.605.605,0,0,0,.594.724h7.262a.605.605,0,0,0,.593-.724L34.459.987A.605.605,0,0,0,33.866.5H29.024a.605.605,0,0,0-.593.487ZM4.21,11.7V8.909A2.056,2.056,0,0,1,6.272,6.855H17.884a2.061,2.061,0,0,1,2.061,2.055V11.7a.605.605,0,1,0,1.21,0V8.909a3.271,3.271,0,0,0-3.272-3.265H6.272A3.267,3.267,0,0,0,3,8.909V11.7a.605.605,0,1,0,1.21,0Zm1.21,8.473V18.354a.605.605,0,0,0-1.21,0v1.816a.605.605,0,1,0,1.21,0Zm14.525,0V18.354a.605.605,0,0,0-1.21,0v1.816a.605.605,0,1,0,1.21,0Z" transform="translate(-1.184)" fill="#86959f" fill-rule="evenodd"/>
    <rect id="Rectangle_17541" data-name="Rectangle 17541" width="4.842" height="1.21" rx="0.605" transform="translate(12.104 9.275)" fill="#86959f"/>
    <rect id="Rectangle_17542" data-name="Rectangle 17542" width="4.842" height="1.21" rx="0.605" transform="translate(4.842 9.275)" fill="#86959f"/>
  </g>
</svg>
