<svg xmlns="http://www.w3.org/2000/svg" width="35.037" height="34.985" viewBox="0 0 35.037 34.985">
  <path id="_02" data-name="02" d="M4.915,25.323A.583.583,0,0,0,5.5,24.74V23.574a.583.583,0,1,0-1.166,0V24.74A.583.583,0,0,0,4.915,25.323Zm2.332,0H6.082a.583.583,0,1,0,0,1.166H7.248a.583.583,0,1,0,0-1.166ZM4.915,26.489a.583.583,0,0,0-.583.583v1.166a.583.583,0,1,0,1.166,0V27.072A.583.583,0,0,0,4.915,26.489ZM3.749,25.323H2.583a.583.583,0,1,0,0,1.166H3.749a.583.583,0,0,0,0-1.166ZM27.072,4.332a.583.583,0,0,0,.583-.583V2.583a.583.583,0,1,0-1.166,0V3.749A.583.583,0,0,0,27.072,4.332ZM28.239,5.5H29.4a.583.583,0,0,0,0-1.166H28.239a.583.583,0,0,0,0,1.166Zm-1.166,0a.583.583,0,0,0-.583.583V7.248a.583.583,0,1,0,1.166,0V6.082A.583.583,0,0,0,27.072,5.5Zm-.583-.583a.583.583,0,0,0-.583-.583H24.74a.583.583,0,1,0,0,1.166h1.166A.583.583,0,0,0,26.489,4.915ZM32.32,33.486A.583.583,0,0,0,32.9,32.9V31.737a.583.583,0,1,0-1.166,0V32.9A.583.583,0,0,0,32.32,33.486Zm2.332,0H33.486a.583.583,0,0,0,0,1.166h1.166a.583.583,0,0,0,0-1.166ZM32.32,34.653a.583.583,0,0,0-.583.583V36.4a.583.583,0,1,0,1.166,0V35.236A.583.583,0,0,0,32.32,34.653Zm-1.166-1.166H29.988a.583.583,0,0,0,0,1.166h1.166a.583.583,0,1,0,0-1.166ZM20.74,9.545l-5.329-.758-2.4-4.717a.583.583,0,0,0-1.038,0L9.58,8.787l-5.341.758a.583.583,0,0,0-.321,1l3.866,3.7-.91,5.178a.582.582,0,0,0,.84.63l4.781-2.5,4.781,2.455a.583.583,0,0,0,.262.064.636.636,0,0,0,.35-.111.583.583,0,0,0,.227-.583l-.91-5.137,3.854-3.668a.583.583,0,0,0-.321-1Zm-4.566,4.041a.583.583,0,0,0-.175.525l.764,4.326-4-2.052a.583.583,0,0,0-.536,0l-4,2.052L9,14.111a.583.583,0,0,0-.175-.525L5.615,10.53l4.443-.63a.583.583,0,0,0,.443-.315L12.5,5.627l2,3.953a.583.583,0,0,0,.443.315l4.443.63Zm20.81,4.991a.583.583,0,0,0-.472-.4l-3.5-.5L31.44,14.565a.583.583,0,0,0-1.038,0l-1.574,3.114-3.5.5a.571.571,0,0,0-.321.98l2.542,2.42L26.968,25a.587.587,0,0,0,.845.63l3.154-1.621,3.154,1.621a.587.587,0,0,0,.845-.63l-.583-3.417,2.542-2.42a.583.583,0,0,0,.058-.583Zm-3.726,2.4a.583.583,0,0,0-.175.519l.455,2.566-2.385-1.219a.583.583,0,0,0-.536,0l-2.379,1.219.455-2.566a.583.583,0,0,0-.175-.519l-1.9-1.808,2.636-.373a.583.583,0,0,0,.437-.315l1.166-2.332,1.166,2.332a.583.583,0,0,0,.437.315l2.636.373ZM20.74,29.545l-2.671-.379L16.9,26.833a.583.583,0,0,0-1.044,0l-1.166,2.332-2.671.379a.576.576,0,0,0-.321.985l1.924,1.831-.455,2.577a.587.587,0,0,0,.84.636l2.4-1.23,2.391,1.23a.587.587,0,0,0,.84-.636l-.455-2.577,1.878-1.79a.612.612,0,0,0-.321-1.026ZM18.1,31.737a.583.583,0,0,0-.169.519l.3,1.749-1.615-.828a.531.531,0,0,0-.262-.064.536.536,0,0,0-.268.064l-1.615.828.3-1.749a.583.583,0,0,0-.169-.519l-1.277-1.219,1.749-.251a.583.583,0,0,0,.437-.315l.81-1.6.828,1.633a.583.583,0,0,0,.437.315l1.749.251Z" transform="translate(-2 -2)" fill="#86959f"/>
</svg>
