<svg xmlns="http://www.w3.org/2000/svg" width="30.821" height="30.821" viewBox="0 0 30.821 30.821">
  <g id="_03" data-name="03" transform="translate(-4 -4)">
    <path id="Path_29557" data-name="Path 29557" d="M34.619,20.31c0,1.8-2.108,2.77-2.715,4.357-.616,1.612.259,3.837-.863,5.108-1.36,1.541-3.8,1.011-5.7,1.854-1.768.782-2.97,2.991-5.027,2.991s-3.26-2.209-5.027-2.991c-1.9-.842-4.345-.313-5.7-1.854-1.122-1.271-.246-3.5-.863-5.108C8.108,23.08,6,22.11,6,20.31s2.108-2.77,2.715-4.357c.547-1.43-.458-3.5.492-4.671,1.264-1.553,2.848-1.06,4.651-1.973C15.8,8.328,17.989,6,20.31,6s4.513,2.328,6.451,3.308c1.8.912,3.387.42,4.651,1.973.951,1.167-.055,3.241.492,4.671C32.511,17.539,34.619,18.509,34.619,20.31Z" transform="translate(-0.899 -0.899)" fill="none"/>
    <path id="Path_29558" data-name="Path 29558" d="M10.8,7.947a6.3,6.3,0,0,0,1.666-.52,12.188,12.188,0,0,0,1.37-.853l.448-.313c.371-.26.767-.539,1.16-.8A7.484,7.484,0,0,1,19.41,4a7.484,7.484,0,0,1,3.97,1.465c.393.256.789.535,1.16.8l.448.313a12.188,12.188,0,0,0,1.37.853,6.3,6.3,0,0,0,1.666.52c.193.041.4.085.619.137a4.611,4.611,0,0,1,2.723,1.6,4.119,4.119,0,0,1,.641,3.015c-.009.113-.017.22-.026.322-.026.318-.049.592-.05.866a2.154,2.154,0,0,0,.1.769,2.916,2.916,0,0,0,.5.789c.171.207.343.391.536.6.1.112.216.232.336.365a4.482,4.482,0,0,1,1.415,3,4.482,4.482,0,0,1-1.415,3c-.121.133-.232.253-.336.365-.193.208-.365.392-.536.6a2.916,2.916,0,0,0-.5.789,3.133,3.133,0,0,0-.166.96c-.014.289-.011.569-.007.881,0,.14,0,.288,0,.445a4.556,4.556,0,0,1-.9,3.156,5.262,5.262,0,0,1-3.3,1.547c-.27.044-.524.08-.763.115a7.586,7.586,0,0,0-2.025.47,4.6,4.6,0,0,0-1,.647c-.226.182-.41.343-.609.516-.16.14-.33.288-.54.463a5.188,5.188,0,0,1-3.328,1.458,5.188,5.188,0,0,1-3.328-1.458c-.21-.175-.379-.323-.54-.463-.2-.173-.382-.334-.609-.516a4.6,4.6,0,0,0-1-.647,7.586,7.586,0,0,0-2.025-.47c-.24-.035-.493-.071-.763-.115a5.262,5.262,0,0,1-3.3-1.547,4.556,4.556,0,0,1-.9-3.156c0-.158,0-.305,0-.445,0-.313.007-.592-.007-.881a3.133,3.133,0,0,0-.166-.96,2.917,2.917,0,0,0-.5-.789c-.171-.207-.343-.391-.536-.6-.1-.112-.216-.232-.336-.365A4.482,4.482,0,0,1,4,19.41a4.482,4.482,0,0,1,1.415-3c.121-.133.232-.253.336-.365.193-.208.365-.392.536-.6a2.918,2.918,0,0,0,.5-.789,2.155,2.155,0,0,0,.1-.769c0-.274-.024-.548-.05-.866-.008-.1-.017-.209-.026-.322a4.119,4.119,0,0,1,.641-3.015,4.611,4.611,0,0,1,2.723-1.6C10.4,8.032,10.6,7.988,10.8,7.947Zm21.5,14.045A3.957,3.957,0,0,0,33.72,19.41a3.957,3.957,0,0,0-1.428-2.582,5.852,5.852,0,0,1-1.287-1.775,5.017,5.017,0,0,1-.118-2.148,3.481,3.481,0,0,0-.374-2.524,4.012,4.012,0,0,0-2.641-1.34,7.755,7.755,0,0,1-2.01-.632A17.018,17.018,0,0,1,23.89,7.148C22.481,6.159,20.975,5.1,19.41,5.1s-3.07,1.058-4.48,2.048a17.018,17.018,0,0,1-1.971,1.261,7.755,7.755,0,0,1-2.01.632,4.012,4.012,0,0,0-2.641,1.34,3.481,3.481,0,0,0-.374,2.524,5.017,5.017,0,0,1-.118,2.148,5.851,5.851,0,0,1-1.287,1.775A3.957,3.957,0,0,0,5.1,19.41a3.957,3.957,0,0,0,1.428,2.582,5.851,5.851,0,0,1,1.287,1.775,6.273,6.273,0,0,1,.245,2.282,4.052,4.052,0,0,0,.617,2.825,5.021,5.021,0,0,0,3.3,1.286,9.072,9.072,0,0,1,2.4.567A8.007,8.007,0,0,1,16.3,32.1,4.914,4.914,0,0,0,19.41,33.72,4.914,4.914,0,0,0,22.525,32.1a8.007,8.007,0,0,1,1.913-1.366,9.073,9.073,0,0,1,2.4-.567,5.021,5.021,0,0,0,3.3-1.286,4.052,4.052,0,0,0,.617-2.825,6.275,6.275,0,0,1,.245-2.282A5.851,5.851,0,0,1,32.292,21.993Z" fill="#86959f" fill-rule="evenodd"/>
    <path id="Path_29559" data-name="Path 29559" d="M34.758,25.475a3.957,3.957,0,0,0,1.428-2.582,3.957,3.957,0,0,0-1.428-2.582,5.852,5.852,0,0,1-1.287-1.775,5.017,5.017,0,0,1-.118-2.148,4.372,4.372,0,0,0-.166-2.195,3.218,3.218,0,0,1,.893.772,3.481,3.481,0,0,1,.374,2.524,5.017,5.017,0,0,0,.118,2.148,5.852,5.852,0,0,0,1.287,1.775,3.957,3.957,0,0,1,1.428,2.582,3.957,3.957,0,0,1-1.428,2.582,5.851,5.851,0,0,0-1.287,1.775,6.275,6.275,0,0,0-.245,2.282,4.052,4.052,0,0,1-.617,2.825,5.021,5.021,0,0,1-3.3,1.286,9.073,9.073,0,0,0-2.4.567,8.007,8.007,0,0,0-1.913,1.366A4.914,4.914,0,0,1,22.977,38.3a4.914,4.914,0,0,1-3.114-1.625,8.007,8.007,0,0,0-1.913-1.366,9.073,9.073,0,0,0-2.4-.567,5.021,5.021,0,0,1-3.3-1.286,2.068,2.068,0,0,1-.312-.472,7.31,7.31,0,0,0,2.513.658,9.073,9.073,0,0,1,2.4.567,8.007,8.007,0,0,1,1.913,1.366A4.914,4.914,0,0,0,21.876,37.2a4.914,4.914,0,0,0,3.114-1.625A8.006,8.006,0,0,1,26.9,34.211a9.073,9.073,0,0,1,2.4-.567,5.021,5.021,0,0,0,3.3-1.286,4.052,4.052,0,0,0,.617-2.825,6.275,6.275,0,0,1,.245-2.282A5.851,5.851,0,0,1,34.758,25.475Z" transform="translate(-3.567 -4.583)" fill="#f2f3fc" fill-rule="evenodd"/>
    <path id="Path_29560" data-name="Path 29560" d="M24.614,23.1a1.514,1.514,0,1,0,1.514,1.514A1.514,1.514,0,0,0,24.614,23.1ZM22,24.614a2.614,2.614,0,1,1,2.614,2.614A2.614,2.614,0,0,1,22,24.614Zm11.947-1.765a.55.55,0,0,1,0,.778L23.627,33.947a.55.55,0,0,1-.778-.778L33.169,22.849A.55.55,0,0,1,33.947,22.849ZM31.494,29.98a1.514,1.514,0,1,0,1.514,1.514A1.514,1.514,0,0,0,31.494,29.98ZM28.88,31.494a2.614,2.614,0,1,1,2.614,2.614A2.614,2.614,0,0,1,28.88,31.494Z" transform="translate(-8.093 -8.093)" fill="#f2f3fc" fill-rule="evenodd"/>
    <path id="Path_29561" data-name="Path 29561" d="M32.947,21.849a.55.55,0,0,1,0,.778L22.628,32.947a.55.55,0,1,1-.778-.778L32.169,21.849A.55.55,0,0,1,32.947,21.849ZM30.494,28.98a1.514,1.514,0,1,0,1.514,1.514A1.514,1.514,0,0,0,30.494,28.98ZM27.88,30.494a2.614,2.614,0,1,1,2.614,2.614A2.614,2.614,0,0,1,27.88,30.494ZM23.614,22.1a1.514,1.514,0,1,0,1.514,1.514A1.514,1.514,0,0,0,23.614,22.1ZM21,23.614a2.614,2.614,0,1,1,2.614,2.614A2.614,2.614,0,0,1,21,23.614Z" transform="translate(-7.644 -7.644)" fill="#86959f" fill-rule="evenodd"/>
    <path id="Path_29562" data-name="Path 29562" d="M16.782,11.015a11.691,11.691,0,0,1-1.334.826,7.281,7.281,0,0,1-1.869.59c-.139.029-.27.057-.391.085a2.44,2.44,0,0,0-1.5.85,2.123,2.123,0,0,0-.214,1.5c.006.073.012.148.018.226.023.281.049.589.05.883a3.263,3.263,0,0,1-.184,1.189,3.915,3.915,0,0,1-.666,1.083c-.172.208-.367.418-.549.613-.082.088-.16.173-.233.253A2.375,2.375,0,0,0,9.1,20.659a.55.55,0,0,1-1.1,0,3.423,3.423,0,0,1,1.1-2.281c.094-.1.184-.2.271-.295.169-.182.326-.351.478-.534a2.837,2.837,0,0,0,.486-.774,2.186,2.186,0,0,0,.111-.789c0-.248-.022-.5-.045-.772-.007-.084-.014-.171-.021-.26a3.123,3.123,0,0,1,.458-2.282,3.525,3.525,0,0,1,2.1-1.226c.168-.04.33-.074.487-.108a5.84,5.84,0,0,0,1.53-.479,10.668,10.668,0,0,0,1.2-.749l.387-.271c.311-.219.638-.448.965-.661A5.967,5.967,0,0,1,20.659,8a.55.55,0,0,1,0,1.1,4.927,4.927,0,0,0-2.55,1c-.31.2-.611.413-.915.627Z" transform="translate(-1.799 -1.799)" fill="#fff" fill-rule="evenodd"/>
  </g>
</svg>
