<svg xmlns="http://www.w3.org/2000/svg" width="169.171" height="240.619" viewBox="0 0 169.171 240.619">
  <g id="_01" data-name="01" transform="translate(-920.759 -1241.691)">
    <path id="Path_29882" data-name="Path 29882" d="M292.162,274.823a46.365,46.365,0,0,0-8.88-5.468,89.526,89.526,0,0,0-14.8-5.33c-7.16-1.989-14.44-3.484-21.706-5.026-6.542-1.389-13.084-2.78-19.56-4.46a130.085,130.085,0,0,1-15.777-5.039,56.327,56.327,0,0,1-11.219-5.863,29.612,29.612,0,0,1-6.515-6.054,21.568,21.568,0,0,1-4.506-14.869,36.257,36.257,0,0,1,1.937-9.539,9.353,9.353,0,0,0,.342-1.061.9.9,0,0,0-.323-.994,1.1,1.1,0,0,0-.908.546,18.67,18.67,0,0,0-1.147,1.582,33.777,33.777,0,0,0-4.526,11.627,28.182,28.182,0,0,0-.151,10.534,27.26,27.26,0,0,0,5.3,11.852,37.926,37.926,0,0,0,7.345,7.213,60.244,60.244,0,0,0,11.022,6.5,105.273,105.273,0,0,0,17.181,6.094,165.562,165.562,0,0,0,17.721,3.7,5.753,5.753,0,0,1,.817.171c.231.066.553-.072.725.329a14.127,14.127,0,0,1-2.689,1.1,117.389,117.389,0,0,1-11.423,3.089q-7,1.611-14.091,2.695c-2.892.448-5.8.8-8.709,1.16a3.776,3.776,0,0,1-1.647-.007c-.157-.2-.3-.376-.441-.56A77.24,77.24,0,0,0,193.768,266.5a61.077,61.077,0,0,0-15.659-9.552c-.118-.046-.251-.066-.422-.112a5.407,5.407,0,0,0-.362.409,60.027,60.027,0,0,0-5.336,9.776,29.723,29.723,0,0,0-2,6.806,15.741,15.741,0,0,0,4.842,14.315,17.771,17.771,0,0,0,6.917,4.065,34.07,34.07,0,0,0,12.8,1.528,77.849,77.849,0,0,0,9-.935,6.547,6.547,0,0,1,1.186-.013c2.912,4.039,6.378,11.581,6.483,14.071a.641.641,0,0,1-.251.066,31.592,31.592,0,0,0-7.616-.745c-4.282.073-8.557.165-12.833.356-5.665.245-11.331.507-17,.481a98.486,98.486,0,0,1-13.354-.843,42.627,42.627,0,0,1-7.728-1.779,21.4,21.4,0,0,1-6.41-3.308,12.837,12.837,0,0,1-4.836-7.608,16.946,16.946,0,0,1-.277-5.408,49.418,49.418,0,0,1,1.706-8.038A150.045,150.045,0,0,1,149,262.49c4.137-9.756,8.8-19.269,13.689-28.676,9.751-18.782,18.136-33.552,29.1-51.642,4.051-6.673,2.931-4.856,7.247-11.371a24.269,24.269,0,0,0,1.607-2.925,4.3,4.3,0,0,0,.336-1.476.6.6,0,0,0-.823-.653,4.811,4.811,0,0,0-1.265.547,8.661,8.661,0,0,0-2.464,2.431c-.316.454-.612.929-.922,1.389-12.325,18.551-16.627,25.482-27.543,44.909-6.562,11.667-12.8,23.512-18.407,35.673a226.009,226.009,0,0,0-9.743,24.164,83.8,83.8,0,0,0-4.19,18.156,31.985,31.985,0,0,0,.422,9.862,17.872,17.872,0,0,0,9.222,12.47,25.95,25.95,0,0,0,2.379,1.146,39.267,39.267,0,0,0,11.344,2.715,95.315,95.315,0,0,0,12.26.481c6.133-.125,12.26-.488,18.387-.876a7.581,7.581,0,0,1,.882.065c.02.52.053.982.073,1.443.111,3.346.283,6.692.639,10.019a95.784,95.784,0,0,0,2.945,15.6,64.437,64.437,0,0,0,8.61,19.1c.131.2.224.409.369.679-.448.363-.876.7-1.311,1.042-5.415,4.1-10.995,7.957-16.68,11.673C175.125,385,164.8,391.1,154.4,397.071q-6.521,3.746-13.057,7.5a5.894,5.894,0,0,0-1.14.784.69.69,0,0,0-.125.62.706.706,0,0,0,.52.362,5.473,5.473,0,0,0,1.5-.2c2.339-.758,4.69-1.5,7-2.345a63.79,63.79,0,0,0,6.324-2.55c10.126-5,20.146-10.191,30.008-15.691,7.6-4.229,15.092-8.624,22.292-13.5a4.889,4.889,0,0,1,.494-.271c.23.2.448.382.653.574a43.133,43.133,0,0,0,5.283,4.314,35.233,35.233,0,0,0,17.122,6.153,36.785,36.785,0,0,0,12.708-1.205,47.305,47.305,0,0,0,15.119-7.26,66.785,66.785,0,0,0,14.711-14.565,101.822,101.822,0,0,0,13.748-25.587,5.834,5.834,0,0,0,.29-1.068,41.035,41.035,0,0,0,.56-8.333,33.224,33.224,0,0,0-3.532-13.946,38.373,38.373,0,0,0-9.934-12.273,64.307,64.307,0,0,0-15.56-9.427c-.251-.106-.514-.165-.81-.258a8.323,8.323,0,0,0-.66.771,58.908,58.908,0,0,0-5.507,10.152,27.058,27.058,0,0,0-2.1,8.347,13.629,13.629,0,0,0,3.927,10.929,23.316,23.316,0,0,0,6.765,4.6,66.073,66.073,0,0,0,8.195,3.122c3.09,1.008,6.186,1.99,9.256,3.064a40.473,40.473,0,0,1,3.907,1.811,3.3,3.3,0,0,1,.685.566,3.4,3.4,0,0,1-.118.35,84.378,84.378,0,0,1-17.273,24.315,56.072,56.072,0,0,1-16.78,11.345,39.547,39.547,0,0,1-20.409,3.208A33.279,33.279,0,0,1,215.6,367.2a6.179,6.179,0,0,1-.586-.434,88.424,88.424,0,0,0,7.319-6.608,86.835,86.835,0,0,0,6.048-7.7c.572.112.981.19,1.383.264,1.837.283,3.669.573,5.5.823,2.121.3,4.236.626,6.357.817a63.807,63.807,0,0,0,8.466.079,49.5,49.5,0,0,0,6.476-.9,4.255,4.255,0,0,0,2.977-2.1,17.17,17.17,0,0,0,1.081-2.1,20.2,20.2,0,0,0,1.212-4.717c.184-1.238.336-2.49.494-3.728a17.371,17.371,0,0,0-.883-8.1,18.969,18.969,0,0,0-7.1-9.4,21.769,21.769,0,0,0-8.09-3.584,30.713,30.713,0,0,1-13.966-6.885c-.8-.692-1.627-1.37-2.418-2.081a2.036,2.036,0,0,0-1.811-.461,11.79,11.79,0,0,0-4.144,1.568,21.19,21.19,0,0,0-6.509,6.4,31.255,31.255,0,0,0-3.215,6.324,32.922,32.922,0,0,0-2.424,11.786,23.166,23.166,0,0,0,.955,7.273,6.682,6.682,0,0,0,1.448,2.5,15.893,15.893,0,0,0,5.053,3.65c.356.165.712.363,1.081.553-1.272,1.859-9.533,9.487-11.937,11.041a6.067,6.067,0,0,1-.692-.626c-1.088-1.278-2.213-2.523-3.2-3.866a48.1,48.1,0,0,1-7.069-14.46,67.18,67.18,0,0,1-2.555-12.688,84.61,84.61,0,0,1-.521-9.744c0-.454.033-.909.053-1.37a4.5,4.5,0,0,1,1.726-.231c2.7-.039,5.388-.105,8.083-.066,2,.027,4,.2,5.989.317a5.833,5.833,0,0,1,.962.171,1.645,1.645,0,0,1,1.389,1.535c.033.336-.066.751.369.995a3.045,3.045,0,0,0,.758-1.3,31.8,31.8,0,0,0,2.418-11.806,39.746,39.746,0,0,0-2.695-15.56c-.184-.514-.369-1.034-.566-1.614.461-.119.856-.245,1.258-.337,4.032-.889,8.07-1.765,12.108-2.668a285.253,285.253,0,0,1,28.057-5.277c2.866-.336,5.731-.626,8.61-.7a70.207,70.207,0,0,1,9.2.224,40.4,40.4,0,0,1,9.519,2.029,23.714,23.714,0,0,1,14.967,14.928,39.314,39.314,0,0,1,2.134,10.626,75.1,75.1,0,0,1-.724,16.272,15.006,15.006,0,0,0-.079,5.264,2.25,2.25,0,0,0,.744,1.653c.191-.185.461-.336.566-.559a12.249,12.249,0,0,0,.66-1.68c.237-.751.415-1.529.633-2.28a103.349,103.349,0,0,0,3.92-20.224,52.236,52.236,0,0,0-.679-14.578,31.643,31.643,0,0,0-11.542-19.025m-99.119,5.27a58.519,58.519,0,0,1-10.231-1,13.072,13.072,0,0,1-6.074-2.589,10.4,10.4,0,0,1-1.383-1.363,3.463,3.463,0,0,1-.211-4.381c.27-.422.646-.784.948-1.2a1.343,1.343,0,0,1,1.719-.461,24.775,24.775,0,0,1,2.674,1.172,58.009,58.009,0,0,1,8.571,5.673c1.311,1.027,2.569,2.134,3.847,3.215.231.2.428.448.791.823a6.165,6.165,0,0,1-.653.112M277.149,316.7c-4.189-1.509-8.392-2.984-12.555-4.552a34.764,34.764,0,0,1-4.408-2.055,13.342,13.342,0,0,1-2.615-1.825c-1.93-1.706-1.983-3.366-.3-5.31.119-.144.258-.27.376-.408a.842.842,0,0,1,1.007-.243c.738.3,1.476.586,2.174.942A47.329,47.329,0,0,1,267,307.036a65.2,65.2,0,0,1,7.154,5.758,21.022,21.022,0,0,1,3.327,3.834,2.292,2.292,0,0,1-.33.072M235.89,338.756c.316-.968.646-1.937.961-2.9a18.764,18.764,0,0,0,.988-6.3,1.959,1.959,0,0,1,.072-.389c.343-.27.626-.046.916.06,2.957,1.074,5.908,2.186,8.88,3.221a41.615,41.615,0,0,1,4.651,1.831,12.539,12.539,0,0,1,3.973,2.754,8.054,8.054,0,0,1,1.126,1.581,1.193,1.193,0,0,1-.448,1.8,6.238,6.238,0,0,1-1.62.791,21.047,21.047,0,0,1-4.335.8,43.721,43.721,0,0,1-5.007.105,53.85,53.85,0,0,1-8.156-.8,6.936,6.936,0,0,1-2.542-.83c.191-.592.356-1.16.54-1.726m-18.143-2.813a2.188,2.188,0,0,1-1.087-2.372,10.607,10.607,0,0,1,.974-3.189,19.5,19.5,0,0,1,4.381-5.882,18.329,18.329,0,0,1,3.367-2.6,3.188,3.188,0,0,1,1.712.686,16.871,16.871,0,0,1,6.166,7.022,2.532,2.532,0,0,1-.052,2.4c-1.265,2.425-2.549,4.842-3.821,7.26a9.115,9.115,0,0,1-2.648-.184,21.8,21.8,0,0,1-6.3-1.706,25,25,0,0,1-2.695-1.43" transform="translate(785.333 1075.976)" fill="#5e9d9a"/>
    <path id="Path_29883" data-name="Path 29883" d="M158.81,252.735c-.764,1.383-1.509,2.774-2.213,4.183a47.167,47.167,0,0,0-2.226,4.355c3.768,1.87,7.457,3.7,11.205,5.56,1.337-2.2,6.239-12.182,6.483-12.945-1.035-.744-9.7-5.033-10.863-5.388-.791,1.415-1.608,2.819-2.385,4.235" transform="translate(783.379 1076.177)" fill="#5e9d9a"/>
  </g>
</svg>
