<svg id="_02" data-name="02" xmlns="http://www.w3.org/2000/svg" width="177.197" height="78.752" viewBox="0 0 177.197 78.752">
  <path id="Path_1" data-name="Path 1" d="M186.725,201.425a15.174,15.174,0,0,0-2.906-1.79,29.3,29.3,0,0,0-4.843-1.744c-2.344-.651-4.726-1.14-7.1-1.645-2.141-.455-4.282-.91-6.4-1.46a42.572,42.572,0,0,1-5.164-1.649,18.434,18.434,0,0,1-3.672-1.919,9.692,9.692,0,0,1-2.132-1.981,7.059,7.059,0,0,1-1.475-4.867,11.866,11.866,0,0,1,.634-3.122,3.061,3.061,0,0,0,.112-.347.294.294,0,0,0-.106-.325.361.361,0,0,0-.3.179,6.11,6.11,0,0,0-.375.518,11.055,11.055,0,0,0-1.481,3.805,9.224,9.224,0,0,0-.05,3.448A8.922,8.922,0,0,0,153.2,192.4a12.413,12.413,0,0,0,2.4,2.361,19.72,19.72,0,0,0,3.607,2.128,34.456,34.456,0,0,0,5.623,1.994,54.187,54.187,0,0,0,5.8,1.212,1.883,1.883,0,0,1,.267.056c.075.022.181-.024.237.108a4.623,4.623,0,0,1-.88.36,38.422,38.422,0,0,1-3.739,1.011q-2.29.527-4.612.882c-.947.147-1.9.261-2.85.38a1.236,1.236,0,0,1-.539,0c-.051-.065-.1-.123-.144-.183a25.28,25.28,0,0,0-3.851-4.01,19.989,19.989,0,0,0-5.125-3.126c-.039-.015-.082-.022-.138-.037a1.771,1.771,0,0,0-.118.134,19.647,19.647,0,0,0-1.746,3.2,9.728,9.728,0,0,0-.656,2.227,5.152,5.152,0,0,0,1.585,4.685,5.816,5.816,0,0,0,2.264,1.33,11.151,11.151,0,0,0,4.189.5,25.477,25.477,0,0,0,2.945-.306,2.143,2.143,0,0,1,.388,0,13.678,13.678,0,0,1,2.122,4.605.21.21,0,0,1-.082.022,10.34,10.34,0,0,0-2.493-.244c-1.4.024-2.8.054-4.2.116-1.854.08-3.708.166-5.565.157a32.232,32.232,0,0,1-4.371-.276,13.951,13.951,0,0,1-2.529-.582,7.006,7.006,0,0,1-2.1-1.083,4.2,4.2,0,0,1-1.583-2.49,5.546,5.546,0,0,1-.091-1.77,16.175,16.175,0,0,1,.558-2.631,49.107,49.107,0,0,1,2.089-5.74c1.354-3.193,2.881-6.307,4.48-9.385,3.191-6.147,5.936-10.981,9.524-16.9,1.326-2.184.959-1.589,2.372-3.722a7.94,7.94,0,0,0,.526-.957,1.407,1.407,0,0,0,.11-.483.2.2,0,0,0-.269-.214,1.574,1.574,0,0,0-.414.179,2.835,2.835,0,0,0-.806.8c-.1.149-.2.3-.3.455-4.034,6.072-5.442,8.34-9.015,14.7-2.148,3.819-4.189,7.7-6.024,11.675a73.971,73.971,0,0,0-3.189,7.909,27.428,27.428,0,0,0-1.371,5.942,10.469,10.469,0,0,0,.138,3.228,5.849,5.849,0,0,0,3.018,4.081,8.494,8.494,0,0,0,.779.375,12.852,12.852,0,0,0,3.713.888,31.2,31.2,0,0,0,4.013.157c2.007-.041,4.013-.16,6.018-.287a2.483,2.483,0,0,1,.289.021c.007.17.017.322.024.472.036,1.1.092,2.19.209,3.279a31.35,31.35,0,0,0,.964,5.106,21.09,21.09,0,0,0,2.818,6.25c.043.065.073.134.121.222-.147.119-.287.231-.429.341-1.772,1.343-3.6,2.6-5.459,3.821-3.284,2.15-6.663,4.146-10.067,6.1q-2.134,1.226-4.273,2.454a1.93,1.93,0,0,0-.373.257.226.226,0,0,0-.041.2.231.231,0,0,0,.17.118,1.791,1.791,0,0,0,.492-.067c.765-.248,1.535-.491,2.292-.767a20.881,20.881,0,0,0,2.07-.835c3.314-1.636,6.594-3.335,9.821-5.136,2.488-1.384,4.939-2.823,7.3-4.42a1.6,1.6,0,0,1,.162-.089c.075.067.147.125.214.188a14.119,14.119,0,0,0,1.729,1.412,11.532,11.532,0,0,0,5.6,2.014,12.039,12.039,0,0,0,4.159-.394A15.483,15.483,0,0,0,175.905,234a21.859,21.859,0,0,0,4.815-4.767,33.325,33.325,0,0,0,4.5-8.374,1.908,1.908,0,0,0,.095-.349,13.429,13.429,0,0,0,.183-2.727,10.874,10.874,0,0,0-1.156-4.564,12.559,12.559,0,0,0-3.251-4.017A21.048,21.048,0,0,0,176,206.112c-.082-.035-.168-.054-.265-.084a2.724,2.724,0,0,0-.216.252,19.279,19.279,0,0,0-1.8,3.323,8.856,8.856,0,0,0-.688,2.732,4.461,4.461,0,0,0,1.285,3.577,7.631,7.631,0,0,0,2.214,1.5,21.624,21.624,0,0,0,2.682,1.022c1.011.33,2.025.651,3.029,1a13.245,13.245,0,0,1,1.279.593,1.08,1.08,0,0,1,.224.185,1.115,1.115,0,0,1-.039.115,27.616,27.616,0,0,1-5.653,7.958,18.352,18.352,0,0,1-5.492,3.713,12.943,12.943,0,0,1-6.68,1.05,10.892,10.892,0,0,1-4.211-1.4,2.022,2.022,0,0,1-.192-.142,28.937,28.937,0,0,0,2.4-2.163,28.418,28.418,0,0,0,1.979-2.52c.187.037.321.062.453.086.6.092,1.2.188,1.8.269.694.1,1.387.205,2.081.267a20.884,20.884,0,0,0,2.771.026,16.2,16.2,0,0,0,2.119-.3,1.393,1.393,0,0,0,.974-.688,5.618,5.618,0,0,0,.354-.688,6.611,6.611,0,0,0,.4-1.544c.06-.405.11-.815.162-1.22a5.685,5.685,0,0,0-.289-2.652,6.208,6.208,0,0,0-2.324-3.077,7.125,7.125,0,0,0-2.648-1.173,10.052,10.052,0,0,1-4.571-2.253c-.263-.226-.533-.448-.791-.681a.666.666,0,0,0-.593-.151,3.858,3.858,0,0,0-1.356.513,6.935,6.935,0,0,0-2.13,2.1,10.23,10.23,0,0,0-1.052,2.07,10.775,10.775,0,0,0-.793,3.857,7.582,7.582,0,0,0,.313,2.38,2.187,2.187,0,0,0,.474.819,5.2,5.2,0,0,0,1.654,1.195c.116.054.233.119.354.181a29.109,29.109,0,0,1-3.907,3.614,1.986,1.986,0,0,1-.226-.2c-.356-.418-.724-.826-1.048-1.265a15.743,15.743,0,0,1-2.314-4.733,21.987,21.987,0,0,1-.836-4.153,27.693,27.693,0,0,1-.171-3.189c0-.149.011-.3.017-.449a1.472,1.472,0,0,1,.565-.075c.884-.013,1.764-.034,2.645-.022.656.009,1.309.065,1.96.1a1.909,1.909,0,0,1,.315.056.538.538,0,0,1,.455.5c.011.11-.022.246.121.325a1,1,0,0,0,.248-.425,10.407,10.407,0,0,0,.791-3.864,13.008,13.008,0,0,0-.882-5.093c-.06-.168-.121-.339-.185-.528.151-.039.28-.08.412-.11,1.32-.291,2.641-.578,3.963-.873a93.361,93.361,0,0,1,9.183-1.727c.938-.11,1.876-.205,2.818-.231a22.981,22.981,0,0,1,3.01.073,13.223,13.223,0,0,1,3.116.664,7.761,7.761,0,0,1,4.9,4.886,12.866,12.866,0,0,1,.7,3.478,24.578,24.578,0,0,1-.237,5.326,4.911,4.911,0,0,0-.026,1.723.736.736,0,0,0,.243.541c.063-.06.151-.11.185-.183a4.009,4.009,0,0,0,.216-.55c.077-.246.136-.5.207-.746a33.826,33.826,0,0,0,1.283-6.619,17.1,17.1,0,0,0-.222-4.771,10.356,10.356,0,0,0-3.778-6.227m-32.441,1.725a19.153,19.153,0,0,1-3.349-.328,4.278,4.278,0,0,1-1.988-.847,3.4,3.4,0,0,1-.453-.446,1.134,1.134,0,0,1-.069-1.434c.088-.138.211-.257.31-.392a.44.44,0,0,1,.563-.151,8.106,8.106,0,0,1,.875.384,18.986,18.986,0,0,1,2.805,1.857c.429.336.841.7,1.259,1.052.075.065.14.147.259.269a2.015,2.015,0,0,1-.214.037m27.527,11.982c-1.371-.494-2.747-.977-4.109-1.49a11.377,11.377,0,0,1-1.443-.673,4.366,4.366,0,0,1-.856-.6,1.074,1.074,0,0,1-.1-1.738c.039-.047.084-.088.123-.134a.276.276,0,0,1,.33-.08c.241.1.483.192.712.308a15.493,15.493,0,0,1,2.018,1.24,21.338,21.338,0,0,1,2.342,1.885,6.881,6.881,0,0,1,1.089,1.255.75.75,0,0,1-.108.024m-13.5,7.219c.1-.317.211-.634.315-.948a6.141,6.141,0,0,0,.324-2.061.641.641,0,0,1,.024-.127c.112-.088.2-.015.3.02.968.351,1.934.716,2.906,1.054a13.622,13.622,0,0,1,1.522.6,4.1,4.1,0,0,1,1.3.9,2.636,2.636,0,0,1,.368.517.39.39,0,0,1-.147.589,2.043,2.043,0,0,1-.53.259,6.89,6.89,0,0,1-1.419.261,14.307,14.307,0,0,1-1.639.034,17.623,17.623,0,0,1-2.669-.261,2.271,2.271,0,0,1-.832-.272c.062-.194.116-.38.177-.565m-5.938-.921a.716.716,0,0,1-.356-.776,3.471,3.471,0,0,1,.319-1.044,6.383,6.383,0,0,1,1.434-1.925,6,6,0,0,1,1.1-.852,1.043,1.043,0,0,1,.56.224,5.522,5.522,0,0,1,2.018,2.3.829.829,0,0,1-.017.785c-.414.794-.834,1.585-1.251,2.376a2.985,2.985,0,0,1-.867-.06,7.135,7.135,0,0,1-2.061-.558,8.18,8.18,0,0,1-.882-.468" transform="translate(-13.598 -165.715)" fill="#5e9d9a"/>
  <path id="Path_2" data-name="Path 2" d="M155.823,249.886c-.25.453-.494.908-.724,1.369a15.432,15.432,0,0,0-.729,1.425c1.233.612,2.441,1.21,3.667,1.82.438-.72,2.042-3.987,2.122-4.237-.339-.243-3.176-1.647-3.556-1.763-.259.463-.526.923-.781,1.386" transform="translate(-26.326 -221.339)" fill="#5e9d9a"/>
  <rect id="Rectangle_1" data-name="Rectangle 1" width="1.248" height="37.987" transform="translate(110.058 25)" fill="#5e9d9a"/>
  <g id="Group_27960" data-name="Group 27960" transform="translate(-71.172 -0.132)">
    <path id="Path_15" data-name="Path 15" d="M366.693,271.948v-1.883h3.425v1.883Zm3.1-1.883h1.574a3.7,3.7,0,0,1,4.188-4.3h.86a3.727,3.727,0,0,1,1.12-.763,5.862,5.862,0,0,1,2-.389,8.886,8.886,0,0,1,3.051.535v6.8H369.793Zm5.259-2.581q-1.461.309-1.461,2.581h2l-.113-1.477a5.487,5.487,0,0,1,.113-1.168l-.535.065Zm2.532,2.581h2.743v-3.587h-.308a2.169,2.169,0,0,0-2.256,1.266,3.086,3.086,0,0,0-.227,1.039v.373Zm14.072,1.883a3.825,3.825,0,0,1-1.445,3.181,3.667,3.667,0,0,1-1.7.341h-1.12v-1.9l.552.016a1.428,1.428,0,0,0,1.623-1.607v-.032h-1.347a3.617,3.617,0,0,1-2.889-1.087,3.518,3.518,0,0,1-.8-1.445,4.775,4.775,0,0,1-.114-1.136,6.942,6.942,0,0,1,.081-1.039q.5-2.645,3.717-2.645,3.035,0,3.392,2.84.033.292.049.893Zm-5.015-3.1q0,1.217,1.428,1.217H389.5v-2.272q0-1.33-1.428-1.331t-1.428,1.331Zm8.927,1.217h1.266v1.883h-3.587v-11.2h2.321Zm9.787,0h1.867v1.883h-10.7v-1.883h1.737l-.114-1.51a3.581,3.581,0,0,1,2.013-3.587,5.682,5.682,0,0,1,2.159-.389,9.269,9.269,0,0,1,3.035.519Zm-5.08-1.055a4.25,4.25,0,0,0,.114,1.055h2.662V266.43q-2.776,0-2.775,2.272Zm2.743-7.758v.7a1.127,1.127,0,0,1-.844,1.12,1.018,1.018,0,0,1-.324.049.929.929,0,0,1-.324-.049,1.142,1.142,0,0,1-.828-1.12v-.7l1.152-.649Zm3.717,8.813h8.586a1.992,1.992,0,0,0,.211-1.071,2.562,2.562,0,0,0-1.769-2.207,6.019,6.019,0,0,0-2.029-.308,11.788,11.788,0,0,0-3.993.584l.276-1.931a15.655,15.655,0,0,1,3.6-.535q4.447,0,5.632,2.694a5.464,5.464,0,0,1,.438,1.737,8.345,8.345,0,0,1,0,1.039,3.412,3.412,0,0,1-.75,1.883H406.733Zm24.814,0v1.883H426.3q-2.646,0-3.408-1.785a4.351,4.351,0,0,1-.162-1.4v-.406a3.424,3.424,0,0,1,2.078-3.506,4.787,4.787,0,0,1,1.526-.26h1.9v-.5h2.4v5.973Zm-4.463-8.813v.7a1.127,1.127,0,0,1-.844,1.12,1.021,1.021,0,0,1-.324.049.932.932,0,0,1-.325-.049,1.142,1.142,0,0,1-.827-1.12v-.7l1.152-.649Zm-.552,5.226q-1.477.065-1.477,1.915v.308q0,1.363,1.217,1.363h1.964v-3.587Zm3.538-5.226v.7a1.127,1.127,0,0,1-.844,1.12,1.018,1.018,0,0,1-.325.049.929.929,0,0,1-.324-.049,1.142,1.142,0,0,1-.828-1.12v-.7l1.152-.649Zm1.12,8.813h8.586a1.993,1.993,0,0,0,.211-1.071,2.562,2.562,0,0,0-1.769-2.207,6.019,6.019,0,0,0-2.029-.308,11.788,11.788,0,0,0-3.993.584l.276-1.931a15.656,15.656,0,0,1,3.6-.535q4.447,0,5.632,2.694a5.463,5.463,0,0,1,.438,1.737,7.469,7.469,0,0,1-.065,1.039H443.4v1.883H431.19Zm16.62,0h2.678v1.883h-7.45v-1.883h2.434V264.6h2.337Zm-.049-8.813v.7a1.127,1.127,0,0,1-.844,1.12,1.021,1.021,0,0,1-.325.049.932.932,0,0,1-.325-.049,1.142,1.142,0,0,1-.827-1.12v-.7l1.152-.649Zm12.757,6.038a5.454,5.454,0,0,1,.438,1.737,8.131,8.131,0,0,1-.519,2.921H450v-1.883h8.586a1.993,1.993,0,0,0,.211-1.071,2.562,2.562,0,0,0-1.769-2.207,6.02,6.02,0,0,0-2.029-.308,11.788,11.788,0,0,0-3.993.584l.276-1.931a15.655,15.655,0,0,1,3.6-.535q4.447,0,5.632,2.694Zm-3.749,6.313v.7a1.128,1.128,0,0,1-.844,1.12,1.022,1.022,0,0,1-.324.049.934.934,0,0,1-.325-.049,1.143,1.143,0,0,1-.827-1.12v-.7l1.152-.649Zm8.553-1.655h-2.337v-11.2h2.337Z" transform="translate(-294.098 -229.471)" fill="#5e9d9a"/>
    <path id="Path_29650" data-name="Path 29650" d="M364.936,317.528h-2.7v-2.941h-1.642V321.3h1.642v-3.2h2.7v3.2h1.636v-6.715h-1.636Z" transform="translate(-289.417 -264.118)" fill="#5e9d9a"/>
    <path id="Path_29651" data-name="Path 29651" d="M389.059,314.028l-3.281,6.864H386.9l.884-1.836h2.607l.838,1.836h1.688l-3.146-6.864Zm-.971,4.4,1.031-2.17,1,2.17Z" transform="translate(-308.015 -263.532)" fill="#5e9d9a"/>
    <path id="Path_29652" data-name="Path 29652" d="M416.907,315.152h3.173v-.567h-4.819V321.3h1.645v-3.352h2.8v-.576h-2.8Z" transform="translate(-329.261 -264.115)" fill="#5e9d9a"/>
    <path id="Path_29653" data-name="Path 29653" d="M435.5,314.028l-3.281,6.864h1.121l.884-1.836h2.607l.84,1.836h1.688l-3.147-6.864Zm-.971,4.4,1.031-2.17,1,2.17Z" transform="translate(-341.279 -263.532)" fill="#5e9d9a"/>
    <path id="Path_29654" data-name="Path 29654" d="M464.573,314.375l-1.661,4.312-1.728-4.39-1.714,4.417-1.71-4.34h-1.653l2.692,6.82h.749l1.354-3.511,1.383,3.511h.742l2.642-6.82Z" transform="translate(-356.925 -263.937)" fill="#5e9d9a"/>
    <path id="Path_29655" data-name="Path 29655" d="M492.235,314.028l-3.281,6.864h1.121l.884-1.836h2.609l.837,1.836h1.688l-3.146-6.864Zm-.971,4.4,1.031-2.17,1,2.17Z" transform="translate(-379.885 -263.532)" fill="#5e9d9a"/>
    <path id="Path_29656" data-name="Path 29656" d="M522.8,317.528h-2.7v-2.941h-1.64V321.3h1.64v-3.2h2.7v3.2h1.636v-6.715H522.8Z" transform="translate(-401.143 -264.118)" fill="#5e9d9a"/>
    <path id="Path_29657" data-name="Path 29657" d="M557.452,314.939a1.057,1.057,0,0,1,.358-.215,1.809,1.809,0,0,1,1.128.015,1.293,1.293,0,0,1,.423.262,1.526,1.526,0,0,1,.3.382,4.206,4.206,0,0,1,.208.457H560.9a3.007,3.007,0,0,0-.332-.714,2.386,2.386,0,0,0-.527-.574,2.5,2.5,0,0,0-.726-.384,2.889,2.889,0,0,0-.919-.143,3.956,3.956,0,0,0-1.094.143,2.473,2.473,0,0,0-.816.394,1.743,1.743,0,0,0-.507.594,1.594,1.594,0,0,0-.174.742,1.328,1.328,0,0,0,.155.647,1.987,1.987,0,0,0,.4.512,3.115,3.115,0,0,0,.574.406c.215.12.435.237.657.347s.447.222.662.332a3.94,3.94,0,0,1,.571.359,1.814,1.814,0,0,1,.408.424.946.946,0,0,1,.152.533.766.766,0,0,1-.1.4.8.8,0,0,1-.26.265,1.2,1.2,0,0,1-.37.145,2.1,2.1,0,0,1-.415.045,1.505,1.505,0,0,1-.557-.095,1.223,1.223,0,0,1-.412-.255,1.461,1.461,0,0,1-.292-.379,2.131,2.131,0,0,1-.177-.465h-1.136a2.509,2.509,0,0,0,.255.754,1.94,1.94,0,0,0,.5.594,2.3,2.3,0,0,0,.771.39,3.543,3.543,0,0,0,1.054.142,3.932,3.932,0,0,0,1.138-.15,2.5,2.5,0,0,0,.827-.412,1.689,1.689,0,0,0,.5-.612,1.735,1.735,0,0,0,.17-.764,1.219,1.219,0,0,0-.16-.627,1.929,1.929,0,0,0-.416-.5,3.7,3.7,0,0,0-.594-.42c-.223-.127-.45-.249-.683-.365l-.678-.344a4.4,4.4,0,0,1-.592-.359,1.791,1.791,0,0,1-.42-.4.812.812,0,0,1-.16-.489.905.905,0,0,1,.062-.315.807.807,0,0,1,.2-.292" transform="translate(-425.185 -263.564)" fill="#5e9d9a"/>
    <path id="Path_29658" data-name="Path 29658" d="M585.16,318.9a2.186,2.186,0,0,1-.12.735,1.819,1.819,0,0,1-.344.6,1.615,1.615,0,0,1-.542.406,1.85,1.85,0,0,1-1.441,0,1.644,1.644,0,0,1-.542-.406,1.822,1.822,0,0,1-.344-.6,2.273,2.273,0,0,1-.12-.735v-4.312h-1.648v4.3a2.534,2.534,0,0,0,.2.993,2.252,2.252,0,0,0,.579.817,2.74,2.74,0,0,0,.944.552,3.878,3.878,0,0,0,1.308.2,4.361,4.361,0,0,0,1.413-.2,2.665,2.665,0,0,0,.967-.552,2.147,2.147,0,0,0,.557-.814,2.742,2.742,0,0,0,.174-.984v-4.312H585.16Z" transform="translate(-442.154 -264.282)" fill="#5e9d9a"/>
    <rect id="Rectangle_17544" data-name="Rectangle 17544" width="1.648" height="6.715" transform="translate(146.143 50.469)" fill="#5e9d9a"/>
    <path id="Path_29659" data-name="Path 29659" d="M619.851,315.152h2.327V321.3h1.641v-6.148h2.327v-.567h-6.3Z" transform="translate(-469.589 -264.115)" fill="#5e9d9a"/>
    <path id="Path_29660" data-name="Path 29660" d="M647.515,321.3h5.011v-.687h-3.371v-2.664h2.8v-.578h-2.8v-2.22h3.371v-.567h-5.011Z" transform="translate(-489.016 -264.115)" fill="#5e9d9a"/>
    <path id="Path_29661" data-name="Path 29661" d="M671.86,314.939a1.055,1.055,0,0,1,.358-.215,1.809,1.809,0,0,1,1.128.015,1.263,1.263,0,0,1,.423.262,1.523,1.523,0,0,1,.3.382,4.23,4.23,0,0,1,.208.457h1.038a2.924,2.924,0,0,0-.332-.714,2.387,2.387,0,0,0-.527-.574,2.506,2.506,0,0,0-.726-.384,2.888,2.888,0,0,0-.919-.143,3.957,3.957,0,0,0-1.094.143,2.474,2.474,0,0,0-.816.394,1.744,1.744,0,0,0-.507.594,1.6,1.6,0,0,0-.174.742,1.325,1.325,0,0,0,.155.647,2.045,2.045,0,0,0,.4.512,3.189,3.189,0,0,0,.574.406c.215.12.435.237.657.347s.447.222.662.332a3.941,3.941,0,0,1,.571.359,1.816,1.816,0,0,1,.408.424.948.948,0,0,1,.155.533.759.759,0,0,1-.1.4.792.792,0,0,1-.259.265,1.176,1.176,0,0,1-.37.145,2.1,2.1,0,0,1-.415.045,1.5,1.5,0,0,1-.557-.095,1.221,1.221,0,0,1-.412-.255,1.458,1.458,0,0,1-.292-.379,2.131,2.131,0,0,1-.177-.465h-1.136a2.453,2.453,0,0,0,.257.754,1.886,1.886,0,0,0,.5.594,2.269,2.269,0,0,0,.769.39,3.544,3.544,0,0,0,1.054.142,3.932,3.932,0,0,0,1.138-.15,2.5,2.5,0,0,0,.827-.412,1.691,1.691,0,0,0,.5-.612,1.736,1.736,0,0,0,.17-.764,1.25,1.25,0,0,0-.157-.627,2.009,2.009,0,0,0-.42-.5,3.7,3.7,0,0,0-.594-.42c-.223-.127-.45-.249-.683-.365s-.454-.232-.676-.344a4.435,4.435,0,0,1-.594-.359,1.792,1.792,0,0,1-.42-.4.812.812,0,0,1-.16-.489.905.905,0,0,1,.062-.315.807.807,0,0,1,.2-.292" transform="translate(-504.991 -263.564)" fill="#5e9d9a"/>
  </g>
</svg>
