<svg xmlns="http://www.w3.org/2000/svg" width="19.948" height="20" viewBox="0 0 19.948 20">
    <g id="checkmark-circle" transform="translate(-2.052 -2)">
      <path id="Path_29638" data-name="Path 29638" d="M9.71,11.29a1,1,0,0,0-1.42,1.42l3,3a.97.97,0,0,0,1.43-.05l7-8a1,1,0,0,0-1.5-1.32L12,13.54Z" fill="#4caf50"/>
      <path id="Path_29639" data-name="Path 29639" d="M21,11a1,1,0,0,0-1,1,8,8,0,1,1-8-8,8.79,8.79,0,0,1,1.9.22,1,1,0,1,0,.47-1.94A10.54,10.54,0,0,0,12,2,10,10,0,1,0,22,12a1,1,0,0,0-1-1Z" fill="#4caf50"/>
    </g>
  </svg>
  