<svg xmlns="http://www.w3.org/2000/svg" width="24.499" height="17.903" viewBox="0 0 24.499 17.903">
  <path id="mail" d="M38.511,82.7H19.532a2.513,2.513,0,0,0-2.51,2.51V97.592a2.513,2.513,0,0,0,2.51,2.51H38.511a2.513,2.513,0,0,0,2.51-2.51V85.21A2.513,2.513,0,0,0,38.511,82.7Zm-4.464,8.7,5.97-4.685V97.193ZM19.532,83.7H38.511a1.508,1.508,0,0,1,1.506,1.506v.225l-9.661,7.583a2.007,2.007,0,0,1-2.473,0l-9.858-7.582V85.21A1.508,1.508,0,0,1,19.532,83.7Zm4.641,7.725-6.148,5.784V86.7ZM38.511,99.1H19.532a1.507,1.507,0,0,1-1.282-.717l6.73-6.331,2.289,1.76a3.009,3.009,0,0,0,3.706,0l2.275-1.785L39.8,98.377A1.507,1.507,0,0,1,38.511,99.1Z" transform="translate(-16.772 -82.45)" fill="#5e9d9a" stroke="#5e9d9a" stroke-width="0.5"/>
</svg>
