<svg xmlns="http://www.w3.org/2000/svg" width="56" height="55" viewBox="0 0 56 55">
  <g id="_01" data-name="01" transform="translate(0.447)">
    <ellipse id="Ellipse_7039" data-name="Ellipse 7039" cx="28" cy="27.5" rx="28" ry="27.5" transform="translate(-0.447)" fill="#dbecff"/>
    <g id="Group_27116" data-name="Group 27116" transform="translate(15.553 20)">
      <path id="Path_29590" data-name="Path 29590" d="M22.632,51.952H-.144A.356.356,0,0,1-.5,51.6a.356.356,0,0,1,.356-.356H22.632a.356.356,0,0,1,0,.712Z" transform="translate(0.5 -36.897)" fill="#07f"/>
      <path id="Path_29591" data-name="Path 29591" d="M46.481,41.66h-.064a.356.356,0,0,1-.288-.413,6.448,6.448,0,0,0-.3-3.335c-.548-1.1-2.364-1.751-2.848-1.915a2.826,2.826,0,0,1-1.1.331.356.356,0,1,1,0-.712,2.648,2.648,0,0,0,.915-.32.356.356,0,0,1,.256-.021c.11.028,2.652.772,3.424,2.317a6.8,6.8,0,0,1,.356,3.78A.356.356,0,0,1,46.481,41.66Z" transform="translate(-25.221 -26.605)" fill="#07f"/>
      <path id="Path_29592" data-name="Path 29592" d="M28.731,41.647a.356.356,0,0,1-.356-.3,7.325,7.325,0,0,1,.356-3.78c.748-1.513,3.314-2.289,3.424-2.317a.356.356,0,0,1,.256.021,2.673,2.673,0,0,0,.915.32.356.356,0,1,1,0,.712,2.826,2.826,0,0,1-1.1-.331c-.495.164-2.31.819-2.848,1.915a6.49,6.49,0,0,0-.3,3.335.356.356,0,0,1-.288.413Z" transform="translate(-16.682 -26.592)" fill="#07f"/>
      <path id="Path_29593" data-name="Path 29593" d="M26.841,18.844a2.848,2.848,0,0,1-1.976-.758c-1.143-1.132-.829-3.745-.815-3.859a.356.356,0,0,1,.114-.217l-.075-.075a1.52,1.52,0,0,1-.552-1.029,1.452,1.452,0,0,1,.562-.972,3.311,3.311,0,0,1,2.873-.926c.139.032.3.057.463.082.929.146,2.492.384,2.627,2.2.1,1.221.028,1.887-.616,2.332a3.944,3.944,0,0,1-.513,2.079,2.243,2.243,0,0,1-1.691,1.136,3.057,3.057,0,0,1-.4.011Zm-2.09-4.521c-.078.676-.117,2.513.612,3.239a2.189,2.189,0,0,0,1.78.548,1.548,1.548,0,0,0,1.168-.772,3.125,3.125,0,0,0,.413-1.88,1.117,1.117,0,0,0-.028-.174.356.356,0,0,1,0-.121s-.061-.4-1.1-.541a11.747,11.747,0,0,0-1.342-.1A5.752,5.752,0,0,1,24.751,14.323Zm1.666-2.68a2.8,2.8,0,0,0-1.837.787c-.224.217-.356.377-.356.473,0,.153.267.431.356.52.3.317.911.356,1.677.374a13.73,13.73,0,0,1,1.392.107,1.982,1.982,0,0,1,1.605.858,3.022,3.022,0,0,0,.075-1.424c-.093-1.16-.9-1.374-2.025-1.548-.182-.028-.356-.057-.509-.089a1.652,1.652,0,0,0-.377-.057Z" transform="translate(-10.24 -10.948)" fill="#07f"/>
      <path id="Path_29594" data-name="Path 29594" d="M8.412,11.985a3.053,3.053,0,1,1,3.052-3.049A3.052,3.052,0,0,1,8.412,11.985Zm0-5.469a2.419,2.419,0,1,0,2.419,2.419A2.419,2.419,0,0,0,8.412,6.516Z" transform="translate(-3.057 -5.88)" fill="#07f"/>
      <path id="Path_29595" data-name="Path 29595" d="M11.547,11.924H10.47a.317.317,0,0,1,0-.633h.76V10.107a.317.317,0,1,1,.633,0v1.5A.317.317,0,0,1,11.547,11.924Z" transform="translate(-5.765 -7.703)" fill="#07f"/>
      <path id="Path_29596" data-name="Path 29596" d="M7.853,2H3.033A1.034,1.034,0,0,0,2,3.033V6.476A1.034,1.034,0,0,0,3.033,7.509h.908l-.2.335a.688.688,0,0,0,.592,1.042H6.555a.688.688,0,0,0,.589-1.042l-.2-.336h.909A1.034,1.034,0,0,0,8.886,6.476V3.033A1.034,1.034,0,0,0,7.853,2Zm-1.3,6.542H4.331a.344.344,0,0,1-.3-.52l.308-.512h2.2l.3.512a.344.344,0,0,1-.293.521ZM8.542,6.476a.689.689,0,0,1-.689.689H3.033a.689.689,0,0,1-.689-.689V6.132h6.2Zm0-.689h-6.2V3.033a.689.689,0,0,1,.689-.689h4.82a.689.689,0,0,1,.689.689Z" transform="translate(-0.045 5.643)" fill="#07f" stroke="#07f" stroke-width="0.3"/>
    </g>
  </g>
</svg>
