<svg xmlns="http://www.w3.org/2000/svg" width="56" height="55" viewBox="0 0 56 55">
  <g id="_02" data-name="02" transform="translate(0.447)">
    <ellipse id="Ellipse_7039" data-name="Ellipse 7039" cx="28" cy="27.5" rx="28" ry="27.5" transform="translate(-0.447)" fill="#fee3e3"/>
    <g id="no_smoking" data-name="no smoking" transform="translate(15.559 16.004)">
      <path id="Path_29602" data-name="Path 29602" d="M20.445,15.662H4.733a.683.683,0,0,1-.683-.683V12.246a.683.683,0,0,1,.683-.683H20.445a.683.683,0,0,1,.683.683v2.733A.683.683,0,0,1,20.445,15.662ZM5.416,14.3H19.762V12.929H5.416ZM2.683,15.662A.683.683,0,0,1,2,14.979V12.246a.683.683,0,0,1,1.366,0v2.733A.683.683,0,0,1,2.683,15.662Zm0-4.782a.683.683,0,0,1-.41-1.23l1.093-.82A1.127,1.127,0,0,0,3.8,8.017a1.114,1.114,0,0,0-.321-.868,2.473,2.473,0,0,1,0-3.5L4.931,2.2a.686.686,0,0,1,.97.97L4.432,4.629a1.12,1.12,0,0,0,0,1.571,2.5,2.5,0,0,1-.26,3.757l-1.079.786A.683.683,0,0,1,2.683,10.88Z" transform="translate(-0.002)" fill="#f54748"/>
      <path id="Path_29603" data-name="Path 29603" d="M2.681,22.394A.683.683,0,0,1,2.2,21.226L17.226,6.2a.686.686,0,1,1,.97.97L3.166,22.2A.683.683,0,0,1,2.681,22.394Z" transform="translate(0 -1.267)" fill="#f54748"/>
    </g>
  </g>
</svg>
