<svg xmlns="http://www.w3.org/2000/svg" width="56" height="55" viewBox="0 0 56 55">
  <g id="_03" data-name="03" transform="translate(0.447)">
    <ellipse id="Ellipse_7039" data-name="Ellipse 7039" cx="28" cy="27.5" rx="28" ry="27.5" transform="translate(-0.447)" fill="#e9eaeb"/>
    <path id="Path_29877" data-name="Path 29877" d="M15.772,9.852h1.852A.463.463,0,0,0,17.884,9l-.926-.625a.463.463,0,0,0-.518,0L15.513,9a.463.463,0,0,0,.259.847Zm1.852,1.724H15.772a.463.463,0,0,0-.259.847l.926.625a.463.463,0,0,0,.518,0l.926-.625a.463.463,0,0,0-.259-.847ZM12.812,1.711H.617A.618.618,0,0,0,0,2.328V19.1a.618.618,0,0,0,.617.617H12.812a.618.618,0,0,0,.617-.617V2.328a.618.618,0,0,0-.617-.617ZM1.235,2.946H6.1V18.481H1.235Zm10.96,15.536H7.332V2.946h4.863ZM1.438.926A.463.463,0,1,0,.974.463.463.463,0,0,0,1.438.926Zm2.111,0A.463.463,0,1,0,3.085.463a.463.463,0,0,0,.463.463Zm2.111,0A.463.463,0,1,0,5.2.463.463.463,0,0,0,5.659.926Zm2.111,0A.463.463,0,1,0,7.307.463.463.463,0,0,0,7.77.926Zm2.111,0A.463.463,0,1,0,9.418.463.463.463,0,0,0,9.881.926Zm2.111,0a.463.463,0,1,0-.463-.463A.463.463,0,0,0,11.992.926Z" transform="translate(18.553 18)" fill="#1d1d1b"/>
  </g>
</svg>
