<svg xmlns="http://www.w3.org/2000/svg" width="56" height="55" viewBox="0 0 56 55">
  <g id="_04" data-name="04" transform="translate(0.447)">
    <ellipse id="Ellipse_7039" data-name="Ellipse 7039" cx="28" cy="27.5" rx="28" ry="27.5" transform="translate(-0.447)" fill="#e7f5da"/>
    <g id="Layer_2" data-name="Layer 2" transform="translate(11.596 10.996)">
      <path id="Path_29597" data-name="Path 29597" d="M6,14.442v4.485a4.99,4.99,0,0,0,2.562,4.363l.765.427v1.7a.554.554,0,0,0,.554.554h4.436a.554.554,0,0,0,.554-.554V21.267c0-1.486-.122-2.035-.926-2.844l-1.369-1.375a2.007,2.007,0,0,0-2.512-.189l-.554-2.772A1.769,1.769,0,0,0,6,14.442Zm2.423-.111L9.26,18.5v.194a1.58,1.58,0,0,0,0,.161.808.808,0,0,0,.067.216l.044.133a1.9,1.9,0,0,0,.128.233.715.715,0,0,0,.05.089,1.9,1.9,0,0,0,.233.288h0l1.325,1.325a.557.557,0,0,0,.787-.787l-1.325-1.325a.832.832,0,0,1,0-1.175.848.848,0,0,1,1.175,0l1.369,1.375c.5.5.6.715.6,2.057v3.582H10.435V23.391a.554.554,0,0,0-.283-.482L9.1,22.354a3.881,3.881,0,0,1-2-3.426V14.442a.665.665,0,0,1,1.314-.111Zm15.763-1.663a1.763,1.763,0,0,0-1.735,1.425L21.9,16.865a2,2,0,0,0-2.512.189l-1.369,1.375c-.8.8-.926,1.353-.926,2.839V25.42a.554.554,0,0,0,.554.554h4.436a.554.554,0,0,0,.554-.554v-1.7l.765-.427a4.99,4.99,0,0,0,2.562-4.363V14.442A1.78,1.78,0,0,0,24.185,12.668Zm.665,6.26a3.881,3.881,0,0,1-2,3.4l-1.048.554a.554.554,0,0,0-.283.482v1.5H18.2v-3.6c0-1.342.1-1.552.6-2.057l1.369-1.375a.848.848,0,0,1,1.175,0,.832.832,0,0,1,0,1.175l-1.325,1.325a.557.557,0,0,0,.787.787L22.134,19.8a2.4,2.4,0,0,0,.233-.288.964.964,0,0,0,.055-.105,1.624,1.624,0,0,0,.116-.216,1.385,1.385,0,0,0,.05-.139,1.161,1.161,0,0,1,.061-.216,1.508,1.508,0,0,0,0-.166c0-.061,0-.116,0-.177l.887-4.158a.665.665,0,0,1,1.314.111Zm-9.259-.876a.554.554,0,0,0,.776,0l5.711-5.639a3.726,3.726,0,0,0,0-5.289,3.82,3.82,0,0,0-5.345,0l-.754.726-.754-.726a3.82,3.82,0,0,0-5.345,0,3.726,3.726,0,0,0,0,5.306ZM10.662,7.9a2.7,2.7,0,0,1,3.787,0l1.142,1.109a.554.554,0,0,0,.776,0L17.51,7.9a2.706,2.706,0,0,1,3.787,0,2.606,2.606,0,0,1,0,3.72l-5.317,5.256L10.662,11.62a2.606,2.606,0,0,1,0-3.72Z" transform="translate(0 0)" fill="#5ebc0d"/>
      <path id="Path_29598" data-name="Path 29598" d="M7.5,10.732H8.616L9.732,8.5l.837,3.348.837-2.232.558,1.116h.558" transform="translate(5.457 1.512)" fill="none" stroke="#5ebc0d" stroke-linecap="round" stroke-linejoin="round" stroke-width="1"/>
    </g>
  </g>
</svg>
