<svg xmlns="http://www.w3.org/2000/svg" width="56" height="55" viewBox="0 0 56 55">
  <g id="_05" data-name="05" transform="translate(0.447)">
    <ellipse id="Ellipse_7039" data-name="Ellipse 7039" cx="28" cy="27.5" rx="28" ry="27.5" transform="translate(-0.447)" fill="#fef7e5"/>
    <g id="Group_28237" data-name="Group 28237" transform="translate(16.053 15.5)">
      <path id="Path_29579" data-name="Path 29579" d="M21,22.5H3A1.5,1.5,0,0,1,1.5,21V3A1.5,1.5,0,0,1,3,1.5H21A1.5,1.5,0,0,1,22.5,3V21A1.5,1.5,0,0,1,21,22.5Z" fill="none" stroke="#f3ac04" stroke-linecap="round" stroke-linejoin="round" stroke-miterlimit="10" stroke-width="1.1"/>
      <path id="Path_29580" data-name="Path 29580" d="M9.5,11.5v-6" fill="none" stroke="#f3ac04" stroke-linecap="round" stroke-linejoin="round" stroke-miterlimit="10" stroke-width="1.1"/>
      <path id="Path_29581" data-name="Path 29581" d="M11.5,5.5v4a2,2,0,0,1-4,0v-4" fill="none" stroke="#f3ac04" stroke-linecap="round" stroke-linejoin="round" stroke-miterlimit="10" stroke-width="1.1"/>
      <path id="Path_29582" data-name="Path 29582" d="M13.5,14.5H15A1.5,1.5,0,0,0,16.5,13V9.041a3.59,3.59,0,0,0-3-3.541v13H14l-.357-3.924" fill="none" stroke="#f3ac04" stroke-linecap="round" stroke-linejoin="round" stroke-miterlimit="10" stroke-width="1.1"/>
      <path id="Path_29583" data-name="Path 29583" d="M9.2,18.5h.6l-.3-7Z" fill="none" stroke="#f3ac04" stroke-linecap="round" stroke-linejoin="round" stroke-miterlimit="10" stroke-width="1.1"/>
    </g>
  </g>
</svg>
