<svg xmlns="http://www.w3.org/2000/svg" width="56" height="55" viewBox="0 0 56 55">
  <g id="_08" data-name="08" transform="translate(0.447)">
    <ellipse id="Ellipse_7039" data-name="Ellipse 7039" cx="28" cy="27.5" rx="28" ry="27.5" transform="translate(-0.447)" fill="#e7f0f0"/>
    <path id="Icon_metro-language" data-name="Icon metro-language" d="M12.14,14.352q-.011.034-.141-.006t-.355-.13l-.225-.1a6.752,6.752,0,0,1-.98-.552q-.079-.056-.462-.355t-.428-.321a19.2,19.2,0,0,1-1.51,2.04,8.378,8.378,0,0,1-1.183,1.24.893.893,0,0,1-.22.045.434.434,0,0,1-.208,0q.068-.045.924-1.037.237-.27.964-1.3a15.756,15.756,0,0,0,.885-1.33q.192-.338.575-1.11a8.784,8.784,0,0,0,.406-.873,9.261,9.261,0,0,0-1.24.372q-.09.023-.31.085l-.389.107a1.931,1.931,0,0,0-.192.056.192.192,0,0,0-.023.118.25.25,0,0,1-.011.107q-.056.113-.349.169a.909.909,0,0,1-.53,0,.475.475,0,0,1-.316-.237.573.573,0,0,1-.056-.259,2.178,2.178,0,0,1,.276-.056,3.365,3.365,0,0,0,.332-.068q.654-.18,1.183-.361,1.127-.394,1.15-.394a2.5,2.5,0,0,0,.485-.22,5.1,5.1,0,0,1,.5-.242q.1-.034.242-.09t.163-.062a.151.151,0,0,1,.068.006,1.282,1.282,0,0,1-.011.372,2.4,2.4,0,0,1-.141.3q-.141.282-.3.6t-.192.378a16.9,16.9,0,0,1-.868,1.476l.721.316q.135.068.84.361l.761.316q.045.011.118.287a.854.854,0,0,1,.051.344ZM9.83,8.875a.457.457,0,0,1-.045.316,1.022,1.022,0,0,1-.563.428,1.809,1.809,0,0,1-.676.135.933.933,0,0,1-.552-.293A.848.848,0,0,1,7.79,9L7.8,8.965a.482.482,0,0,0,.22.056.98.98,0,0,0,.3,0q.113-.023.654-.18a3.218,3.218,0,0,1,.62-.158.222.222,0,0,1,.237.192ZM17.7,10.329l.71,2.558-1.566-.473ZM5.209,19.345l7.821-2.615V5.1L5.209,7.726V19.345ZM19.2,15.772l1.15.349-2.04-7.4-1.127-.349-2.434,6.041,1.15.349.507-1.24,2.378.733ZM13.526,4.931,19.984,7V2.722Zm3.5,14.91,1.781.147-.609,1.8-.451-.744a8.354,8.354,0,0,1-3.11,1.217,5.4,5.4,0,0,1-1.026.135H12.67a7.617,7.617,0,0,1-2.248-.44A7.484,7.484,0,0,1,8.354,21a.235.235,0,0,1-.09-.18.218.218,0,0,1,.056-.152.189.189,0,0,1,.147-.062.634.634,0,0,1,.2.085l.344.186q.186.1.231.124a9.985,9.985,0,0,0,1.8.693,6.567,6.567,0,0,0,1.775.276,9.617,9.617,0,0,0,1.882-.163,9.288,9.288,0,0,0,1.769-.569q.169-.079.344-.175t.383-.214q.208-.118.321-.186ZM22.08,7.681V19.84l-8.723-2.772q-.158.068-4.226,1.437T4.984,19.874a.2.2,0,0,1-.2-.147.087.087,0,0,0-.011-.034V7.545a.5.5,0,0,1,.045-.113.507.507,0,0,1,.225-.124q1.195-.394,1.679-.563V2.418l6.288,2.231q.023,0,1.809-.62t3.561-1.223q1.775-.6,1.82-.6.225,0,.225.237V7.151Z" transform="translate(13.684 16)" fill="#5e9d9a"/>
  </g>
</svg>
