<svg xmlns="http://www.w3.org/2000/svg" width="56" height="55" viewBox="0 0 56 55">
  <g id="_07" data-name="07" transform="translate(0.447)">
    <ellipse id="Ellipse_7039" data-name="Ellipse 7039" cx="28" cy="27.5" rx="28" ry="27.5" transform="translate(-0.447)" fill="#dbecff"/>
    <g id="Group_28245" data-name="Group 28245" transform="translate(-38.725 -3.938)">
      <path id="Path_29563" data-name="Path 29563" d="M57.264,38.129a3.12,3.12,0,0,1,.643-.373l-.156.065a3.151,3.151,0,0,1,.795-.219l-.174.024a3.227,3.227,0,0,1,.818,0l-.174-.024a3.152,3.152,0,0,1,.795.219l-.156-.065a3.117,3.117,0,0,1,.488.265c.148.1.284.211.439.3a3.571,3.571,0,0,0,1.148.441,3.784,3.784,0,0,0,2.518-.376,4.776,4.776,0,0,0,.484-.319,3.077,3.077,0,0,1,.56-.313l-.156.065a3.152,3.152,0,0,1,.795-.219l-.174.024a3.227,3.227,0,0,1,.818,0L66.4,37.6a3.152,3.152,0,0,1,.795.219l-.156-.065a3.116,3.116,0,0,1,.488.265c.148.1.284.211.439.3a3.571,3.571,0,0,0,1.148.441,3.784,3.784,0,0,0,2.518-.376,4.778,4.778,0,0,0,.484-.319,3.076,3.076,0,0,1,.56-.313l-.156.065a3.152,3.152,0,0,1,.795-.219l-.174.024a3.227,3.227,0,0,1,.818,0l-.174-.024a3.152,3.152,0,0,1,.795.219l-.156-.065a3.221,3.221,0,0,1,.643.373.643.643,0,0,0,.5.065.651.651,0,0,0,.454-.8.76.76,0,0,0-.3-.389,3.727,3.727,0,0,0-4.084-.182c-.148.089-.28.2-.423.291a3.217,3.217,0,0,1-.488.265l.156-.065a3.151,3.151,0,0,1-.795.219l.174-.024a3.227,3.227,0,0,1-.818,0l.174.024a3.151,3.151,0,0,1-.795-.219l.156.065a3.117,3.117,0,0,1-.488-.265c-.148-.1-.284-.211-.439-.3a3.571,3.571,0,0,0-1.148-.441,3.784,3.784,0,0,0-2.518.376,4.775,4.775,0,0,0-.484.319,3.076,3.076,0,0,1-.56.313l.156-.065a3.151,3.151,0,0,1-.795.219l.174-.024a3.227,3.227,0,0,1-.818,0l.174.024a3.151,3.151,0,0,1-.795-.219l.156.065a5.129,5.129,0,0,1-.8-.484,3.7,3.7,0,0,0-3.1-.439A3.636,3.636,0,0,0,56.6,37a.722.722,0,0,0-.3.389.651.651,0,0,0,.454.8.639.639,0,0,0,.51-.063Zm8.718-13.861a3.36,3.36,0,0,0-1.934-3.024,3.46,3.46,0,0,0-1.967-.263,3.145,3.145,0,0,0-1.4.59,3.343,3.343,0,0,0-1.042,1.237,3.449,3.449,0,0,0-.339,1.463c0,.46,0,.923,0,1.383v8.714a.651.651,0,1,0,1.3,0v-7.82c0-.76,0-1.517,0-2.277a2.939,2.939,0,0,1,.024-.365c-.009.059-.015.115-.024.174a2.805,2.805,0,0,1,.185-.675l-.065.156a2.725,2.725,0,0,1,.239-.443c.024-.035.05-.069.074-.106.05-.072-.05.061-.05.063,0-.013.035-.043.046-.056.054-.065.113-.128.174-.189s.117-.111.178-.163c.017-.015.037-.03.056-.046.056-.048-.126.091-.063.05l.1-.074a2.772,2.772,0,0,1,.454-.245l-.156.065a2.708,2.708,0,0,1,.675-.185l-.174.024a2.894,2.894,0,0,1,.712,0l-.174-.024a2.753,2.753,0,0,1,.693.189l-.156-.065a2.8,2.8,0,0,1,.443.239c.037.024.074.052.109.076.054.039.035.026-.052-.041l.052.041c.059.05.117.1.171.158s.109.113.158.172c.015.017.028.035.041.052-.067-.089-.08-.106-.041-.052.026.037.052.072.076.109a2.806,2.806,0,0,1,.239.443l-.065-.156a2.822,2.822,0,0,1,.189.693c-.009-.059-.015-.115-.024-.174a3.19,3.19,0,0,1,.024.352.652.652,0,0,0,1.3,0Zm8.825,0a3.36,3.36,0,0,0-1.934-3.024,3.46,3.46,0,0,0-1.967-.263,3.145,3.145,0,0,0-1.4.59,3.343,3.343,0,0,0-1.042,1.237,3.449,3.449,0,0,0-.339,1.463c0,.462,0,.927,0,1.389v8.708a.651.651,0,0,0,1.3,0V26.556c0-.762,0-1.524,0-2.286a2.941,2.941,0,0,1,.024-.365c-.009.059-.015.115-.024.174a2.8,2.8,0,0,1,.185-.675l-.065.156a2.725,2.725,0,0,1,.239-.443c.024-.035.05-.069.074-.106.05-.072-.05.061-.05.063,0-.013.035-.043.046-.056.054-.065.113-.128.174-.189s.117-.111.178-.163c.017-.015.037-.03.056-.046.056-.048-.126.091-.063.05l.1-.074a2.773,2.773,0,0,1,.454-.245l-.156.065a2.708,2.708,0,0,1,.675-.185l-.174.024a2.894,2.894,0,0,1,.712,0l-.174-.024a2.754,2.754,0,0,1,.693.189l-.156-.065a2.806,2.806,0,0,1,.443.239c.037.024.074.052.109.076.054.039.035.026-.052-.041l.052.041c.059.05.117.1.172.158s.109.113.158.172c.015.017.028.035.041.052-.067-.089-.08-.106-.041-.052.026.037.052.072.076.109a2.806,2.806,0,0,1,.239.443l-.065-.156a2.822,2.822,0,0,1,.189.693c-.009-.059-.015-.115-.024-.174a3.19,3.19,0,0,1,.024.352.652.652,0,0,0,1.3,0Z" transform="translate(0)" fill="#07f"/>
      <path id="Path_29564" data-name="Path 29564" d="M68.129,295.321v4.615l.651-.651H61.043c-.358,0-.716-.011-1.075,0h-.015l.651.651v-4.615l-.651.651H67.69c.358,0,.716.007,1.075,0h.015a.651.651,0,1,0,0-1.3H61.043c-.358,0-.716-.007-1.075,0h-.015a.66.66,0,0,0-.651.651v4.615a.66.66,0,0,0,.651.651H67.69c.358,0,.716.007,1.075,0h.015a.66.66,0,0,0,.651-.651v-4.615a.651.651,0,1,0-1.3,0ZM57.264,309.345a3.12,3.12,0,0,1,.643-.373l-.156.065a3.152,3.152,0,0,1,.795-.219l-.174.024a3.225,3.225,0,0,1,.818,0l-.174-.024a3.152,3.152,0,0,1,.795.219l-.156-.065a3.121,3.121,0,0,1,.488.265c.148.1.284.211.439.3a3.571,3.571,0,0,0,1.148.441,3.784,3.784,0,0,0,2.518-.376,4.767,4.767,0,0,0,.484-.319,3.078,3.078,0,0,1,.56-.313l-.156.065a3.151,3.151,0,0,1,.795-.219l-.174.024a3.228,3.228,0,0,1,.818,0l-.174-.024a3.151,3.151,0,0,1,.795.219l-.156-.065a3.118,3.118,0,0,1,.488.265c.148.1.284.211.439.3a3.571,3.571,0,0,0,1.148.441,3.784,3.784,0,0,0,2.518-.376,4.773,4.773,0,0,0,.484-.319,3.075,3.075,0,0,1,.56-.313l-.156.065a3.151,3.151,0,0,1,.795-.219l-.174.024a3.222,3.222,0,0,1,.818,0l-.174-.024a3.151,3.151,0,0,1,.795.219l-.156-.065a3.221,3.221,0,0,1,.643.373.643.643,0,0,0,.5.065.651.651,0,0,0,.454-.8.76.76,0,0,0-.3-.389,3.727,3.727,0,0,0-4.084-.182c-.148.089-.28.2-.423.291a3.219,3.219,0,0,1-.488.265l.156-.065a3.151,3.151,0,0,1-.795.219l.174-.024a3.228,3.228,0,0,1-.818,0l.174.024a3.151,3.151,0,0,1-.795-.219l.156.065a3.119,3.119,0,0,1-.488-.265c-.148-.1-.284-.211-.439-.3a3.572,3.572,0,0,0-1.148-.441,3.784,3.784,0,0,0-2.518.376,4.772,4.772,0,0,0-.484.319,3.075,3.075,0,0,1-.56.313l.156-.065a3.151,3.151,0,0,1-.795.219l.174-.024a3.222,3.222,0,0,1-.818,0l.174.024a3.151,3.151,0,0,1-.795-.219l.156.065a5.124,5.124,0,0,1-.8-.484,3.7,3.7,0,0,0-3.1-.439,3.635,3.635,0,0,0-1.1.549.722.722,0,0,0-.3.389.651.651,0,0,0,.454.8.639.639,0,0,0,.51-.063Z" transform="translate(0 -267.786)" fill="#07f"/>
    </g>
  </g>
</svg>
