<svg xmlns="http://www.w3.org/2000/svg" width="56" height="55" viewBox="0 0 56 55">
  <g id="_11" data-name="11" transform="translate(0.447)">
    <ellipse id="Ellipse_7039" data-name="Ellipse 7039" cx="28" cy="27.5" rx="28" ry="27.5" transform="translate(-0.447)" fill="#e9eaeb"/>
    <path id="Path_29880" data-name="Path 29880" d="M24.165,36.166h-.833a1.25,1.25,0,0,0-1.25-1.25h-.833V34.5A1.25,1.25,0,0,0,20,33.25h-.833A1.25,1.25,0,0,0,17.916,32H17.5a1.25,1.25,0,0,0-1.25,1.25v2.917H8.75V33.25A1.25,1.25,0,0,0,7.5,32H7.083a1.25,1.25,0,0,0-1.25,1.25H5A1.25,1.25,0,0,0,3.75,34.5v.417H2.917a1.25,1.25,0,0,0-1.25,1.25H.833A.833.833,0,0,0,0,37v1.667a.833.833,0,0,0,.833.833h.833a1.25,1.25,0,0,0,1.25,1.25H3.75v.417A1.25,1.25,0,0,0,5,42.416h.833a1.25,1.25,0,0,0,1.25,1.25H7.5a1.25,1.25,0,0,0,1.25-1.25V39.5h7.5v2.917a1.25,1.25,0,0,0,1.25,1.25h.417a1.25,1.25,0,0,0,1.25-1.25H20a1.25,1.25,0,0,0,1.25-1.25V40.75h.833a1.25,1.25,0,0,0,1.25-1.25h.833A.833.833,0,0,0,25,38.666V37A.833.833,0,0,0,24.165,36.166ZM.833,38.666V37h.833v1.667Zm2.083,1.25A.417.417,0,0,1,2.5,39.5V36.166a.417.417,0,0,1,.417-.417H3.75v4.166ZM5,41.583a.417.417,0,0,1-.417-.417V34.5A.417.417,0,0,1,5,34.083h.833v7.5Zm2.917.833a.417.417,0,0,1-.417.417H7.083a.417.417,0,0,1-.417-.417V33.25a.417.417,0,0,1,.417-.417H7.5a.417.417,0,0,1,.417.417Zm.833-3.75V37h7.5v1.667Zm9.583,3.75a.417.417,0,0,1-.417.417H17.5a.417.417,0,0,1-.417-.417V33.25a.417.417,0,0,1,.417-.417h.417a.417.417,0,0,1,.417.417Zm2.083-1.25a.417.417,0,0,1-.417.417h-.833v-7.5H20a.417.417,0,0,1,.417.417ZM22.5,39.5a.417.417,0,0,1-.417.417h-.833V35.75h.833a.417.417,0,0,1,.417.417Zm1.667-.833h-.833V37h.833Z" transform="translate(15.553 -10.666)" fill="#2a313d"/>
  </g>
</svg>
