<svg xmlns="http://www.w3.org/2000/svg" width="56" height="55" viewBox="0 0 56 55">
  <g id="_13" data-name="13" transform="translate(0.447)">
    <ellipse id="Ellipse_7039" data-name="Ellipse 7039" cx="28" cy="27.5" rx="28" ry="27.5" transform="translate(-0.447)" fill="#f0efe7"/>
    <path id="Path_29881" data-name="Path 29881" d="M25.527,28.047H19.871a8.377,8.377,0,0,0,1.8-1.774,3.452,3.452,0,0,0,1.753.476c1.918,0,3.471-2.514,3.471-4.432S25.345,19.8,23.429,19.8h-.1v-.959a.575.575,0,0,0-.575-.575H7.239a.575.575,0,0,0-.575.575v2.3a8.532,8.532,0,0,0,3.5,6.894h-5.7a.575.575,0,0,0-.272,1.1,22.14,22.14,0,0,0,2.62,1.2c.341.13.7.259,1.078.384.15.05.3.1.458.146l.422.125.125.035.09.023.727.192a.959.959,0,0,0,.222.027h10.13a.959.959,0,0,0,.222-.027l.061-.015.531-.136.079-.035.27-.073.422-.125c.155-.048.309-.1.458-.146.384-.125.736-.253,1.078-.384a22.142,22.142,0,0,0,2.62-1.191.575.575,0,0,0-.276-1.089Zm-2.2-6.758v-.522a.85.85,0,0,1,.1,0c1.385,0,2.512.169,2.512,1.553s-1.128,3.473-2.512,3.473a2.493,2.493,0,0,1-1.225-.318,8.271,8.271,0,0,0,1.126-4.187ZM7.622,21.152V19.235H22.37v2.054a7.322,7.322,0,0,1-.911,3.548,7.506,7.506,0,0,1-.539.848,7.407,7.407,0,0,1-2.976,2.363H12.081a7.558,7.558,0,0,1-4.459-6.894ZM19.9,30.333h-9.8a22.52,22.52,0,0,1-3.981-1.327H23.879A22.6,22.6,0,0,1,19.9,30.333ZM10.982,17.288a.479.479,0,0,1-.332-.809c.641-.639.619-.945.6-1.026s-.084-.136-.207-.244a1.331,1.331,0,0,1-.481-.7c-.152-.618.232-1.289,1.126-2.035a.479.479,0,1,1,.614.735c-.861.721-.815,1.034-.807,1.066s.065.1.192.207a1.433,1.433,0,0,1,.5.708c.163.591-.113,1.231-.842,1.96A.478.478,0,0,1,10.982,17.288Zm7.019,0a.478.478,0,0,1-.339-.14.483.483,0,0,1,0-.679c.641-.639.619-.945.6-1.026s-.084-.136-.205-.244a1.342,1.342,0,0,1-.483-.7c-.146-.608.222-1.271,1.126-2.025a.479.479,0,1,1,.614.735c-.859.721-.815,1.034-.807,1.066a.629.629,0,0,0,.192.207,1.433,1.433,0,0,1,.5.708c.163.591-.113,1.231-.842,1.96A.478.478,0,0,1,18,17.288Zm-3.69,0a.479.479,0,0,1-.338-.809c.654-.654.959-1.212.859-1.573a.9.9,0,0,0-.336-.418,1.667,1.667,0,0,1-.6-.886c-.192-.767.3-1.607,1.479-2.593a.48.48,0,0,1,.616.736c-1.17.982-1.2,1.473-1.17,1.638.031.127.132.221.307.374a1.778,1.778,0,0,1,.625.884c.205.738-.157,1.559-1.107,2.507a.478.478,0,0,1-.332.14Z" transform="translate(11.693 6.103)" fill="#9d955e"/>
  </g>
</svg>
