<svg xmlns="http://www.w3.org/2000/svg" width="56" height="55" viewBox="0 0 56 55">
  <g id="_16" data-name="16" transform="translate(0.447)">
    <ellipse id="Ellipse_7039" data-name="Ellipse 7039" cx="28" cy="27.5" rx="28" ry="27.5" transform="translate(-0.447)" fill="#d9f9f6"/>
    <g id="Group_28238" data-name="Group 28238" transform="translate(17.553 17.174)">
      <rect id="Rectangle_17527" data-name="Rectangle 17527" width="20" height="20" transform="translate(0 0.826)" fill="none"/>
      <path id="Path_29584" data-name="Path 29584" d="M10.612,10.448h3.025a5.846,5.846,0,0,1,5.7,4.532c.232,1,.466,2.02.652,2.825a1.949,1.949,0,0,1-1.9,2.387H4.463a1.949,1.949,0,0,1-1.9-2.387c.186-.8.42-1.822.652-2.825a5.846,5.846,0,0,1,5.7-4.532h1.7Zm-.819,1.3h-.88a4.548,4.548,0,0,0-4.431,3.525L3.83,18.1a.65.65,0,0,0,.633.8H18.087a.65.65,0,0,0,.633-.8l-.652-2.825a4.548,4.548,0,0,0-4.431-3.525h-.88l1.1,4.39a.65.65,0,0,1-.27.7l-1.949,1.3a.65.65,0,0,1-.721,0l-1.949-1.3a.65.65,0,0,1-.27-.7l1.1-4.39Zm1.34,0-1.065,4.261,1.208.8,1.208-.8-1.065-4.261ZM11.275,2a3.9,3.9,0,1,0,3.9,3.9A3.9,3.9,0,0,0,11.275,2Zm0,1.3a2.6,2.6,0,1,1-2.6,2.6A2.6,2.6,0,0,1,11.275,3.3Z" transform="translate(-0.881 -0.666)" fill="#00d3c4" fill-rule="evenodd"/>
    </g>
  </g>
</svg>
