<svg xmlns="http://www.w3.org/2000/svg" width="468.917" height="278.486" viewBox="0 0 468.917 278.486">
  <g id="contact" transform="translate(-25 -624.01)">
    <path id="Path_31105" data-name="Path 31105" d="M2747.27,624.01l-9.348,26.925-10.194-2.952-10.068,6.957.237-10.915-13.667-5.153Z" transform="translate(-2253.353)" fill="#ebf0f3"/>
    <path id="Path_31106" data-name="Path 31106" d="M2818.33,624.01l-29.373,20.016-.237,10.915,4.263-9.229Z" transform="translate(-2324.413)" fill="#d4d6d6"/>
    <path id="Path_31107" data-name="Path 31107" d="M2584.322,828.166c.564-.372.9-.566.9-.569l-.385-.656s-.345.2-.935.59Zm-35.183,37.6c.17-.72.367-1.448.586-2.163l.728.222c-.215.7-.407,1.41-.572,2.116Zm25.85-4.02.251-.718a8.893,8.893,0,0,0,2.068.458l-.073.758A9.65,9.65,0,0,1,2574.989,861.745Zm4.436-.318a8.719,8.719,0,0,0,2.038-.575l.294.7a9.418,9.418,0,0,1-2.217.626Zm-28.974.054c.265-.7.555-1.4.861-2.07l.692.315c-.3.658-.583,1.338-.843,2.023Zm20.691-2.2.545-.531a9.269,9.269,0,0,0,1.647,1.342l-.412.641A10.131,10.131,0,0,1,2571.142,859.286Zm12.131.5a5.5,5.5,0,0,0,1.333-1.57l.665.374a6.272,6.272,0,0,1-1.517,1.787Zm-30.957-2.388c.318-.579.52-.892.537-.917q.353-.5.7-.978l.615.45c-.23.315-.461.637-.685.954,0,.006-.2.307-.5.858Zm16.471-2.031.725-.231a9.175,9.175,0,0,0,.875,1.935l-.651.393A10.073,10.073,0,0,1,2568.788,855.371Zm16.5.889a8.311,8.311,0,0,0,.108-1.348V854.8c0-.221-.013-.439-.032-.658l.758-.065c.021.237.032.475.035.712v.118a8.914,8.914,0,0,1-.117,1.474Zm-30.38-2.527c.464-.591.941-1.172,1.417-1.725l.577.5c-.468.545-.937,1.117-1.4,1.7Zm13.343-2.531c0-.111,0-.224,0-.335l.761.014c0,.1,0,.211,0,.319a18.424,18.424,0,0,0,.092,1.849l-.757.076C2568.279,852.484,2568.246,851.837,2568.246,851.2Zm15.792-1.065.653-.391a10.436,10.436,0,0,1,.959,2.084l-.722.24A9.794,9.794,0,0,0,2584.038,850.136Zm-26.226.21c.521-.553,1.054-1.086,1.58-1.583l.523.553c-.516.486-1.038,1.009-1.55,1.551Zm10.608-1.731a19.907,19.907,0,0,1,.428-2.216l.738.186a19.811,19.811,0,0,0-.412,2.132Zm14.15-.374c-.448-.456-.917-.892-1.4-1.294l.49-.583c.5.418.986.87,1.451,1.345.065.068.132.137.2.205l-.556.52C2582.693,848.369,2582.633,848.3,2582.571,848.242Zm-21.5-.96c.593-.488,1.2-.944,1.79-1.356l.434.626c-.577.4-1.162.842-1.739,1.318Zm16.471-2.672.32-.691a15.98,15.98,0,0,1,1.984,1.1l-.413.639A15.29,15.29,0,0,0,2577.543,844.609Zm-12.771.124a18.856,18.856,0,0,1,2.036-.978l.286.706a18.389,18.389,0,0,0-1.955.938Zm4.74-.486c.07-.2.145-.391.222-.586-.2.04-.392.083-.588.132l-.183-.739c.372-.092.747-.169,1.122-.229.1-.218.2-.436.3-.652l.687.327c-.033.07-.065.14-.1.208.079-.008.157-.014.237-.021l.059.758c-.216.017-.434.04-.653.068q-.208.5-.389.993Zm3.9-.78.075-.758a13.271,13.271,0,0,1,2.24.421l-.205.733A12.39,12.39,0,0,0,2573.415,843.467Zm-1.977-3.279c.371-.633.777-1.268,1.208-1.892l.625.434c-.42.607-.816,1.227-1.176,1.844Zm2.546-3.691c.456-.571.943-1.146,1.45-1.707l.564.51c-.5.55-.975,1.114-1.419,1.672Zm2.993-3.327c.523-.52,1.07-1.036,1.626-1.535l.509.567c-.547.491-1.084,1-1.6,1.508Zm3.327-2.988c.577-.471,1.173-.931,1.768-1.37l.453.612c-.585.432-1.17.885-1.739,1.348Zm-31.009,39.012c.045-.359.1-.715.153-1.063l-.752-.121c-.057.358-.11.722-.156,1.09Z" transform="translate(-2122.411 -170.673)" fill="#d4d6d6"/>
    <path id="Path_31108" data-name="Path 31108" d="M692.717,2228.316h0a6.274,6.274,0,0,0,8.8-1.13l2.844-3.681a3.678,3.678,0,0,0-.663-5.158l-4.109-3.174a3.677,3.677,0,0,0-5.158.663l-2.844,3.681A6.274,6.274,0,0,0,692.717,2228.316Z" transform="translate(-559.529 -1337.593)" fill="#5e9d9a"/>
    <path id="Path_31109" data-name="Path 31109" d="M620.15,1078.2l16.611,12.829a30.811,30.811,0,0,0,43.228-5.554c38.191-48.786,62.331-107.6,68.408-179.32a.167.167,0,0,0,.006-.056c.062-.765.124-1.529.186-2.3.019-.455.032-.9.032-1.349a30.822,30.822,0,0,0-29.489-30.764l-20.969-.908L695.5,932.359h0a11.594,11.594,0,0,1,11.1,11.783c-.583,32.192-9.935,61.015-32.549,84.752a11.572,11.572,0,0,1-15.439,1.136l-.779-.6Z" transform="translate(-500.548 -207.545)" fill="#5e9d9a"/>
    <path id="Path_31110" data-name="Path 31110" d="M604.823,1097.257a30.844,30.844,0,0,0,27.889-11.788c38.191-48.785,62.331-107.6,68.41-179.319a.34.34,0,0,0,0-.054c.062-.768.124-1.531.186-2.3.019-.453.03-.9.03-1.349a30.818,30.818,0,0,0-29.489-30.764l-20.969-.911-.011.3,14.036.609A30.818,30.818,0,0,1,694.4,902.445q0,.668-.032,1.35c-.062.771-.124,1.535-.186,2.3a.328.328,0,0,1,0,.054c-6.078,71.716-30.217,130.535-68.409,179.319A30.721,30.721,0,0,1,604.823,1097.257Zm.126-75.408,10.366,8a2.339,2.339,0,0,1,.421,3.281l-37.24,48.217a2.339,2.339,0,0,1-3.281.421l-10.365-8.005a2.339,2.339,0,0,1-.421-3.281l37.24-48.217A2.339,2.339,0,0,1,604.948,1021.849Z" transform="translate(-453.272 -207.537)" fill="#547c7c"/>
    <path id="Path_31111" data-name="Path 31111" d="M1426.99,1080.822q.141-1.137.186-2.3C1427.114,1079.292,1427.052,1080.057,1426.99,1080.822Z" transform="translate(-1179.137 -382.263)" fill="#204f7f"/>
    <path id="Path_31112" data-name="Path 31112" d="M1025.113,922.619l13.085.566a2.341,2.341,0,0,0,2.438-2.235l2.631-60.867a2.341,2.341,0,0,0-2.235-2.438l-13.085-.566a2.341,2.341,0,0,0-2.438,2.237l-2.631,60.867A2.338,2.338,0,0,0,1025.113,922.619Z" transform="translate(-839.259 -196.019)" fill="#547c7c"/>
    <g id="Group_28366" data-name="Group 28366" transform="translate(25 877.341)">
      <path id="Path_31113" data-name="Path 31113" d="M25,2241.343H79.825a12.565,12.565,0,0,1,6-23.6h3.29a12.578,12.578,0,0,1,6.082,23.581h15.465a29.825,29.825,0,0,0,25.487-14.171l1.316.819a31.363,31.363,0,0,1-26.8,14.9H89.871c-.25.014-.5.022-.753.022H25Zm75.133-11.038a11.028,11.028,0,0,0-11.016-11.016h-3.29a11.016,11.016,0,0,0,0,22.031h4A11.035,11.035,0,0,0,100.133,2230.305Z" transform="translate(-25 -2217.74)" fill="#5e9d9a"/>
    </g>
    <g id="Group_28367" data-name="Group 28367" transform="translate(243.263 697.807)">
      <path id="Path_31114" data-name="Path 31114" d="M2049.67,1364.177s5.708-8.312,11.437-8.132a.585.585,0,0,1,.553.691l0,.013a.584.584,0,0,1-.59.474,3.906,3.906,0,0,0-3.246,1.343.806.806,0,0,0,.091,1.067l1.378,1.291a1.113,1.113,0,0,1-.131,1.731l-5.2,3.576-1.658,1.226Z" transform="translate(-1946.101 -1313.478)" fill="#f7c19b"/>
      <rect id="Rectangle_17631" data-name="Rectangle 17631" width="7.512" height="9.946" transform="translate(58.57 188.104)" fill="#f7c19b"/>
      <path id="Path_31115" data-name="Path 31115" d="M1724.852,2317.182l1.8,5.192a2.259,2.259,0,0,1,.076,1.284h0a2.5,2.5,0,0,1-2.572,1.729l-12.953.117a9.723,9.723,0,0,1-3.338-.575h0a2.161,2.161,0,0,1-1.607-2.48h0a1.525,1.525,0,0,1,.814-.89l8.7-5.407a1.343,1.343,0,0,1,.752-.186l6.8.2A1.677,1.677,0,0,1,1724.852,2317.182Z" transform="translate(-1657.217 -2120.817)" fill="#37424c"/>
      <rect id="Rectangle_17632" data-name="Rectangle 17632" width="7.512" height="9.946" transform="translate(79.218 184.67) rotate(-52.663)" fill="#f7c19b"/>
      <path id="Path_31116" data-name="Path 31116" d="M1933.464,2241.026l5.217,1.726a2.264,2.264,0,0,1,1.067.72h0a2.5,2.5,0,0,1-.189,3.093l-7.783,10.356a9.721,9.721,0,0,1-2.486,2.3h0a2.163,2.163,0,0,1-2.947-.232h0a1.526,1.526,0,0,1-.211-1.187l1-10.2a1.355,1.355,0,0,1,.308-.709l4.292-5.283A1.677,1.677,0,0,1,1933.464,2241.026Z" transform="translate(-1842.168 -2057.737)" fill="#37424c"/>
      <path id="Path_31117" data-name="Path 31117" d="M1404.243,1110.727l5.155-.239,0-.021a.009.009,0,0,1,0-.013l-.006-.059a.245.245,0,0,1,0-.026l-.01-.071-.013-.084c0-.046-.017-.11-.024-.168-.281-1.378-2.036-6.406-2.775-10.121a9.406,9.406,0,0,1-.245-3.51c.757-3.065-1.076-3.36-1.076-3.36-.145-1.763-1.434-1.415-1.434-1.415a2.379,2.379,0,0,0-.329-1.287c0-.013,0-.013-.011-.018a.65.65,0,0,0-.812-.224s-.019-.022-.019.065c-.016-.285-.161-1.806-1.046-1.9a.366.366,0,0,0-.159.008.134.134,0,0,0-.046,0c-.184.048-.251.2-.25.423a.213.213,0,0,0,0,.054c.021.552.347,1.464.388,2.292.033.548.06,1.534.019,2.507-.063,1.367-.254,2.728-.755,2.856-.291.076-.5-.124-.693-.443-.361-.637-.636-1.717-1.226-1.961-.887-.381-.936-.149-.47,1.127.251.688.413,1.464.784,2.361a9.145,9.145,0,0,0,1.6,2.556c.178.2.343.407.5.607a8.9,8.9,0,0,1,2.152,5.985C1403.552,1109.7,1404.243,1110.727,1404.243,1110.727Z" transform="translate(-1398.109 -1088.271)" fill="#f7c19b"/>
      <path id="Path_31118" data-name="Path 31118" d="M1693.412,1199.372a7.605,7.605,0,0,1-3.472,4.2c-.143-.892-.4-1.5-.779-1.645-1.8-.674-3.759,1.087-5.368-.24s-3.995-.41-3.995-.41c.067,2.934-.639,1.679-.96,2.489s.348,2.874-.469,3.147-1.323-1.947-2.167-2.049-2.284.634-1.4,3.076,1.4,3.22,1.383,4.847c0,0-2.856-3.278-2.78-11.063,0,0-.811-2.17,2.828-3.678,0,0-1.742-.143-1.615-.639s1.917-.483,1.917-.483.008-.873,1.124.011a5.209,5.209,0,0,1,4.772-3.284c3.5.073,3.476-1.591,5.684-1.445s4.713,3.5,4.521,6.123a7.059,7.059,0,0,0,.038-2.914S1694.451,1195.467,1693.412,1199.372Z" transform="translate(-1629.578 -1175.674)" fill="#333"/>
      <path id="Path_31119" data-name="Path 31119" d="M1691.867,1250c-.143-.9-.409-1.5-.784-1.651-1.807-.677-3.751,1.1-5.36-.224-1.629-1.333-4-.412-4-.412.062,2.928-.629,1.666-.955,2.5-.331.782.35,2.869-.475,3.127-.812.285-1.311-1.942-2.17-2.052a2.7,2.7,0,0,0-2.319,3.658c.874,2.443,1.815,2.818,1.8,4.448-.024.8-.216,10.011,1.121,11.089,1.329,1.1,7.922,1.334,8.652-.232.744-1.539-.151-4.1.27-5.413.269-.9.056-2.437,1.663-2.914a3.3,3.3,0,0,0,2.2-2.481A30.675,30.675,0,0,0,1691.867,1250Z" transform="translate(-1631.502 -1222.111)" fill="#f7c19b"/>
      <path id="Path_31120" data-name="Path 31120" d="M1633.593,1760.457l.658-59.561.025-2.167-22.084-4.32-15.141,5.346-.051.507-2.825,32.017a13.126,13.126,0,0,0,3.459,10.1c6.689,7.221,13.7,14.3,21.095,21.235l2.027,26.175,10.453-.013.989-14.126v-.013q6.175,5.264,12.732,10.377l5.422-7.754Zm-20.462-26.353a2.193,2.193,0,0,1-.153-1.33l1.95-11.618.925,19.056Z" transform="translate(-1562.968 -1598.061)" fill="#333"/>
      <path id="Path_31121" data-name="Path 31121" d="M1484.946,1220.935l1.372,24.959.277,4.8.3,5.592a4.88,4.88,0,0,1-.933,3.167,4.81,4.81,0,0,1-2.257,1.685c-13.8,5.05-25.416,5-34.247-1.613a4.473,4.473,0,0,1-.747-.7,4.948,4.948,0,0,1-1.179-3.322l1.119-36.817-24.3-17.434a6.82,6.82,0,0,1-2.775-4.587l-3.763-27.126h6.32l5.677,22.972,13.888,8.236,17.126-1.5c3.661,4.25,4.864,4.413,10.1-.35,0,0,11.5-2.661,20.78,12.456l7.417,7.959,21.263-15.6,4.168,5.115-19.83,21.859a6.224,6.224,0,0,1-8.846.38C1491.375,1226.87,1485.158,1221.1,1484.946,1220.935Z" transform="translate(-1414.678 -1156.614)" fill="#f3ac04"/>
    </g>
    <g id="Group_28368" data-name="Group 28368" transform="translate(363.075 672.469)">
      <path id="Path_31122" data-name="Path 31122" d="M2215.677,972.255l-31.908,8.5-31.909-8.5,26.921-24.036a7.125,7.125,0,0,1,9.976,0Z" transform="translate(-2151.86 -943.431)" fill="#fad62d"/>
      <rect id="Rectangle_17633" data-name="Rectangle 17633" width="63.817" height="40.875" transform="translate(0 28.825)" fill="#eec927"/>
      <path id="Path_31123" data-name="Path 31123" d="M2234.353,941.78v34.7H2179.24V931.337a2.468,2.468,0,0,1,2.469-2.467h39.75Z" transform="translate(-2174.888 -928.87)" fill="#ecf0f1"/>
      <path id="Path_31124" data-name="Path 31124" d="M2444.84,937.643V928.87l12.895,12.912h-8.757A4.14,4.14,0,0,1,2444.84,937.643Z" transform="translate(-2398.269 -928.87)" fill="#e1e3e8"/>
      <path id="Path_31125" data-name="Path 31125" d="M2319.032,977.572a7.727,7.727,0,0,1-3.775.849,6.313,6.313,0,0,1-6.427-6.617c0-4.368,3.033-8.143,7.741-8.143a5.89,5.89,0,0,1,6.171,6.129c0,3.181-1.782,5.047-3.775,5.047a1.568,1.568,0,0,1-1.569-1.866h-.084a3.333,3.333,0,0,1-2.99,1.866,2.4,2.4,0,0,1-2.291-2.672,5.008,5.008,0,0,1,5.026-5.026,5.6,5.6,0,0,1,2.27.445l-.722,3.839c-.318,1.612-.064,2.354.636,2.375,1.081.021,2.291-1.421,2.291-3.882,0-3.076-1.845-5.281-5.133-5.281-3.457,0-6.363,2.736-6.363,7.042,0,3.542,2.311,5.726,5.45,5.726a6.617,6.617,0,0,0,3.2-.742Zm-1.167-9.161a3.45,3.45,0,0,0-4.432,3.67c0,.933.467,1.612,1.4,1.612,1.23,0,2.354-1.569,2.588-2.885Z" transform="translate(-2283.879 -958.13)" fill="#37424c"/>
      <rect id="Rectangle_17634" data-name="Rectangle 17634" width="47.071" height="1.289" transform="translate(8.374 23.804)" fill="#e1e3e8"/>
      <rect id="Rectangle_17635" data-name="Rectangle 17635" width="47.071" height="1.289" transform="translate(8.374 30.799)" fill="#e1e3e8"/>
      <rect id="Rectangle_17636" data-name="Rectangle 17636" width="47.071" height="1.289" transform="translate(8.374 37.795)" fill="#e1e3e8"/>
      <path id="Path_31126" data-name="Path 31126" d="M2384.509,1110.21v40.875l-31.909-20.437Z" transform="translate(-2320.692 -1081.385)" fill="#ffc42e"/>
      <path id="Path_31127" data-name="Path 31127" d="M2183.769,1130.648l-31.909,20.437V1110.21Z" transform="translate(-2151.86 -1081.385)" fill="#ffc42e"/>
      <path id="Path_31128" data-name="Path 31128" d="M2215.677,1234.9H2151.86l24.713-22.271a10.749,10.749,0,0,1,14.39,0Z" transform="translate(-2151.86 -1165.199)" fill="#f7b612"/>
    </g>
  </g>
</svg>
