<svg xmlns="http://www.w3.org/2000/svg" width="217.718" height="100.138" viewBox="0 0 217.718 100.138">
    <g id="Group_28178" data-name="Group 28178" transform="translate(-898.141 -200)">
      <path id="Path_1" data-name="Path 1" d="M200.655,211.122a19.3,19.3,0,0,0-3.7-2.276,37.257,37.257,0,0,0-6.158-2.218c-2.98-.828-6.01-1.45-9.033-2.092-2.723-.578-5.445-1.157-8.14-1.856a54.133,54.133,0,0,1-6.566-2.1,23.44,23.44,0,0,1-4.669-2.44,12.324,12.324,0,0,1-2.711-2.519,8.976,8.976,0,0,1-1.875-6.188,15.089,15.089,0,0,1,.806-3.97,3.9,3.9,0,0,0,.142-.441.374.374,0,0,0-.134-.414.459.459,0,0,0-.378.227,7.773,7.773,0,0,0-.477.658,14.057,14.057,0,0,0-1.884,4.839,11.728,11.728,0,0,0-.063,4.384,11.345,11.345,0,0,0,2.2,4.932,15.784,15.784,0,0,0,3.057,3,25.075,25.075,0,0,0,4.587,2.706,43.81,43.81,0,0,0,7.15,2.536,68.9,68.9,0,0,0,7.375,1.541,2.4,2.4,0,0,1,.34.071c.1.028.23-.03.3.137a5.879,5.879,0,0,1-1.119.458,48.86,48.86,0,0,1-4.754,1.286q-2.912.67-5.864,1.121c-1.2.186-2.413.332-3.624.483a1.572,1.572,0,0,1-.685,0c-.065-.082-.126-.156-.184-.233a32.144,32.144,0,0,0-4.9-5.1,25.417,25.417,0,0,0-6.517-3.975c-.049-.019-.1-.028-.176-.047a2.248,2.248,0,0,0-.151.17,24.983,24.983,0,0,0-2.221,4.068,12.371,12.371,0,0,0-.834,2.832,6.551,6.551,0,0,0,2.015,5.957,7.4,7.4,0,0,0,2.879,1.692,14.178,14.178,0,0,0,5.327.636,32.392,32.392,0,0,0,3.745-.389,2.725,2.725,0,0,1,.494-.005c1.212,1.681,2.654,4.82,2.7,5.856a.267.267,0,0,1-.1.028,13.149,13.149,0,0,0-3.169-.31c-1.782.03-3.561.069-5.341.148-2.358.1-4.715.211-7.076.2a40.985,40.985,0,0,1-5.557-.351,17.739,17.739,0,0,1-3.216-.74,8.908,8.908,0,0,1-2.667-1.377,5.342,5.342,0,0,1-2.013-3.166,7.053,7.053,0,0,1-.115-2.251,20.568,20.568,0,0,1,.71-3.345,62.446,62.446,0,0,1,2.657-7.3c1.722-4.06,3.663-8.019,5.7-11.934,4.058-7.816,7.548-13.963,12.11-21.492,1.686-2.777,1.22-2.021,3.016-4.732a10.1,10.1,0,0,0,.669-1.217,1.79,1.79,0,0,0,.14-.614.25.25,0,0,0-.342-.272,2,2,0,0,0-.527.228,3.6,3.6,0,0,0-1.025,1.012c-.131.189-.255.387-.384.578-5.129,7.72-6.92,10.6-11.463,18.69-2.731,4.856-5.327,9.785-7.66,14.846a94.063,94.063,0,0,0-4.055,10.056,34.876,34.876,0,0,0-1.744,7.556,13.31,13.31,0,0,0,.176,4.1,7.438,7.438,0,0,0,3.838,5.19,10.806,10.806,0,0,0,.99.477,16.342,16.342,0,0,0,4.721,1.13,39.665,39.665,0,0,0,5.1.2c2.552-.052,5.1-.2,7.652-.365a3.158,3.158,0,0,1,.367.027c.008.216.022.409.03.6.046,1.393.118,2.785.266,4.17a39.865,39.865,0,0,0,1.226,6.492,26.818,26.818,0,0,0,3.583,7.948c.055.083.093.17.154.282-.186.151-.365.293-.546.434-2.254,1.708-4.576,3.312-6.942,4.858-4.176,2.733-8.472,5.272-12.8,7.756q-2.714,1.559-5.434,3.12a2.454,2.454,0,0,0-.474.326.287.287,0,0,0-.052.258.294.294,0,0,0,.217.151,2.277,2.277,0,0,0,.625-.085c.973-.315,1.952-.625,2.914-.976a26.544,26.544,0,0,0,2.632-1.061c4.214-2.08,8.384-4.241,12.488-6.53,3.164-1.76,6.281-3.589,9.277-5.62a2.041,2.041,0,0,1,.206-.113c.1.085.186.159.272.239a17.95,17.95,0,0,0,2.2,1.8,14.663,14.663,0,0,0,7.125,2.561,15.309,15.309,0,0,0,5.289-.5,19.688,19.688,0,0,0,6.292-3.021,27.794,27.794,0,0,0,6.122-6.062,42.376,42.376,0,0,0,5.722-10.649,2.425,2.425,0,0,0,.121-.444,17.077,17.077,0,0,0,.233-3.468,13.827,13.827,0,0,0-1.47-5.8,15.97,15.97,0,0,0-4.134-5.108,26.764,26.764,0,0,0-6.476-3.923c-.1-.044-.214-.069-.337-.107a3.469,3.469,0,0,0-.275.321,24.515,24.515,0,0,0-2.292,4.225,11.261,11.261,0,0,0-.874,3.474,5.672,5.672,0,0,0,1.634,4.548,9.7,9.7,0,0,0,2.816,1.914,27.5,27.5,0,0,0,3.41,1.3c1.286.42,2.574.828,3.852,1.275a16.846,16.846,0,0,1,1.626.754,1.374,1.374,0,0,1,.285.236,1.42,1.42,0,0,1-.049.146,35.115,35.115,0,0,1-7.189,10.119,23.335,23.335,0,0,1-6.983,4.721,16.458,16.458,0,0,1-8.493,1.335,13.85,13.85,0,0,1-5.354-1.777,2.578,2.578,0,0,1-.244-.181,36.8,36.8,0,0,0,3.046-2.75,36.133,36.133,0,0,0,2.517-3.2c.238.047.408.079.576.11.765.118,1.527.239,2.289.342.883.123,1.763.261,2.646.34a26.554,26.554,0,0,0,3.523.033,20.6,20.6,0,0,0,2.7-.375,1.771,1.771,0,0,0,1.239-.875,7.143,7.143,0,0,0,.45-.874,8.408,8.408,0,0,0,.5-1.963c.077-.515.14-1.036.206-1.551a7.229,7.229,0,0,0-.368-3.372,7.894,7.894,0,0,0-2.955-3.912,9.06,9.06,0,0,0-3.367-1.491,12.782,12.782,0,0,1-5.812-2.865c-.335-.288-.677-.57-1.006-.866a.848.848,0,0,0-.754-.192,4.906,4.906,0,0,0-1.725.652,8.818,8.818,0,0,0-2.709,2.665,13.007,13.007,0,0,0-1.338,2.632,13.7,13.7,0,0,0-1.009,4.9,9.641,9.641,0,0,0,.4,3.027,2.781,2.781,0,0,0,.6,1.042,6.614,6.614,0,0,0,2.1,1.519c.148.069.3.151.45.23a37.014,37.014,0,0,1-4.968,4.595,2.528,2.528,0,0,1-.288-.26c-.453-.532-.921-1.05-1.332-1.609a20.017,20.017,0,0,1-2.942-6.018,27.959,27.959,0,0,1-1.063-5.28,35.205,35.205,0,0,1-.217-4.055c0-.189.014-.378.022-.57a1.871,1.871,0,0,1,.718-.1c1.124-.016,2.242-.044,3.364-.028.834.011,1.664.083,2.492.132a2.428,2.428,0,0,1,.4.071.684.684,0,0,1,.578.639c.014.14-.028.313.154.414a1.267,1.267,0,0,0,.315-.54,13.233,13.233,0,0,0,1.006-4.913,16.541,16.541,0,0,0-1.121-6.476c-.077-.214-.154-.431-.236-.672.192-.05.356-.1.524-.14,1.678-.37,3.358-.735,5.039-1.11a118.714,118.714,0,0,1,11.677-2.2c1.193-.14,2.385-.261,3.583-.293a29.219,29.219,0,0,1,3.827.093,16.814,16.814,0,0,1,3.962.844,9.869,9.869,0,0,1,6.229,6.213,16.359,16.359,0,0,1,.888,4.422,31.253,31.253,0,0,1-.3,6.772,6.244,6.244,0,0,0-.033,2.191.936.936,0,0,0,.31.688c.08-.077.192-.14.236-.233a5.1,5.1,0,0,0,.275-.7c.1-.312.173-.636.263-.949a43.012,43.012,0,0,0,1.631-8.417,21.738,21.738,0,0,0-.282-6.067,13.169,13.169,0,0,0-4.8-7.918m-41.25,2.193a24.353,24.353,0,0,1-4.258-.417,5.44,5.44,0,0,1-2.528-1.078,4.327,4.327,0,0,1-.576-.567,1.441,1.441,0,0,1-.088-1.823c.112-.176.269-.326.395-.5a.559.559,0,0,1,.715-.192,10.3,10.3,0,0,1,1.113.488,24.141,24.141,0,0,1,3.567,2.361c.546.428,1.069.888,1.6,1.338.1.082.178.186.329.342a2.558,2.558,0,0,1-.272.047m35,15.235c-1.743-.628-3.493-1.242-5.225-1.894a14.462,14.462,0,0,1-1.834-.855,5.55,5.55,0,0,1-1.088-.76,1.366,1.366,0,0,1-.123-2.21c.05-.06.107-.112.156-.17a.351.351,0,0,1,.419-.1c.307.123.614.244.9.392a19.7,19.7,0,0,1,2.566,1.576,27.137,27.137,0,0,1,2.977,2.4,8.748,8.748,0,0,1,1.385,1.6.953.953,0,0,1-.137.03m-17.17,9.179c.131-.4.269-.806.4-1.206a7.809,7.809,0,0,0,.411-2.621.816.816,0,0,1,.03-.162c.143-.112.26-.019.381.025,1.231.447,2.459.91,3.7,1.34a17.319,17.319,0,0,1,1.936.762,5.218,5.218,0,0,1,1.653,1.146,3.352,3.352,0,0,1,.469.658.5.5,0,0,1-.187.748,2.6,2.6,0,0,1-.674.329,8.761,8.761,0,0,1-1.8.332,18.2,18.2,0,0,1-2.084.044,22.41,22.41,0,0,1-3.394-.332,2.887,2.887,0,0,1-1.058-.345c.079-.247.148-.483.225-.718m-7.551-1.171a.91.91,0,0,1-.452-.987,4.414,4.414,0,0,1,.406-1.327,8.116,8.116,0,0,1,1.823-2.448,7.628,7.628,0,0,1,1.4-1.083,1.327,1.327,0,0,1,.713.285,7.021,7.021,0,0,1,2.566,2.922,1.054,1.054,0,0,1-.022,1c-.526,1.009-1.061,2.015-1.59,3.021a3.8,3.8,0,0,1-1.1-.077,9.072,9.072,0,0,1-2.621-.71,10.392,10.392,0,0,1-1.121-.595" transform="translate(762.715 34.285)" fill="#5e9d9a"/>
      <path id="Path_2" data-name="Path 2" d="M156.218,250.263c-.318.576-.628,1.154-.921,1.741a19.62,19.62,0,0,0-.927,1.812c1.568.778,3.1,1.538,4.663,2.314.557-.916,2.6-5.07,2.7-5.388-.431-.31-4.038-2.095-4.521-2.242-.329.589-.669,1.173-.992,1.763" transform="translate(751.674 -13.964)" fill="#5e9d9a"/>
      <rect id="Rectangle_1" data-name="Rectangle 1" width="1.587" height="48.302" transform="translate(978.541 231.789)" fill="#5e9d9a"/>
      <g id="Group_27960" data-name="Group 27960" transform="translate(988.639 239.418)">
        <path id="Path_15" data-name="Path 15" d="M366.693,275.028v-2.394h4.355v2.394Zm3.942-2.394h2a4.7,4.7,0,0,1,5.325-5.469h1.094a4.739,4.739,0,0,1,1.424-.97,7.453,7.453,0,0,1,2.539-.5,11.3,11.3,0,0,1,3.88.681v8.647H370.635Zm6.687-3.282q-1.857.392-1.858,3.282H378l-.144-1.878a6.977,6.977,0,0,1,.144-1.486l-.681.082Zm3.219,3.282h3.488v-4.561h-.392a2.759,2.759,0,0,0-2.868,1.61,3.925,3.925,0,0,0-.289,1.321v.475Zm17.893,2.394a4.864,4.864,0,0,1-1.837,4.045,4.663,4.663,0,0,1-2.167.434h-1.424v-2.415l.7.021a1.815,1.815,0,0,0,2.064-2.043v-.041h-1.713a4.6,4.6,0,0,1-3.673-1.383,4.474,4.474,0,0,1-1.011-1.837,6.07,6.07,0,0,1-.144-1.445,8.828,8.828,0,0,1,.1-1.321q.64-3.364,4.726-3.364,3.859,0,4.313,3.612.041.372.062,1.135Zm-6.377-3.942q0,1.548,1.816,1.548h1.816v-2.889q0-1.691-1.816-1.692t-1.816,1.692Zm11.351,1.548h1.609v2.394h-4.561v-14.24h2.951Zm12.444,0h2.373v2.394h-13.6v-2.394h2.209l-.145-1.919q0-3.364,2.559-4.561a7.224,7.224,0,0,1,2.745-.5,11.786,11.786,0,0,1,3.859.66Zm-6.459-1.342a5.4,5.4,0,0,0,.144,1.342h3.385v-4.623q-3.529,0-3.529,2.889Zm3.488-9.864v.887a1.434,1.434,0,0,1-1.073,1.424,1.3,1.3,0,0,1-.413.062,1.181,1.181,0,0,1-.413-.062,1.452,1.452,0,0,1-1.053-1.424v-.887l1.465-.826Zm4.726,11.206h10.917a2.533,2.533,0,0,0,.268-1.362,3.257,3.257,0,0,0-2.249-2.807,7.655,7.655,0,0,0-2.579-.392,14.99,14.99,0,0,0-5.077.743l.351-2.456a19.906,19.906,0,0,1,4.582-.681q5.654,0,7.161,3.426a6.946,6.946,0,0,1,.557,2.208,10.614,10.614,0,0,1,0,1.321,4.338,4.338,0,0,1-.954,2.394H417.606Zm31.552,0v2.394h-6.666q-3.364,0-4.334-2.27a5.532,5.532,0,0,1-.207-1.775v-.516q0-3.343,2.642-4.458a6.088,6.088,0,0,1,1.94-.33h2.415v-.64H448v7.595Zm-5.675-11.206v.887a1.433,1.433,0,0,1-1.073,1.424,1.3,1.3,0,0,1-.413.062,1.185,1.185,0,0,1-.413-.062,1.452,1.452,0,0,1-1.052-1.424v-.887L442,260.6Zm-.7,6.645q-1.879.083-1.878,2.436v.392q0,1.733,1.548,1.733h2.5v-4.561Zm4.5-6.645v.887a1.433,1.433,0,0,1-1.073,1.424,1.3,1.3,0,0,1-.413.062,1.182,1.182,0,0,1-.413-.062,1.452,1.452,0,0,1-1.053-1.424v-.887l1.465-.826Zm1.424,11.206h10.917a2.534,2.534,0,0,0,.268-1.362,3.258,3.258,0,0,0-2.249-2.807,7.654,7.654,0,0,0-2.579-.392,14.99,14.99,0,0,0-5.077.743l.351-2.456a19.906,19.906,0,0,1,4.582-.681q5.654,0,7.161,3.426a6.947,6.947,0,0,1,.557,2.208,9.5,9.5,0,0,1-.083,1.321h1.672v2.394H448.7Zm21.133,0h3.405v2.394h-9.473v-2.394h3.1V265.68h2.972Zm-.062-11.206v.887a1.433,1.433,0,0,1-1.073,1.424,1.3,1.3,0,0,1-.413.062,1.186,1.186,0,0,1-.413-.062,1.452,1.452,0,0,1-1.052-1.424v-.887l1.465-.826ZM486,269.106a6.934,6.934,0,0,1,.557,2.208,10.338,10.338,0,0,1-.66,3.715h-13.27v-2.394H483.54a2.534,2.534,0,0,0,.268-1.362,3.258,3.258,0,0,0-2.249-2.807,7.655,7.655,0,0,0-2.58-.392,14.989,14.989,0,0,0-5.077.743l.351-2.456a19.905,19.905,0,0,1,4.582-.681q5.654,0,7.161,3.426Zm-4.767,8.028v.887a1.434,1.434,0,0,1-1.073,1.424,1.3,1.3,0,0,1-.412.062,1.188,1.188,0,0,1-.413-.062,1.454,1.454,0,0,1-1.052-1.424v-.887l1.465-.826Zm10.876-2.105h-2.972v-14.24H492.1Z" transform="translate(-364.884 -260.603)" fill="#5e9d9a"/>
        <path id="Path_29650" data-name="Path 29650" d="M366.117,318.327h-3.439v-3.74h-2.088v8.538h2.088V319.06h3.439v4.065h2.08v-8.538h-2.08Z" transform="translate(-360.589 -289.998)" fill="#5e9d9a"/>
        <path id="Path_29651" data-name="Path 29651" d="M389.949,314.028l-4.171,8.728H387.2l1.125-2.334h3.315l1.066,2.334h2.146l-4-8.728Zm-1.235,5.6,1.311-2.759,1.267,2.759Z" transform="translate(-377.398 -289.405)" fill="#5e9d9a"/>
        <path id="Path_29652" data-name="Path 29652" d="M417.354,315.305h4.035v-.72h-6.127v8.538h2.092v-4.262h3.556v-.733h-3.556Z" transform="translate(-396.406 -289.996)" fill="#5e9d9a"/>
        <path id="Path_29653" data-name="Path 29653" d="M436.394,314.028l-4.171,8.728h1.425l1.125-2.334h3.315l1.068,2.334H441.3l-4-8.728Zm-1.235,5.6,1.311-2.759,1.267,2.759Z" transform="translate(-407.082 -289.405)" fill="#5e9d9a"/>
        <path id="Path_29654" data-name="Path 29654" d="M466.872,314.4l-2.112,5.483-2.2-5.582-2.179,5.617-2.175-5.518h-2.1l3.423,8.671h.952L462.2,318.6l1.759,4.464h.943l3.359-8.671Z" transform="translate(-420.491 -289.847)" fill="#5e9d9a"/>
        <path id="Path_29655" data-name="Path 29655" d="M493.126,314.028l-4.171,8.728h1.425l1.125-2.334h3.317l1.064,2.334h2.146l-4-8.728Zm-1.235,5.6,1.311-2.759,1.267,2.759Z" transform="translate(-440.766 -289.405)" fill="#5e9d9a"/>
        <path id="Path_29656" data-name="Path 29656" d="M523.975,318.327h-3.439v-3.74H518.45v8.538h2.086V319.06h3.439v4.065h2.08v-8.538h-2.08Z" transform="translate(-459.787 -289.998)" fill="#5e9d9a"/>
        <path id="Path_29657" data-name="Path 29657" d="M557.935,315.187a1.344,1.344,0,0,1,.455-.273,2.3,2.3,0,0,1,1.434.019,1.644,1.644,0,0,1,.538.333,1.94,1.94,0,0,1,.377.486,5.344,5.344,0,0,1,.264.582h1.32a3.823,3.823,0,0,0-.422-.908,3.034,3.034,0,0,0-.67-.73,3.184,3.184,0,0,0-.924-.488,3.673,3.673,0,0,0-1.169-.181,5.031,5.031,0,0,0-1.391.181,3.145,3.145,0,0,0-1.038.5,2.217,2.217,0,0,0-.645.755,2.027,2.027,0,0,0-.222.943,1.689,1.689,0,0,0,.2.822,2.527,2.527,0,0,0,.515.652,3.959,3.959,0,0,0,.729.517c.273.153.553.3.836.442s.569.282.842.422a5.011,5.011,0,0,1,.727.457,2.306,2.306,0,0,1,.518.539,1.2,1.2,0,0,1,.193.677.974.974,0,0,1-.123.5,1.021,1.021,0,0,1-.33.336,1.524,1.524,0,0,1-.47.184,2.672,2.672,0,0,1-.527.057,1.914,1.914,0,0,1-.708-.121,1.556,1.556,0,0,1-.523-.324,1.857,1.857,0,0,1-.372-.482,2.71,2.71,0,0,1-.225-.591h-1.445a3.191,3.191,0,0,0,.324.959,2.467,2.467,0,0,0,.641.755,2.921,2.921,0,0,0,.981.5,4.506,4.506,0,0,0,1.341.18,5,5,0,0,0,1.447-.19,3.174,3.174,0,0,0,1.052-.523,2.147,2.147,0,0,0,.637-.778,2.207,2.207,0,0,0,.216-.972,1.551,1.551,0,0,0-.2-.8,2.454,2.454,0,0,0-.53-.641,4.7,4.7,0,0,0-.755-.534c-.284-.162-.573-.317-.868-.464s-.58-.3-.863-.438a5.6,5.6,0,0,1-.753-.457,2.276,2.276,0,0,1-.534-.515,1.033,1.033,0,0,1-.2-.622,1.152,1.152,0,0,1,.079-.4,1.027,1.027,0,0,1,.251-.372" transform="translate(-480.25 -289.447)" fill="#5e9d9a"/>
        <path id="Path_29658" data-name="Path 29658" d="M586.546,320.068a2.778,2.778,0,0,1-.153.934,2.312,2.312,0,0,1-.438.762,2.053,2.053,0,0,1-.689.517,2.353,2.353,0,0,1-1.832,0,2.091,2.091,0,0,1-.689-.517,2.316,2.316,0,0,1-.438-.762,2.889,2.889,0,0,1-.153-.934v-5.483h-2.1v5.468a3.221,3.221,0,0,0,.249,1.263,2.863,2.863,0,0,0,.736,1.039,3.485,3.485,0,0,0,1.2.7,4.932,4.932,0,0,0,1.664.257,5.546,5.546,0,0,0,1.8-.257,3.389,3.389,0,0,0,1.229-.7,2.73,2.73,0,0,0,.708-1.035,3.486,3.486,0,0,0,.222-1.251v-5.483h-1.317Z" transform="translate(-495.205 -290.208)" fill="#5e9d9a"/>
        <rect id="Rectangle_17544" data-name="Rectangle 17544" width="2.096" height="8.538" transform="translate(95.329 24.589)" fill="#5e9d9a"/>
        <path id="Path_29659" data-name="Path 29659" d="M619.85,315.305h2.959v7.818H624.9v-7.818h2.958v-.72h-8Z" transform="translate(-519.285 -289.996)" fill="#5e9d9a"/>
        <path id="Path_29660" data-name="Path 29660" d="M647.515,323.123h6.372v-.873H649.6v-3.387h3.56v-.735H649.6V315.3h4.287v-.72h-6.372Z" transform="translate(-536.474 -289.995)" fill="#5e9d9a"/>
        <path id="Path_29661" data-name="Path 29661" d="M672.343,315.187a1.341,1.341,0,0,1,.455-.273,2.3,2.3,0,0,1,1.434.019,1.6,1.6,0,0,1,.538.333,1.936,1.936,0,0,1,.377.486,5.368,5.368,0,0,1,.264.582h1.32a3.718,3.718,0,0,0-.422-.908,3.036,3.036,0,0,0-.67-.73,3.185,3.185,0,0,0-.923-.488,3.672,3.672,0,0,0-1.169-.181,5.031,5.031,0,0,0-1.391.181,3.146,3.146,0,0,0-1.038.5,2.218,2.218,0,0,0-.645.755,2.029,2.029,0,0,0-.221.943,1.685,1.685,0,0,0,.2.822,2.6,2.6,0,0,0,.514.652,4.057,4.057,0,0,0,.729.517c.273.153.553.3.836.442s.569.282.842.422a5.012,5.012,0,0,1,.727.457,2.31,2.31,0,0,1,.518.539,1.205,1.205,0,0,1,.2.677.965.965,0,0,1-.128.5,1.008,1.008,0,0,1-.329.336,1.5,1.5,0,0,1-.47.184,2.672,2.672,0,0,1-.527.057,1.913,1.913,0,0,1-.708-.121,1.554,1.554,0,0,1-.523-.324,1.854,1.854,0,0,1-.372-.482,2.707,2.707,0,0,1-.226-.591h-1.445a3.12,3.12,0,0,0,.327.959,2.4,2.4,0,0,0,.641.755,2.886,2.886,0,0,0,.978.5,4.507,4.507,0,0,0,1.341.18,5,5,0,0,0,1.447-.19,3.173,3.173,0,0,0,1.052-.523,2.15,2.15,0,0,0,.638-.778,2.207,2.207,0,0,0,.216-.972,1.59,1.59,0,0,0-.2-.8,2.555,2.555,0,0,0-.534-.641,4.7,4.7,0,0,0-.755-.534c-.284-.162-.573-.317-.868-.464s-.577-.3-.86-.438a5.643,5.643,0,0,1-.755-.457,2.279,2.279,0,0,1-.534-.515,1.032,1.032,0,0,1-.2-.622,1.151,1.151,0,0,1,.079-.4,1.027,1.027,0,0,1,.252-.372" transform="translate(-550.66 -289.447)" fill="#5e9d9a"/>
      </g>
    </g>
  </svg>
  