<svg xmlns="http://www.w3.org/2000/svg" width="34.433" height="19.551" viewBox="0 0 34.433 19.551">
  <g id="_01" data-name="01" transform="translate(0 -0.5)">
    <path id="Path_29679" data-name="Path 29679" d="M1.167,20.865a.7.7,0,0,1,.7-.7H19.14a.7.7,0,0,1,.7.7v3.274a.7.7,0,0,1-.7.7H1.87a.7.7,0,0,1-.7-.7ZM0,20.865v3.274A1.865,1.865,0,0,0,1.87,26H19.14a1.865,1.865,0,0,0,1.87-1.865V20.865A1.865,1.865,0,0,0,19.14,19H1.87A1.865,1.865,0,0,0,0,20.865Z" transform="translate(0 -7.703)" fill-rule="evenodd"/>
    <rect id="Rectangle_17554" data-name="Rectangle 17554" width="2.334" height="1.167" rx="0.584" transform="translate(29.764 14.215)"/>
    <path id="Path_29680" data-name="Path 29680" d="M50.338,17.42v5.836H42.167V17.42Zm-8.754-1.167a.584.584,0,0,0-.584.584v7a.584.584,0,0,0,.584.584h9.338a.584.584,0,0,0,.584-.584v-7a.584.584,0,0,0-.584-.584Zm5.252-1.167v-3.5a.584.584,0,1,0-1.167,0v3.5a.584.584,0,1,0,1.167,0Z" transform="translate(-17.072 -4.372)" fill-rule="evenodd"/>
    <path id="Path_29681" data-name="Path 29681" d="M32.289,1.667l.943,4.669H27.64l.941-4.669Zm-4.766-.7L26.356,6.805a.584.584,0,0,0,.573.7h7a.584.584,0,0,0,.572-.7L33.336.969A.584.584,0,0,0,32.764.5H28.1a.584.584,0,0,0-.572.469ZM4.167,11.3V8.609A1.983,1.983,0,0,1,6.155,6.628h11.2a1.987,1.987,0,0,1,1.988,1.981V11.3a.584.584,0,1,0,1.167,0V8.609a3.155,3.155,0,0,0-3.155-3.149H6.155A3.15,3.15,0,0,0,3,8.609V11.3a.584.584,0,1,0,1.167,0Zm1.167,8.171V17.717a.584.584,0,0,0-1.167,0v1.751a.584.584,0,1,0,1.167,0Zm14.007,0V17.717a.584.584,0,0,0-1.167,0v1.751a.584.584,0,1,0,1.167,0Z" transform="translate(-1.249)" fill-rule="evenodd"/>
    <rect id="Rectangle_17555" data-name="Rectangle 17555" width="4.669" height="1.167" rx="0.584" transform="translate(11.672 8.962)"/>
    <rect id="Rectangle_17556" data-name="Rectangle 17556" width="4.669" height="1.167" rx="0.584" transform="translate(4.669 8.962)"/>
  </g>
</svg>
