<svg id="_02" data-name="02" xmlns="http://www.w3.org/2000/svg" width="31.72" height="19.141" viewBox="0 0 31.72 19.141">
  <path id="Path_29675" data-name="Path 29675" d="M20.594,21.094v1.367a1.369,1.369,0,0,1-1.364,1.367H4.458a1.367,1.367,0,0,1-1.364-1.367V21.094ZM2.547,20A.547.547,0,0,0,2,20.547v1.914a2.461,2.461,0,0,0,2.458,2.461H19.23a2.462,2.462,0,0,0,2.458-2.461V20.547A.547.547,0,0,0,21.141,20Z" transform="translate(-0.906 -9.062)" fill-rule="evenodd"/>
  <path id="Path_29676" data-name="Path 29676" d="M5.828,22.041V20.4a.547.547,0,1,0-1.094,0v1.641a.547.547,0,0,0,1.094,0Zm13.125,0V20.4a.547.547,0,1,0-1.094,0v1.641a.547.547,0,0,0,1.094,0Zm-14.2-9.426,4.938-.29a1.491,1.491,0,0,1,1.6,1.513v2.188h-8.2V14.384A1.8,1.8,0,0,1,4.759,12.615ZM2,14.384v2.188a.547.547,0,0,0,.547.547h9.3a.547.547,0,0,0,.547-.547V13.837a2.585,2.585,0,0,0-2.759-2.605l-4.938.29A2.894,2.894,0,0,0,2,14.384Z" transform="translate(-0.906 -5.087)" fill-rule="evenodd"/>
  <path id="Path_29677" data-name="Path 29677" d="M29.391,9.3A2.9,2.9,0,0,0,26.7,6.435l-4.938-.29A2.584,2.584,0,0,0,19,8.75v2.734a.547.547,0,0,0,.547.547h9.3a.547.547,0,0,0,.547-.547ZM28.3,10.938h-8.2V8.75a1.492,1.492,0,0,1,1.6-1.513l4.938.29A1.8,1.8,0,0,1,28.3,9.3Zm6.517-9.844H36a.869.869,0,0,1,.789.634l.7,3.194H33.347l.678-3.194a.857.857,0,0,1,.789-.634ZM32.954,1.5l-.817,3.854a.547.547,0,0,0,.535.661h5.469a.547.547,0,0,0,.535-.661L37.858,1.5A1.958,1.958,0,0,0,36,0H34.814A1.95,1.95,0,0,0,32.954,1.5Z" transform="translate(-8.609)" fill-rule="evenodd"/>
  <path id="Path_29678" data-name="Path 29678" d="M27.344,21.032V9.547a.547.547,0,0,0-1.094,0V21.032a.547.547,0,0,0,1.094,0ZM.547,23.219H31.173a.547.547,0,0,0,0-1.094H.547a.547.547,0,0,0,0,1.094Z" transform="translate(0 -4.078)" fill-rule="evenodd"/>
</svg>
