<svg xmlns="http://www.w3.org/2000/svg" width="23.14" height="17.364" viewBox="0 0 23.14 17.364">
  <g id="_04" data-name="04" transform="translate(0 -3)">
    <path id="Path_29688" data-name="Path 29688" d="M21.715,10.5v1.925A5.776,5.776,0,0,1,15.939,18.2H7.276A5.776,5.776,0,0,1,1.5,12.425V10.5" transform="translate(-0.037 -0.262)" fill="none" stroke="#000" stroke-linecap="round" stroke-linejoin="round" stroke-miterlimit="10" stroke-width="1"/>
    <path id="Path_29689" data-name="Path 29689" d="M5.313,10.425H1.463a.963.963,0,0,1,0-1.925H21.677a.963.963,0,1,1,0,1.925H11.089" transform="translate(0 -0.187)" fill="none" stroke="#000" stroke-linecap="round" stroke-linejoin="round" stroke-miterlimit="10" stroke-width="1"/>
    <path id="Path_29690" data-name="Path 29690" d="M21.388,8.313V4.944a1.444,1.444,0,1,0-2.888,0v.481" transform="translate(-0.673)" fill="none" stroke="#000" stroke-linecap="round" stroke-linejoin="round" stroke-miterlimit="10" stroke-width="1"/>
    <path id="Path_29691" data-name="Path 29691" d="M4.5,17.7v2.7h.963l1-2" transform="translate(-0.15 -0.531)" fill="none" stroke="#000" stroke-linecap="round" stroke-linejoin="round" stroke-miterlimit="10" stroke-width="1"/>
    <path id="Path_29692" data-name="Path 29692" d="M19.424,17.7v2.7h-.963l-1-2" transform="translate(-0.634 -0.531)" fill="none" stroke="#000" stroke-linecap="round" stroke-linejoin="round" stroke-miterlimit="10" stroke-width="1"/>
    <path id="Path_29693" data-name="Path 29693" d="M5.5,8.5v4.813l5.776.963V8.5" transform="translate(-0.187 -0.187)" fill="none" stroke="#000" stroke-linecap="round" stroke-linejoin="round" stroke-miterlimit="10" stroke-width="1"/>
  </g>
</svg>
