<svg xmlns="http://www.w3.org/2000/svg" width="24.994" height="24.995" viewBox="0 0 24.994 24.995">
  <g id="cancel" transform="translate(-2.144 -2.07)">
    <path id="Path_29694" data-name="Path 29694" d="M14.637,27.065a12.491,12.491,0,1,1,8.839-3.655,12.457,12.457,0,0,1-8.839,3.655Zm0-23a10.5,10.5,0,1,0,7.424,3.076A10.428,10.428,0,0,0,14.638,4.07Z" fill="#86959f"/>
    <path id="Path_29695" data-name="Path 29695" d="M10.4,19.813a1,1,0,0,1-.707-1.707l8.485-8.485a1,1,0,0,1,1.414,1.414L11.1,19.52a.993.993,0,0,1-.707.293Z" fill="#86959f"/>
    <path id="Path_29696" data-name="Path 29696" d="M18.88,19.813a1,1,0,0,1-.707-.293L9.688,11.035A1,1,0,0,1,11.1,9.621l8.485,8.485a1,1,0,0,1-.707,1.707Z" fill="#86959f"/>
  </g>
</svg>
