<svg xmlns="http://www.w3.org/2000/svg" width="21.693" height="27.7" viewBox="0 0 21.693 27.7">
  <g id="insurance" transform="translate(0.25 0.25)">
    <path id="Path_29698" data-name="Path 29698" d="M28.293,11.639a10.608,10.608,0,0,0-10.3-10.6V.292a.292.292,0,1,0-.584,0V1A10.672,10.672,0,0,0,7.1,11.639v.042a.358.358,0,0,0,.292.25.314.314,0,0,0,.292-.209c.083-.25.793-.626,1.836-.626s1.752.334,1.836.626v.042c0,.042.042.042.042.083a.319.319,0,0,0,.209.083h.083c.125-.042.167-.125.209-.25.459-.96,2.712-1.669,5.423-1.752v3a.292.292,0,1,0,.584,0v-3c2.753.042,5.048.793,5.465,1.794a.041.041,0,0,0,.042.042l.042.042a.146.146,0,0,0,.083.042h.042c.042,0,.083.042.125.042a.153.153,0,0,0,.125-.042c.042,0,.042-.042.083-.042a.041.041,0,0,0,.042-.042L24,11.723l.042-.042v-.042c.083-.25.793-.584,1.836-.584s1.752.334,1.836.626A.314.314,0,0,0,28,11.89h.083c.083-.042.167-.083.167-.167v-.042c.042,0,.042,0,.042-.042ZM9.52,10.513a3.812,3.812,0,0,0-1.794.375A10.1,10.1,0,0,1,15.026,2c-2.044,1.585-3.5,4.964-3.671,8.886a3.876,3.876,0,0,0-1.836-.375ZM17.7,9.345c-2.545,0-4.672.542-5.715,1.377.25-5.09,2.712-9.053,5.715-9.053s5.465,4,5.715,9.053c-1.043-.876-3.171-1.377-5.715-1.377Zm8.177,1.168a3.852,3.852,0,0,0-1.836.417c-.167-3.921-1.627-7.3-3.671-8.886a10,10,0,0,1,7.259,8.886,3.116,3.116,0,0,0-1.752-.417ZM18.155,22.194a.379.379,0,0,1,.167.334h.626a1.027,1.027,0,0,0-.375-.793,1.293,1.293,0,0,0-.542-.25v-.626H17.4v.584a1.092,1.092,0,0,0-.542.25,1.024,1.024,0,0,0,0,1.585,1.346,1.346,0,0,0,.876.334.627.627,0,0,1,.459.167.417.417,0,0,1,0,.667.751.751,0,0,1-.918,0,.379.379,0,0,1-.167-.334h-.626a1.027,1.027,0,0,0,.375.793,2.248,2.248,0,0,0,.542.292v.584h.626V25.2a.872.872,0,0,0,.542-.292,1.024,1.024,0,0,0,0-1.585,1.346,1.346,0,0,0-.876-.334.627.627,0,0,1-.459-.167.279.279,0,0,1-.167-.292.379.379,0,0,1,.167-.334.751.751,0,0,1,.918,0Z" transform="translate(-7.1)" fill="#86959f" stroke="#86959f" stroke-width="0.5"/>
    <path id="Path_29699" data-name="Path 29699" d="M25.082,32.3c-2.294,0-4.047.793-4.047,1.877v4.255h-.292a3.242,3.242,0,0,0-.667.083V36.6c0-1.043-1.669-1.877-3.838-1.877S12.4,35.512,12.4,36.6v7.551c0,1.043,1.669,1.877,3.838,1.877a6.489,6.489,0,0,0,2.67-.5,3.509,3.509,0,0,0,1.877.5,3.835,3.835,0,0,0,1.71-.417,8,8,0,0,0,2.586.417c2.294,0,4.047-.793,4.047-1.877V34.177C29.129,33.093,27.418,32.3,25.082,32.3Zm-8.8,3c1.836,0,3.212.667,3.212,1.252s-1.377,1.252-3.212,1.252-3.212-.667-3.212-1.252S14.444,35.3,16.28,35.3ZM13.067,37.6a5.579,5.579,0,0,0,3.212.834,5.579,5.579,0,0,0,3.212-.834v1.043a3.748,3.748,0,0,0-1.877,1.5,6.9,6.9,0,0,1-1.335.125c-1.836,0-3.212-.667-3.212-1.252V37.6Zm0,2.461a5.579,5.579,0,0,0,3.212.834,8.1,8.1,0,0,0,1-.083,3.614,3.614,0,0,0-.25,1.335,2.754,2.754,0,0,0,.042.584,4.79,4.79,0,0,1-.793.042c-1.836,0-3.212-.667-3.212-1.252V40.06Zm3.212,5.256c-1.836,0-3.212-.667-3.212-1.252V42.6a5.579,5.579,0,0,0,3.212.834c.334,0,.626-.042.918-.042a3.833,3.833,0,0,0,1.126,1.669,9.781,9.781,0,0,1-2.044.25Zm1.335-3.171a3.171,3.171,0,1,1,3.171,3.171,3.169,3.169,0,0,1-3.171-3.171Zm7.467,3.171a6.689,6.689,0,0,1-1.919-.25,3.967,3.967,0,0,0,1.126-1.5,5.319,5.319,0,0,0,.834.042,6.245,6.245,0,0,0,3.421-.834v1.293c-.042.584-1.5,1.252-3.463,1.252Zm0-2.336a3.158,3.158,0,0,1-.626-.042,5.111,5.111,0,0,0,.083-.793,3.514,3.514,0,0,0-.167-1.126c.25,0,.459.042.709.042a6.245,6.245,0,0,0,3.421-.834V41.77C28.5,42.354,27.043,42.98,25.082,42.98Zm0-2.5c-.334,0-.667-.042-.96-.042a3.707,3.707,0,0,0-2.461-1.919v-.793a6.245,6.245,0,0,0,3.421.834,6.245,6.245,0,0,0,3.421-.834v1.5C28.5,39.809,27.043,40.477,25.082,40.477Zm0-2.545c-1.961,0-3.421-.667-3.421-1.252v-1.5a6.245,6.245,0,0,0,3.421.834,6.245,6.245,0,0,0,3.421-.834v1.5C28.5,37.264,27.043,37.932,25.082,37.932Zm0-2.545c-1.961,0-3.421-.667-3.421-1.252s1.46-1.252,3.421-1.252,3.421.667,3.421,1.252C28.5,34.761,27.043,35.387,25.082,35.387Z" transform="translate(-10.189 -18.825)" fill="#86959f" stroke="#86959f" stroke-width="0.5"/>
  </g>
</svg>
