<svg xmlns="http://www.w3.org/2000/svg" width="22.344" height="22.343" viewBox="0 0 22.344 22.343">
  <g id="no_smoking" data-name="no smoking" transform="translate(-1.994 -1.996)">
    <path id="Path_29602" data-name="Path 29602" d="M23.542,17.956H5.191a.8.8,0,0,1-.8-.8V13.967a.8.8,0,0,1,.8-.8H23.542a.8.8,0,0,1,.8.8v3.191A.8.8,0,0,1,23.542,17.956ZM5.989,16.36H22.744v-1.6H5.989ZM2.8,17.956a.8.8,0,0,1-.8-.8V13.967a.8.8,0,0,1,1.6,0v3.191A.8.8,0,0,1,2.8,17.956Zm0-5.585a.8.8,0,0,1-.479-1.436L3.6,9.978a1.316,1.316,0,0,0,.511-.949,1.3,1.3,0,0,0-.375-1.013,2.888,2.888,0,0,1,0-4.085l1.691-1.7A.8.8,0,0,1,6.556,3.363L4.84,5.071a1.308,1.308,0,0,0,0,1.835,2.918,2.918,0,0,1-.3,4.388l-1.261.918A.8.8,0,0,1,2.8,12.371Z" transform="translate(-0.001 0)" fill="#f54748"/>
    <path id="Path_29603" data-name="Path 29603" d="M2.8,25.148a.8.8,0,0,1-.566-1.364L19.783,6.231a.8.8,0,1,1,1.133,1.133L3.363,24.916A.8.8,0,0,1,2.8,25.148Z" transform="translate(0 -0.809)" fill="#f54748"/>
  </g>
</svg>
