<svg xmlns="http://www.w3.org/2000/svg" width="23" height="23.009" viewBox="0 0 23 23.009">
  <g id="pet" transform="translate(-0.5 -0.5)">
    <path id="Path_29697" data-name="Path 29697" d="M12,11.5c2.8,0,2.9,3.2,3.5,4,1.1,1.5,3,2.4,3,4.5a2.326,2.326,0,0,1-2,2.5H16c-1.9,0-2.3-1.3-4-1.3h0c-1.7,0-2.1,1.3-4,1.3a2.326,2.326,0,0,1-2.5-2V20c0-2.1,1.9-3,3-4.5C9.1,14.7,9.2,11.5,12,11.5Zm10.4,1a2.769,2.769,0,0,0,.1-.9c0-1.2-.6-2.1-1.4-2.1-1.1,0-2.2,1.3-2.5,3a2.769,2.769,0,0,0-.1.9c0,1.2.6,2.1,1.4,2.1C21,15.5,22.1,14.2,22.4,12.5ZM18.4,5c0-.3.1-.5.1-.8,0-1.6-.7-2.7-1.9-2.7-1.3,0-2.7,1.6-3.1,3.5,0,.3-.1.5-.1.8,0,1.6.7,2.7,1.9,2.7C16.7,8.5,18.1,6.9,18.4,5ZM1.6,12.5a2.769,2.769,0,0,1-.1-.9c0-1.2.6-2.1,1.4-2.1,1.1,0,2.2,1.3,2.5,3a2.769,2.769,0,0,1,.1.9c0,1.2-.6,2.1-1.4,2.1-1.1,0-2.2-1.3-2.5-3ZM5.6,5c0-.3-.1-.5-.1-.8,0-1.6.7-2.7,1.9-2.7,1.3,0,2.7,1.6,3.1,3.5,0,.3.1.5.1.8,0,1.6-.7,2.7-1.9,2.7C7.3,8.5,5.9,6.9,5.6,5Z" fill="none" stroke="#86959f" stroke-linecap="round" stroke-linejoin="round" stroke-width="2"/>
  </g>
</svg>
